<svg xmlns="http://www.w3.org/2000/svg" xmlns:xlink="http://www.w3.org/1999/xlink" width="75" zoomAndPan="magnify" viewBox="0 0 56.25 56.249997" height="75" preserveAspectRatio="xMidYMid meet" version="1.0"><defs><clipPath id="38d38ef782"><path d="M 3.582031 34 L 51.691406 34 L 51.691406 55.511719 L 3.582031 55.511719 Z M 3.582031 34 " clip-rule="nonzero"/></clipPath></defs><path fill="#d5d2ca" d="M 27.640625 41.066406 C 29.304688 41.066406 31.003906 39.910156 31.039062 37.699219 L 31.039062 12.234375 L 35.578125 16.796875 C 37.160156 18.335938 39.179688 17.941406 40.355469 16.757812 C 41.53125 15.578125 41.921875 13.550781 40.378906 11.949219 L 30.046875 1.566406 C 29.773438 1.292969 29.445312 1.070312 29.03125 0.882812 C 27.746094 0.308594 26.21875 0.582031 25.230469 1.5625 L 14.914062 11.929688 C 13.917969 12.863281 13.628906 14.328125 14.175781 15.660156 C 14.714844 16.964844 15.898438 17.789062 17.191406 17.789062 C 18.097656 17.792969 19.039062 17.457031 19.707031 16.785156 L 24.234375 12.234375 L 24.234375 37.699219 C 24.265625 39.910156 25.972656 41.066406 27.640625 41.066406 Z M 27.640625 41.066406 " fill-opacity="1" fill-rule="nonzero"/><g clip-path="url(#38d38ef782)"><path fill="#d5d2ca" d="M 3.558594 37.6875 L 3.558594 41.46875 C 3.558594 49.082031 9.722656 55.277344 17.296875 55.277344 L 37.976562 55.277344 C 45.550781 55.277344 51.714844 49.082031 51.714844 41.46875 L 51.714844 37.6875 C 51.714844 35.800781 50.1875 34.265625 48.3125 34.265625 C 46.4375 34.265625 44.910156 35.800781 44.910156 37.6875 L 44.910156 41.46875 C 44.910156 45.3125 41.800781 48.4375 37.976562 48.4375 L 17.296875 48.4375 C 13.476562 48.4375 10.363281 45.3125 10.363281 41.46875 L 10.363281 37.6875 C 10.363281 35.800781 8.835938 34.265625 6.960938 34.265625 C 5.085938 34.265625 3.558594 35.800781 3.558594 37.6875 Z M 3.558594 37.6875 " fill-opacity="1" fill-rule="nonzero"/></g></svg>