<svg xmlns="http://www.w3.org/2000/svg" xmlns:xlink="http://www.w3.org/1999/xlink" width="75" zoomAndPan="magnify" viewBox="0 0 56.25 56.249997" height="75" preserveAspectRatio="xMidYMid meet" version="1.0"><defs><clipPath id="936a45b485"><path d="M 3.9375 33 L 51.304688 33 L 51.304688 54.769531 L 3.9375 54.769531 Z M 3.9375 33 " clip-rule="nonzero"/></clipPath></defs><path fill="#ff385c" d="M 27.621094 40.523438 C 27.625 40.523438 27.625 40.523438 27.625 40.523438 C 29.261719 40.523438 30.933594 39.382812 30.972656 37.199219 L 30.972656 12.070312 L 35.441406 16.570312 C 36.996094 18.089844 38.984375 17.699219 40.144531 16.535156 C 41.300781 15.367188 41.6875 13.367188 40.167969 11.789062 L 29.992188 1.539062 C 29.726562 1.269531 29.402344 1.050781 28.992188 0.863281 C 27.726562 0.300781 26.226562 0.570312 25.253906 1.539062 L 15.09375 11.769531 C 14.113281 12.691406 13.828125 14.136719 14.367188 15.449219 C 14.898438 16.738281 16.066406 17.550781 17.335938 17.550781 C 18.226562 17.550781 19.152344 17.222656 19.8125 16.558594 L 24.269531 12.070312 L 24.269531 37.199219 C 24.300781 39.378906 25.984375 40.519531 27.621094 40.523438 Z M 27.621094 40.523438 " fill-opacity="1" fill-rule="nonzero"/><g clip-path="url(#936a45b485)"><path fill="#ff385c" d="M 3.914062 37.183594 L 3.914062 40.917969 C 3.914062 48.433594 9.980469 54.546875 17.441406 54.546875 L 37.800781 54.546875 C 45.261719 54.546875 51.328125 48.433594 51.328125 40.917969 L 51.328125 37.183594 C 51.328125 35.324219 49.828125 33.8125 47.980469 33.8125 C 46.132812 33.8125 44.628906 35.324219 44.628906 37.183594 L 44.628906 40.917969 C 44.628906 44.710938 41.566406 47.796875 37.800781 47.796875 L 17.441406 47.796875 C 13.675781 47.796875 10.613281 44.710938 10.613281 40.917969 L 10.613281 37.183594 C 10.613281 35.324219 9.109375 33.8125 7.261719 33.8125 C 5.414062 33.8125 3.914062 35.324219 3.914062 37.183594 Z M 3.914062 37.183594 " fill-opacity="1" fill-rule="nonzero"/></g></svg>