<svg xmlns="http://www.w3.org/2000/svg" xmlns:xlink="http://www.w3.org/1999/xlink" width="75" zoomAndPan="magnify" viewBox="0 0 56.25 56.249997" height="75" preserveAspectRatio="xMidYMid meet" version="1.0"><defs><clipPath id="92ad58ac82"><path d="M 0 0 L 55.511719 0 L 55.511719 55.511719 L 0 55.511719 Z M 0 0 " clip-rule="nonzero"/></clipPath></defs><g clip-path="url(#92ad58ac82)"><path fill="#1a4789" d="M 55.511719 27.753906 C 55.511719 28.664062 55.46875 29.570312 55.378906 30.476562 C 55.289062 31.378906 55.15625 32.277344 54.980469 33.171875 C 54.800781 34.0625 54.582031 34.941406 54.316406 35.8125 C 54.054688 36.683594 53.746094 37.539062 53.398438 38.378906 C 53.050781 39.21875 52.664062 40.039062 52.234375 40.839844 C 51.808594 41.640625 51.339844 42.417969 50.835938 43.175781 C 50.328125 43.929688 49.789062 44.660156 49.210938 45.363281 C 48.636719 46.066406 48.027344 46.738281 47.382812 47.382812 C 46.742188 48.023438 46.066406 48.632812 45.363281 49.210938 C 44.664062 49.789062 43.933594 50.328125 43.175781 50.832031 C 42.421875 51.339844 41.644531 51.804688 40.839844 52.234375 C 40.039062 52.660156 39.21875 53.050781 38.378906 53.398438 C 37.539062 53.746094 36.683594 54.050781 35.8125 54.316406 C 34.945312 54.578125 34.0625 54.800781 33.171875 54.976562 C 32.28125 55.15625 31.382812 55.289062 30.476562 55.378906 C 29.574219 55.464844 28.667969 55.511719 27.757812 55.511719 C 26.847656 55.511719 25.941406 55.464844 25.035156 55.378906 C 24.132812 55.289062 23.234375 55.15625 22.34375 54.976562 C 21.449219 54.800781 20.570312 54.578125 19.699219 54.316406 C 18.832031 54.050781 17.976562 53.746094 17.136719 53.398438 C 16.296875 53.050781 15.476562 52.660156 14.671875 52.234375 C 13.871094 51.804688 13.09375 51.339844 12.335938 50.832031 C 11.582031 50.328125 10.851562 49.789062 10.148438 49.210938 C 9.445312 48.632812 8.773438 48.023438 8.132812 47.382812 C 7.488281 46.738281 6.878906 46.066406 6.300781 45.363281 C 5.726562 44.660156 5.183594 43.929688 4.679688 43.175781 C 4.175781 42.417969 3.707031 41.640625 3.28125 40.839844 C 2.851562 40.039062 2.460938 39.21875 2.113281 38.378906 C 1.765625 37.539062 1.460938 36.683594 1.199219 35.8125 C 0.933594 34.941406 0.710938 34.0625 0.535156 33.171875 C 0.359375 32.277344 0.226562 31.378906 0.136719 30.476562 C 0.046875 29.570312 0.00390625 28.664062 0.00390625 27.753906 C 0.00390625 26.847656 0.046875 25.941406 0.136719 25.035156 C 0.226562 24.128906 0.359375 23.230469 0.535156 22.339844 C 0.710938 21.449219 0.933594 20.570312 1.199219 19.699219 C 1.460938 18.828125 1.765625 17.972656 2.113281 17.132812 C 2.460938 16.292969 2.851562 15.472656 3.28125 14.671875 C 3.707031 13.871094 4.175781 13.089844 4.679688 12.335938 C 5.183594 11.578125 5.726562 10.851562 6.300781 10.148438 C 6.878906 9.445312 7.488281 8.773438 8.132812 8.128906 C 8.773438 7.488281 9.445312 6.878906 10.148438 6.300781 C 10.851562 5.722656 11.582031 5.183594 12.335938 4.679688 C 13.09375 4.171875 13.871094 3.707031 14.671875 3.277344 C 15.476562 2.847656 16.296875 2.460938 17.136719 2.113281 C 17.976562 1.765625 18.832031 1.460938 19.699219 1.195312 C 20.570312 0.933594 21.449219 0.710938 22.34375 0.535156 C 23.234375 0.355469 24.132812 0.222656 25.035156 0.132812 C 25.941406 0.046875 26.847656 0 27.757812 0 C 28.667969 0 29.574219 0.046875 30.476562 0.132812 C 31.382812 0.222656 32.28125 0.355469 33.171875 0.535156 C 34.0625 0.710938 34.945312 0.933594 35.8125 1.195312 C 36.683594 1.460938 37.539062 1.765625 38.378906 2.113281 C 39.21875 2.460938 40.039062 2.847656 40.839844 3.277344 C 41.644531 3.707031 42.421875 4.171875 43.175781 4.679688 C 43.933594 5.183594 44.664062 5.722656 45.363281 6.300781 C 46.066406 6.878906 46.742188 7.488281 47.382812 8.128906 C 48.027344 8.773438 48.636719 9.445312 49.210938 10.148438 C 49.789062 10.851562 50.328125 11.578125 50.835938 12.335938 C 51.339844 13.089844 51.808594 13.871094 52.234375 14.671875 C 52.664062 15.472656 53.050781 16.292969 53.398438 17.132812 C 53.746094 17.972656 54.054688 18.828125 54.316406 19.699219 C 54.582031 20.570312 54.800781 21.449219 54.980469 22.339844 C 55.15625 23.230469 55.289062 24.128906 55.378906 25.035156 C 55.46875 25.941406 55.511719 26.847656 55.511719 27.753906 Z M 55.511719 27.753906 " fill-opacity="1" fill-rule="nonzero"/></g><path fill="#ffffff" d="M 34.722656 29.183594 L 35.507812 23.097656 L 29.484375 23.097656 L 29.484375 19.214844 C 29.484375 17.453125 29.976562 16.25 32.5 16.25 L 35.71875 16.25 L 35.71875 10.808594 C 35.164062 10.734375 33.253906 10.566406 31.027344 10.566406 C 26.378906 10.566406 23.203125 13.402344 23.203125 18.613281 L 23.203125 23.097656 L 17.945312 23.097656 L 17.945312 29.183594 L 23.203125 29.183594 L 23.203125 44.796875 L 29.484375 44.796875 L 29.484375 29.183594 Z M 34.722656 29.183594 " fill-opacity="1" fill-rule="nonzero"/></svg>