<svg xmlns="http://www.w3.org/2000/svg" xmlns:xlink="http://www.w3.org/1999/xlink" width="75" zoomAndPan="magnify" viewBox="0 0 56.25 56.249997" height="75" preserveAspectRatio="xMidYMid meet" version="1.0"><defs><clipPath id="7762f41123"><path d="M 0 0 L 55.511719 0 L 55.511719 55.511719 L 0 55.511719 Z M 0 0 " clip-rule="nonzero"/></clipPath></defs><g clip-path="url(#7762f41123)"><path fill="#ff385c" d="M 27.753906 55.511719 C 43.082031 55.511719 55.511719 43.082031 55.511719 27.753906 C 55.511719 12.425781 43.082031 0 27.753906 0 C 12.425781 0 0 12.425781 0 27.753906 C 0 43.082031 12.425781 55.511719 27.753906 55.511719 Z M 15.148438 15.945312 L 27.753906 26.03125 L 40.359375 15.945312 L 40.726562 15.644531 L 14.785156 15.644531 Z M 42.074219 18.023438 L 42.558594 17.621094 L 42.558594 38.519531 C 42.558594 39.261719 41.957031 39.867188 41.210938 39.867188 L 14.296875 39.867188 C 13.554688 39.867188 12.953125 39.261719 12.953125 38.519531 L 12.953125 17.621094 L 13.4375 18.023438 L 26.914062 28.804688 C 27.40625 29.199219 28.105469 29.199219 28.59375 28.804688 L 42.050781 18.039062 Z M 42.074219 18.023438 " fill-opacity="1" fill-rule="evenodd"/></g></svg>