<svg xmlns="http://www.w3.org/2000/svg" xmlns:xlink="http://www.w3.org/1999/xlink" width="75" zoomAndPan="magnify" viewBox="0 0 56.25 56.249997" height="75" preserveAspectRatio="xMidYMid meet" version="1.0"><defs><clipPath id="dd58e99366"><path d="M 0 0 L 55.511719 0 L 55.511719 55.511719 L 0 55.511719 Z M 0 0 " clip-rule="nonzero"/></clipPath></defs><g clip-path="url(#dd58e99366)"><path fill="#1b9df0" d="M 55.511719 27.753906 C 55.511719 28.664062 55.464844 29.570312 55.375 30.476562 C 55.289062 31.378906 55.152344 32.277344 54.976562 33.167969 C 54.800781 34.0625 54.578125 34.941406 54.316406 35.8125 C 54.050781 36.679688 53.746094 37.535156 53.398438 38.375 C 53.050781 39.214844 52.660156 40.035156 52.234375 40.839844 C 51.804688 41.640625 51.335938 42.417969 50.832031 43.175781 C 50.328125 43.929688 49.785156 44.660156 49.210938 45.363281 C 48.632812 46.066406 48.023438 46.738281 47.378906 47.378906 C 46.738281 48.023438 46.066406 48.632812 45.363281 49.210938 C 44.660156 49.785156 43.929688 50.328125 43.175781 50.832031 C 42.417969 51.335938 41.640625 51.804688 40.839844 52.234375 C 40.035156 52.660156 39.214844 53.050781 38.375 53.398438 C 37.535156 53.746094 36.679688 54.050781 35.8125 54.316406 C 34.941406 54.578125 34.0625 54.800781 33.167969 54.976562 C 32.277344 55.152344 31.378906 55.289062 30.476562 55.375 C 29.570312 55.464844 28.664062 55.511719 27.753906 55.511719 C 26.847656 55.511719 25.9375 55.464844 25.035156 55.375 C 24.128906 55.289062 23.230469 55.152344 22.339844 54.976562 C 21.449219 54.800781 20.566406 54.578125 19.699219 54.316406 C 18.828125 54.050781 17.972656 53.746094 17.132812 53.398438 C 16.292969 53.050781 15.472656 52.660156 14.671875 52.234375 C 13.871094 51.804688 13.089844 51.335938 12.335938 50.832031 C 11.578125 50.328125 10.851562 49.785156 10.148438 49.210938 C 9.445312 48.632812 8.773438 48.023438 8.128906 47.378906 C 7.488281 46.738281 6.875 46.066406 6.300781 45.363281 C 5.722656 44.660156 5.183594 43.929688 4.675781 43.175781 C 4.171875 42.417969 3.707031 41.640625 3.277344 40.839844 C 2.847656 40.035156 2.460938 39.214844 2.113281 38.375 C 1.765625 37.535156 1.460938 36.679688 1.195312 35.8125 C 0.929688 34.941406 0.710938 34.0625 0.535156 33.167969 C 0.355469 32.277344 0.222656 31.378906 0.132812 30.476562 C 0.0429688 29.570312 0 28.664062 0 27.753906 C 0 26.847656 0.0429688 25.9375 0.132812 25.035156 C 0.222656 24.128906 0.355469 23.230469 0.535156 22.339844 C 0.710938 21.449219 0.929688 20.566406 1.195312 19.699219 C 1.460938 18.828125 1.765625 17.972656 2.113281 17.132812 C 2.460938 16.292969 2.847656 15.472656 3.277344 14.671875 C 3.707031 13.871094 4.171875 13.089844 4.675781 12.335938 C 5.183594 11.578125 5.722656 10.851562 6.300781 10.148438 C 6.875 9.445312 7.488281 8.773438 8.128906 8.128906 C 8.773438 7.488281 9.445312 6.875 10.148438 6.300781 C 10.851562 5.722656 11.578125 5.183594 12.335938 4.675781 C 13.089844 4.171875 13.871094 3.707031 14.671875 3.277344 C 15.472656 2.847656 16.292969 2.460938 17.132812 2.113281 C 17.972656 1.765625 18.828125 1.460938 19.699219 1.195312 C 20.566406 0.929688 21.449219 0.710938 22.339844 0.535156 C 23.230469 0.355469 24.128906 0.222656 25.035156 0.132812 C 25.9375 0.0429688 26.847656 0 27.753906 0 C 28.664062 0 29.570312 0.0429688 30.476562 0.132812 C 31.378906 0.222656 32.277344 0.355469 33.167969 0.535156 C 34.0625 0.710938 34.941406 0.929688 35.8125 1.195312 C 36.679688 1.460938 37.535156 1.765625 38.375 2.113281 C 39.214844 2.460938 40.035156 2.847656 40.839844 3.277344 C 41.640625 3.707031 42.417969 4.171875 43.175781 4.675781 C 43.929688 5.183594 44.660156 5.722656 45.363281 6.300781 C 46.066406 6.875 46.738281 7.488281 47.378906 8.128906 C 48.023438 8.773438 48.632812 9.445312 49.210938 10.148438 C 49.785156 10.851562 50.328125 11.578125 50.832031 12.335938 C 51.335938 13.089844 51.804688 13.871094 52.234375 14.671875 C 52.660156 15.472656 53.050781 16.292969 53.398438 17.132812 C 53.746094 17.972656 54.050781 18.828125 54.316406 19.699219 C 54.578125 20.566406 54.800781 21.449219 54.976562 22.339844 C 55.152344 23.230469 55.289062 24.128906 55.375 25.035156 C 55.464844 25.9375 55.511719 26.847656 55.511719 27.753906 Z M 55.511719 27.753906 " fill-opacity="1" fill-rule="nonzero"/></g><path fill="#ffffff" d="M 22.675781 42.394531 C 34.984375 42.394531 41.714844 32.195312 41.714844 23.355469 C 41.714844 23.0625 41.714844 22.773438 41.703125 22.496094 C 43.007812 21.550781 44.144531 20.371094 45.046875 19.027344 C 43.851562 19.554688 42.5625 19.914062 41.203125 20.082031 C 42.589844 19.246094 43.644531 17.945312 44.144531 16.375 C 42.855469 17.136719 41.425781 17.695312 39.898438 18 C 38.675781 16.695312 36.941406 15.890625 35.011719 15.890625 C 31.320312 15.890625 28.324219 18.886719 28.324219 22.578125 C 28.324219 23.105469 28.378906 23.621094 28.503906 24.105469 C 22.9375 23.828125 18.011719 21.164062 14.710938 17.109375 C 14.140625 18.097656 13.808594 19.246094 13.808594 20.46875 C 13.808594 22.785156 14.988281 24.839844 16.792969 26.035156 C 15.695312 26.007812 14.667969 25.699219 13.765625 25.203125 C 13.765625 25.230469 13.765625 25.257812 13.765625 25.285156 C 13.765625 28.53125 16.070312 31.222656 19.136719 31.847656 C 18.582031 32 17.984375 32.085938 17.375 32.085938 C 16.945312 32.085938 16.527344 32.042969 16.113281 31.960938 C 16.957031 34.625 19.429688 36.554688 22.355469 36.609375 C 20.066406 38.398438 17.179688 39.46875 14.042969 39.46875 C 13.503906 39.46875 12.976562 39.441406 12.449219 39.371094 C 15.375 41.285156 18.902344 42.394531 22.675781 42.394531 " fill-opacity="1" fill-rule="nonzero"/></svg>