<svg xmlns="http://www.w3.org/2000/svg" xmlns:xlink="http://www.w3.org/1999/xlink" width="75" zoomAndPan="magnify" viewBox="0 0 56.25 56.249997" height="75" preserveAspectRatio="xMidYMid meet" version="1.0"><defs><clipPath id="4c13b20cdc"><path d="M 15.039062 0 L 40.203125 0 L 40.203125 55.511719 L 15.039062 55.511719 Z M 15.039062 0 " clip-rule="nonzero"/></clipPath></defs><g clip-path="url(#4c13b20cdc)"><path fill="#999990" d="M 40.234375 18.09375 L 31.648438 18.09375 L 31.648438 12.398438 C 31.648438 10.261719 33.046875 9.765625 34.035156 9.765625 C 35.019531 9.765625 40.097656 9.765625 40.097656 9.765625 L 40.097656 0.367188 L 31.75 0.335938 C 22.484375 0.335938 20.375 7.34375 20.375 11.828125 L 20.375 18.09375 L 15.015625 18.09375 L 15.015625 27.777344 L 20.375 27.777344 C 20.375 40.203125 20.375 55.179688 20.375 55.179688 L 31.648438 55.179688 C 31.648438 55.179688 31.648438 40.058594 31.648438 27.777344 L 39.253906 27.777344 Z M 40.234375 18.09375 " fill-opacity="1" fill-rule="nonzero"/></g></svg>