<svg xmlns="http://www.w3.org/2000/svg" xmlns:xlink="http://www.w3.org/1999/xlink" width="75" zoomAndPan="magnify" viewBox="0 0 56.25 56.249997" height="75" preserveAspectRatio="xMidYMid meet" version="1.0"><defs><clipPath id="859118d359"><path d="M 0 0 L 55.511719 0 L 55.511719 55.511719 L 0 55.511719 Z M 0 0 " clip-rule="nonzero"/></clipPath></defs><g clip-path="url(#859118d359)"><path fill="#999990" d="M 27.742188 5.003906 C 35.148438 5.003906 36.027344 5.027344 38.957031 5.164062 C 41.65625 5.285156 43.128906 5.734375 44.113281 6.125 C 45.402344 6.621094 46.328125 7.230469 47.300781 8.203125 C 48.273438 9.175781 48.867188 10.101562 49.378906 11.390625 C 49.757812 12.363281 50.207031 13.835938 50.339844 16.546875 C 50.472656 19.476562 50.5 20.355469 50.5 27.761719 C 50.5 35.167969 50.472656 36.042969 50.339844 38.976562 C 50.21875 41.675781 49.769531 43.148438 49.378906 44.132812 C 48.882812 45.421875 48.273438 46.34375 47.300781 47.320312 C 46.328125 48.292969 45.402344 48.886719 44.113281 49.398438 C 43.140625 49.773438 41.667969 50.226562 38.957031 50.359375 C 36.027344 50.492188 35.148438 50.515625 27.742188 50.515625 C 20.335938 50.515625 19.460938 50.492188 16.527344 50.359375 C 13.828125 50.238281 12.355469 49.789062 11.371094 49.398438 C 10.082031 48.898438 9.160156 48.292969 8.183594 47.320312 C 7.210938 46.34375 6.617188 45.421875 6.105469 44.132812 C 5.730469 43.160156 5.277344 41.6875 5.144531 38.976562 C 5.011719 36.042969 4.988281 35.167969 4.988281 27.761719 C 4.988281 20.355469 5.011719 19.476562 5.144531 16.546875 C 5.265625 13.847656 5.714844 12.375 6.105469 11.390625 C 6.605469 10.101562 7.210938 9.175781 8.183594 8.203125 C 9.160156 7.230469 10.082031 6.632812 11.371094 6.125 C 12.34375 5.746094 13.816406 5.296875 16.527344 5.164062 C 19.460938 5.027344 20.335938 5.003906 27.742188 5.003906 M 27.742188 0.0078125 C 20.203125 0.0078125 19.265625 0.0429688 16.296875 0.175781 C 13.34375 0.308594 11.324219 0.785156 9.558594 1.464844 C 7.734375 2.171875 6.191406 3.121094 4.644531 4.664062 C 3.113281 6.207031 2.164062 7.753906 1.460938 9.578125 C 0.777344 11.339844 0.304688 13.359375 0.171875 16.316406 C 0.0351562 19.273438 0 20.21875 0 27.75 C 0 35.289062 0.0351562 36.226562 0.171875 39.195312 C 0.304688 42.148438 0.777344 44.167969 1.460938 45.933594 C 2.164062 47.757812 3.113281 49.300781 4.660156 50.84375 C 6.203125 52.390625 7.746094 53.339844 9.570312 54.042969 C 11.335938 54.726562 13.355469 55.199219 16.308594 55.332031 C 19.265625 55.46875 20.214844 55.503906 27.753906 55.503906 C 35.296875 55.503906 36.230469 55.46875 39.199219 55.332031 C 42.15625 55.199219 44.175781 54.726562 45.9375 54.042969 C 47.761719 53.339844 49.308594 52.390625 50.851562 50.84375 C 52.394531 49.300781 53.34375 47.757812 54.050781 45.933594 C 54.730469 44.167969 55.207031 42.148438 55.339844 39.195312 C 55.472656 36.238281 55.511719 35.289062 55.511719 27.75 C 55.511719 20.207031 55.472656 19.273438 55.339844 16.304688 C 55.207031 13.347656 54.730469 11.328125 54.050781 9.566406 C 53.34375 7.742188 52.394531 6.195312 50.851562 4.652344 C 49.308594 3.109375 47.761719 2.160156 45.9375 1.453125 C 44.175781 0.773438 42.15625 0.296875 39.199219 0.164062 C 36.230469 0.0429688 35.285156 0.0078125 27.742188 0.0078125 " fill-opacity="1" fill-rule="nonzero"/></g><path fill="#999990" d="M 27.742188 13.507812 C 19.875 13.507812 13.5 19.878906 13.5 27.75 C 13.5 35.617188 19.886719 42.003906 27.753906 42.003906 C 35.625 42.003906 42.007812 35.628906 42.007812 27.75 C 41.996094 19.878906 35.613281 13.507812 27.742188 13.507812 M 27.742188 37.003906 C 22.632812 37.003906 18.5 32.871094 18.5 27.761719 C 18.5 22.652344 22.632812 18.515625 27.742188 18.515625 C 32.851562 18.515625 36.984375 22.652344 36.984375 27.761719 C 37 32.855469 32.851562 37.003906 27.742188 37.003906 " fill-opacity="1" fill-rule="nonzero"/><path fill="#999990" d="M 45.890625 12.945312 C 45.890625 14.785156 44.394531 16.28125 42.558594 16.28125 C 40.71875 16.28125 39.222656 14.785156 39.222656 12.945312 C 39.222656 11.109375 40.71875 9.613281 42.558594 9.613281 C 44.394531 9.613281 45.890625 11.097656 45.890625 12.945312 " fill-opacity="1" fill-rule="nonzero"/></svg>