<svg xmlns="http://www.w3.org/2000/svg" xmlns:xlink="http://www.w3.org/1999/xlink" width="75" zoomAndPan="magnify" viewBox="0 0 56.25 56.249997" height="75" preserveAspectRatio="xMidYMid meet" version="1.0"><defs><clipPath id="450415f942"><path d="M 0 0 L 55.511719 0 L 55.511719 55.511719 L 0 55.511719 Z M 0 0 " clip-rule="nonzero"/></clipPath></defs><g clip-path="url(#450415f942)"><path fill="#999990" d="M 55.511719 47.800781 C 55.511719 52.058594 52.058594 55.511719 47.800781 55.511719 L 7.710938 55.511719 C 3.453125 55.511719 0 52.058594 0 47.800781 L 0 7.710938 C 0 3.449219 3.453125 0 7.710938 0 L 47.800781 0 C 52.058594 0 55.511719 3.449219 55.511719 7.710938 Z M 55.511719 47.800781 " fill-opacity="1" fill-rule="nonzero"/></g><path fill="#ffffff" d="M 47.027344 30.066406 C 46.601562 28.550781 45.347656 27.355469 43.753906 26.949219 C 40.871094 26.214844 27.753906 26.214844 27.753906 26.214844 C 27.753906 26.214844 14.640625 26.214844 11.753906 26.949219 C 10.164062 27.355469 8.90625 28.550781 8.480469 30.066406 C 7.710938 32.8125 7.710938 38.546875 7.710938 38.546875 C 7.710938 38.546875 7.710938 44.28125 8.480469 47.03125 C 8.90625 48.546875 10.160156 49.742188 11.753906 50.148438 C 14.640625 50.882812 27.753906 50.882812 27.753906 50.882812 C 27.753906 50.882812 40.867188 50.882812 43.753906 50.148438 C 45.347656 49.742188 46.601562 48.546875 47.027344 47.03125 C 47.800781 44.28125 47.800781 38.546875 47.800781 38.546875 C 47.800781 38.546875 47.800781 32.8125 47.027344 30.066406 Z M 47.027344 30.066406 " fill-opacity="1" fill-rule="nonzero"/><path fill="#999990" d="M 15.933594 47.800781 L 13.363281 47.800781 L 13.363281 31.847656 L 10.792969 31.847656 L 10.792969 29.296875 L 18.503906 29.296875 L 18.503906 31.847656 L 15.933594 31.847656 Z M 26.214844 47.800781 L 23.898438 47.800781 L 23.640625 46.054688 C 22.628906 47.152344 21.421875 47.800781 20.480469 47.800781 C 19.660156 47.800781 19.082031 47.445312 18.796875 46.792969 C 18.632812 46.386719 18.503906 45.777344 18.503906 44.859375 L 18.503906 33.152344 L 21.074219 33.152344 L 21.074219 45.113281 C 21.136719 45.484375 21.410156 45.621094 21.742188 45.621094 C 22.253906 45.621094 23.078125 45.0625 23.640625 44.320312 L 23.640625 33.152344 L 26.214844 33.152344 Z M 44.714844 41.113281 L 44.714844 36.949219 C 44.714844 35.75 44.421875 34.886719 43.894531 34.324219 C 43.1875 33.558594 42.171875 33.152344 40.898438 33.152344 C 39.601562 33.152344 38.597656 33.558594 37.867188 34.324219 C 37.316406 34.882812 37.007812 35.800781 37.007812 37 L 37.007812 44.082031 C 37.007812 45.265625 37.351562 46.105469 37.894531 46.65625 C 38.625 47.417969 39.628906 47.800781 40.964844 47.800781 C 42.289062 47.800781 43.328125 47.40625 44.023438 46.589844 C 44.332031 46.234375 44.535156 45.824219 44.625 45.378906 C 44.640625 45.175781 44.714844 44.628906 44.714844 43.980469 L 42.144531 43.980469 L 42.144531 45 C 42.144531 45.585938 41.566406 46.070312 40.863281 46.070312 C 40.15625 46.070312 39.578125 45.585938 39.578125 45 L 39.578125 41.113281 Z M 39.578125 36.070312 C 39.578125 35.472656 40.15625 35 40.863281 35 C 41.566406 35 42.144531 35.472656 42.144531 36.070312 L 42.144531 39.34375 L 39.574219 39.34375 L 39.574219 36.070312 Z M 35.128906 34.679688 C 34.808594 33.683594 34.023438 33.136719 33.046875 33.125 C 31.800781 33.113281 31.289062 33.761719 30.324219 34.886719 L 30.324219 29.296875 L 27.753906 29.296875 L 27.753906 47.800781 L 30.066406 47.800781 L 30.324219 46.207031 C 31.136719 47.199219 32.1875 47.800781 33.046875 47.800781 C 34.023438 47.800781 34.859375 47.289062 35.179688 46.292969 C 35.335938 45.757812 35.449219 45.261719 35.464844 44.136719 L 35.464844 37.4375 C 35.464844 36.175781 35.296875 35.21875 35.128906 34.679688 Z M 32.894531 43.804688 C 32.894531 45.144531 32.585938 45.605469 31.890625 45.605469 C 31.492188 45.605469 30.734375 45.335938 30.324219 44.929688 L 30.324219 36.160156 C 30.734375 35.753906 31.492188 35.359375 31.890625 35.359375 C 32.585938 35.359375 32.894531 35.777344 32.894531 37.117188 Z M 32.894531 43.804688 " fill-opacity="1" fill-rule="nonzero"/><path fill="#ffffff" d="M 13.878906 4.625 L 16.707031 4.628906 L 18.539062 13.433594 L 18.714844 13.433594 L 20.453125 4.628906 L 23.316406 4.628906 L 20.046875 16.796875 L 20.046875 23.128906 L 17.234375 23.128906 L 17.230469 17.136719 Z M 23.34375 12.460938 C 23.34375 11.425781 23.679688 10.597656 24.355469 9.984375 C 25.03125 9.371094 25.933594 9.058594 27.078125 9.058594 C 28.117188 9.058594 28.964844 9.382812 29.628906 10.03125 C 30.289062 10.675781 30.621094 11.511719 30.621094 12.53125 L 30.628906 19.445312 C 30.628906 20.589844 30.304688 21.492188 29.65625 22.148438 C 29.007812 22.800781 28.117188 23.128906 26.972656 23.128906 C 25.871094 23.128906 24.996094 22.789062 24.332031 22.117188 C 23.671875 21.445312 23.347656 20.539062 23.34375 19.402344 L 23.339844 12.460938 Z M 25.925781 19.652344 C 25.925781 20.015625 26.015625 20.304688 26.203125 20.507812 C 26.378906 20.703125 26.632812 20.804688 26.964844 20.804688 C 27.304688 20.804688 27.574219 20.703125 27.773438 20.492188 C 27.972656 20.296875 28.074219 20.007812 28.074219 19.652344 L 28.070312 12.355469 C 28.070312 12.066406 27.964844 11.828125 27.761719 11.648438 C 27.558594 11.46875 27.289062 11.378906 26.960938 11.378906 C 26.652344 11.378906 26.402344 11.46875 26.210938 11.648438 C 26.019531 11.828125 25.925781 12.066406 25.925781 12.355469 Z M 40.089844 9.25 L 40.089844 23.128906 L 37.894531 23.128906 L 37.542969 21.433594 C 37.074219 21.984375 36.585938 22.40625 36.074219 22.691406 C 35.566406 22.976562 35.074219 23.128906 34.597656 23.128906 C 34.003906 23.128906 33.5625 22.925781 33.261719 22.523438 C 32.960938 22.121094 32.8125 21.519531 32.8125 20.710938 L 32.804688 9.25 L 35.355469 9.25 L 35.359375 19.773438 C 35.359375 20.089844 35.417969 20.324219 35.523438 20.46875 C 35.625 20.605469 35.808594 20.683594 36.042969 20.683594 C 36.234375 20.683594 36.46875 20.589844 36.75 20.398438 C 37.039062 20.207031 37.300781 19.964844 37.539062 19.671875 L 37.535156 9.25 Z M 40.089844 9.25 " fill-opacity="1" fill-rule="nonzero"/></svg>