<svg xmlns="http://www.w3.org/2000/svg" xmlns:xlink="http://www.w3.org/1999/xlink" width="75" zoomAndPan="magnify" viewBox="0 0 56.25 56.249997" height="75" preserveAspectRatio="xMidYMid meet" version="1.0"><defs><clipPath id="d2c0985d40"><path d="M 0 0 L 55 0 L 55 55.511719 L 0 55.511719 Z M 0 0 " clip-rule="nonzero"/></clipPath></defs><g clip-path="url(#d2c0985d40)"><path fill="#ff385c" d="M 20.632812 0.246094 L 21.472656 5.417969 C 22.144531 5.632812 22.789062 5.898438 23.40625 6.214844 L 27.675781 3.164062 L 32.039062 7.527344 L 29.039062 11.816406 C 29.363281 12.441406 29.632812 13.09375 29.855469 13.773438 L 35.007812 14.628906 L 35.007812 20.800781 L 29.859375 21.710938 C 29.640625 22.390625 29.371094 23.042969 29.046875 23.667969 L 32.089844 27.921875 L 27.726562 32.285156 L 23.429688 29.277344 C 22.808594 29.597656 22.160156 29.863281 21.484375 30.082031 L 20.625 35.257812 L 14.457031 35.257812 L 13.535156 30.066406 C 12.863281 29.847656 12.21875 29.578125 11.597656 29.257812 L 7.28125 32.285156 L 2.914062 27.917969 L 6 23.628906 C 5.6875 23.019531 5.421875 22.378906 5.207031 21.714844 L 0 20.804688 L 0 14.628906 L 5.214844 13.777344 C 5.429688 13.109375 5.691406 12.472656 6.007812 11.859375 L 2.972656 7.53125 L 7.335938 3.164062 L 11.613281 6.238281 C 12.230469 5.917969 12.875 5.652344 13.542969 5.433594 L 14.453125 0.246094 Z M 32.484375 0.601562 C 32.558594 0.601562 32.628906 0.605469 32.699219 0.617188 C 38.671875 1.546875 42.757812 4.238281 45.355469 7.886719 C 47.886719 11.449219 49.003906 15.839844 49.519531 20.351562 L 54.582031 29.078125 L 54.585938 29.089844 C 55.449219 30.640625 54.898438 32.664062 53.335938 33.53125 L 53.308594 33.542969 L 49.488281 35.457031 L 48.257812 44.46875 L 48.253906 44.484375 C 47.71875 47.835938 44.78125 50.390625 41.378906 50.253906 L 37.507812 50.257812 L 37.507812 55.261719 L 36.464844 55.261719 C 36.332031 55.28125 36.195312 55.28125 36.058594 55.261719 L 35.007812 55.261719 L 35.007812 47.757812 L 41.449219 47.753906 L 41.476562 47.753906 C 43.558594 47.835938 45.445312 46.222656 45.785156 44.089844 L 45.785156 44.117188 L 47.1875 33.8125 L 52.117188 31.347656 C 52.53125 31.117188 52.636719 30.730469 52.402344 30.304688 L 47.125 21.207031 L 47.097656 20.945312 C 46.625 16.550781 45.542969 12.46875 43.316406 9.339844 C 41.089844 6.207031 37.746094 3.933594 32.3125 3.089844 C 32.15625 3.066406 32.007812 3.015625 31.871094 2.941406 C 31.734375 2.863281 31.617188 2.761719 31.515625 2.636719 C 31.417969 2.515625 31.34375 2.378906 31.296875 2.226562 C 31.25 2.078125 31.230469 1.921875 31.242188 1.765625 C 31.253906 1.609375 31.292969 1.457031 31.359375 1.316406 C 31.429688 1.171875 31.519531 1.046875 31.636719 0.9375 C 31.75 0.832031 31.882812 0.746094 32.027344 0.6875 C 32.175781 0.632812 32.328125 0.601562 32.484375 0.601562 Z M 18.503906 2.746094 L 16.554688 2.746094 L 15.753906 7.324219 L 14.964844 7.523438 C 13.933594 7.777344 12.964844 8.1875 12.082031 8.722656 L 11.375 9.148438 L 7.605469 6.433594 L 6.222656 7.816406 L 8.90625 11.640625 L 8.488281 12.335938 C 7.957031 13.214844 7.554688 14.175781 7.296875 15.203125 L 7.097656 16 L 2.5 16.753906 L 2.5 18.699219 L 7.101562 19.511719 L 7.296875 20.300781 C 7.550781 21.324219 7.957031 22.285156 8.484375 23.167969 L 8.90625 23.871094 L 6.183594 27.65625 L 7.566406 29.035156 L 11.382812 26.351562 L 12.082031 26.777344 C 12.960938 27.3125 13.929688 27.722656 14.957031 27.980469 L 15.738281 28.179688 L 16.550781 32.753906 L 18.507812 32.753906 L 19.265625 28.191406 L 20.066406 27.996094 C 21.097656 27.738281 22.066406 27.335938 22.957031 26.800781 L 23.652344 26.378906 L 27.441406 29.035156 L 28.824219 27.652344 L 26.140625 23.898438 L 26.566406 23.195312 C 27.109375 22.304688 27.515625 21.332031 27.769531 20.296875 L 27.964844 19.507812 L 32.503906 18.707031 L 32.503906 16.746094 L 27.964844 15.988281 L 27.765625 15.195312 C 27.507812 14.15625 27.101562 13.183594 26.5625 12.292969 L 26.140625 11.597656 L 28.785156 7.8125 L 27.40625 6.429688 L 23.644531 9.117188 L 22.941406 8.695312 C 22.058594 8.164062 21.085938 7.761719 20.050781 7.507812 L 19.25 7.3125 Z M 17.503906 11.5 C 20.941406 11.5 23.753906 14.3125 23.753906 17.75 C 23.753906 21.1875 20.941406 24 17.503906 24 C 14.066406 24 11.253906 21.1875 11.253906 17.75 C 11.253906 14.3125 14.066406 11.5 17.503906 11.5 Z M 17.503906 14 C 15.417969 14 13.753906 15.664062 13.753906 17.75 C 13.753906 19.835938 15.417969 21.5 17.503906 21.5 C 19.589844 21.5 21.253906 19.835938 21.253906 17.75 C 21.253906 15.664062 19.589844 14 17.503906 14 Z M 9.996094 34.792969 C 10.4375 34.796875 10.777344 34.980469 11.023438 35.34375 C 13.453125 38.8125 14.984375 42.898438 14.984375 47.25 L 14.984375 52.757812 L 15.003906 52.757812 L 15.003906 55.261719 L 13.941406 55.261719 C 13.808594 55.28125 13.671875 55.28125 13.535156 55.261719 L 12.503906 55.261719 L 12.503906 54.242188 C 12.488281 54.167969 12.480469 54.089844 12.484375 54.007812 L 12.484375 47.25 C 12.484375 43.484375 11.160156 39.894531 8.980469 36.777344 C 8.839844 36.585938 8.761719 36.375 8.746094 36.140625 C 8.726562 35.90625 8.773438 35.683594 8.878906 35.472656 C 8.988281 35.265625 9.140625 35.097656 9.34375 34.976562 C 9.542969 34.855469 9.761719 34.792969 9.996094 34.792969 Z M 9.996094 34.792969 " fill-opacity="1" fill-rule="nonzero"/></g></svg>