<svg xmlns="http://www.w3.org/2000/svg" xmlns:xlink="http://www.w3.org/1999/xlink" width="75" zoomAndPan="magnify" viewBox="0 0 56.25 56.249997" height="75" preserveAspectRatio="xMidYMid meet" version="1.0"><defs><clipPath id="ccea6a6d31"><path d="M 44 8 L 53.753906 8 L 53.753906 29 L 44 29 Z M 44 8 " clip-rule="nonzero"/></clipPath><clipPath id="ab957370ec"><path d="M 15 0 L 40 0 L 40 55.511719 L 15 55.511719 Z M 15 0 " clip-rule="nonzero"/></clipPath></defs><g clip-path="url(#ccea6a6d31)"><path fill="#ff385c" d="M 50.367188 9.121094 C 50.0625 8.601562 49.5 8.296875 48.890625 8.296875 C 48.285156 8.296875 47.71875 8.601562 47.417969 9.121094 L 44.378906 13.917969 C 44.03125 14.4375 44.03125 15.128906 44.335938 15.691406 C 44.640625 16.253906 45.203125 16.558594 45.855469 16.558594 C 45.855469 16.558594 45.898438 16.558594 45.898438 16.558594 L 46.289062 16.558594 L 46.289062 26.457031 C 46.289062 27.410156 47.070312 28.1875 48.023438 28.1875 L 49.761719 28.1875 C 50.714844 28.1875 51.496094 27.410156 51.496094 26.457031 L 51.496094 16.558594 L 51.929688 16.558594 C 52.582031 16.558594 53.144531 16.210938 53.449219 15.648438 C 53.753906 15.085938 53.753906 14.4375 53.40625 13.875 Z M 49.761719 14.828125 L 49.761719 26.457031 L 48.023438 26.457031 L 48.023438 14.785156 L 45.855469 14.828125 L 48.890625 10.027344 L 51.929688 14.828125 Z M 49.761719 14.828125 " fill-opacity="1" fill-rule="nonzero"/></g><path fill="#ff385c" d="M 11.359375 15.691406 C 11.664062 15.128906 11.664062 14.480469 11.316406 13.917969 L 8.277344 9.121094 C 7.972656 8.601562 7.410156 8.296875 6.800781 8.296875 C 6.195312 8.296875 5.632812 8.601562 5.328125 9.121094 L 2.289062 13.917969 C 1.941406 14.4375 1.941406 15.128906 2.246094 15.691406 C 2.550781 16.253906 3.113281 16.558594 3.765625 16.558594 C 3.765625 16.558594 3.808594 16.558594 3.808594 16.558594 L 4.199219 16.558594 L 4.199219 26.457031 C 4.199219 27.410156 4.980469 28.1875 5.933594 28.1875 L 7.671875 28.1875 C 8.625 28.1875 9.40625 27.410156 9.40625 26.457031 L 9.40625 16.558594 L 9.839844 16.558594 C 10.492188 16.558594 11.054688 16.210938 11.359375 15.691406 Z M 7.671875 14.828125 L 7.671875 26.457031 L 5.933594 26.457031 L 5.933594 14.785156 L 3.765625 14.828125 L 6.800781 10.027344 L 9.839844 14.828125 Z M 7.671875 14.828125 " fill-opacity="1" fill-rule="nonzero"/><path fill="#ff385c" d="M 14.222656 46.648438 C 11.273438 41.246094 12.488281 36.273438 14.09375 32.898438 C 13.960938 31.863281 13.875 30.867188 13.832031 29.875 C 11.53125 33.546875 8.363281 40.941406 13.484375 48.722656 C 13.660156 48.984375 13.917969 49.113281 14.222656 49.113281 C 14.527344 49.113281 14.785156 48.984375 14.960938 48.722656 L 17.214844 45.265625 C 16.957031 44.574219 16.738281 43.882812 16.480469 43.191406 Z M 14.222656 46.648438 " fill-opacity="1" fill-rule="nonzero"/><path fill="#ff385c" d="M 41.167969 32.898438 C 42.773438 36.273438 43.988281 41.289062 41.039062 46.648438 L 38.824219 43.234375 C 38.609375 43.925781 38.347656 44.617188 38.085938 45.308594 L 40.34375 48.769531 C 40.519531 49.027344 40.777344 49.15625 41.082031 49.15625 C 41.386719 49.15625 41.644531 49.027344 41.820312 48.769531 C 46.941406 40.941406 43.730469 33.546875 41.472656 29.917969 C 41.386719 30.867188 41.296875 31.863281 41.167969 32.898438 Z M 41.167969 32.898438 " fill-opacity="1" fill-rule="nonzero"/><g clip-path="url(#ab957370ec)"><path fill="#ff385c" d="M 27.761719 0.125 C 27.761719 0.125 27.71875 0.0820312 27.628906 0.0820312 C 27.585938 0.0820312 27.5 0.125 27.5 0.125 C 25.199219 2.074219 7.324219 18.199219 19.949219 47.644531 L 20.6875 47.644531 L 20.6875 52.832031 C 20.6875 53.308594 21.078125 53.695312 21.554688 53.695312 C 22.03125 53.695312 22.421875 53.308594 22.421875 52.832031 L 22.421875 47.644531 L 26.761719 47.644531 L 26.761719 54.5625 C 26.761719 55.035156 27.152344 55.425781 27.628906 55.425781 C 28.109375 55.425781 28.5 55.035156 28.5 54.5625 L 28.5 47.644531 L 32.402344 47.644531 L 32.402344 52.832031 C 32.402344 53.308594 32.792969 53.695312 33.269531 53.695312 C 33.75 53.695312 34.140625 53.308594 34.140625 52.832031 L 34.140625 47.644531 L 35.3125 47.644531 C 47.9375 18.199219 30.058594 2.074219 27.761719 0.125 Z M 34.140625 45.914062 L 21.121094 45.914062 C 20.90625 45.351562 20.644531 44.746094 20.425781 44.183594 L 34.789062 44.183594 C 34.617188 44.746094 34.355469 45.351562 34.140625 45.914062 Z M 19.949219 42.457031 C 19.90625 42.457031 19.863281 42.457031 19.820312 42.457031 C 16.347656 32.25 16.304688 22.738281 19.734375 14.179688 C 22.164062 8.082031 25.808594 4.105469 27.628906 2.375 C 29.453125 4.148438 33.097656 8.125 35.527344 14.222656 C 38.957031 22.78125 38.914062 32.25 35.441406 42.457031 Z M 19.949219 42.457031 " fill-opacity="1" fill-rule="nonzero"/></g><path fill="#ff385c" d="M 27.628906 24.296875 C 30.277344 24.296875 32.402344 22.175781 32.402344 19.539062 C 32.402344 16.902344 30.277344 14.785156 27.628906 14.785156 C 24.984375 14.785156 22.859375 16.902344 22.859375 19.539062 C 22.859375 22.175781 24.984375 24.296875 27.628906 24.296875 Z M 27.628906 16.511719 C 29.324219 16.511719 30.667969 17.855469 30.667969 19.539062 C 30.667969 21.226562 29.324219 22.566406 27.628906 22.566406 C 25.9375 22.566406 24.59375 21.226562 24.59375 19.539062 C 24.59375 17.855469 25.9375 16.511719 27.628906 16.511719 Z M 27.628906 16.511719 " fill-opacity="1" fill-rule="nonzero"/><path fill="#ff385c" d="M 30.667969 32.941406 L 24.59375 32.941406 C 24.117188 32.941406 23.726562 33.332031 23.726562 33.808594 C 23.726562 34.285156 24.117188 34.671875 24.59375 34.671875 L 30.667969 34.671875 C 31.144531 34.671875 31.535156 34.285156 31.535156 33.808594 C 31.535156 33.332031 31.144531 32.941406 30.667969 32.941406 Z M 30.667969 32.941406 " fill-opacity="1" fill-rule="nonzero"/><path fill="#ff385c" d="M 18.953125 28.621094 L 18.953125 30.78125 C 18.953125 31.257812 19.34375 31.644531 19.820312 31.644531 C 20.296875 31.644531 20.6875 31.257812 20.6875 30.78125 L 20.6875 28.621094 C 20.6875 26.761719 21.554688 25.074219 22.902344 23.949219 C 22.511719 23.519531 22.164062 23.042969 21.902344 22.566406 C 20.082031 23.992188 18.953125 26.15625 18.953125 28.621094 Z M 18.953125 28.621094 " fill-opacity="1" fill-rule="nonzero"/><path fill="#ff385c" d="M 33.402344 22.566406 C 33.140625 23.085938 32.792969 23.5625 32.402344 23.949219 C 33.707031 25.074219 34.574219 26.761719 34.574219 28.621094 L 34.574219 30.78125 C 34.574219 31.257812 34.964844 31.644531 35.441406 31.644531 C 35.917969 31.644531 36.308594 31.257812 36.308594 30.78125 L 36.308594 28.621094 C 36.308594 26.15625 35.179688 23.992188 33.402344 22.566406 Z M 33.402344 22.566406 " fill-opacity="1" fill-rule="nonzero"/></svg>