<svg xmlns="http://www.w3.org/2000/svg" xmlns:xlink="http://www.w3.org/1999/xlink" width="75" zoomAndPan="magnify" viewBox="0 0 56.25 56.249997" height="75" preserveAspectRatio="xMidYMid meet" version="1.0"><defs><clipPath id="9086ea3659"><path d="M 44 1.734375 L 47 1.734375 L 47 5 L 44 5 Z M 44 1.734375 " clip-rule="nonzero"/></clipPath><clipPath id="425435dbed"><path d="M 0 39 L 55.511719 39 L 55.511719 53.542969 L 0 53.542969 Z M 0 39 " clip-rule="nonzero"/></clipPath></defs><path fill="#ff385c" d="M 27.753906 17.710938 C 31.09375 17.710938 33.828125 14.988281 33.828125 11.664062 C 33.828125 8.339844 31.09375 5.621094 27.753906 5.621094 C 24.414062 5.621094 21.683594 8.339844 21.683594 11.664062 C 21.683594 14.988281 24.414062 17.710938 27.753906 17.710938 Z M 27.753906 7.347656 C 30.140625 7.347656 32.089844 9.289062 32.089844 11.664062 C 32.089844 14.039062 30.140625 15.980469 27.753906 15.980469 C 25.371094 15.980469 23.417969 14.039062 23.417969 11.664062 C 23.417969 9.289062 25.371094 7.347656 27.753906 7.347656 Z M 27.753906 7.347656 " fill-opacity="1" fill-rule="nonzero"/><path fill="#ff385c" d="M 14.484375 26 C 14.007812 26.601562 13.789062 27.335938 13.921875 28.070312 L 15.699219 38.648438 C 15.742188 40.203125 17.128906 41.410156 18.820312 41.410156 L 36.644531 41.410156 C 38.335938 41.410156 39.722656 40.160156 39.769531 38.648438 L 41.546875 28.070312 C 41.675781 27.335938 41.457031 26.558594 40.980469 25.957031 C 40.460938 25.351562 39.722656 25.003906 38.945312 25.003906 L 16.523438 25.003906 C 15.742188 25.046875 15.003906 25.394531 14.484375 26 Z M 39.898438 27.8125 L 38.121094 38.605469 C 38.121094 39.210938 37.46875 39.726562 36.6875 39.726562 L 18.820312 39.726562 C 18.039062 39.726562 17.390625 39.210938 17.390625 38.605469 L 15.613281 27.769531 C 15.527344 27.207031 15.960938 26.777344 16.523438 26.777344 L 38.988281 26.777344 C 39.769531 26.777344 39.941406 27.464844 39.898438 27.8125 Z M 39.898438 27.8125 " fill-opacity="1" fill-rule="nonzero"/><path fill="#ff385c" d="M 27.753906 35.84375 C 29.1875 35.84375 30.355469 34.675781 30.355469 33.25 C 30.355469 31.828125 29.1875 30.660156 27.753906 30.660156 C 26.324219 30.660156 25.152344 31.828125 25.152344 33.25 C 25.152344 34.675781 26.324219 35.84375 27.753906 35.84375 Z M 27.753906 32.386719 C 28.230469 32.386719 28.621094 32.777344 28.621094 33.25 C 28.621094 33.726562 28.230469 34.117188 27.753906 34.117188 C 27.277344 34.117188 26.886719 33.726562 26.886719 33.25 C 26.886719 32.777344 27.277344 32.386719 27.753906 32.386719 Z M 27.753906 32.386719 " fill-opacity="1" fill-rule="nonzero"/><path fill="#ff385c" d="M 41.675781 14.082031 C 41.980469 14.472656 42.238281 14.859375 42.457031 15.292969 C 42.585938 15.636719 42.714844 15.980469 42.761719 16.328125 C 42.847656 16.976562 43.410156 17.449219 44.105469 17.449219 L 46.140625 17.449219 C 46.792969 17.449219 47.355469 16.976562 47.488281 16.328125 C 47.53125 15.980469 47.660156 15.636719 47.789062 15.335938 C 48.050781 14.773438 48.355469 14.253906 48.789062 13.824219 C 49.699219 12.917969 50.21875 11.707031 50.21875 10.457031 C 50.21875 7.777344 47.964844 5.578125 45.1875 5.578125 C 42.414062 5.578125 40.15625 7.734375 40.15625 10.457031 C 40.15625 11.664062 40.679688 12.832031 41.457031 13.738281 C 41.503906 13.824219 41.589844 13.953125 41.675781 14.082031 Z M 45.101562 7.304688 C 46.921875 7.304688 48.398438 8.730469 48.398438 10.457031 C 48.398438 10.972656 48.265625 11.492188 47.964844 11.96875 C 47.660156 12.484375 47.226562 12.789062 46.878906 13.261719 C 46.664062 13.519531 46.402344 13.996094 46.097656 14.644531 C 45.925781 14.988281 45.839844 15.378906 45.753906 15.722656 L 44.363281 15.722656 C 44.277344 15.335938 44.148438 14.988281 43.972656 14.601562 C 43.671875 13.867188 43.28125 13.304688 42.976562 13.003906 C 42.847656 12.832031 42.671875 12.65625 42.5 12.484375 C 41.980469 11.921875 41.71875 11.191406 41.71875 10.457031 C 41.804688 8.6875 43.28125 7.304688 45.101562 7.304688 Z M 45.101562 7.304688 " fill-opacity="1" fill-rule="nonzero"/><g clip-path="url(#9086ea3659)"><path fill="#ff385c" d="M 45.230469 4.28125 C 45.707031 4.28125 46.097656 3.894531 46.097656 3.417969 L 46.097656 2.597656 C 46.097656 2.125 45.707031 1.734375 45.230469 1.734375 C 44.753906 1.734375 44.363281 2.125 44.363281 2.597656 L 44.363281 3.417969 C 44.363281 3.894531 44.753906 4.28125 45.230469 4.28125 Z M 45.230469 4.28125 " fill-opacity="1" fill-rule="nonzero"/></g><path fill="#ff385c" d="M 40.980469 4.800781 C 41.242188 5.1875 41.804688 5.273438 42.195312 5.015625 C 42.585938 4.757812 42.671875 4.195312 42.414062 3.808594 L 42.023438 3.246094 C 41.71875 2.855469 41.15625 2.769531 40.765625 3.03125 C 40.375 3.289062 40.289062 3.851562 40.546875 4.238281 C 40.546875 4.238281 40.980469 4.800781 40.980469 4.800781 Z M 40.980469 4.800781 " fill-opacity="1" fill-rule="nonzero"/><path fill="#ff385c" d="M 37.988281 7.132812 C 37.988281 7.132812 38.597656 7.519531 38.597656 7.519531 C 38.988281 7.777344 39.550781 7.691406 39.8125 7.304688 C 40.070312 6.914062 39.984375 6.355469 39.59375 6.09375 L 38.988281 5.707031 C 38.597656 5.449219 38.03125 5.535156 37.773438 5.921875 C 37.511719 6.355469 37.597656 6.871094 37.988281 7.132812 Z M 37.988281 7.132812 " fill-opacity="1" fill-rule="nonzero"/><path fill="#ff385c" d="M 37.296875 11.148438 L 38.164062 11.148438 C 38.640625 11.148438 39.03125 10.757812 39.03125 10.28125 C 39.03125 9.808594 38.640625 9.417969 38.164062 9.417969 L 37.296875 9.417969 C 36.820312 9.417969 36.429688 9.808594 36.429688 10.28125 C 36.429688 10.757812 36.820312 11.148438 37.296875 11.148438 Z M 37.296875 11.148438 " fill-opacity="1" fill-rule="nonzero"/><path fill="#ff385c" d="M 51.171875 10.28125 C 51.171875 10.757812 51.5625 11.148438 52.039062 11.148438 L 52.90625 11.148438 C 53.386719 11.148438 53.773438 10.757812 53.773438 10.28125 C 53.773438 9.808594 53.386719 9.417969 52.90625 9.417969 L 52.039062 9.417969 C 51.5625 9.417969 51.171875 9.765625 51.171875 10.28125 Z M 51.171875 10.28125 " fill-opacity="1" fill-rule="nonzero"/><path fill="#ff385c" d="M 51.347656 7.691406 C 51.738281 7.691406 52.128906 7.347656 52.429688 7.132812 C 52.820312 6.871094 52.953125 6.3125 52.648438 5.921875 C 52.386719 5.535156 51.824219 5.40625 51.433594 5.707031 L 50.828125 6.09375 C 50.4375 6.355469 50.304688 6.914062 50.609375 7.304688 C 50.78125 7.5625 51.085938 7.691406 51.347656 7.691406 Z M 51.347656 7.691406 " fill-opacity="1" fill-rule="nonzero"/><path fill="#ff385c" d="M 48.265625 5.015625 C 48.65625 5.273438 49.222656 5.1875 49.480469 4.800781 L 49.871094 4.238281 C 50.132812 3.851562 50.046875 3.289062 49.65625 3.03125 C 49.265625 2.769531 48.703125 2.855469 48.441406 3.246094 L 48.050781 3.808594 C 47.789062 4.195312 47.878906 4.757812 48.265625 5.015625 Z M 48.265625 5.015625 " fill-opacity="1" fill-rule="nonzero"/><path fill="#ff385c" d="M 44.234375 19.003906 C 43.757812 19.003906 43.367188 19.394531 43.367188 19.867188 C 43.367188 20.34375 43.757812 20.730469 44.234375 20.730469 L 45.96875 20.730469 C 46.445312 20.730469 46.835938 20.34375 46.835938 19.867188 C 46.835938 19.394531 46.445312 19.003906 45.96875 19.003906 Z M 44.234375 19.003906 " fill-opacity="1" fill-rule="nonzero"/><path fill="#ff385c" d="M 8.628906 11.621094 L 8.28125 13.695312 C 8.238281 14.039062 8.371094 14.339844 8.628906 14.558594 C 8.890625 14.730469 9.238281 14.773438 9.539062 14.601562 L 11.277344 13.652344 C 11.277344 13.652344 13.011719 14.601562 13.011719 14.601562 C 13.269531 14.773438 13.660156 14.730469 13.921875 14.558594 C 14.179688 14.382812 14.3125 14.039062 14.269531 13.695312 L 13.921875 11.621094 L 15.351562 10.152344 C 15.570312 9.9375 15.65625 9.59375 15.570312 9.289062 C 15.480469 8.988281 15.179688 8.773438 14.875 8.730469 L 12.921875 8.425781 L 12.054688 6.570312 C 11.925781 6.269531 11.621094 6.050781 11.277344 6.050781 C 10.929688 6.050781 10.625 6.226562 10.496094 6.570312 L 9.628906 8.425781 L 7.675781 8.730469 C 7.371094 8.773438 7.070312 8.988281 6.980469 9.289062 C 6.894531 9.59375 6.9375 9.9375 7.199219 10.152344 Z M 10.320312 10.023438 C 10.625 9.980469 10.839844 9.808594 10.972656 9.550781 L 11.277344 8.945312 L 11.578125 9.550781 C 11.710938 9.808594 11.925781 9.980469 12.230469 10.023438 L 12.964844 10.152344 L 12.402344 10.714844 C 12.230469 10.929688 12.144531 11.191406 12.1875 11.449219 L 12.316406 12.183594 L 11.710938 11.878906 C 11.578125 11.792969 11.449219 11.792969 11.277344 11.792969 C 11.101562 11.792969 10.972656 11.835938 10.839844 11.878906 L 10.277344 12.183594 L 10.40625 11.449219 C 10.453125 11.191406 10.363281 10.886719 10.191406 10.714844 L 9.628906 10.152344 Z M 10.320312 10.023438 " fill-opacity="1" fill-rule="nonzero"/><path fill="#ff385c" d="M 17.78125 23.320312 L 17.78125 23.148438 C 17.78125 19.351562 20.511719 18.574219 22.769531 18.574219 L 24.199219 18.574219 C 23.375 18.140625 22.59375 17.578125 21.988281 16.890625 C 18.257812 17.148438 16.046875 19.4375 16.046875 23.148438 L 16.046875 23.363281 C 16.21875 23.363281 16.347656 23.320312 16.523438 23.320312 Z M 17.78125 23.320312 " fill-opacity="1" fill-rule="nonzero"/><path fill="#ff385c" d="M 38.988281 23.320312 C 39.160156 23.320312 39.289062 23.320312 39.464844 23.363281 L 39.464844 23.148438 C 39.464844 19.480469 37.253906 17.148438 33.523438 16.890625 C 32.914062 17.578125 32.136719 18.140625 31.3125 18.574219 L 32.742188 18.574219 C 34.996094 18.574219 37.730469 19.351562 37.730469 23.148438 L 37.730469 23.320312 Z M 38.988281 23.320312 " fill-opacity="1" fill-rule="nonzero"/><g clip-path="url(#425435dbed)"><path fill="#ff385c" d="M 52.90625 39.726562 L 41.414062 39.726562 C 41.242188 40.375 40.9375 40.9375 40.503906 41.453125 L 52.90625 41.453125 C 53.386719 41.453125 53.773438 41.84375 53.773438 42.320312 L 53.773438 43.183594 L 1.734375 43.183594 L 1.734375 42.320312 C 1.734375 41.84375 2.125 41.453125 2.601562 41.453125 L 15.046875 41.453125 C 14.613281 40.9375 14.3125 40.375 14.136719 39.726562 L 2.601562 39.726562 C 1.171875 39.726562 0 40.894531 0 42.320312 L 0 44.046875 C 0 44.519531 0.390625 44.910156 0.867188 44.910156 L 4.769531 44.910156 L 4.769531 52.679688 C 4.769531 53.15625 5.160156 53.542969 5.636719 53.542969 C 6.113281 53.542969 6.503906 53.15625 6.503906 52.679688 L 6.503906 44.910156 L 8.238281 44.910156 L 8.238281 52.679688 C 8.238281 53.15625 8.628906 53.542969 9.105469 53.542969 C 9.585938 53.542969 9.972656 53.15625 9.972656 52.679688 L 9.972656 44.910156 L 45.535156 44.910156 L 45.535156 52.679688 C 45.535156 53.15625 45.925781 53.542969 46.402344 53.542969 C 46.878906 53.542969 47.269531 53.15625 47.269531 52.679688 L 47.269531 44.910156 L 49.003906 44.910156 L 49.003906 52.679688 C 49.003906 53.15625 49.394531 53.542969 49.871094 53.542969 C 50.347656 53.542969 50.738281 53.15625 50.738281 52.679688 L 50.738281 44.910156 L 54.640625 44.910156 C 55.121094 44.910156 55.511719 44.519531 55.511719 44.046875 L 55.511719 42.320312 C 55.511719 40.894531 54.339844 39.726562 52.90625 39.726562 Z M 52.90625 39.726562 " fill-opacity="1" fill-rule="nonzero"/></g></svg>