<svg xmlns="http://www.w3.org/2000/svg" xmlns:xlink="http://www.w3.org/1999/xlink" width="75" zoomAndPan="magnify" viewBox="0 0 56.25 56.249997" height="75" preserveAspectRatio="xMidYMid meet" version="1.0"><defs><clipPath id="055cebdf65"><path d="M 0 7.214844 L 55.511719 7.214844 L 55.511719 48.292969 L 0 48.292969 Z M 0 7.214844 " clip-rule="nonzero"/></clipPath></defs><g clip-path="url(#055cebdf65)"><path fill="#000000" d="M 40.300781 47.753906 L 55.089844 29.105469 C 55.125 29.058594 55.136719 29.003906 55.167969 28.953125 C 55.234375 28.851562 55.285156 28.742188 55.335938 28.628906 C 55.378906 28.519531 55.414062 28.410156 55.4375 28.292969 C 55.464844 28.171875 55.46875 28.054688 55.46875 27.929688 C 55.46875 27.820312 55.464844 27.714844 55.441406 27.601562 C 55.417969 27.476562 55.378906 27.359375 55.328125 27.238281 C 55.285156 27.128906 55.234375 27.03125 55.171875 26.933594 C 55.136719 26.882812 55.128906 26.820312 55.089844 26.773438 L 40.300781 8.125 C 39.664062 7.324219 38.5 7.191406 37.703125 7.832031 C 37.25 8.203125 37.011719 8.742188 37.011719 9.292969 C 37.011719 9.699219 37.144531 10.109375 37.414062 10.453125 L 49.800781 26.074219 L 1.894531 26.085938 C 0.871094 26.085938 0.0429688 26.921875 0.0429688 27.953125 C 0.0429688 28.984375 0.875 29.816406 1.894531 29.816406 L 49.800781 29.804688 L 37.417969 45.425781 C 37.144531 45.773438 37.015625 46.179688 37.015625 46.589844 C 37.015625 47.136719 37.253906 47.679688 37.707031 48.050781 C 38.5 48.6875 39.664062 48.558594 40.300781 47.753906 Z M 40.300781 47.753906 " fill-opacity="1" fill-rule="nonzero"/></g></svg>