<svg xmlns="http://www.w3.org/2000/svg" xmlns:xlink="http://www.w3.org/1999/xlink" width="75" zoomAndPan="magnify" viewBox="0 0 56.25 41.25" height="55" preserveAspectRatio="xMidYMid meet" version="1.0"><defs><clipPath id="7ee727819f"><path d="M 8 0 L 55.378906 0 L 55.378906 35 L 8 35 Z M 8 0 " clip-rule="nonzero"/></clipPath><clipPath id="717f32d643"><path d="M 0.132812 20 L 28 20 L 28 23 L 0.132812 23 Z M 0.132812 20 " clip-rule="nonzero"/></clipPath><clipPath id="500b4f268b"><path d="M 0.132812 10 L 23 10 L 23 13 L 0.132812 13 Z M 0.132812 10 " clip-rule="nonzero"/></clipPath><clipPath id="1aa554a85b"><path d="M 23 34 L 30 34 L 30 40.511719 L 23 40.511719 Z M 23 34 " clip-rule="nonzero"/></clipPath><clipPath id="5436f3dd36"><path d="M 36 34 L 43 34 L 43 40.511719 L 36 40.511719 Z M 36 34 " clip-rule="nonzero"/></clipPath></defs><g clip-path="url(#7ee727819f)"><path fill="#ff385c" d="M 55.089844 7.59375 C 54.90625 7.324219 54.605469 7.164062 54.285156 7.164062 L 19.734375 7.164062 L 17.851562 2.847656 C 17.734375 2.574219 17.5 2.375 17.214844 2.296875 L 9.242188 0.140625 C 8.726562 0 8.191406 0.308594 8.054688 0.832031 C 7.914062 1.355469 8.222656 1.894531 8.738281 2.035156 L 16.261719 4.066406 L 18.210938 8.539062 C 18.367188 8.894531 18.714844 9.125 19.101562 9.125 L 52.851562 9.125 L 45.65625 27.359375 L 20.851562 27.359375 C 20.542969 27.359375 20.25 27.503906 20.066406 27.753906 C 19.882812 28.003906 19.828125 28.328125 19.921875 28.625 L 21.476562 33.722656 C 21.601562 34.136719 21.976562 34.414062 22.40625 34.414062 L 45.535156 34.414062 C 46.074219 34.414062 46.507812 33.976562 46.507812 33.433594 C 46.507812 32.894531 46.074219 32.457031 45.535156 32.457031 L 23.121094 32.457031 L 22.164062 29.320312 L 46.3125 29.320312 C 46.710938 29.320312 47.070312 29.074219 47.21875 28.699219 L 55.1875 8.507812 C 55.304688 8.203125 55.269531 7.863281 55.089844 7.59375 Z M 55.089844 7.59375 " fill-opacity="1" fill-rule="nonzero"/></g><path fill="#ff385c" d="M 29.242188 13.589844 L 11.066406 13.589844 C 10.527344 13.589844 10.09375 14.027344 10.09375 14.570312 C 10.09375 15.109375 10.527344 15.550781 11.066406 15.550781 L 29.242188 15.550781 C 29.777344 15.550781 30.210938 15.109375 30.210938 14.570312 C 30.210938 14.027344 29.777344 13.589844 29.242188 13.589844 Z M 29.242188 13.589844 " fill-opacity="1" fill-rule="nonzero"/><path fill="#ff385c" d="M 14.320312 17.855469 C 14.320312 18.398438 14.757812 18.835938 15.292969 18.835938 L 34.246094 18.835938 C 34.78125 18.835938 35.21875 18.398438 35.21875 17.855469 C 35.21875 17.316406 34.78125 16.875 34.246094 16.875 L 15.292969 16.875 C 14.757812 16.875 14.320312 17.316406 14.320312 17.855469 Z M 14.320312 17.855469 " fill-opacity="1" fill-rule="nonzero"/><g clip-path="url(#717f32d643)"><path fill="#ff385c" d="M 27.441406 21.25 C 27.441406 20.710938 27.007812 20.269531 26.472656 20.269531 L 1.878906 20.269531 C 1.34375 20.269531 0.910156 20.710938 0.910156 21.25 C 0.910156 21.792969 1.34375 22.230469 1.878906 22.230469 L 26.46875 22.230469 C 27.007812 22.230469 27.441406 21.792969 27.441406 21.25 Z M 27.441406 21.25 " fill-opacity="1" fill-rule="nonzero"/></g><path fill="#ff385c" d="M 30.796875 24.632812 C 30.796875 24.09375 30.359375 23.652344 29.824219 23.652344 L 8.832031 23.652344 C 8.292969 23.652344 7.859375 24.09375 7.859375 24.632812 C 7.859375 25.175781 8.292969 25.613281 8.832031 25.613281 L 29.824219 25.613281 C 30.359375 25.613281 30.796875 25.175781 30.796875 24.632812 Z M 30.796875 24.632812 " fill-opacity="1" fill-rule="nonzero"/><g clip-path="url(#500b4f268b)"><path fill="#ff385c" d="M 21.464844 12.476562 C 22.003906 12.476562 22.4375 12.039062 22.4375 11.496094 C 22.4375 10.957031 22.003906 10.515625 21.464844 10.515625 L 1.152344 10.515625 C 0.613281 10.515625 0.179688 10.957031 0.179688 11.496094 C 0.179688 12.039062 0.613281 12.476562 1.152344 12.476562 Z M 21.464844 12.476562 " fill-opacity="1" fill-rule="nonzero"/></g><g clip-path="url(#1aa554a85b)"><path fill="#ff385c" d="M 26.195312 34.644531 C 24.585938 34.644531 23.28125 35.960938 23.28125 37.582031 C 23.28125 39.207031 24.585938 40.523438 26.195312 40.523438 C 27.804688 40.523438 29.113281 39.207031 29.113281 37.582031 C 29.109375 35.960938 27.804688 34.644531 26.195312 34.644531 Z M 26.195312 38.5625 C 25.660156 38.5625 25.222656 38.125 25.222656 37.582031 C 25.222656 37.042969 25.660156 36.601562 26.195312 36.601562 C 26.730469 36.601562 27.167969 37.042969 27.167969 37.582031 C 27.167969 38.125 26.730469 38.5625 26.195312 38.5625 Z M 26.195312 38.5625 " fill-opacity="1" fill-rule="nonzero"/></g><g clip-path="url(#5436f3dd36)"><path fill="#ff385c" d="M 39.53125 34.644531 C 37.925781 34.644531 36.617188 35.960938 36.617188 37.582031 C 36.617188 39.207031 37.925781 40.523438 39.53125 40.523438 C 41.140625 40.523438 42.449219 39.207031 42.449219 37.582031 C 42.449219 35.960938 41.140625 34.644531 39.53125 34.644531 Z M 39.53125 38.5625 C 38.996094 38.5625 38.558594 38.125 38.558594 37.582031 C 38.558594 37.042969 38.996094 36.601562 39.53125 36.601562 C 40.070312 36.601562 40.503906 37.042969 40.503906 37.582031 C 40.503906 38.125 40.070312 38.5625 39.53125 38.5625 Z M 39.53125 38.5625 " fill-opacity="1" fill-rule="nonzero"/></g></svg>