<svg xmlns="http://www.w3.org/2000/svg" xmlns:xlink="http://www.w3.org/1999/xlink" width="50" zoomAndPan="magnify" viewBox="0 0 37.5 37.499999" height="50" preserveAspectRatio="xMidYMid meet" version="1.0"><defs><clipPath id="78c784d4e9"><path d="M 0.777344 2.292969 L 37.007812 2.292969 L 37.007812 35.292969 L 0.777344 35.292969 Z M 0.777344 2.292969 " clip-rule="nonzero"/></clipPath></defs><g clip-path="url(#78c784d4e9)"><path fill="#ff385c" d="M 17.082031 2.441406 L 0.777344 13.085938 L 0.777344 35.128906 L 33.386719 35.128906 L 33.386719 17.890625 L 35.832031 15.285156 C 37.542969 13.460938 37.582031 10.582031 35.832031 8.824219 C 34.976562 7.964844 33.816406 7.484375 32.609375 7.484375 C 31.402344 7.484375 30.242188 7.964844 29.386719 8.820312 L 29.386719 8.824219 L 28.394531 9.824219 L 28.28125 9.753906 L 27.351562 8.828125 C 26.6875 8.160156 25.835938 7.726562 24.925781 7.5625 Z M 17.082031 5.441406 L 21.5 8.328125 C 21.292969 8.476562 21.089844 8.636719 20.902344 8.820312 C 19.152344 10.578125 19.1875 13.457031 20.902344 15.285156 L 23.394531 17.941406 L 17.082031 22.039062 L 4.335938 13.761719 Z M 24.125 9.996094 C 24.679688 9.996094 25.179688 10.203125 25.578125 10.601562 L 25.582031 10.601562 L 28.386719 13.40625 L 31.160156 10.597656 C 31.554688 10.203125 32.054688 9.996094 32.609375 9.996094 C 33.164062 9.996094 33.660156 10.203125 34.054688 10.597656 L 34.058594 10.597656 C 34.84375 11.386719 34.859375 12.652344 34.003906 13.566406 L 28.367188 19.570312 L 22.730469 13.5625 C 21.875 12.652344 21.890625 11.386719 22.675781 10.597656 C 23.074219 10.203125 23.570312 9.996094 24.125 9.996094 Z M 3.285156 16.078125 L 17.082031 25.03125 L 25.140625 19.800781 L 28.367188 23.242188 L 30.878906 20.5625 L 30.878906 32.617188 L 3.285156 32.617188 Z M 3.285156 16.078125 " fill-opacity="1" fill-rule="nonzero"/></g></svg>