<svg xmlns="http://www.w3.org/2000/svg" xmlns:xlink="http://www.w3.org/1999/xlink" width="75" zoomAndPan="magnify" viewBox="0 0 56.25 48" height="64" preserveAspectRatio="xMidYMid meet" version="1.0"><defs><clipPath id="ddb3bec7d0"><path d="M 4.246094 0 L 51.269531 0 L 51.269531 47.019531 L 4.246094 47.019531 Z M 4.246094 0 " clip-rule="nonzero"/></clipPath><clipPath id="2b62eac232"><path d="M 27.757812 0 C 14.773438 0 4.246094 10.527344 4.246094 23.511719 C 4.246094 36.496094 14.773438 47.019531 27.757812 47.019531 C 40.742188 47.019531 51.269531 36.496094 51.269531 23.511719 C 51.269531 10.527344 40.742188 0 27.757812 0 " clip-rule="nonzero"/></clipPath><clipPath id="c9927bfd45"><path d="M 10.234375 9 L 45.5 9 L 45.5 38.148438 L 10.234375 38.148438 Z M 10.234375 9 " clip-rule="nonzero"/></clipPath></defs><g clip-path="url(#ddb3bec7d0)"><g clip-path="url(#2b62eac232)"><path fill="#ffffff" d="M 4.246094 0 L 51.269531 0 L 51.269531 47.019531 L 4.246094 47.019531 Z M 4.246094 0 " fill-opacity="1" fill-rule="nonzero"/></g></g><g clip-path="url(#c9927bfd45)"><path fill="#545454" d="M 27.867188 38.136719 C 26.566406 38.136719 10.234375 29.261719 10.234375 18.65625 C 10.222656 17.34375 10.476562 16.085938 10.988281 14.875 C 11.5 13.664062 12.230469 12.605469 13.183594 11.691406 C 14.074219 10.824219 15.101562 10.164062 16.265625 9.71875 C 17.429688 9.269531 18.636719 9.070312 19.886719 9.121094 C 20.671875 9.117188 21.441406 9.210938 22.203125 9.394531 C 22.964844 9.578125 23.695312 9.847656 24.390625 10.207031 C 25.082031 10.566406 25.726562 11.003906 26.3125 11.515625 C 26.902344 12.027344 27.421875 12.601562 27.867188 13.238281 C 28.316406 12.601562 28.835938 12.023438 29.425781 11.511719 C 30.019531 10.996094 30.664062 10.5625 31.359375 10.203125 C 32.058594 9.84375 32.789062 9.574219 33.554688 9.390625 C 34.316406 9.207031 35.09375 9.117188 35.878906 9.121094 C 37.121094 9.078125 38.324219 9.28125 39.484375 9.722656 C 40.644531 10.167969 41.667969 10.820312 42.558594 11.679688 C 43.511719 12.59375 44.242188 13.65625 44.753906 14.867188 C 45.265625 16.078125 45.511719 17.339844 45.5 18.652344 C 45.5 29.261719 29.175781 38.136719 27.867188 38.136719 Z M 19.582031 10.957031 C 18.628906 10.953125 17.710938 11.128906 16.824219 11.484375 C 15.941406 11.839844 15.15625 12.347656 14.472656 13.007812 C 13.703125 13.746094 13.109375 14.605469 12.695312 15.589844 C 12.28125 16.570312 12.082031 17.589844 12.089844 18.652344 C 12.089844 27.390625 25.679688 35.519531 27.867188 36.269531 C 30.054688 35.519531 43.644531 27.390625 43.644531 18.652344 C 43.652344 17.589844 43.453125 16.570312 43.039062 15.589844 C 42.625 14.605469 42.03125 13.746094 41.261719 13.007812 C 40.550781 12.316406 39.730469 11.792969 38.800781 11.4375 C 37.871094 11.082031 36.90625 10.921875 35.910156 10.957031 C 35.152344 10.945312 34.410156 11.039062 33.679688 11.242188 C 32.949219 11.441406 32.265625 11.746094 31.625 12.148438 C 30.984375 12.550781 30.417969 13.035156 29.921875 13.601562 C 29.425781 14.171875 29.023438 14.796875 28.714844 15.480469 C 28.53125 15.816406 28.25 15.980469 27.867188 15.980469 C 27.484375 15.980469 27.203125 15.816406 27.019531 15.480469 C 26.710938 14.796875 26.3125 14.171875 25.820312 13.605469 C 25.328125 13.039062 24.761719 12.554688 24.125 12.152344 C 23.488281 11.75 22.804688 11.449219 22.078125 11.246094 C 21.351562 11.042969 20.613281 10.945312 19.855469 10.957031 C 19.765625 10.957031 19.671875 10.957031 19.582031 10.957031 Z M 19.582031 10.957031 " fill-opacity="1" fill-rule="nonzero"/></g></svg>