<svg xmlns="http://www.w3.org/2000/svg" xmlns:xlink="http://www.w3.org/1999/xlink" width="75" zoomAndPan="magnify" viewBox="0 0 56.25 48" height="64" preserveAspectRatio="xMidYMid meet" version="1.0"><defs><clipPath id="8528e66b18"><path d="M 0.335938 0 L 54.703125 0 L 54.703125 45.550781 L 0.335938 45.550781 Z M 0.335938 0 " clip-rule="nonzero"/></clipPath></defs><g clip-path="url(#8528e66b18)"><path fill="#e41d54" d="M 27.519531 45.53125 C 25.515625 45.53125 0.335938 31.777344 0.335938 15.34375 C 0.320312 13.308594 0.707031 11.355469 1.496094 9.480469 C 2.285156 7.605469 3.414062 5.960938 4.882812 4.546875 C 6.253906 3.203125 7.835938 2.179688 9.632812 1.488281 C 11.429688 0.792969 13.289062 0.484375 15.214844 0.5625 C 16.425781 0.558594 17.617188 0.699219 18.789062 0.984375 C 19.964844 1.269531 21.085938 1.691406 22.15625 2.246094 C 23.230469 2.804688 24.21875 3.476562 25.125 4.273438 C 26.03125 5.066406 26.832031 5.960938 27.519531 6.945312 C 28.214844 5.957031 29.015625 5.0625 29.925781 4.269531 C 30.835938 3.472656 31.828125 2.796875 32.90625 2.238281 C 33.980469 1.683594 35.105469 1.261719 36.285156 0.980469 C 37.464844 0.695312 38.65625 0.554688 39.871094 0.5625 C 41.785156 0.496094 43.640625 0.808594 45.425781 1.496094 C 47.214844 2.183594 48.796875 3.195312 50.171875 4.527344 C 51.640625 5.941406 52.765625 7.589844 53.554688 9.46875 C 54.339844 11.34375 54.726562 13.300781 54.703125 15.335938 C 54.703125 31.777344 29.539062 45.53125 27.519531 45.53125 Z M 14.75 3.410156 C 13.277344 3.40625 11.859375 3.675781 10.496094 4.226562 C 9.132812 4.777344 7.921875 5.5625 6.867188 6.585938 C 5.679688 7.730469 4.769531 9.066406 4.132812 10.585938 C 3.492188 12.105469 3.183594 13.691406 3.199219 15.335938 C 3.199219 28.875 24.144531 41.476562 27.519531 42.640625 C 30.894531 41.476562 51.84375 28.875 51.84375 15.335938 C 51.859375 13.691406 51.546875 12.105469 50.910156 10.585938 C 50.269531 9.066406 49.359375 7.730469 48.171875 6.585938 C 47.074219 5.515625 45.808594 4.707031 44.375 4.15625 C 42.941406 3.601562 41.457031 3.355469 39.921875 3.410156 C 38.753906 3.386719 37.605469 3.535156 36.480469 3.847656 C 35.355469 4.160156 34.300781 4.628906 33.3125 5.253906 C 32.328125 5.875 31.453125 6.628906 30.6875 7.507812 C 29.925781 8.386719 29.304688 9.359375 28.828125 10.421875 C 28.699219 10.660156 28.515625 10.847656 28.28125 10.988281 C 28.046875 11.125 27.792969 11.195312 27.519531 11.195312 C 27.246094 11.195312 26.992188 11.125 26.757812 10.988281 C 26.523438 10.847656 26.34375 10.660156 26.210938 10.421875 C 25.738281 9.363281 25.121094 8.394531 24.363281 7.515625 C 23.601562 6.636719 22.730469 5.886719 21.75 5.261719 C 20.769531 4.640625 19.71875 4.171875 18.597656 3.855469 C 17.476562 3.539062 16.335938 3.390625 15.171875 3.410156 C 15.03125 3.410156 14.886719 3.410156 14.75 3.410156 Z M 14.75 3.410156 " fill-opacity="1" fill-rule="nonzero"/></g></svg>