<svg xmlns="http://www.w3.org/2000/svg" xmlns:xlink="http://www.w3.org/1999/xlink" width="75" zoomAndPan="magnify" viewBox="0 0 56.25 48" height="64" preserveAspectRatio="xMidYMid meet" version="1.0"><defs><filter x="0%" y="0%" width="100%" height="100%" id="1622eb4b94"><feColorMatrix values="0 0 0 0 1 0 0 0 0 1 0 0 0 0 1 0 0 0 1 0" color-interpolation-filters="sRGB"/></filter><clipPath id="18fe04b5dc"><path d="M 4 0 L 52 0 L 52 47.019531 L 4 47.019531 Z M 4 0 " clip-rule="nonzero"/></clipPath><mask id="e1782092e8"><g filter="url(#1622eb4b94)"><rect x="-5.625" width="67.5" fill="#000000" y="-4.8" height="57.6" fill-opacity="0.2588"/></g></mask><clipPath id="7a94123ffd"><path d="M 0.246094 0 L 47.269531 0 L 47.269531 47.019531 L 0.246094 47.019531 Z M 0.246094 0 " clip-rule="nonzero"/></clipPath><clipPath id="d7b12f4af4"><path d="M 23.757812 0 C 10.773438 0 0.246094 10.527344 0.246094 23.511719 C 0.246094 36.496094 10.773438 47.019531 23.757812 47.019531 C 36.742188 47.019531 47.269531 36.496094 47.269531 23.511719 C 47.269531 10.527344 36.742188 0 23.757812 0 " clip-rule="nonzero"/></clipPath><clipPath id="452303879a"><rect x="0" width="48" y="0" height="48"/></clipPath><clipPath id="827d619830"><path d="M 10.234375 10.375 L 45.5 10.375 L 45.5 39.761719 L 10.234375 39.761719 Z M 10.234375 10.375 " clip-rule="nonzero"/></clipPath></defs><g clip-path="url(#18fe04b5dc)"><g mask="url(#e1782092e8)"><g transform="matrix(1, 0, 0, 1, 4, 0.000000000000005041)"><g clip-path="url(#452303879a)"><g clip-path="url(#7a94123ffd)"><g clip-path="url(#d7b12f4af4)"><path fill="#ffffff" d="M 0.246094 0 L 47.269531 0 L 47.269531 47.019531 L 0.246094 47.019531 Z M 0.246094 0 " fill-opacity="1" fill-rule="nonzero"/></g></g></g></g></g></g><g clip-path="url(#827d619830)"><path fill="#545454" d="M 27.867188 39.75 C 26.566406 39.75 10.234375 30.878906 10.234375 20.273438 C 10.222656 18.960938 10.476562 17.699219 10.988281 16.492188 C 11.5 15.28125 12.230469 14.222656 13.183594 13.308594 C 14.074219 12.441406 15.101562 11.78125 16.265625 11.335938 C 17.429688 10.886719 18.636719 10.6875 19.886719 10.738281 C 20.671875 10.734375 21.441406 10.828125 22.203125 11.011719 C 22.964844 11.195312 23.695312 11.464844 24.390625 11.824219 C 25.082031 12.183594 25.726562 12.617188 26.3125 13.132812 C 26.902344 13.644531 27.421875 14.21875 27.867188 14.855469 C 28.316406 14.21875 28.835938 13.640625 29.425781 13.128906 C 30.019531 12.613281 30.664062 12.179688 31.359375 11.820312 C 32.058594 11.460938 32.789062 11.191406 33.554688 11.007812 C 34.316406 10.824219 35.09375 10.734375 35.878906 10.738281 C 37.121094 10.695312 38.324219 10.894531 39.484375 11.339844 C 40.644531 11.785156 41.667969 12.4375 42.558594 13.292969 C 43.511719 14.207031 44.242188 15.269531 44.753906 16.484375 C 45.265625 17.695312 45.511719 18.957031 45.5 20.269531 C 45.5 30.878906 29.175781 39.75 27.867188 39.75 Z M 19.582031 12.574219 C 18.628906 12.570312 17.710938 12.746094 16.824219 13.101562 C 15.941406 13.457031 15.15625 13.964844 14.472656 14.621094 C 13.703125 15.363281 13.109375 16.222656 12.695312 17.203125 C 12.28125 18.183594 12.082031 19.207031 12.089844 20.269531 C 12.089844 29.003906 25.679688 37.136719 27.867188 37.886719 C 30.054688 37.136719 43.644531 29.003906 43.644531 20.269531 C 43.652344 19.207031 43.453125 18.183594 43.039062 17.203125 C 42.625 16.222656 42.03125 15.363281 41.261719 14.621094 C 40.550781 13.933594 39.730469 13.410156 38.800781 13.054688 C 37.871094 12.699219 36.90625 12.539062 35.910156 12.574219 C 35.152344 12.558594 34.410156 12.652344 33.679688 12.855469 C 32.949219 13.058594 32.265625 13.363281 31.625 13.765625 C 30.984375 14.167969 30.417969 14.652344 29.921875 15.21875 C 29.425781 15.785156 29.023438 16.414062 28.714844 17.097656 C 28.53125 17.429688 28.25 17.597656 27.867188 17.597656 C 27.484375 17.597656 27.203125 17.429688 27.019531 17.097656 C 26.710938 16.414062 26.3125 15.789062 25.820312 15.222656 C 25.328125 14.65625 24.761719 14.171875 24.125 13.769531 C 23.488281 13.367188 22.804688 13.066406 22.078125 12.859375 C 21.351562 12.65625 20.613281 12.5625 19.855469 12.574219 C 19.765625 12.574219 19.671875 12.574219 19.582031 12.574219 Z M 19.582031 12.574219 " fill-opacity="1" fill-rule="nonzero"/></g></svg>