<svg xmlns="http://www.w3.org/2000/svg" xmlns:xlink="http://www.w3.org/1999/xlink" width="75" zoomAndPan="magnify" viewBox="0 0 56.25 56.249997" height="75" preserveAspectRatio="xMidYMid meet" version="1.0"><defs><clipPath id="569b822ddc"><path d="M 1 1.414062 L 55.511719 1.414062 L 55.511719 55.441406 L 1 55.441406 Z M 1 1.414062 " clip-rule="nonzero"/></clipPath></defs><g clip-path="url(#569b822ddc)"><path fill="#47403c" d="M 40.445312 27.207031 C 40.222656 26.734375 40.015625 26.25 39.808594 25.792969 C 41.789062 24.285156 42.339844 22.679688 41.546875 20.898438 C 40.753906 19.117188 39.167969 18.488281 36.570312 18.96875 C 35.949219 17.65625 35.320312 16.335938 34.695312 15.007812 C 33.46875 12.40625 32.265625 9.796875 31.011719 7.207031 C 30.871094 6.914062 30.6875 6.652344 30.457031 6.425781 C 30.226562 6.199219 29.964844 6.015625 29.671875 5.878906 C 29.378906 5.742188 29.070312 5.65625 28.746094 5.628906 C 28.425781 5.597656 28.105469 5.625 27.792969 5.707031 C 27.476562 5.789062 27.1875 5.917969 26.921875 6.101562 C 26.652344 6.285156 26.421875 6.507812 26.234375 6.769531 C 26.042969 7.035156 25.90625 7.320312 25.816406 7.632812 C 25.726562 7.941406 25.691406 8.261719 25.710938 8.582031 C 26.128906 11.261719 25.269531 13.617188 23.921875 15.828125 C 21.851562 19.183594 19.085938 21.816406 15.628906 23.726562 C 12.550781 25.46875 9.308594 26.9375 6.113281 28.476562 C 2.070312 30.421875 0.230469 34.601562 1.628906 38.667969 C 1.800781 39.148438 2.015625 39.609375 2.273438 40.050781 C 2.53125 40.492188 2.828125 40.90625 3.164062 41.292969 C 3.5 41.679688 3.867188 42.027344 4.269531 42.34375 C 4.671875 42.660156 5.101562 42.933594 5.554688 43.167969 C 6.007812 43.40625 6.480469 43.59375 6.972656 43.742188 C 7.460938 43.886719 7.960938 43.984375 8.472656 44.035156 C 8.980469 44.085938 9.488281 44.089844 10 44.046875 C 10.507812 44 11.007812 43.910156 11.5 43.769531 C 12.023438 43.609375 12.277344 43.789062 12.542969 44.21875 C 13.316406 45.472656 14.132812 46.699219 14.933594 47.9375 C 16.1875 49.878906 17.429688 51.824219 18.695312 53.757812 C 18.859375 54.035156 19.0625 54.28125 19.308594 54.492188 C 19.550781 54.703125 19.820312 54.875 20.113281 55.003906 C 20.410156 55.132812 20.71875 55.210938 21.042969 55.242188 C 21.363281 55.273438 21.679688 55.253906 21.996094 55.183594 C 22.300781 55.152344 22.59375 55.074219 22.875 54.945312 C 23.152344 54.816406 23.402344 54.648438 23.625 54.4375 C 23.851562 54.230469 24.035156 53.988281 24.175781 53.71875 C 24.320312 53.445312 24.417969 53.160156 24.464844 52.855469 C 24.578125 51.960938 24.453125 51.09375 24.09375 50.265625 C 23.0625 47.847656 21.882812 45.488281 20.765625 43.117188 C 23.683594 41.484375 23.964844 41.011719 23.355469 38.765625 C 23.457031 38.6875 23.566406 38.621094 23.683594 38.574219 C 27.085938 37.46875 30.558594 37.125 34.109375 37.539062 C 35.324219 37.652344 36.484375 37.960938 37.59375 38.464844 C 38.703125 38.96875 39.699219 39.636719 40.582031 40.472656 C 41.796875 41.699219 43.25 41.910156 44.457031 41.054688 C 45.636719 40.214844 45.914062 38.828125 45.191406 37.285156 C 43.609375 33.925781 42.027344 30.566406 40.445312 27.207031 Z M 39.71875 21.628906 C 40.144531 22.46875 39.914062 23.179688 38.902344 23.914062 L 37.472656 20.890625 C 38.613281 20.578125 39.316406 20.835938 39.71875 21.628906 Z M 10.558594 41.929688 C 10.210938 42.019531 9.859375 42.074219 9.503906 42.097656 C 9.148438 42.121094 8.792969 42.113281 8.4375 42.074219 C 8.082031 42.03125 7.730469 41.960938 7.390625 41.855469 C 7.046875 41.75 6.71875 41.617188 6.402344 41.453125 C 6.085938 41.289062 5.785156 41.09375 5.5 40.875 C 5.21875 40.65625 4.960938 40.414062 4.722656 40.148438 C 4.484375 39.882812 4.269531 39.597656 4.085938 39.289062 C 3.898438 38.984375 3.742188 38.667969 3.613281 38.332031 C 3.328125 37.671875 3.164062 36.984375 3.125 36.265625 C 3.085938 35.550781 3.171875 34.847656 3.386719 34.160156 C 3.597656 33.472656 3.921875 32.84375 4.363281 32.277344 C 4.800781 31.707031 5.324219 31.230469 5.933594 30.847656 C 7.671875 29.808594 9.570312 29.035156 11.5 28.09375 C 13.277344 31.867188 15.007812 35.539062 16.804688 39.347656 C 14.773438 40.328125 12.691406 41.1875 10.558594 41.929688 Z M 22.355469 51.121094 C 22.808594 52.089844 22.695312 52.808594 21.988281 53.125 C 21.164062 53.488281 20.605469 53.117188 20.148438 52.40625 C 18.121094 49.226562 16.0625 46.0625 13.960938 42.808594 L 17.570312 41.101562 C 17.714844 41.355469 17.855469 41.570312 17.964844 41.800781 C 19.433594 44.90625 20.894531 48.011719 22.355469 51.121094 Z M 19.890625 41.183594 C 19.75 40.902344 19.601562 40.625 19.402344 40.222656 L 21.277344 39.390625 C 21.835938 40.46875 21.707031 40.625 19.890625 41.183594 Z M 43.601562 39.105469 C 43.535156 39.257812 43.429688 39.371094 43.28125 39.449219 C 42.871094 39.351562 42.324219 39.390625 42.066406 39.136719 C 41.089844 38.207031 39.992188 37.445312 38.773438 36.859375 C 37.558594 36.273438 36.28125 35.890625 34.945312 35.703125 C 30.324219 34.9375 25.875 35.710938 21.519531 37.230469 C 20.546875 37.570312 19.597656 37.976562 18.535156 38.390625 C 16.769531 34.640625 15.050781 30.996094 13.425781 27.546875 C 15.925781 25.808594 18.449219 24.273438 20.71875 22.421875 C 23.988281 19.753906 26.542969 16.492188 27.484375 12.246094 C 27.683594 11.195312 27.765625 10.132812 27.730469 9.0625 C 27.730469 8.480469 27.53125 7.855469 28.246094 7.628906 C 29.054688 7.367188 29.242188 8.070312 29.496094 8.605469 C 32.117188 14.175781 34.738281 19.738281 37.359375 25.304688 C 39.3125 29.445312 41.265625 33.589844 43.21875 37.730469 C 43.289062 37.882812 43.339844 37.980469 43.417969 38.183594 C 43.683594 38.851562 43.625 39.042969 43.601562 39.105469 Z M 36.601562 6.058594 C 36.410156 5.648438 36.445312 5.257812 36.707031 4.886719 C 37.363281 3.90625 38.027344 2.929688 38.699219 1.972656 C 38.953125 1.597656 39.304688 1.410156 39.757812 1.414062 C 40.226562 1.429688 40.582031 1.644531 40.820312 2.050781 L 40.902344 2.167969 L 40.867188 2.308594 C 40.855469 2.382812 40.847656 2.457031 40.839844 2.539062 C 40.824219 2.777344 40.757812 3.003906 40.640625 3.214844 C 39.976562 4.238281 39.269531 5.253906 38.601562 6.203125 C 38.480469 6.382812 38.324219 6.519531 38.128906 6.617188 C 37.726562 6.808594 37.339844 6.773438 36.976562 6.507812 C 36.8125 6.390625 36.6875 6.242188 36.601562 6.0625 Z M 54.828125 35.789062 L 54.742188 35.902344 L 54.605469 35.917969 C 54.53125 35.929688 54.457031 35.945312 54.375 35.964844 C 54.148438 36.03125 53.914062 36.046875 53.675781 36.007812 C 52.488281 35.722656 51.292969 35.398438 50.171875 35.082031 C 49.964844 35.027344 49.78125 34.925781 49.628906 34.777344 C 49.3125 34.460938 49.21875 34.085938 49.34375 33.65625 C 49.386719 33.511719 49.453125 33.375 49.550781 33.253906 C 49.644531 33.132812 49.761719 33.035156 49.894531 32.960938 C 50.027344 32.886719 50.171875 32.839844 50.324219 32.820312 C 50.476562 32.804688 50.628906 32.816406 50.773438 32.855469 C 51.917969 33.148438 53.0625 33.445312 54.191406 33.761719 C 54.628906 33.875 54.925781 34.144531 55.070312 34.570312 C 55.214844 35.023438 55.132812 35.425781 54.828125 35.789062 Z M 50.539062 16.953125 C 49.511719 17.613281 48.445312 18.25 47.445312 18.839844 C 47.261719 18.957031 47.0625 19.015625 46.847656 19.023438 C 46.398438 19.03125 46.0625 18.839844 45.839844 18.449219 C 45.761719 18.316406 45.710938 18.171875 45.691406 18.019531 C 45.671875 17.867188 45.679688 17.71875 45.71875 17.566406 C 45.757812 17.417969 45.824219 17.28125 45.917969 17.160156 C 46.011719 17.039062 46.125 16.9375 46.257812 16.859375 C 47.261719 16.238281 48.269531 15.621094 49.277344 15.027344 C 49.664062 14.785156 50.0625 14.761719 50.472656 14.953125 C 50.894531 15.164062 51.132812 15.503906 51.183594 15.972656 L 51.207031 16.113281 L 51.117188 16.226562 C 51.078125 16.289062 51.035156 16.351562 50.996094 16.421875 C 50.882812 16.636719 50.730469 16.8125 50.539062 16.953125 Z M 50.539062 16.953125 " fill-opacity="1" fill-rule="nonzero"/></g></svg>