<svg xmlns="http://www.w3.org/2000/svg" xmlns:xlink="http://www.w3.org/1999/xlink" width="75" zoomAndPan="magnify" viewBox="0 0 56.25 56.249997" height="75" preserveAspectRatio="xMidYMid meet" version="1.0"><defs><clipPath id="668886f1c2"><path d="M 0 0 L 55.511719 0 L 55.511719 55.511719 L 0 55.511719 Z M 0 0 " clip-rule="nonzero"/></clipPath></defs><g clip-path="url(#668886f1c2)"><path fill="#e41d54" d="M 23.457031 55.21875 C 23.246094 55.125 22.839844 55.042969 22.558594 55.035156 C 21.800781 55.015625 17.074219 53.519531 16.167969 53.011719 C 15.742188 52.773438 14.699219 52.199219 13.851562 51.734375 C 11.582031 50.488281 8.488281 47.832031 6.5 45.417969 C 4.796875 43.355469 2.226562 38.96875 1.933594 37.632812 C 1.863281 37.308594 1.550781 36.253906 1.238281 35.285156 C 0.304688 32.402344 0 27.992188 0.445312 23.976562 C 0.941406 19.550781 3.226562 14.019531 5.859375 10.867188 C 6.347656 10.28125 6.917969 9.589844 7.128906 9.324219 C 7.621094 8.703125 8.914062 7.40625 9.53125 6.910156 C 9.796875 6.699219 10.488281 6.128906 11.066406 5.640625 C 11.648438 5.15625 12.425781 4.578125 12.796875 4.359375 C 14.769531 3.179688 17.222656 1.921875 17.980469 1.695312 C 23.136719 0.15625 24.0625 -0.00390625 27.78125 0 C 30.570312 0 33.363281 0.296875 34.597656 0.71875 C 35.019531 0.863281 36.015625 1.171875 36.808594 1.40625 C 38.234375 1.824219 40.183594 2.734375 42.148438 3.898438 C 42.707031 4.230469 43.214844 4.5 43.277344 4.5 C 43.34375 4.5 43.921875 4.957031 44.566406 5.515625 C 45.210938 6.074219 46.152344 6.863281 46.660156 7.269531 C 47.886719 8.253906 50.871094 11.984375 51.773438 13.660156 C 52.171875 14.402344 52.71875 15.398438 52.984375 15.878906 C 53.503906 16.8125 54.757812 20.625 55.089844 22.28125 C 55.457031 24.105469 55.507812 30.507812 55.175781 32.453125 C 54 39.328125 50.496094 45.199219 44.855469 49.75 C 43.453125 50.882812 42.894531 51.234375 40.003906 52.796875 C 38.621094 53.546875 35.902344 54.472656 33.636719 54.972656 C 32.097656 55.308594 24.09375 55.503906 23.457031 55.21875 Z M 32.347656 52.125 C 34.871094 50.835938 37.707031 47.863281 39.390625 44.734375 C 39.78125 44.007812 40.054688 43.292969 39.996094 43.144531 C 39.855469 42.777344 29.140625 42.738281 28.777344 43.105469 C 28.53125 43.355469 28.429688 52.71875 28.671875 52.960938 C 28.976562 53.265625 31.023438 52.800781 32.347656 52.125 Z M 26.242188 48.175781 C 26.296875 45.628906 26.265625 43.382812 26.175781 43.183594 C 26.03125 42.867188 25.867188 42.835938 24.847656 42.945312 C 24.210938 43.011719 21.800781 43.066406 19.492188 43.066406 C 15.464844 43.066406 15.292969 43.082031 15.292969 43.441406 C 15.292969 43.644531 15.371094 43.863281 15.464844 43.921875 C 15.558594 43.980469 15.871094 44.484375 16.160156 45.039062 C 18.195312 48.980469 22.847656 52.960938 25.28125 52.84375 L 26.148438 52.804688 Z M 39.171875 50.726562 C 39.722656 50.378906 40.589844 49.878906 41.097656 49.617188 C 43.230469 48.519531 48.402344 43.644531 48.046875 43.066406 C 47.863281 42.769531 43.050781 42.8125 42.8125 43.113281 C 42.710938 43.246094 42.171875 44.234375 41.621094 45.3125 C 41.066406 46.386719 39.929688 48.148438 39.09375 49.222656 C 38.261719 50.300781 37.578125 51.21875 37.578125 51.269531 C 37.578125 51.527344 38.285156 51.285156 39.171875 50.726562 Z M 17.191406 50.421875 C 17.042969 50.226562 16.398438 49.367188 15.753906 48.515625 C 15.109375 47.664062 14.210938 46.238281 13.761719 45.351562 C 12.539062 42.949219 12.726562 43.066406 10.078125 43.066406 C 8.164062 43.066406 7.800781 43.113281 7.800781 43.359375 C 7.800781 43.738281 11.203125 47.171875 12.683594 48.285156 C 15.152344 50.140625 17.972656 51.480469 17.191406 50.421875 Z M 11.554688 40.542969 C 11.625 40.429688 11.550781 39.972656 11.386719 39.53125 C 10.898438 38.222656 9.964844 33.089844 9.84375 31.039062 C 9.78125 29.992188 9.632812 29.015625 9.511719 28.867188 C 9.339844 28.664062 8.589844 28.605469 6.191406 28.605469 C 4.488281 28.609375 2.96875 28.691406 2.8125 28.789062 C 1.988281 29.3125 3.304688 35.605469 4.890625 38.71875 C 5.953125 40.804688 5.847656 40.75 8.847656 40.75 C 10.484375 40.75 11.476562 40.675781 11.554688 40.542969 Z M 26.25 40.25 C 26.363281 39.949219 26.421875 37.535156 26.390625 34.222656 L 26.339844 28.699219 L 19.421875 28.652344 C 15.613281 28.628906 12.386719 28.683594 12.238281 28.777344 C 12.015625 28.921875 12.003906 29.347656 12.1875 31.429688 C 12.53125 35.410156 13.660156 40.132812 14.375 40.589844 C 14.511719 40.675781 17.195312 40.746094 20.339844 40.75 L 26.058594 40.75 Z M 41.296875 40.125 C 42.359375 38.425781 43.855469 29.136719 43.140625 28.695312 C 42.855469 28.519531 29.070312 28.582031 28.898438 28.757812 C 28.71875 28.941406 28.460938 39.410156 28.621094 40.046875 L 28.746094 40.558594 L 41.027344 40.558594 Z M 50 40.125 C 50.777344 39.25 51.425781 37.828125 52.152344 35.414062 C 53.03125 32.5 53.542969 28.859375 53.113281 28.582031 C 52.679688 28.308594 46.351562 28.371094 45.976562 28.652344 C 45.730469 28.839844 45.613281 29.449219 45.460938 31.371094 C 45.246094 34.082031 44.605469 37.78125 44.183594 38.78125 C 44.039062 39.128906 43.917969 39.671875 43.917969 39.988281 L 43.917969 40.558594 L 46.765625 40.558594 C 49.476562 40.558594 49.632812 40.539062 50 40.125 Z M 9.597656 26.078125 C 9.726562 25.898438 9.851562 25.109375 9.882812 24.332031 C 9.957031 22.324219 10.96875 16.804688 11.425781 15.914062 C 11.796875 15.191406 11.519531 15.105469 8.746094 15.105469 C 6.34375 15.105469 6.035156 15.144531 5.695312 15.484375 C 5.144531 16.039062 4.441406 17.519531 3.851562 19.367188 C 3.566406 20.257812 3.214844 21.359375 3.070312 21.8125 C 2.664062 23.085938 2.503906 25.828125 2.8125 26.199219 C 3.027344 26.460938 3.53125 26.5 6.214844 26.457031 C 8.9375 26.414062 9.398438 26.363281 9.597656 26.078125 Z M 26.433594 20.890625 C 26.488281 17.972656 26.457031 15.480469 26.363281 15.347656 C 26.234375 15.164062 24.804688 15.105469 20.3125 15.109375 C 17.074219 15.109375 14.335938 15.175781 14.222656 15.253906 C 13.871094 15.496094 13.351562 17.050781 12.878906 19.289062 C 12.386719 21.625 11.929688 25.570312 12.101562 26.015625 C 12.191406 26.253906 13.269531 26.289062 19.273438 26.246094 L 26.339844 26.195312 Z M 43.105469 26.050781 C 43.585938 25.453125 42.601562 18.671875 41.667969 16.167969 L 41.308594 15.203125 L 28.835938 15.203125 L 28.738281 20.472656 C 28.6875 23.371094 28.714844 25.863281 28.796875 26.015625 C 29.011719 26.394531 42.796875 26.429688 43.105469 26.050781 Z M 52.992188 26.050781 C 53.273438 25.832031 53.277344 25.621094 53.058594 23.976562 C 52.648438 20.867188 50.78125 15.773438 49.792969 15.050781 C 49.46875 14.816406 44.140625 14.996094 43.886719 15.25 C 43.726562 15.414062 43.753906 15.644531 43.996094 16.15625 C 44.175781 16.535156 44.445312 17.5625 44.597656 18.433594 C 44.75 19.308594 44.964844 20.328125 45.074219 20.699219 C 45.183594 21.070312 45.324219 22.355469 45.390625 23.558594 C 45.476562 25.050781 45.601562 25.832031 45.785156 26.015625 C 46.152344 26.386719 52.515625 26.414062 52.992188 26.050781 Z M 12.257812 12.746094 C 12.425781 12.613281 13.023438 11.59375 13.589844 10.480469 C 14.152344 9.363281 15.246094 7.636719 16.019531 6.640625 C 16.824219 5.609375 17.355469 4.757812 17.257812 4.660156 C 17.039062 4.441406 13.863281 6.277344 12.339844 7.503906 C 10.117188 9.296875 7.332031 12.285156 7.492188 12.707031 C 7.632812 13.078125 11.796875 13.109375 12.257812 12.746094 Z M 26.367188 12.574219 C 26.574219 12.40625 26.628906 11.332031 26.628906 7.46875 L 26.628906 2.582031 L 26.148438 2.460938 C 25.515625 2.300781 24.980469 2.449219 23.261719 3.257812 C 21.488281 4.089844 19.320312 5.953125 17.816406 7.941406 C 16.410156 9.792969 14.921875 12.5625 15.230469 12.753906 C 15.601562 12.984375 26.078125 12.816406 26.367188 12.574219 Z M 40.15625 12.625 C 40.3125 12.371094 38.675781 9.445312 37.5 7.875 C 36.015625 5.898438 34.109375 4.25 32.253906 3.347656 C 30.464844 2.476562 29.878906 2.296875 29.359375 2.460938 C 29.015625 2.570312 28.984375 2.882812 28.863281 7.417969 C 28.765625 10.945312 28.789062 12.332031 28.949219 12.527344 C 29.128906 12.742188 30.21875 12.792969 34.609375 12.792969 C 37.601562 12.792969 40.097656 12.71875 40.15625 12.625 Z M 48.222656 12.625 C 48.371094 12.382812 46.121094 9.804688 44.667969 8.542969 C 42.753906 6.886719 42.007812 6.347656 40.496094 5.539062 L 38.480469 4.460938 C 38.140625 4.28125 37.804688 4.128906 37.726562 4.125 C 37.503906 4.109375 38.257812 5.269531 39.445312 6.761719 C 40.054688 7.527344 41.074219 9.152344 41.707031 10.371094 C 42.339844 11.589844 42.988281 12.625 43.148438 12.667969 C 43.71875 12.828125 48.121094 12.789062 48.222656 12.625 Z M 48.222656 12.625 " fill-opacity="1" fill-rule="nonzero"/></g></svg>