<svg xmlns="http://www.w3.org/2000/svg" xmlns:xlink="http://www.w3.org/1999/xlink" width="75" zoomAndPan="magnify" viewBox="0 0 56.25 56.249997" height="75" preserveAspectRatio="xMidYMid meet" version="1.0"><defs><clipPath id="8a1f1c4c8d"><path d="M 5.550781 0 L 49.957031 0 L 49.957031 55.511719 L 5.550781 55.511719 Z M 5.550781 0 " clip-rule="nonzero"/></clipPath></defs><g clip-path="url(#8a1f1c4c8d)"><path fill="#e41d54" d="M 48.558594 55.539062 C 48.746094 55.539062 48.929688 55.503906 49.105469 55.429688 C 49.28125 55.359375 49.4375 55.253906 49.570312 55.121094 C 49.707031 54.988281 49.808594 54.832031 49.882812 54.660156 C 49.953125 54.484375 49.992188 54.300781 49.992188 54.113281 C 49.992188 39.097656 40.792969 33.042969 34.300781 30.640625 C 34.859375 30.402344 35.40625 30.128906 35.933594 29.828125 C 36.460938 29.527344 36.972656 29.199219 37.460938 28.839844 C 37.953125 28.480469 38.421875 28.09375 38.867188 27.683594 C 39.3125 27.269531 39.734375 26.835938 40.132812 26.375 C 40.527344 25.914062 40.898438 25.433594 41.238281 24.933594 C 41.582031 24.433594 41.894531 23.914062 42.175781 23.375 C 42.457031 22.839844 42.707031 22.289062 42.925781 21.722656 C 43.144531 21.160156 43.332031 20.582031 43.484375 19.996094 C 43.636719 19.410156 43.757812 18.816406 43.839844 18.21875 C 43.925781 17.617188 43.976562 17.015625 43.992188 16.410156 C 44.007812 15.804688 43.992188 15.203125 43.9375 14.597656 C 43.882812 13.996094 43.796875 13.398438 43.675781 12.804688 C 43.554688 12.210938 43.398438 11.625 43.210938 11.050781 C 43.019531 10.476562 42.800781 9.910156 42.546875 9.359375 C 42.292969 8.808594 42.007812 8.277344 41.695312 7.757812 C 41.378906 7.238281 41.039062 6.738281 40.667969 6.257812 C 40.292969 5.78125 39.898438 5.324219 39.472656 4.886719 C 39.046875 4.453125 38.601562 4.042969 38.128906 3.660156 C 37.660156 3.273438 37.167969 2.917969 36.65625 2.589844 C 36.144531 2.261719 35.617188 1.960938 35.070312 1.695312 C 34.523438 1.425781 33.964844 1.1875 33.390625 0.984375 C 32.816406 0.777344 32.234375 0.605469 31.640625 0.464844 C 31.050781 0.324219 30.449219 0.21875 29.84375 0.148438 C 29.242188 0.078125 28.632812 0.0390625 28.023438 0.0351562 C 27.414062 0.0351562 26.808594 0.0664062 26.203125 0.128906 C 25.597656 0.195312 24.996094 0.296875 24.402344 0.429688 C 23.808594 0.5625 23.222656 0.730469 22.648438 0.929688 C 22.074219 1.128906 21.511719 1.359375 20.960938 1.625 C 20.414062 1.886719 19.882812 2.179688 19.367188 2.503906 C 18.851562 2.828125 18.355469 3.179688 17.882812 3.558594 C 17.40625 3.9375 16.957031 4.34375 16.527344 4.773438 C 16.097656 5.203125 15.695312 5.65625 15.320312 6.132812 C 14.941406 6.609375 14.59375 7.105469 14.277344 7.621094 C 13.957031 8.136719 13.667969 8.667969 13.40625 9.214844 C 13.148438 9.765625 12.921875 10.324219 12.726562 10.898438 C 12.535156 11.472656 12.371094 12.054688 12.246094 12.648438 C 12.117188 13.238281 12.023438 13.835938 11.964844 14.4375 C 11.90625 15.042969 11.878906 15.644531 11.890625 16.25 C 11.902344 16.855469 11.945312 17.460938 12.023438 18.058594 C 12.101562 18.660156 12.214844 19.253906 12.363281 19.839844 C 12.511719 20.429688 12.691406 21.007812 12.902344 21.574219 C 13.117188 22.140625 13.363281 22.695312 13.636719 23.234375 C 13.914062 23.773438 14.222656 24.296875 14.558594 24.800781 C 14.894531 25.304688 15.257812 25.789062 15.648438 26.253906 C 16.042969 26.714844 16.460938 27.15625 16.902344 27.574219 C 17.34375 27.988281 17.808594 28.378906 18.296875 28.742188 C 18.78125 29.105469 19.289062 29.441406 19.8125 29.75 C 20.339844 30.054688 20.878906 30.332031 21.4375 30.578125 C 14.941406 32.941406 5.582031 38.972656 5.582031 54.09375 C 5.582031 54.28125 5.621094 54.460938 5.691406 54.636719 C 5.765625 54.8125 5.867188 54.964844 6.003906 55.097656 C 6.136719 55.234375 6.292969 55.335938 6.46875 55.410156 C 6.644531 55.480469 6.828125 55.515625 7.015625 55.515625 C 7.207031 55.515625 7.390625 55.480469 7.566406 55.410156 C 7.742188 55.335938 7.898438 55.234375 8.03125 55.097656 C 8.167969 54.964844 8.269531 54.8125 8.34375 54.636719 C 8.414062 54.460938 8.453125 54.28125 8.453125 54.09375 C 8.453125 33.699219 26.960938 32 27.746094 31.921875 L 27.847656 31.921875 C 28.859375 32 47.121094 33.824219 47.121094 54.085938 C 47.117188 54.277344 47.152344 54.460938 47.222656 54.640625 C 47.292969 54.816406 47.398438 54.972656 47.53125 55.109375 C 47.667969 55.246094 47.824219 55.351562 48 55.425781 C 48.179688 55.5 48.363281 55.539062 48.558594 55.539062 Z M 14.753906 15.996094 C 14.753906 15.136719 14.839844 14.285156 15.007812 13.441406 C 15.175781 12.597656 15.425781 11.777344 15.757812 10.980469 C 16.089844 10.1875 16.496094 9.433594 16.976562 8.714844 C 17.457031 8 18.003906 7.339844 18.617188 6.730469 C 19.230469 6.121094 19.894531 5.578125 20.617188 5.101562 C 21.335938 4.621094 22.097656 4.21875 22.898438 3.890625 C 23.695312 3.5625 24.519531 3.3125 25.371094 3.144531 C 26.21875 2.976562 27.078125 2.894531 27.945312 2.894531 C 28.808594 2.894531 29.667969 2.976562 30.515625 3.144531 C 31.367188 3.3125 32.191406 3.5625 32.992188 3.890625 C 33.789062 4.222656 34.550781 4.625 35.269531 5.101562 C 35.988281 5.582031 36.65625 6.125 37.269531 6.734375 C 37.878906 7.34375 38.425781 8.003906 38.90625 8.71875 C 39.390625 9.4375 39.792969 10.191406 40.125 10.988281 C 40.457031 11.78125 40.707031 12.601562 40.875 13.445312 C 41.042969 14.289062 41.128906 15.140625 41.128906 16.003906 C 41.128906 16.863281 41.042969 17.714844 40.875 18.558594 C 40.703125 19.402344 40.453125 20.222656 40.121094 21.015625 C 39.789062 21.8125 39.382812 22.566406 38.902344 23.28125 C 38.421875 23.996094 37.875 24.660156 37.261719 25.269531 C 36.648438 25.875 35.984375 26.417969 35.261719 26.898438 C 34.542969 27.375 33.78125 27.777344 32.980469 28.105469 C 32.179688 28.4375 31.355469 28.683594 30.507812 28.851562 C 29.65625 29.019531 28.800781 29.101562 27.933594 29.101562 C 27.070312 29.101562 26.210938 29.015625 25.363281 28.847656 C 24.515625 28.679688 23.691406 28.429688 22.890625 28.101562 C 22.09375 27.769531 21.332031 27.367188 20.613281 26.886719 C 19.894531 26.410156 19.226562 25.867188 18.617188 25.257812 C 18.003906 24.652344 17.457031 23.988281 16.976562 23.273438 C 16.496094 22.558594 16.089844 21.804688 15.757812 21.007812 C 15.429688 20.214844 15.179688 19.394531 15.007812 18.550781 C 14.839844 17.710938 14.753906 16.855469 14.753906 15.996094 Z M 14.753906 15.996094 " fill-opacity="1" fill-rule="nonzero"/></g></svg>