<svg xmlns="http://www.w3.org/2000/svg" xmlns:xlink="http://www.w3.org/1999/xlink" width="149" zoomAndPan="magnify" viewBox="0 0 111.75 30.000001" height="40" preserveAspectRatio="xMidYMid meet" version="1.0"><defs><g/></defs><g fill="#ff385c" fill-opacity="1"><g transform="translate(1.783209, 22.181311)"><g><path d="M 6.796875 0.1875 C 5.585938 0.1875 4.53125 -0.00390625 3.625 -0.390625 C 2.726562 -0.773438 2.035156 -1.320312 1.546875 -2.03125 C 1.054688 -2.75 0.8125 -3.582031 0.8125 -4.53125 L 0.8125 -5.03125 C 0.8125 -5.101562 0.835938 -5.164062 0.890625 -5.21875 C 0.941406 -5.28125 1.003906 -5.3125 1.078125 -5.3125 L 3.65625 -5.3125 C 3.726562 -5.3125 3.789062 -5.28125 3.84375 -5.21875 C 3.894531 -5.164062 3.921875 -5.101562 3.921875 -5.03125 L 3.921875 -4.703125 C 3.921875 -4.097656 4.195312 -3.585938 4.75 -3.171875 C 5.3125 -2.753906 6.066406 -2.546875 7.015625 -2.546875 C 7.816406 -2.546875 8.410156 -2.710938 8.796875 -3.046875 C 9.191406 -3.390625 9.390625 -3.8125 9.390625 -4.3125 C 9.390625 -4.675781 9.269531 -4.976562 9.03125 -5.21875 C 8.789062 -5.46875 8.460938 -5.6875 8.046875 -5.875 C 7.628906 -6.0625 6.972656 -6.320312 6.078125 -6.65625 C 5.066406 -7.007812 4.210938 -7.363281 3.515625 -7.71875 C 2.816406 -8.082031 2.226562 -8.578125 1.75 -9.203125 C 1.269531 -9.828125 1.03125 -10.597656 1.03125 -11.515625 C 1.03125 -12.421875 1.265625 -13.210938 1.734375 -13.890625 C 2.203125 -14.566406 2.847656 -15.082031 3.671875 -15.4375 C 4.503906 -15.800781 5.460938 -15.984375 6.546875 -15.984375 C 7.691406 -15.984375 8.710938 -15.78125 9.609375 -15.375 C 10.503906 -14.96875 11.203125 -14.398438 11.703125 -13.671875 C 12.210938 -12.941406 12.46875 -12.09375 12.46875 -11.125 L 12.46875 -10.796875 C 12.46875 -10.710938 12.441406 -10.644531 12.390625 -10.59375 C 12.335938 -10.539062 12.269531 -10.515625 12.1875 -10.515625 L 9.59375 -10.515625 C 9.519531 -10.515625 9.457031 -10.539062 9.40625 -10.59375 C 9.351562 -10.644531 9.328125 -10.710938 9.328125 -10.796875 L 9.328125 -10.96875 C 9.328125 -11.601562 9.066406 -12.140625 8.546875 -12.578125 C 8.023438 -13.023438 7.3125 -13.25 6.40625 -13.25 C 5.695312 -13.25 5.144531 -13.097656 4.75 -12.796875 C 4.351562 -12.492188 4.15625 -12.082031 4.15625 -11.5625 C 4.15625 -11.1875 4.269531 -10.867188 4.5 -10.609375 C 4.738281 -10.359375 5.085938 -10.128906 5.546875 -9.921875 C 6.003906 -9.722656 6.710938 -9.445312 7.671875 -9.09375 C 8.742188 -8.707031 9.582031 -8.363281 10.1875 -8.0625 C 10.800781 -7.757812 11.351562 -7.3125 11.84375 -6.71875 C 12.332031 -6.125 12.578125 -5.351562 12.578125 -4.40625 C 12.578125 -2.988281 12.054688 -1.867188 11.015625 -1.046875 C 9.972656 -0.222656 8.566406 0.1875 6.796875 0.1875 Z M 6.796875 0.1875 "/></g></g></g><g fill="#ff385c" fill-opacity="1"><g transform="translate(13.809448, 22.181311)"><g><path d="M 7.21875 -11.78125 C 8.425781 -11.78125 9.398438 -11.410156 10.140625 -10.671875 C 10.878906 -9.941406 11.25 -8.941406 11.25 -7.671875 L 11.25 -0.265625 C 11.25 -0.191406 11.21875 -0.128906 11.15625 -0.078125 C 11.101562 -0.0234375 11.039062 0 10.96875 0 L 8.328125 0 C 8.253906 0 8.191406 -0.0234375 8.140625 -0.078125 C 8.085938 -0.128906 8.0625 -0.191406 8.0625 -0.265625 L 8.0625 -7.015625 C 8.0625 -7.617188 7.890625 -8.109375 7.546875 -8.484375 C 7.210938 -8.859375 6.765625 -9.046875 6.203125 -9.046875 C 5.648438 -9.046875 5.203125 -8.859375 4.859375 -8.484375 C 4.523438 -8.109375 4.359375 -7.617188 4.359375 -7.015625 L 4.359375 -0.265625 C 4.359375 -0.191406 4.332031 -0.128906 4.28125 -0.078125 C 4.226562 -0.0234375 4.164062 0 4.09375 0 L 1.4375 0 C 1.363281 0 1.300781 -0.0234375 1.25 -0.078125 C 1.195312 -0.128906 1.171875 -0.191406 1.171875 -0.265625 L 1.171875 -15.53125 C 1.171875 -15.601562 1.195312 -15.664062 1.25 -15.71875 C 1.300781 -15.78125 1.363281 -15.8125 1.4375 -15.8125 L 4.09375 -15.8125 C 4.164062 -15.8125 4.226562 -15.78125 4.28125 -15.71875 C 4.332031 -15.664062 4.359375 -15.601562 4.359375 -15.53125 L 4.359375 -10.546875 C 4.359375 -10.492188 4.375 -10.460938 4.40625 -10.453125 C 4.4375 -10.441406 4.457031 -10.445312 4.46875 -10.46875 C 5.082031 -11.34375 6 -11.78125 7.21875 -11.78125 Z M 7.21875 -11.78125 "/></g></g></g><g fill="#ff385c" fill-opacity="1"><g transform="translate(24.7526, 22.181311)"><g><path d="M 5.796875 -11.78125 C 6.773438 -11.78125 7.648438 -11.609375 8.421875 -11.265625 C 9.191406 -10.929688 9.789062 -10.472656 10.21875 -9.890625 C 10.644531 -9.304688 10.859375 -8.648438 10.859375 -7.921875 L 10.859375 -0.265625 C 10.859375 -0.191406 10.832031 -0.128906 10.78125 -0.078125 C 10.726562 -0.0234375 10.664062 0 10.59375 0 L 7.953125 0 C 7.867188 0 7.800781 -0.0234375 7.75 -0.078125 C 7.695312 -0.128906 7.671875 -0.191406 7.671875 -0.265625 L 7.671875 -1.015625 C 7.671875 -1.054688 7.65625 -1.082031 7.625 -1.09375 C 7.601562 -1.113281 7.578125 -1.101562 7.546875 -1.0625 C 6.910156 -0.226562 5.894531 0.1875 4.5 0.1875 C 3.320312 0.1875 2.367188 -0.0976562 1.640625 -0.671875 C 0.921875 -1.242188 0.5625 -2.085938 0.5625 -3.203125 C 0.5625 -4.359375 0.96875 -5.253906 1.78125 -5.890625 C 2.59375 -6.535156 3.753906 -6.859375 5.265625 -6.859375 L 7.5625 -6.859375 C 7.632812 -6.859375 7.671875 -6.898438 7.671875 -6.984375 L 7.671875 -7.46875 C 7.671875 -7.96875 7.519531 -8.351562 7.21875 -8.625 C 6.925781 -8.90625 6.476562 -9.046875 5.875 -9.046875 C 5.40625 -9.046875 5.015625 -8.960938 4.703125 -8.796875 C 4.398438 -8.640625 4.203125 -8.410156 4.109375 -8.109375 C 4.066406 -7.941406 3.96875 -7.863281 3.8125 -7.875 L 1.078125 -8.234375 C 0.898438 -8.265625 0.816406 -8.332031 0.828125 -8.4375 C 0.890625 -9.070312 1.144531 -9.644531 1.59375 -10.15625 C 2.039062 -10.664062 2.628906 -11.0625 3.359375 -11.34375 C 4.085938 -11.632812 4.898438 -11.78125 5.796875 -11.78125 Z M 5.34375 -2.1875 C 6 -2.1875 6.550781 -2.359375 7 -2.703125 C 7.445312 -3.054688 7.671875 -3.503906 7.671875 -4.046875 L 7.671875 -4.859375 C 7.671875 -4.929688 7.632812 -4.96875 7.5625 -4.96875 L 5.9375 -4.96875 C 5.257812 -4.96875 4.726562 -4.835938 4.34375 -4.578125 C 3.957031 -4.328125 3.765625 -3.96875 3.765625 -3.5 C 3.765625 -3.09375 3.90625 -2.769531 4.1875 -2.53125 C 4.476562 -2.300781 4.863281 -2.1875 5.34375 -2.1875 Z M 5.34375 -2.1875 "/></g></g></g><g fill="#ff385c" fill-opacity="1"><g transform="translate(35.267036, 22.181311)"><g><path d="M 6.953125 -11.765625 C 7.492188 -11.765625 7.921875 -11.660156 8.234375 -11.453125 C 8.359375 -11.390625 8.40625 -11.273438 8.375 -11.109375 L 7.90625 -8.53125 C 7.882812 -8.351562 7.78125 -8.300781 7.59375 -8.375 C 7.363281 -8.445312 7.097656 -8.484375 6.796875 -8.484375 C 6.671875 -8.484375 6.503906 -8.46875 6.296875 -8.4375 C 5.753906 -8.394531 5.296875 -8.195312 4.921875 -7.84375 C 4.546875 -7.488281 4.359375 -7.019531 4.359375 -6.4375 L 4.359375 -0.265625 C 4.359375 -0.191406 4.332031 -0.128906 4.28125 -0.078125 C 4.226562 -0.0234375 4.164062 0 4.09375 0 L 1.4375 0 C 1.363281 0 1.300781 -0.0234375 1.25 -0.078125 C 1.195312 -0.128906 1.171875 -0.191406 1.171875 -0.265625 L 1.171875 -11.328125 C 1.171875 -11.410156 1.195312 -11.476562 1.25 -11.53125 C 1.300781 -11.582031 1.363281 -11.609375 1.4375 -11.609375 L 4.09375 -11.609375 C 4.164062 -11.609375 4.226562 -11.582031 4.28125 -11.53125 C 4.332031 -11.476562 4.359375 -11.410156 4.359375 -11.328125 L 4.359375 -10.46875 C 4.359375 -10.425781 4.375 -10.394531 4.40625 -10.375 C 4.4375 -10.363281 4.457031 -10.375 4.46875 -10.40625 C 5.082031 -11.3125 5.910156 -11.765625 6.953125 -11.765625 Z M 6.953125 -11.765625 "/></g></g></g><g fill="#ff385c" fill-opacity="1"><g transform="translate(42.509648, 22.181311)"><g><path d="M 11.453125 -7 C 11.535156 -6.425781 11.5625 -5.785156 11.53125 -5.078125 C 11.519531 -4.898438 11.425781 -4.8125 11.25 -4.8125 L 4.265625 -4.8125 C 4.171875 -4.8125 4.140625 -4.773438 4.171875 -4.703125 C 4.222656 -4.398438 4.304688 -4.097656 4.421875 -3.796875 C 4.816406 -2.953125 5.613281 -2.53125 6.8125 -2.53125 C 7.78125 -2.539062 8.539062 -2.929688 9.09375 -3.703125 C 9.15625 -3.796875 9.222656 -3.84375 9.296875 -3.84375 C 9.347656 -3.84375 9.398438 -3.8125 9.453125 -3.75 L 11.078125 -2.140625 C 11.160156 -2.066406 11.203125 -2 11.203125 -1.9375 C 11.203125 -1.90625 11.171875 -1.847656 11.109375 -1.765625 C 10.609375 -1.140625 9.96875 -0.65625 9.1875 -0.3125 C 8.40625 0.0195312 7.546875 0.1875 6.609375 0.1875 C 5.316406 0.1875 4.222656 -0.101562 3.328125 -0.6875 C 2.429688 -1.28125 1.789062 -2.101562 1.40625 -3.15625 C 1.082031 -3.914062 0.921875 -4.90625 0.921875 -6.125 C 0.921875 -6.945312 1.035156 -7.675781 1.265625 -8.3125 C 1.609375 -9.375 2.210938 -10.222656 3.078125 -10.859375 C 3.941406 -11.492188 4.96875 -11.8125 6.15625 -11.8125 C 7.664062 -11.8125 8.875 -11.375 9.78125 -10.5 C 10.695312 -9.625 11.253906 -8.457031 11.453125 -7 Z M 6.1875 -9.046875 C 5.238281 -9.046875 4.613281 -8.601562 4.3125 -7.71875 C 4.25 -7.519531 4.195312 -7.28125 4.15625 -7 C 4.15625 -6.925781 4.191406 -6.890625 4.265625 -6.890625 L 8.171875 -6.890625 C 8.265625 -6.890625 8.296875 -6.925781 8.265625 -7 C 8.191406 -7.4375 8.15625 -7.644531 8.15625 -7.625 C 8.019531 -8.082031 7.78125 -8.429688 7.4375 -8.671875 C 7.101562 -8.921875 6.6875 -9.046875 6.1875 -9.046875 Z M 6.1875 -9.046875 "/></g></g></g><g fill="#ff385c" fill-opacity="1"><g transform="translate(53.430236, 22.181311)"><g/></g></g><g fill="#ff385c" fill-opacity="1"><g transform="translate(56.54359, 22.181311)"><g><path d="M 14.765625 -0.34375 C 14.828125 -0.25 14.859375 -0.1875 14.859375 -0.15625 C 14.859375 -0.0507812 14.773438 0 14.609375 0 L 11.65625 0 C 11.519531 0 11.40625 -0.0507812 11.3125 -0.15625 L 10.4375 -1.109375 C 10.40625 -1.148438 10.347656 -1.15625 10.265625 -1.125 C 8.867188 -0.25 7.363281 0.1875 5.75 0.1875 C 4.34375 0.1875 3.164062 -0.144531 2.21875 -0.8125 C 1.28125 -1.488281 0.8125 -2.484375 0.8125 -3.796875 C 0.8125 -4.804688 1.082031 -5.65625 1.625 -6.34375 C 2.164062 -7.039062 2.90625 -7.664062 3.84375 -8.21875 C 3.925781 -8.28125 3.929688 -8.332031 3.859375 -8.375 C 3.109375 -9.289062 2.613281 -10 2.375 -10.5 C 2.132812 -11.007812 2.015625 -11.550781 2.015625 -12.125 C 2.015625 -12.832031 2.203125 -13.484375 2.578125 -14.078125 C 2.960938 -14.671875 3.503906 -15.132812 4.203125 -15.46875 C 4.910156 -15.8125 5.710938 -15.984375 6.609375 -15.984375 C 7.535156 -15.984375 8.363281 -15.8125 9.09375 -15.46875 C 9.820312 -15.125 10.390625 -14.640625 10.796875 -14.015625 C 11.203125 -13.390625 11.40625 -12.675781 11.40625 -11.875 C 11.40625 -10.9375 11.144531 -10.125 10.625 -9.4375 C 10.101562 -8.757812 9.398438 -8.144531 8.515625 -7.59375 C 8.441406 -7.539062 8.429688 -7.484375 8.484375 -7.421875 L 10.5 -5.140625 C 10.5625 -5.085938 10.617188 -5.085938 10.671875 -5.140625 C 11.242188 -5.773438 11.710938 -6.378906 12.078125 -6.953125 C 12.171875 -7.117188 12.289062 -7.148438 12.4375 -7.046875 L 14.40625 -5.9375 C 14.570312 -5.84375 14.609375 -5.722656 14.515625 -5.578125 C 13.878906 -4.585938 13.21875 -3.722656 12.53125 -2.984375 C 12.488281 -2.929688 12.503906 -2.863281 12.578125 -2.78125 Z M 6.6875 -13.09375 C 6.226562 -13.09375 5.863281 -12.972656 5.59375 -12.734375 C 5.320312 -12.503906 5.1875 -12.195312 5.1875 -11.8125 C 5.1875 -11.601562 5.257812 -11.367188 5.40625 -11.109375 C 5.5625 -10.847656 5.894531 -10.410156 6.40625 -9.796875 C 6.4375 -9.734375 6.488281 -9.71875 6.5625 -9.75 C 7.113281 -10.09375 7.523438 -10.421875 7.796875 -10.734375 C 8.078125 -11.054688 8.21875 -11.414062 8.21875 -11.8125 C 8.21875 -12.195312 8.070312 -12.503906 7.78125 -12.734375 C 7.5 -12.972656 7.132812 -13.09375 6.6875 -13.09375 Z M 5.875 -2.484375 C 6.59375 -2.484375 7.40625 -2.738281 8.3125 -3.25 C 8.394531 -3.3125 8.398438 -3.363281 8.328125 -3.40625 L 7.625 -4.203125 L 7.109375 -4.765625 C 6.773438 -5.109375 6.390625 -5.53125 5.953125 -6.03125 C 5.929688 -6.070312 5.878906 -6.078125 5.796875 -6.046875 C 5.253906 -5.710938 4.835938 -5.394531 4.546875 -5.09375 C 4.265625 -4.800781 4.101562 -4.457031 4.0625 -4.0625 C 4.050781 -4.019531 4.046875 -3.945312 4.046875 -3.84375 C 4.046875 -3.4375 4.210938 -3.109375 4.546875 -2.859375 C 4.890625 -2.609375 5.332031 -2.484375 5.875 -2.484375 Z M 5.875 -2.484375 "/></g></g></g><g fill="#ff385c" fill-opacity="1"><g transform="translate(71.051902, 22.181311)"><g/></g></g><g fill="#ff385c" fill-opacity="1"><g transform="translate(74.165259, 22.181311)"><g><path d="M 10.75 -8.234375 C 10.65625 -8.191406 10.65625 -8.148438 10.75 -8.109375 C 12.175781 -7.367188 12.890625 -6.140625 12.890625 -4.421875 C 12.890625 -2.960938 12.390625 -1.859375 11.390625 -1.109375 C 10.398438 -0.367188 9.101562 0 7.5 0 L 1.640625 0 C 1.566406 0 1.503906 -0.0234375 1.453125 -0.078125 C 1.398438 -0.128906 1.375 -0.191406 1.375 -0.265625 L 1.375 -15.53125 C 1.375 -15.601562 1.398438 -15.664062 1.453125 -15.71875 C 1.503906 -15.78125 1.566406 -15.8125 1.640625 -15.8125 L 7.3125 -15.8125 C 10.882812 -15.8125 12.671875 -14.363281 12.671875 -11.46875 C 12.671875 -9.96875 12.03125 -8.890625 10.75 -8.234375 Z M 4.671875 -13.078125 C 4.597656 -13.078125 4.5625 -13.035156 4.5625 -12.953125 L 4.5625 -9.4375 C 4.5625 -9.363281 4.597656 -9.328125 4.671875 -9.328125 L 7.3125 -9.328125 C 8.019531 -9.328125 8.566406 -9.488281 8.953125 -9.8125 C 9.347656 -10.144531 9.546875 -10.597656 9.546875 -11.171875 C 9.546875 -11.765625 9.347656 -12.226562 8.953125 -12.5625 C 8.566406 -12.90625 8.019531 -13.078125 7.3125 -13.078125 Z M 7.5 -2.75 C 8.1875 -2.75 8.722656 -2.925781 9.109375 -3.28125 C 9.503906 -3.632812 9.703125 -4.117188 9.703125 -4.734375 C 9.703125 -5.359375 9.503906 -5.847656 9.109375 -6.203125 C 8.722656 -6.554688 8.175781 -6.734375 7.46875 -6.734375 L 4.671875 -6.734375 C 4.597656 -6.734375 4.5625 -6.691406 4.5625 -6.609375 L 4.5625 -2.875 C 4.5625 -2.789062 4.597656 -2.75 4.671875 -2.75 Z M 7.5 -2.75 "/></g></g></g><g fill="#ff385c" fill-opacity="1"><g transform="translate(86.755615, 22.181311)"><g><path d="M 7.953125 -11.328125 C 7.953125 -11.410156 7.976562 -11.476562 8.03125 -11.53125 C 8.082031 -11.582031 8.144531 -11.609375 8.21875 -11.609375 L 10.859375 -11.609375 C 10.929688 -11.609375 10.992188 -11.582031 11.046875 -11.53125 C 11.097656 -11.476562 11.125 -11.410156 11.125 -11.328125 L 11.125 -0.265625 C 11.125 -0.191406 11.097656 -0.128906 11.046875 -0.078125 C 10.992188 -0.0234375 10.929688 0 10.859375 0 L 8.21875 0 C 8.144531 0 8.082031 -0.0234375 8.03125 -0.078125 C 7.976562 -0.128906 7.953125 -0.191406 7.953125 -0.265625 L 7.953125 -1.03125 C 7.953125 -1.082031 7.9375 -1.109375 7.90625 -1.109375 C 7.875 -1.117188 7.84375 -1.101562 7.8125 -1.0625 C 7.207031 -0.25 6.273438 0.15625 5.015625 0.15625 C 3.867188 0.15625 2.925781 -0.1875 2.1875 -0.875 C 1.445312 -1.570312 1.078125 -2.546875 1.078125 -3.796875 L 1.078125 -11.328125 C 1.078125 -11.410156 1.101562 -11.476562 1.15625 -11.53125 C 1.207031 -11.582031 1.273438 -11.609375 1.359375 -11.609375 L 3.96875 -11.609375 C 4.050781 -11.609375 4.117188 -11.582031 4.171875 -11.53125 C 4.222656 -11.476562 4.25 -11.410156 4.25 -11.328125 L 4.25 -4.578125 C 4.25 -3.984375 4.410156 -3.492188 4.734375 -3.109375 C 5.054688 -2.734375 5.503906 -2.546875 6.078125 -2.546875 C 6.585938 -2.546875 7.003906 -2.703125 7.328125 -3.015625 C 7.660156 -3.328125 7.867188 -3.726562 7.953125 -4.21875 Z M 7.953125 -11.328125 "/></g></g></g><g fill="#ff385c" fill-opacity="1"><g transform="translate(97.653644, 22.181311)"><g><path d="M 1.109375 4.5 C 1.054688 4.5 1.015625 4.46875 0.984375 4.40625 C 0.960938 4.351562 0.953125 4.289062 0.953125 4.21875 L 0.953125 2.140625 C 0.953125 2.066406 0.976562 2.003906 1.03125 1.953125 C 1.082031 1.898438 1.144531 1.875 1.21875 1.875 C 1.851562 1.851562 2.351562 1.796875 2.71875 1.703125 C 3.09375 1.617188 3.382812 1.445312 3.59375 1.1875 C 3.8125 0.9375 3.984375 0.5625 4.109375 0.0625 C 4.117188 0.03125 4.117188 -0.0078125 4.109375 -0.0625 L 0.40625 -11.3125 C 0.394531 -11.34375 0.390625 -11.378906 0.390625 -11.421875 C 0.390625 -11.554688 0.46875 -11.625 0.625 -11.625 L 3.453125 -11.625 C 3.617188 -11.625 3.722656 -11.550781 3.765625 -11.40625 L 5.671875 -4.09375 C 5.679688 -4.039062 5.703125 -4.015625 5.734375 -4.015625 C 5.765625 -4.015625 5.785156 -4.039062 5.796875 -4.09375 L 7.703125 -11.40625 C 7.742188 -11.550781 7.847656 -11.625 8.015625 -11.625 L 10.765625 -11.625 C 10.859375 -11.625 10.921875 -11.597656 10.953125 -11.546875 C 10.992188 -11.492188 11 -11.414062 10.96875 -11.3125 L 7.0625 0.421875 C 6.6875 1.523438 6.300781 2.347656 5.90625 2.890625 C 5.519531 3.441406 4.972656 3.847656 4.265625 4.109375 C 3.554688 4.367188 2.554688 4.5 1.265625 4.5 Z M 1.109375 4.5 "/></g></g></g></svg>