<svg xmlns="http://www.w3.org/2000/svg" xmlns:xlink="http://www.w3.org/1999/xlink" width="75" zoomAndPan="magnify" viewBox="0 0 56.25 56.249997" height="75" preserveAspectRatio="xMidYMid meet" version="1.0"><defs><clipPath id="4fbde7cb51"><path d="M 0 0 L 55.511719 0 L 55.511719 55.511719 L 0 55.511719 Z M 0 0 " clip-rule="nonzero"/></clipPath></defs><g clip-path="url(#4fbde7cb51)"><path fill="#ff385c" d="M 35.679688 40.589844 L 49.273438 54.183594 C 50.621094 55.527344 52.808594 55.527344 54.152344 54.183594 C 55.5 52.835938 55.5 50.648438 54.152344 49.304688 L 40.566406 35.722656 C 43.300781 32.003906 44.914062 27.414062 44.914062 22.445312 C 44.914062 10.058594 34.855469 0 22.46875 0 C 10.078125 0 0.0195312 10.058594 0.0195312 22.445312 C 0.0195312 34.835938 10.078125 44.894531 22.46875 44.894531 C 27.40625 44.894531 31.972656 43.296875 35.679688 40.589844 Z M 22.46875 6.898438 C 31.046875 6.898438 38.015625 13.867188 38.015625 22.445312 C 38.015625 31.027344 31.046875 37.996094 22.46875 37.996094 C 13.886719 37.996094 6.917969 31.027344 6.917969 22.445312 C 6.917969 13.867188 13.886719 6.898438 22.46875 6.898438 Z M 22.46875 6.898438 " fill-opacity="1" fill-rule="evenodd"/></g></svg>