<svg xmlns="http://www.w3.org/2000/svg" xmlns:xlink="http://www.w3.org/1999/xlink" width="150" zoomAndPan="magnify" viewBox="0 0 112.5 37.5" height="50" preserveAspectRatio="xMidYMid meet" version="1.0"><defs><g/><clipPath id="0e5737039d"><path d="M 5 5.421875 L 37.664062 5.421875 L 37.664062 29 L 5 29 Z M 5 5.421875 " clip-rule="nonzero"/></clipPath><clipPath id="9c81298e77"><path d="M 0.492188 12 L 16 12 L 16 14 L 0.492188 14 Z M 0.492188 12 " clip-rule="nonzero"/></clipPath><clipPath id="46d495b035"><path d="M 16 28 L 20 28 L 20 32.1875 L 16 32.1875 Z M 16 28 " clip-rule="nonzero"/></clipPath><clipPath id="4b1e1506a5"><path d="M 25 28 L 29 28 L 29 32.1875 L 25 32.1875 Z M 25 28 " clip-rule="nonzero"/></clipPath><clipPath id="d474e4d3f3"><path d="M 104 16 L 111.511719 16 L 111.511719 27 L 104 27 Z M 104 16 " clip-rule="nonzero"/></clipPath></defs><g clip-path="url(#0e5737039d)"><path fill="#ff385c" d="M 37.484375 10.4375 C 37.359375 10.261719 37.160156 10.15625 36.941406 10.15625 L 13.675781 10.15625 L 12.410156 7.304688 C 12.328125 7.125 12.171875 6.992188 11.980469 6.9375 L 6.613281 5.515625 C 6.265625 5.421875 5.90625 5.625 5.8125 5.972656 C 5.71875 6.316406 5.925781 6.671875 6.273438 6.765625 L 11.335938 8.109375 L 12.652344 11.0625 C 12.753906 11.296875 12.992188 11.449219 13.25 11.449219 L 35.976562 11.449219 L 31.128906 23.496094 L 14.429688 23.496094 C 14.21875 23.496094 14.023438 23.59375 13.902344 23.757812 C 13.777344 23.921875 13.742188 24.136719 13.800781 24.332031 L 14.847656 27.699219 C 14.933594 27.972656 15.1875 28.15625 15.476562 28.15625 L 31.050781 28.15625 C 31.414062 28.15625 31.707031 27.867188 31.707031 27.511719 C 31.707031 27.152344 31.414062 26.863281 31.050781 26.863281 L 15.957031 26.863281 L 15.3125 24.789062 L 31.574219 24.789062 C 31.84375 24.789062 32.085938 24.628906 32.183594 24.382812 L 37.550781 11.042969 C 37.628906 10.84375 37.605469 10.617188 37.484375 10.4375 Z M 37.484375 10.4375 " fill-opacity="1" fill-rule="nonzero"/></g><path fill="#ff385c" d="M 20.078125 14.398438 L 7.839844 14.398438 C 7.480469 14.398438 7.183594 14.6875 7.183594 15.046875 C 7.183594 15.40625 7.476562 15.695312 7.839844 15.695312 L 20.078125 15.695312 C 20.441406 15.695312 20.734375 15.40625 20.734375 15.046875 C 20.734375 14.691406 20.441406 14.398438 20.078125 14.398438 Z M 20.078125 14.398438 " fill-opacity="1" fill-rule="nonzero"/><path fill="#ff385c" d="M 10.03125 17.21875 C 10.03125 17.578125 10.324219 17.867188 10.6875 17.867188 L 23.449219 17.867188 C 23.808594 17.867188 24.101562 17.578125 24.101562 17.21875 C 24.101562 16.859375 23.808594 16.570312 23.449219 16.570312 L 10.6875 16.570312 C 10.324219 16.570312 10.03125 16.863281 10.03125 17.21875 Z M 10.03125 17.21875 " fill-opacity="1" fill-rule="nonzero"/><path fill="#ff385c" d="M 18.867188 19.460938 C 18.867188 19.105469 18.574219 18.8125 18.214844 18.8125 L 1.65625 18.8125 C 1.292969 18.8125 1 19.105469 1 19.460938 C 1 19.820312 1.292969 20.109375 1.65625 20.109375 L 18.210938 20.109375 C 18.574219 20.109375 18.867188 19.820312 18.867188 19.460938 Z M 18.867188 19.460938 " fill-opacity="1" fill-rule="nonzero"/><path fill="#ff385c" d="M 21.125 21.695312 C 21.125 21.335938 20.832031 21.046875 20.472656 21.046875 L 6.335938 21.046875 C 5.972656 21.046875 5.679688 21.335938 5.679688 21.695312 C 5.679688 22.054688 5.972656 22.34375 6.335938 22.34375 L 20.472656 22.34375 C 20.832031 22.34375 21.125 22.054688 21.125 21.695312 Z M 21.125 21.695312 " fill-opacity="1" fill-rule="nonzero"/><g clip-path="url(#9c81298e77)"><path fill="#ff385c" d="M 14.84375 13.664062 C 15.203125 13.664062 15.496094 13.375 15.496094 13.019531 C 15.496094 12.660156 15.203125 12.371094 14.84375 12.371094 L 1.164062 12.371094 C 0.804688 12.371094 0.511719 12.660156 0.511719 13.019531 C 0.511719 13.375 0.804688 13.664062 1.164062 13.664062 Z M 14.84375 13.664062 " fill-opacity="1" fill-rule="nonzero"/></g><g clip-path="url(#46d495b035)"><path fill="#ff385c" d="M 18.027344 28.308594 C 16.945312 28.308594 16.0625 29.179688 16.0625 30.25 C 16.0625 31.320312 16.945312 32.191406 18.027344 32.191406 C 19.109375 32.191406 19.992188 31.320312 19.992188 30.25 C 19.992188 29.179688 19.109375 28.308594 18.027344 28.308594 Z M 18.027344 30.898438 C 17.667969 30.898438 17.375 30.609375 17.375 30.25 C 17.375 29.894531 17.667969 29.601562 18.027344 29.601562 C 18.390625 29.601562 18.683594 29.894531 18.683594 30.25 C 18.683594 30.609375 18.386719 30.898438 18.027344 30.898438 Z M 18.027344 30.898438 " fill-opacity="1" fill-rule="nonzero"/></g><g clip-path="url(#4b1e1506a5)"><path fill="#ff385c" d="M 27.007812 28.308594 C 25.925781 28.308594 25.042969 29.179688 25.042969 30.25 C 25.042969 31.320312 25.925781 32.191406 27.007812 32.191406 C 28.089844 32.191406 28.972656 31.320312 28.972656 30.25 C 28.972656 29.179688 28.089844 28.308594 27.007812 28.308594 Z M 27.007812 30.898438 C 26.648438 30.898438 26.355469 30.609375 26.355469 30.25 C 26.355469 29.894531 26.648438 29.601562 27.007812 29.601562 C 27.367188 29.601562 27.664062 29.894531 27.664062 30.25 C 27.664062 30.609375 27.367188 30.898438 27.007812 30.898438 Z M 27.007812 30.898438 " fill-opacity="1" fill-rule="nonzero"/></g><g fill="#ff385c" fill-opacity="1"><g transform="translate(39.805374, 23.997975)"><g><path d="M 4.546875 0.125 C 3.734375 0.125 3.023438 -0.00390625 2.421875 -0.265625 C 1.828125 -0.523438 1.363281 -0.890625 1.03125 -1.359375 C 0.707031 -1.835938 0.546875 -2.394531 0.546875 -3.03125 L 0.546875 -3.359375 C 0.546875 -3.410156 0.5625 -3.453125 0.59375 -3.484375 C 0.632812 -3.523438 0.675781 -3.546875 0.71875 -3.546875 L 2.4375 -3.546875 C 2.488281 -3.546875 2.53125 -3.523438 2.5625 -3.484375 C 2.601562 -3.453125 2.625 -3.410156 2.625 -3.359375 L 2.625 -3.140625 C 2.625 -2.734375 2.8125 -2.390625 3.1875 -2.109375 C 3.5625 -1.835938 4.0625 -1.703125 4.6875 -1.703125 C 5.226562 -1.703125 5.628906 -1.816406 5.890625 -2.046875 C 6.148438 -2.273438 6.28125 -2.554688 6.28125 -2.890625 C 6.28125 -3.128906 6.195312 -3.332031 6.03125 -3.5 C 5.875 -3.664062 5.65625 -3.8125 5.375 -3.9375 C 5.101562 -4.0625 4.664062 -4.234375 4.0625 -4.453125 C 3.382812 -4.679688 2.8125 -4.914062 2.34375 -5.15625 C 1.875 -5.40625 1.476562 -5.738281 1.15625 -6.15625 C 0.84375 -6.570312 0.6875 -7.085938 0.6875 -7.703125 C 0.6875 -8.304688 0.84375 -8.832031 1.15625 -9.28125 C 1.46875 -9.738281 1.898438 -10.085938 2.453125 -10.328125 C 3.015625 -10.566406 3.65625 -10.6875 4.375 -10.6875 C 5.144531 -10.6875 5.828125 -10.550781 6.421875 -10.28125 C 7.023438 -10.007812 7.492188 -9.628906 7.828125 -9.140625 C 8.160156 -8.648438 8.328125 -8.082031 8.328125 -7.4375 L 8.328125 -7.21875 C 8.328125 -7.164062 8.304688 -7.117188 8.265625 -7.078125 C 8.234375 -7.046875 8.195312 -7.03125 8.15625 -7.03125 L 6.421875 -7.03125 C 6.367188 -7.03125 6.320312 -7.046875 6.28125 -7.078125 C 6.25 -7.117188 6.234375 -7.164062 6.234375 -7.21875 L 6.234375 -7.328125 C 6.234375 -7.753906 6.054688 -8.113281 5.703125 -8.40625 C 5.359375 -8.707031 4.882812 -8.859375 4.28125 -8.859375 C 3.8125 -8.859375 3.441406 -8.753906 3.171875 -8.546875 C 2.910156 -8.347656 2.78125 -8.078125 2.78125 -7.734375 C 2.78125 -7.472656 2.859375 -7.257812 3.015625 -7.09375 C 3.171875 -6.925781 3.398438 -6.773438 3.703125 -6.640625 C 4.015625 -6.503906 4.488281 -6.316406 5.125 -6.078125 C 5.84375 -5.816406 6.40625 -5.585938 6.8125 -5.390625 C 7.21875 -5.191406 7.582031 -4.890625 7.90625 -4.484375 C 8.238281 -4.085938 8.40625 -3.570312 8.40625 -2.9375 C 8.40625 -2 8.054688 -1.253906 7.359375 -0.703125 C 6.671875 -0.148438 5.734375 0.125 4.546875 0.125 Z M 4.546875 0.125 "/></g></g></g><g fill="#ff385c" fill-opacity="1"><g transform="translate(47.850804, 23.997975)"><g><path d="M 4.828125 -7.875 C 5.628906 -7.875 6.273438 -7.628906 6.765625 -7.140625 C 7.265625 -6.648438 7.515625 -5.976562 7.515625 -5.125 L 7.515625 -0.1875 C 7.515625 -0.132812 7.492188 -0.0859375 7.453125 -0.046875 C 7.421875 -0.015625 7.378906 0 7.328125 0 L 5.5625 0 C 5.519531 0 5.476562 -0.015625 5.4375 -0.046875 C 5.40625 -0.0859375 5.390625 -0.132812 5.390625 -0.1875 L 5.390625 -4.6875 C 5.390625 -5.09375 5.273438 -5.421875 5.046875 -5.671875 C 4.816406 -5.921875 4.519531 -6.046875 4.15625 -6.046875 C 3.78125 -6.046875 3.476562 -5.921875 3.25 -5.671875 C 3.019531 -5.421875 2.90625 -5.09375 2.90625 -4.6875 L 2.90625 -0.1875 C 2.90625 -0.132812 2.890625 -0.0859375 2.859375 -0.046875 C 2.828125 -0.015625 2.785156 0 2.734375 0 L 0.96875 0 C 0.914062 0 0.867188 -0.015625 0.828125 -0.046875 C 0.796875 -0.0859375 0.78125 -0.132812 0.78125 -0.1875 L 0.78125 -10.390625 C 0.78125 -10.429688 0.796875 -10.46875 0.828125 -10.5 C 0.867188 -10.539062 0.914062 -10.5625 0.96875 -10.5625 L 2.734375 -10.5625 C 2.785156 -10.5625 2.828125 -10.539062 2.859375 -10.5 C 2.890625 -10.46875 2.90625 -10.429688 2.90625 -10.390625 L 2.90625 -7.046875 C 2.90625 -7.015625 2.914062 -6.992188 2.9375 -6.984375 C 2.957031 -6.972656 2.972656 -6.976562 2.984375 -7 C 3.398438 -7.582031 4.015625 -7.875 4.828125 -7.875 Z M 4.828125 -7.875 "/></g></g></g><g fill="#ff385c" fill-opacity="1"><g transform="translate(55.171661, 23.997975)"><g><path d="M 3.875 -7.875 C 4.53125 -7.875 5.113281 -7.757812 5.625 -7.53125 C 6.144531 -7.3125 6.546875 -7.003906 6.828125 -6.609375 C 7.117188 -6.210938 7.265625 -5.773438 7.265625 -5.296875 L 7.265625 -0.1875 C 7.265625 -0.132812 7.242188 -0.0859375 7.203125 -0.046875 C 7.171875 -0.015625 7.128906 0 7.078125 0 L 5.3125 0 C 5.257812 0 5.210938 -0.015625 5.171875 -0.046875 C 5.140625 -0.0859375 5.125 -0.132812 5.125 -0.1875 L 5.125 -0.671875 C 5.125 -0.703125 5.113281 -0.722656 5.09375 -0.734375 C 5.082031 -0.742188 5.066406 -0.734375 5.046875 -0.703125 C 4.617188 -0.148438 3.9375 0.125 3 0.125 C 2.21875 0.125 1.582031 -0.0664062 1.09375 -0.453125 C 0.613281 -0.835938 0.375 -1.398438 0.375 -2.140625 C 0.375 -2.921875 0.644531 -3.523438 1.1875 -3.953125 C 1.726562 -4.378906 2.503906 -4.59375 3.515625 -4.59375 L 5.0625 -4.59375 C 5.101562 -4.59375 5.125 -4.613281 5.125 -4.65625 L 5.125 -5 C 5.125 -5.332031 5.023438 -5.585938 4.828125 -5.765625 C 4.628906 -5.953125 4.328125 -6.046875 3.921875 -6.046875 C 3.609375 -6.046875 3.347656 -5.988281 3.140625 -5.875 C 2.941406 -5.769531 2.8125 -5.617188 2.75 -5.421875 C 2.71875 -5.304688 2.648438 -5.253906 2.546875 -5.265625 L 0.71875 -5.515625 C 0.601562 -5.535156 0.550781 -5.578125 0.5625 -5.640625 C 0.601562 -6.066406 0.769531 -6.453125 1.0625 -6.796875 C 1.363281 -7.140625 1.753906 -7.40625 2.234375 -7.59375 C 2.722656 -7.78125 3.269531 -7.875 3.875 -7.875 Z M 3.578125 -1.46875 C 4.003906 -1.46875 4.367188 -1.582031 4.671875 -1.8125 C 4.972656 -2.039062 5.125 -2.335938 5.125 -2.703125 L 5.125 -3.25 C 5.125 -3.300781 5.101562 -3.328125 5.0625 -3.328125 L 3.96875 -3.328125 C 3.519531 -3.328125 3.164062 -3.238281 2.90625 -3.0625 C 2.644531 -2.894531 2.515625 -2.65625 2.515625 -2.34375 C 2.515625 -2.070312 2.609375 -1.859375 2.796875 -1.703125 C 2.992188 -1.546875 3.253906 -1.46875 3.578125 -1.46875 Z M 3.578125 -1.46875 "/></g></g></g><g fill="#ff385c" fill-opacity="1"><g transform="translate(62.205709, 23.997975)"><g><path d="M 4.65625 -7.859375 C 5.007812 -7.859375 5.296875 -7.789062 5.515625 -7.65625 C 5.585938 -7.613281 5.613281 -7.535156 5.59375 -7.421875 L 5.28125 -5.703125 C 5.269531 -5.585938 5.203125 -5.550781 5.078125 -5.59375 C 4.921875 -5.644531 4.742188 -5.671875 4.546875 -5.671875 C 4.460938 -5.671875 4.351562 -5.660156 4.21875 -5.640625 C 3.851562 -5.609375 3.539062 -5.472656 3.28125 -5.234375 C 3.03125 -5.003906 2.90625 -4.691406 2.90625 -4.296875 L 2.90625 -0.1875 C 2.90625 -0.132812 2.890625 -0.0859375 2.859375 -0.046875 C 2.828125 -0.015625 2.785156 0 2.734375 0 L 0.96875 0 C 0.914062 0 0.867188 -0.015625 0.828125 -0.046875 C 0.796875 -0.0859375 0.78125 -0.132812 0.78125 -0.1875 L 0.78125 -7.578125 C 0.78125 -7.628906 0.796875 -7.671875 0.828125 -7.703125 C 0.867188 -7.742188 0.914062 -7.765625 0.96875 -7.765625 L 2.734375 -7.765625 C 2.785156 -7.765625 2.828125 -7.742188 2.859375 -7.703125 C 2.890625 -7.671875 2.90625 -7.628906 2.90625 -7.578125 L 2.90625 -7 C 2.90625 -6.96875 2.914062 -6.945312 2.9375 -6.9375 C 2.957031 -6.925781 2.972656 -6.929688 2.984375 -6.953125 C 3.398438 -7.554688 3.957031 -7.859375 4.65625 -7.859375 Z M 4.65625 -7.859375 "/></g></g></g><g fill="#ff385c" fill-opacity="1"><g transform="translate(67.050942, 23.997975)"><g><path d="M 7.65625 -4.671875 C 7.71875 -4.296875 7.738281 -3.867188 7.71875 -3.390625 C 7.707031 -3.273438 7.640625 -3.21875 7.515625 -3.21875 L 2.859375 -3.21875 C 2.796875 -3.21875 2.773438 -3.191406 2.796875 -3.140625 C 2.828125 -2.941406 2.878906 -2.738281 2.953125 -2.53125 C 3.210938 -1.96875 3.75 -1.6875 4.5625 -1.6875 C 5.207031 -1.695312 5.710938 -1.957031 6.078125 -2.46875 C 6.117188 -2.53125 6.164062 -2.5625 6.21875 -2.5625 C 6.25 -2.5625 6.285156 -2.539062 6.328125 -2.5 L 7.40625 -1.4375 C 7.457031 -1.382812 7.484375 -1.335938 7.484375 -1.296875 C 7.484375 -1.273438 7.460938 -1.234375 7.421875 -1.171875 C 7.085938 -0.765625 6.660156 -0.445312 6.140625 -0.21875 C 5.617188 0.0078125 5.046875 0.125 4.421875 0.125 C 3.554688 0.125 2.820312 -0.0703125 2.21875 -0.46875 C 1.625 -0.863281 1.195312 -1.410156 0.9375 -2.109375 C 0.726562 -2.617188 0.625 -3.28125 0.625 -4.09375 C 0.625 -4.644531 0.695312 -5.128906 0.84375 -5.546875 C 1.070312 -6.265625 1.472656 -6.832031 2.046875 -7.25 C 2.628906 -7.675781 3.320312 -7.890625 4.125 -7.890625 C 5.125 -7.890625 5.925781 -7.597656 6.53125 -7.015625 C 7.144531 -6.429688 7.519531 -5.648438 7.65625 -4.671875 Z M 4.140625 -6.046875 C 3.503906 -6.046875 3.085938 -5.75 2.890625 -5.15625 C 2.847656 -5.03125 2.8125 -4.867188 2.78125 -4.671875 C 2.78125 -4.628906 2.804688 -4.609375 2.859375 -4.609375 L 5.46875 -4.609375 C 5.519531 -4.609375 5.539062 -4.628906 5.53125 -4.671875 C 5.476562 -4.960938 5.453125 -5.109375 5.453125 -5.109375 C 5.359375 -5.398438 5.195312 -5.628906 4.96875 -5.796875 C 4.75 -5.960938 4.472656 -6.046875 4.140625 -6.046875 Z M 4.140625 -6.046875 "/></g></g></g><g fill="#ff385c" fill-opacity="1"><g transform="translate(74.356703, 23.997975)"><g/></g></g><g fill="#ff385c" fill-opacity="1"><g transform="translate(76.439505, 23.997975)"><g><path d="M 9.875 -0.21875 C 9.914062 -0.164062 9.9375 -0.128906 9.9375 -0.109375 C 9.9375 -0.0351562 9.878906 0 9.765625 0 L 7.78125 0 C 7.695312 0 7.625 -0.0351562 7.5625 -0.109375 L 6.96875 -0.734375 C 6.945312 -0.765625 6.914062 -0.769531 6.875 -0.75 C 5.9375 -0.164062 4.925781 0.125 3.84375 0.125 C 2.90625 0.125 2.117188 -0.0976562 1.484375 -0.546875 C 0.859375 -0.992188 0.546875 -1.65625 0.546875 -2.53125 C 0.546875 -3.207031 0.722656 -3.773438 1.078125 -4.234375 C 1.441406 -4.703125 1.9375 -5.125 2.5625 -5.5 C 2.625 -5.53125 2.628906 -5.5625 2.578125 -5.59375 C 2.078125 -6.207031 1.742188 -6.679688 1.578125 -7.015625 C 1.421875 -7.359375 1.34375 -7.722656 1.34375 -8.109375 C 1.34375 -8.578125 1.46875 -9.007812 1.71875 -9.40625 C 1.976562 -9.800781 2.34375 -10.113281 2.8125 -10.34375 C 3.28125 -10.570312 3.816406 -10.6875 4.421875 -10.6875 C 5.035156 -10.6875 5.585938 -10.566406 6.078125 -10.328125 C 6.566406 -10.097656 6.945312 -9.773438 7.21875 -9.359375 C 7.488281 -8.941406 7.625 -8.46875 7.625 -7.9375 C 7.625 -7.3125 7.445312 -6.769531 7.09375 -6.3125 C 6.75 -5.851562 6.28125 -5.441406 5.6875 -5.078125 C 5.632812 -5.046875 5.628906 -5.007812 5.671875 -4.96875 L 7.015625 -3.4375 C 7.054688 -3.394531 7.097656 -3.394531 7.140625 -3.4375 C 7.523438 -3.863281 7.835938 -4.269531 8.078125 -4.65625 C 8.140625 -4.757812 8.21875 -4.773438 8.3125 -4.703125 L 9.625 -3.96875 C 9.738281 -3.90625 9.765625 -3.828125 9.703125 -3.734375 C 9.285156 -3.066406 8.84375 -2.488281 8.375 -2 C 8.34375 -1.96875 8.351562 -1.921875 8.40625 -1.859375 Z M 4.46875 -8.75 C 4.164062 -8.75 3.921875 -8.671875 3.734375 -8.515625 C 3.554688 -8.359375 3.46875 -8.148438 3.46875 -7.890625 C 3.46875 -7.753906 3.519531 -7.597656 3.625 -7.421875 C 3.726562 -7.253906 3.945312 -6.960938 4.28125 -6.546875 C 4.300781 -6.503906 4.335938 -6.492188 4.390625 -6.515625 C 4.753906 -6.753906 5.03125 -6.976562 5.21875 -7.1875 C 5.40625 -7.394531 5.5 -7.628906 5.5 -7.890625 C 5.5 -8.148438 5.398438 -8.359375 5.203125 -8.515625 C 5.015625 -8.671875 4.769531 -8.75 4.46875 -8.75 Z M 3.921875 -1.65625 C 4.410156 -1.65625 4.953125 -1.828125 5.546875 -2.171875 C 5.609375 -2.210938 5.613281 -2.25 5.5625 -2.28125 L 5.109375 -2.8125 L 4.75 -3.1875 C 4.53125 -3.414062 4.273438 -3.695312 3.984375 -4.03125 C 3.960938 -4.0625 3.925781 -4.066406 3.875 -4.046875 C 3.507812 -3.828125 3.234375 -3.613281 3.046875 -3.40625 C 2.859375 -3.207031 2.75 -2.976562 2.71875 -2.71875 C 2.707031 -2.6875 2.703125 -2.632812 2.703125 -2.5625 C 2.703125 -2.289062 2.8125 -2.070312 3.03125 -1.90625 C 3.257812 -1.738281 3.554688 -1.65625 3.921875 -1.65625 Z M 3.921875 -1.65625 "/></g></g></g><g fill="#ff385c" fill-opacity="1"><g transform="translate(86.145416, 23.997975)"><g/></g></g><g fill="#ff385c" fill-opacity="1"><g transform="translate(88.22822, 23.997975)"><g><path d="M 7.1875 -5.515625 C 7.125 -5.484375 7.125 -5.453125 7.1875 -5.421875 C 8.144531 -4.921875 8.625 -4.097656 8.625 -2.953125 C 8.625 -1.984375 8.289062 -1.25 7.625 -0.75 C 6.957031 -0.25 6.085938 0 5.015625 0 L 1.109375 0 C 1.054688 0 1.007812 -0.015625 0.96875 -0.046875 C 0.9375 -0.0859375 0.921875 -0.132812 0.921875 -0.1875 L 0.921875 -10.390625 C 0.921875 -10.429688 0.9375 -10.46875 0.96875 -10.5 C 1.007812 -10.539062 1.054688 -10.5625 1.109375 -10.5625 L 4.890625 -10.5625 C 7.273438 -10.5625 8.46875 -9.597656 8.46875 -7.671875 C 8.46875 -6.660156 8.039062 -5.941406 7.1875 -5.515625 Z M 3.125 -8.734375 C 3.070312 -8.734375 3.046875 -8.707031 3.046875 -8.65625 L 3.046875 -6.3125 C 3.046875 -6.257812 3.070312 -6.234375 3.125 -6.234375 L 4.890625 -6.234375 C 5.359375 -6.234375 5.722656 -6.34375 5.984375 -6.5625 C 6.253906 -6.78125 6.390625 -7.082031 6.390625 -7.46875 C 6.390625 -7.863281 6.253906 -8.171875 5.984375 -8.390625 C 5.722656 -8.617188 5.359375 -8.734375 4.890625 -8.734375 Z M 5.015625 -1.84375 C 5.472656 -1.84375 5.832031 -1.957031 6.09375 -2.1875 C 6.351562 -2.425781 6.484375 -2.753906 6.484375 -3.171875 C 6.484375 -3.578125 6.351562 -3.898438 6.09375 -4.140625 C 5.832031 -4.378906 5.46875 -4.5 5 -4.5 L 3.125 -4.5 C 3.070312 -4.5 3.046875 -4.472656 3.046875 -4.421875 L 3.046875 -1.921875 C 3.046875 -1.867188 3.070312 -1.84375 3.125 -1.84375 Z M 5.015625 -1.84375 "/></g></g></g><g fill="#ff385c" fill-opacity="1"><g transform="translate(96.651038, 23.997975)"><g><path d="M 5.3125 -7.578125 C 5.3125 -7.628906 5.328125 -7.671875 5.359375 -7.703125 C 5.398438 -7.742188 5.445312 -7.765625 5.5 -7.765625 L 7.265625 -7.765625 C 7.304688 -7.765625 7.34375 -7.742188 7.375 -7.703125 C 7.414062 -7.671875 7.4375 -7.628906 7.4375 -7.578125 L 7.4375 -0.1875 C 7.4375 -0.132812 7.414062 -0.0859375 7.375 -0.046875 C 7.34375 -0.015625 7.304688 0 7.265625 0 L 5.5 0 C 5.445312 0 5.398438 -0.015625 5.359375 -0.046875 C 5.328125 -0.0859375 5.3125 -0.132812 5.3125 -0.1875 L 5.3125 -0.6875 C 5.3125 -0.71875 5.300781 -0.734375 5.28125 -0.734375 C 5.257812 -0.742188 5.238281 -0.734375 5.21875 -0.703125 C 4.820312 -0.160156 4.195312 0.109375 3.34375 0.109375 C 2.582031 0.109375 1.953125 -0.117188 1.453125 -0.578125 C 0.960938 -1.046875 0.71875 -1.695312 0.71875 -2.53125 L 0.71875 -7.578125 C 0.71875 -7.628906 0.734375 -7.671875 0.765625 -7.703125 C 0.804688 -7.742188 0.851562 -7.765625 0.90625 -7.765625 L 2.65625 -7.765625 C 2.707031 -7.765625 2.75 -7.742188 2.78125 -7.703125 C 2.820312 -7.671875 2.84375 -7.628906 2.84375 -7.578125 L 2.84375 -3.0625 C 2.84375 -2.65625 2.945312 -2.328125 3.15625 -2.078125 C 3.375 -1.828125 3.675781 -1.703125 4.0625 -1.703125 C 4.40625 -1.703125 4.6875 -1.804688 4.90625 -2.015625 C 5.125 -2.222656 5.257812 -2.492188 5.3125 -2.828125 Z M 5.3125 -7.578125 "/></g></g></g><g clip-path="url(#d474e4d3f3)"><g fill="#ff385c" fill-opacity="1"><g transform="translate(103.941707, 23.997975)"><g><path d="M 0.734375 3 C 0.703125 3 0.675781 2.976562 0.65625 2.9375 C 0.644531 2.90625 0.640625 2.867188 0.640625 2.828125 L 0.640625 1.4375 C 0.640625 1.382812 0.65625 1.335938 0.6875 1.296875 C 0.71875 1.265625 0.757812 1.25 0.8125 1.25 C 1.238281 1.238281 1.570312 1.203125 1.8125 1.140625 C 2.0625 1.085938 2.257812 0.972656 2.40625 0.796875 C 2.550781 0.628906 2.664062 0.378906 2.75 0.046875 C 2.757812 0.0234375 2.757812 -0.00390625 2.75 -0.046875 L 0.265625 -7.5625 C 0.253906 -7.582031 0.25 -7.609375 0.25 -7.640625 C 0.25 -7.722656 0.304688 -7.765625 0.421875 -7.765625 L 2.3125 -7.765625 C 2.414062 -7.765625 2.484375 -7.71875 2.515625 -7.625 L 3.78125 -2.734375 C 3.789062 -2.703125 3.804688 -2.6875 3.828125 -2.6875 C 3.847656 -2.6875 3.863281 -2.703125 3.875 -2.734375 L 5.140625 -7.625 C 5.171875 -7.71875 5.242188 -7.765625 5.359375 -7.765625 L 7.203125 -7.765625 C 7.265625 -7.765625 7.304688 -7.75 7.328125 -7.71875 C 7.347656 -7.6875 7.347656 -7.632812 7.328125 -7.5625 L 4.71875 0.28125 C 4.46875 1.019531 4.210938 1.570312 3.953125 1.9375 C 3.691406 2.300781 3.320312 2.566406 2.84375 2.734375 C 2.375 2.910156 1.707031 3 0.84375 3 Z M 0.734375 3 "/></g></g></g></g></svg>