<svg xmlns="http://www.w3.org/2000/svg" xmlns:xlink="http://www.w3.org/1999/xlink" width="75" zoomAndPan="magnify" viewBox="0 0 56.25 56.249997" height="75" preserveAspectRatio="xMidYMid meet" version="1.0"><defs><filter x="0%" y="0%" width="100%" height="100%" id="74b6edb97f"><feColorMatrix values="0 0 0 0 1 0 0 0 0 1 0 0 0 0 1 0 0 0 1 0" color-interpolation-filters="sRGB"/></filter><mask id="0aba238109"><g filter="url(#74b6edb97f)"><rect x="-5.625" width="67.5" fill="#000000" y="-5.625" height="67.499996" fill-opacity="0.4275"/></g></mask><clipPath id="8ed4cc1476"><path d="M 7 16 L 13 16 L 13 16.28125 L 7 16.28125 Z M 7 16 " clip-rule="nonzero"/></clipPath><clipPath id="d5dc997495"><path d="M 9 0.207031 L 15 0.207031 L 15 5 L 9 5 Z M 9 0.207031 " clip-rule="nonzero"/></clipPath><clipPath id="61dfc095ef"><path d="M 13 7 L 21.902344 7 L 21.902344 16 L 13 16 Z M 13 7 " clip-rule="nonzero"/></clipPath><clipPath id="6f9d38e9ae"><path d="M 1.175781 5 L 8 5 L 8 13 L 1.175781 13 Z M 1.175781 5 " clip-rule="nonzero"/></clipPath><clipPath id="814da6e6a9"><rect x="0" width="23" y="0" height="22"/></clipPath><clipPath id="e4aa4ff17e"><path d="M 9.34375 15 L 44.867188 15 L 44.867188 54.84375 L 9.34375 54.84375 Z M 9.34375 15 " clip-rule="nonzero"/></clipPath></defs><g mask="url(#0aba238109)"><g transform="matrix(1, 0, 0, 1, 18, -0.000000000000010214)"><g clip-path="url(#814da6e6a9)"><g clip-path="url(#8ed4cc1476)"><path fill="#ff385c" d="M 10.164062 20.84375 C 10.371094 20.410156 10.566406 19.96875 10.792969 19.542969 C 10.863281 19.410156 10.992188 19.28125 11.128906 19.214844 C 11.539062 19.003906 11.96875 18.820312 12.460938 18.597656 C 12.003906 18.390625 11.59375 18.226562 11.207031 18.015625 C 11.027344 17.914062 10.851562 17.75 10.753906 17.570312 C 10.539062 17.195312 10.375 16.789062 10.160156 16.328125 C 9.949219 16.777344 9.785156 17.183594 9.570312 17.566406 C 9.46875 17.742188 9.296875 17.914062 9.113281 18.015625 C 8.730469 18.222656 8.320312 18.382812 7.851562 18.59375 C 8.324219 18.808594 8.746094 18.980469 9.144531 19.195312 C 9.308594 19.28125 9.46875 19.433594 9.546875 19.59375 C 9.753906 20 9.914062 20.425781 10.09375 20.84375 C 10.117188 20.84375 10.140625 20.84375 10.164062 20.84375 " fill-opacity="1" fill-rule="nonzero"/></g><g clip-path="url(#d5dc997495)"><path fill="#ff385c" d="M 11.964844 4.808594 C 12.171875 4.375 12.367188 3.933594 12.59375 3.507812 C 12.664062 3.375 12.792969 3.246094 12.925781 3.175781 C 13.339844 2.96875 13.765625 2.785156 14.261719 2.5625 C 13.804688 2.351562 13.394531 2.191406 13.007812 1.980469 C 12.828125 1.882812 12.652344 1.714844 12.550781 1.535156 C 12.339844 1.160156 12.175781 0.753906 11.960938 0.292969 C 11.746094 0.742188 11.582031 1.148438 11.371094 1.527344 C 11.265625 1.707031 11.09375 1.878906 10.914062 1.976562 C 10.53125 2.1875 10.121094 2.34375 9.652344 2.558594 C 10.125 2.773438 10.546875 2.945312 10.945312 3.160156 C 11.109375 3.246094 11.265625 3.398438 11.347656 3.558594 C 11.554688 3.964844 11.714844 4.390625 11.894531 4.808594 C 11.917969 4.808594 11.941406 4.808594 11.964844 4.808594 " fill-opacity="1" fill-rule="nonzero"/></g><g clip-path="url(#61dfc095ef)"><path fill="#ff385c" d="M 17.714844 7.570312 C 17.324219 8.40625 17.027344 9.136719 16.644531 9.820312 C 16.460938 10.144531 16.15625 10.457031 15.828125 10.640625 C 15.132812 11.023438 14.390625 11.320312 13.53125 11.71875 C 14.398438 12.125 15.167969 12.449219 15.898438 12.839844 C 16.179688 12.988281 16.445312 13.25 16.59375 13.523438 C 16.984375 14.234375 17.300781 14.984375 17.714844 15.851562 C 18.117188 15.007812 18.4375 14.257812 18.832031 13.542969 C 18.992188 13.253906 19.269531 12.972656 19.5625 12.8125 C 20.28125 12.433594 21.042969 12.125 21.925781 11.726562 C 21.082031 11.34375 20.34375 11.058594 19.660156 10.679688 C 19.3125 10.484375 18.980469 10.164062 18.785156 9.820312 C 18.398438 9.140625 18.105469 8.410156 17.714844 7.570312 " fill-opacity="1" fill-rule="nonzero"/></g><g clip-path="url(#6f9d38e9ae)"><path fill="#ff385c" d="M 4.582031 12.035156 C 4.808594 11.558594 5.039062 11.214844 5.144531 10.839844 C 5.390625 9.941406 6.027344 9.484375 6.863281 9.191406 C 7.210938 9.070312 7.535156 8.894531 7.972656 8.695312 C 7.296875 8.386719 6.6875 8.136719 6.113281 7.824219 C 5.855469 7.683594 5.613281 7.449219 5.472656 7.195312 C 5.160156 6.636719 4.910156 6.042969 4.585938 5.355469 C 4.277344 5.996094 3.988281 6.550781 3.746094 7.121094 C 3.585938 7.5 3.335938 7.734375 2.953125 7.890625 C 2.390625 8.117188 1.84375 8.390625 1.1875 8.691406 C 1.886719 9.011719 2.507812 9.273438 3.097656 9.585938 C 3.328125 9.707031 3.546875 9.914062 3.667969 10.136719 C 3.988281 10.722656 4.253906 11.34375 4.582031 12.035156 " fill-opacity="1" fill-rule="nonzero"/></g></g></g></g><g clip-path="url(#e4aa4ff17e)"><path fill="#ff385c" d="M 28.4375 30.058594 C 28.742188 29.484375 29.058594 28.972656 29.304688 28.425781 C 30.269531 26.277344 31.410156 24.230469 32.636719 22.226562 C 33.199219 21.304688 33.769531 20.394531 34.445312 19.558594 C 35.289062 18.515625 36.269531 17.5625 37.507812 17.101562 C 40.164062 16.117188 42.871094 16.839844 44.054688 19.792969 C 44.773438 21.582031 44.867188 23.457031 44.476562 25.355469 C 43.941406 27.925781 42.980469 30.324219 41.832031 32.679688 C 40.710938 34.96875 39.375 37.128906 38.097656 39.320312 C 37.261719 40.753906 36.425781 42.183594 35.550781 43.589844 C 34.601562 45.113281 33.554688 46.578125 32.636719 48.121094 C 31.535156 49.972656 30.230469 51.695312 29.175781 53.582031 C 28.632812 54.550781 27.671875 54.835938 26.671875 54.316406 C 25.945312 53.9375 25.390625 53.359375 24.925781 52.695312 C 23.855469 51.148438 22.773438 49.609375 21.730469 48.046875 C 19.820312 45.199219 17.90625 42.355469 16.050781 39.472656 C 14.765625 37.472656 13.5625 35.414062 12.496094 33.285156 C 11.320312 30.929688 10.269531 28.519531 9.746094 25.914062 C 9.34375 23.90625 9.34375 21.90625 10.179688 20.023438 C 11.589844 16.835938 14.320312 14.886719 17.988281 15.707031 C 20.183594 16.195312 21.886719 17.460938 23.425781 19 C 25.046875 20.625 26.199219 22.578125 27.046875 24.703125 C 27.609375 26.117188 28.035156 27.585938 28.21875 29.109375 C 28.253906 29.40625 28.269531 29.710938 28.4375 30.058594 Z M 28.269531 51.726562 C 28.410156 51.699219 28.503906 51.597656 28.589844 51.488281 C 29.804688 49.984375 30.914062 48.402344 31.988281 46.796875 C 33.050781 45.210938 34.046875 43.582031 35.097656 41.992188 C 36.121094 40.445312 37.042969 38.839844 37.9375 37.222656 C 38.949219 35.390625 39.972656 33.558594 40.859375 31.65625 C 41.875 29.492188 42.824219 27.316406 43.015625 24.894531 C 43.09375 23.898438 43.121094 22.894531 42.867188 21.914062 C 42.203125 19.34375 40.316406 18.609375 38.058594 19.671875 C 36.988281 20.175781 36.257812 21.074219 35.476562 21.941406 C 34.046875 23.527344 32.777344 25.222656 31.679688 27.046875 C 30.90625 28.324219 30.15625 29.613281 29.601562 31.011719 C 29.335938 31.675781 28.941406 32.28125 28.773438 32.996094 C 28.675781 33.410156 28.160156 33.703125 27.808594 33.640625 C 27.351562 33.5625 27.179688 33.242188 27.179688 32.800781 C 27.179688 32.660156 27.179688 32.523438 27.09375 32.402344 C 26.503906 31.585938 26.386719 30.605469 26.191406 29.660156 C 25.746094 27.527344 25.082031 25.472656 23.992188 23.59375 C 23.199219 22.230469 22.246094 20.980469 21 19.972656 C 20.023438 19.179688 18.996094 18.523438 17.769531 18.222656 C 17.089844 18.054688 16.417969 18.054688 15.726562 18.195312 C 14.488281 18.445312 13.296875 20.367188 13.160156 21.597656 C 12.953125 23.457031 13.285156 25.261719 13.867188 27.007812 C 14.515625 28.953125 15.390625 30.8125 16.339844 32.625 C 17.480469 34.804688 18.738281 36.921875 20.046875 39.003906 C 21.09375 40.664062 22.109375 42.34375 23.203125 43.96875 C 24.609375 46.054688 25.917969 48.203125 27.269531 50.320312 C 27.574219 50.804688 27.742188 51.398438 28.269531 51.726562 Z M 28.269531 51.726562 " fill-opacity="1" fill-rule="nonzero"/></g></svg>