<svg xmlns="http://www.w3.org/2000/svg" xmlns:xlink="http://www.w3.org/1999/xlink" width="75" zoomAndPan="magnify" viewBox="0 0 56.25 56.249997" height="75" preserveAspectRatio="xMidYMid meet" version="1.0"><defs><filter x="0%" y="0%" width="100%" height="100%" id="fb244c373e"><feColorMatrix values="0 0 0 0 1 0 0 0 0 1 0 0 0 0 1 0 0 0 1 0" color-interpolation-filters="sRGB"/></filter><mask id="ba5c44db60"><g filter="url(#fb244c373e)"><rect x="-5.625" width="67.5" fill="#000000" y="-5.625" height="67.499996" fill-opacity="0.4275"/></g></mask><clipPath id="b4a35e5e72"><path d="M 11 0.667969 L 17 0.667969 L 17 7 L 11 7 Z M 11 0.667969 " clip-rule="nonzero"/></clipPath><clipPath id="267fd0c3e4"><path d="M 15 9 L 26.339844 9 L 26.339844 20.402344 L 15 20.402344 Z M 15 9 " clip-rule="nonzero"/></clipPath><clipPath id="12dfbdca14"><path d="M 0.4375 7 L 9 7 L 9 16 L 0.4375 16 Z M 0.4375 7 " clip-rule="nonzero"/></clipPath><clipPath id="ce4cf9ccf7"><rect x="0" width="27" y="0" height="27"/></clipPath><clipPath id="dd12b0c357"><path d="M 4.894531 24.066406 L 50.78125 24.066406 L 50.78125 54.414062 L 4.894531 54.414062 Z M 4.894531 24.066406 " clip-rule="nonzero"/></clipPath></defs><g mask="url(#ba5c44db60)"><g transform="matrix(1, 0, 0, 1, 18, 1)"><g clip-path="url(#ce4cf9ccf7)"><g clip-path="url(#b4a35e5e72)"><path fill="#ff385c" d="M 13.921875 6.425781 C 14.179688 5.882812 14.425781 5.332031 14.707031 4.796875 C 14.792969 4.632812 14.957031 4.472656 15.125 4.386719 C 15.640625 4.125 16.175781 3.898438 16.792969 3.617188 C 16.222656 3.355469 15.707031 3.152344 15.226562 2.890625 C 15 2.769531 14.78125 2.558594 14.65625 2.335938 C 14.390625 1.863281 14.183594 1.359375 13.914062 0.78125 C 13.648438 1.34375 13.445312 1.851562 13.175781 2.324219 C 13.050781 2.550781 12.832031 2.761719 12.605469 2.886719 C 12.128906 3.148438 11.617188 3.347656 11.03125 3.613281 C 11.621094 3.882812 12.148438 4.097656 12.648438 4.363281 C 12.851562 4.472656 13.046875 4.664062 13.148438 4.863281 C 13.40625 5.371094 13.609375 5.902344 13.832031 6.425781 C 13.863281 6.425781 13.890625 6.425781 13.921875 6.425781 " fill-opacity="1" fill-rule="nonzero"/></g><g clip-path="url(#267fd0c3e4)"><path fill="#ff385c" d="M 21.109375 9.875 C 20.621094 10.921875 20.25 11.832031 19.769531 12.6875 C 19.542969 13.09375 19.160156 13.484375 18.75 13.710938 C 17.882812 14.195312 16.953125 14.566406 15.878906 15.0625 C 16.964844 15.566406 17.925781 15.972656 18.839844 16.460938 C 19.1875 16.648438 19.523438 16.972656 19.710938 17.316406 C 20.195312 18.203125 20.59375 19.140625 21.105469 20.222656 C 21.609375 19.171875 22.011719 18.230469 22.503906 17.34375 C 22.703125 16.976562 23.050781 16.625 23.417969 16.429688 C 24.316406 15.953125 25.269531 15.566406 26.371094 15.066406 C 25.316406 14.589844 24.394531 14.234375 23.539062 13.757812 C 23.105469 13.519531 22.691406 13.117188 22.449219 12.6875 C 21.960938 11.839844 21.597656 10.925781 21.109375 9.875 " fill-opacity="1" fill-rule="nonzero"/></g><g clip-path="url(#12dfbdca14)"><path fill="#ff385c" d="M 4.691406 15.457031 C 4.976562 14.859375 5.261719 14.429688 5.394531 13.960938 C 5.703125 12.835938 6.5 12.265625 7.546875 11.902344 C 7.976562 11.753906 8.382812 11.53125 8.929688 11.28125 C 8.085938 10.894531 7.324219 10.585938 6.605469 10.195312 C 6.289062 10.019531 5.984375 9.722656 5.804688 9.410156 C 5.414062 8.710938 5.105469 7.96875 4.699219 7.105469 C 4.3125 7.910156 3.953125 8.601562 3.648438 9.316406 C 3.445312 9.789062 3.132812 10.082031 2.65625 10.273438 C 1.953125 10.5625 1.269531 10.902344 0.449219 11.277344 C 1.320312 11.679688 2.097656 12.003906 2.839844 12.394531 C 3.125 12.542969 3.398438 12.804688 3.550781 13.082031 C 3.949219 13.816406 4.28125 14.589844 4.691406 15.457031 " fill-opacity="1" fill-rule="nonzero"/></g></g></g></g><g clip-path="url(#dd12b0c357)"><path fill="#ff385c" d="M 46.691406 24.066406 L 8.980469 24.066406 C 6.738281 24.066406 4.902344 25.886719 4.902344 28.113281 L 4.902344 50.367188 C 4.902344 52.59375 6.738281 54.414062 8.980469 54.414062 L 46.691406 54.414062 C 48.933594 54.414062 50.769531 52.59375 50.769531 50.367188 L 50.769531 28.113281 C 50.769531 25.886719 48.933594 24.066406 46.691406 24.066406 Z M 8.980469 26.089844 L 46.691406 26.089844 C 46.84375 26.089844 46.945312 26.089844 47.101562 26.140625 L 28.5 41.414062 C 28.140625 41.71875 27.582031 41.71875 27.175781 41.414062 L 8.574219 26.140625 C 8.726562 26.089844 8.828125 26.089844 8.980469 26.089844 Z M 6.941406 50.367188 L 6.941406 28.113281 C 6.941406 27.910156 6.992188 27.707031 7.042969 27.507812 L 21.3125 39.238281 L 7.042969 50.972656 C 6.992188 50.769531 6.941406 50.570312 6.941406 50.367188 Z M 46.691406 52.390625 L 8.980469 52.390625 C 8.828125 52.390625 8.726562 52.390625 8.574219 52.339844 L 22.894531 40.554688 L 25.847656 42.984375 C 26.410156 43.4375 27.125 43.691406 27.785156 43.691406 C 28.449219 43.691406 29.160156 43.4375 29.722656 42.984375 L 32.679688 40.554688 L 46.996094 52.339844 C 46.945312 52.390625 46.84375 52.390625 46.691406 52.390625 Z M 48.730469 50.367188 C 48.730469 50.570312 48.679688 50.769531 48.628906 50.972656 L 34.359375 39.238281 L 48.628906 27.507812 C 48.679688 27.707031 48.730469 27.910156 48.730469 28.113281 Z M 48.730469 50.367188 " fill-opacity="1" fill-rule="nonzero"/></g></svg>