<svg xmlns="http://www.w3.org/2000/svg" xmlns:xlink="http://www.w3.org/1999/xlink" width="75" zoomAndPan="magnify" viewBox="0 0 56.25 56.249997" height="75" preserveAspectRatio="xMidYMid meet" version="1.0"><defs><filter x="0%" y="0%" width="100%" height="100%" id="fa1c54d23c"><feColorMatrix values="0 0 0 0 1 0 0 0 0 1 0 0 0 0 1 0 0 0 1 0" color-interpolation-filters="sRGB"/></filter><clipPath id="72cad6f4aa"><path d="M 13.0625 16.066406 L 42.667969 16.066406 L 42.667969 53.074219 L 13.0625 53.074219 Z M 13.0625 16.066406 " clip-rule="nonzero"/></clipPath><mask id="3af455adfa"><g filter="url(#fa1c54d23c)"><rect x="-5.625" width="67.5" fill="#000000" y="-5.625" height="67.499996" fill-opacity="0.4275"/></g></mask><clipPath id="2d982a2648"><path d="M 11 0.253906 L 18 0.253906 L 18 7 L 11 7 Z M 11 0.253906 " clip-rule="nonzero"/></clipPath><clipPath id="f8b28ef918"><path d="M 16 9 L 26.851562 9 L 26.851562 19.984375 L 16 19.984375 Z M 16 9 " clip-rule="nonzero"/></clipPath><clipPath id="4bee02ca7d"><path d="M 0.949219 6 L 10 6 L 10 16 L 0.949219 16 Z M 0.949219 6 " clip-rule="nonzero"/></clipPath><clipPath id="487ed61727"><rect x="0" width="28" y="0" height="27"/></clipPath></defs><g clip-path="url(#72cad6f4aa)"><path fill="#ff385c" d="M 34.609375 53.074219 L 30.921875 53.074219 C 29.378906 52.972656 27.882812 52.652344 26.4375 52.101562 C 25.03125 51.5625 23.578125 51.238281 22.070312 51.128906 C 20.164062 51.199219 18.300781 51.519531 16.484375 52.101562 C 16.25 52.179688 16.019531 52.171875 15.792969 52.078125 C 15.5625 51.984375 15.394531 51.824219 15.285156 51.605469 C 13.875 48.351562 13.167969 44.957031 13.160156 41.417969 C 13.101562 38.675781 13.460938 35.988281 14.242188 33.355469 C 14.3125 33.125 14.453125 32.945312 14.65625 32.816406 C 14.863281 32.6875 15.085938 32.640625 15.324219 32.675781 C 16.453125 32.855469 17.488281 32.625 18.421875 31.976562 C 19.003906 31.371094 19.53125 30.722656 20.007812 30.035156 C 21.007812 28.640625 22.125 27.34375 23.359375 26.148438 C 24.046875 25.515625 24.746094 24.964844 25.328125 24.476562 C 27.078125 23.117188 27.972656 22.351562 27.972656 21.019531 L 27.972656 18.105469 C 27.972656 17.835938 28.066406 17.605469 28.257812 17.417969 C 29.308594 16.523438 30.523438 16.105469 31.90625 16.164062 C 33.085938 16.164062 35.839844 16.824219 35.839844 22.960938 C 35.839844 25.417969 34.207031 28.101562 32.980469 29.761719 L 37.5625 29.761719 C 38.3125 29.757812 39.015625 29.945312 39.667969 30.320312 C 40.316406 30.691406 40.828125 31.203125 41.199219 31.851562 C 41.570312 32.496094 41.75 33.191406 41.738281 33.9375 C 41.730469 34.679688 41.53125 35.371094 41.140625 36.007812 C 41.398438 36.222656 41.625 36.464844 41.824219 36.734375 C 42.023438 37.007812 42.1875 37.296875 42.316406 37.601562 C 42.445312 37.910156 42.535156 38.230469 42.585938 38.5625 C 42.636719 38.890625 42.648438 39.222656 42.621094 39.554688 C 42.589844 39.886719 42.523438 40.210938 42.417969 40.527344 C 42.3125 40.84375 42.167969 41.144531 41.988281 41.425781 C 41.808594 41.707031 41.597656 41.964844 41.359375 42.199219 C 41.117188 42.433594 40.851562 42.636719 40.5625 42.804688 C 40.707031 43.261719 40.773438 43.726562 40.757812 44.203125 C 40.738281 44.679688 40.640625 45.140625 40.460938 45.582031 C 40.28125 46.027344 40.03125 46.425781 39.710938 46.785156 C 39.390625 47.140625 39.019531 47.433594 38.59375 47.664062 C 38.699219 47.972656 38.761719 48.289062 38.789062 48.617188 C 38.816406 48.941406 38.804688 49.265625 38.753906 49.589844 C 38.703125 49.914062 38.613281 50.222656 38.488281 50.527344 C 38.363281 50.828125 38.203125 51.113281 38.007812 51.375 C 37.8125 51.640625 37.589844 51.878906 37.335938 52.089844 C 37.085938 52.300781 36.8125 52.480469 36.515625 52.628906 C 36.222656 52.777344 35.914062 52.886719 35.589844 52.964844 C 35.269531 53.039062 34.941406 53.074219 34.609375 53.074219 Z M 22.070312 49.1875 C 23.785156 49.28125 25.445312 49.636719 27.046875 50.246094 C 28.296875 50.726562 29.589844 51.019531 30.921875 51.128906 L 34.609375 51.128906 C 34.90625 51.128906 35.1875 51.074219 35.457031 50.964844 C 35.730469 50.851562 35.96875 50.695312 36.175781 50.488281 C 36.382812 50.285156 36.542969 50.046875 36.65625 49.78125 C 36.769531 49.511719 36.824219 49.234375 36.824219 48.945312 C 36.828125 48.496094 36.699219 48.089844 36.441406 47.71875 C 36.242188 47.433594 36.210938 47.128906 36.34375 46.808594 C 36.472656 46.488281 36.710938 46.296875 37.050781 46.226562 C 37.296875 46.171875 37.527344 46.078125 37.738281 45.945312 C 37.953125 45.8125 38.140625 45.648438 38.296875 45.457031 C 38.457031 45.261719 38.578125 45.046875 38.660156 44.8125 C 38.746094 44.578125 38.789062 44.335938 38.789062 44.089844 C 38.792969 43.640625 38.667969 43.230469 38.40625 42.863281 C 38.210938 42.578125 38.175781 42.273438 38.308594 41.949219 C 38.441406 41.632812 38.675781 41.4375 39.015625 41.367188 C 39.484375 41.25 39.871094 41.007812 40.175781 40.640625 C 40.484375 40.277344 40.65625 39.855469 40.6875 39.382812 C 40.71875 38.90625 40.609375 38.46875 40.351562 38.066406 C 40.097656 37.664062 39.746094 37.371094 39.300781 37.191406 C 38.941406 37.066406 38.730469 36.816406 38.664062 36.445312 C 38.601562 36.078125 38.710938 35.777344 38.996094 35.539062 C 39.351562 35.246094 39.585938 34.875 39.703125 34.433594 C 39.824219 33.992188 39.800781 33.554688 39.640625 33.125 C 39.480469 32.695312 39.210938 32.351562 38.828125 32.089844 C 38.445312 31.828125 38.023438 31.703125 37.5625 31.703125 L 30.921875 31.703125 C 30.730469 31.703125 30.550781 31.652344 30.386719 31.546875 C 30.226562 31.441406 30.105469 31.300781 30.027344 31.125 C 29.949219 30.949219 29.921875 30.769531 29.953125 30.578125 C 29.984375 30.390625 30.066406 30.222656 30.195312 30.082031 C 30.195312 30.082031 33.875 26.0625 33.875 22.960938 C 33.875 20.613281 33.363281 18.105469 31.90625 18.105469 C 31.207031 18.089844 30.550781 18.25 29.941406 18.589844 L 29.941406 21.019531 C 29.941406 23.339844 28.308594 24.625 26.585938 25.984375 C 25.976562 26.46875 25.335938 26.953125 24.71875 27.554688 C 23.558594 28.671875 22.515625 29.886719 21.589844 31.199219 C 21.054688 31.964844 20.464844 32.6875 19.820312 33.363281 C 19.273438 33.820312 18.660156 34.164062 17.980469 34.386719 C 17.300781 34.613281 16.601562 34.707031 15.886719 34.667969 C 15.324219 36.882812 15.070312 39.132812 15.128906 41.417969 C 15.167969 44.359375 15.707031 47.207031 16.742188 49.964844 C 18.484375 49.484375 20.261719 49.226562 22.070312 49.1875 Z M 22.070312 49.1875 " fill-opacity="1" fill-rule="nonzero"/></g><g mask="url(#3af455adfa)"><g transform="matrix(1, 0, 0, 1, 19, -0.000000000000010214)"><g clip-path="url(#487ed61727)"><g clip-path="url(#2d982a2648)"><path fill="#ff385c" d="M 14.433594 6.007812 C 14.691406 5.464844 14.9375 4.914062 15.21875 4.378906 C 15.304688 4.214844 15.46875 4.054688 15.636719 3.96875 C 16.152344 3.707031 16.683594 3.480469 17.304688 3.199219 C 16.734375 2.9375 16.21875 2.734375 15.738281 2.472656 C 15.511719 2.351562 15.292969 2.140625 15.167969 1.917969 C 14.902344 1.449219 14.695312 0.941406 14.425781 0.363281 C 14.160156 0.925781 13.957031 1.433594 13.6875 1.90625 C 13.558594 2.132812 13.34375 2.34375 13.117188 2.46875 C 12.640625 2.730469 12.128906 2.929688 11.542969 3.195312 C 12.132812 3.464844 12.660156 3.679688 13.15625 3.945312 C 13.363281 4.054688 13.558594 4.246094 13.660156 4.445312 C 13.917969 4.953125 14.121094 5.484375 14.34375 6.007812 C 14.375 6.007812 14.402344 6.007812 14.433594 6.007812 " fill-opacity="1" fill-rule="nonzero"/></g><g clip-path="url(#f8b28ef918)"><path fill="#ff385c" d="M 21.621094 9.457031 C 21.132812 10.503906 20.761719 11.414062 20.28125 12.269531 C 20.050781 12.679688 19.671875 13.066406 19.261719 13.292969 C 18.394531 13.777344 17.464844 14.148438 16.390625 14.644531 C 17.476562 15.148438 18.4375 15.554688 19.351562 16.042969 C 19.699219 16.230469 20.035156 16.554688 20.222656 16.898438 C 20.707031 17.785156 21.105469 18.722656 21.617188 19.804688 C 22.121094 18.753906 22.523438 17.8125 23.015625 16.925781 C 23.214844 16.558594 23.5625 16.207031 23.929688 16.011719 C 24.828125 15.535156 25.78125 15.148438 26.882812 14.648438 C 25.828125 14.171875 24.90625 13.816406 24.050781 13.34375 C 23.617188 13.101562 23.203125 12.699219 22.957031 12.269531 C 22.472656 11.421875 22.109375 10.507812 21.621094 9.457031 " fill-opacity="1" fill-rule="nonzero"/></g><g clip-path="url(#4bee02ca7d)"><path fill="#ff385c" d="M 5.203125 15.039062 C 5.488281 14.441406 5.773438 14.011719 5.90625 13.542969 C 6.214844 12.417969 7.011719 11.851562 8.054688 11.484375 C 8.488281 11.335938 8.894531 11.113281 9.441406 10.863281 C 8.597656 10.476562 7.835938 10.167969 7.117188 9.777344 C 6.796875 9.601562 6.496094 9.304688 6.316406 8.992188 C 5.925781 8.292969 5.617188 7.550781 5.210938 6.6875 C 4.824219 7.492188 4.464844 8.183594 4.160156 8.898438 C 3.957031 9.371094 3.644531 9.664062 3.167969 9.855469 C 2.464844 10.144531 1.78125 10.484375 0.960938 10.859375 C 1.832031 11.261719 2.609375 11.585938 3.351562 11.976562 C 3.636719 12.125 3.910156 12.386719 4.0625 12.664062 C 4.460938 13.398438 4.792969 14.171875 5.203125 15.039062 " fill-opacity="1" fill-rule="nonzero"/></g></g></g></g></svg>