<svg xmlns="http://www.w3.org/2000/svg" xmlns:xlink="http://www.w3.org/1999/xlink" width="75" zoomAndPan="magnify" viewBox="0 0 56.25 30.000001" height="40" preserveAspectRatio="xMidYMid meet" version="1.0"><defs><clipPath id="6f06dfded1"><path d="M 0.542969 0.78125 L 54.980469 0.78125 L 54.980469 28.363281 L 0.542969 28.363281 Z M 0.542969 0.78125 " clip-rule="nonzero"/></clipPath></defs><g clip-path="url(#6f06dfded1)"><path fill="#ffffff" d="M 0.542969 14.238281 C 0.542969 -0.792969 12.734375 -12.980469 27.761719 -12.980469 C 42.792969 -12.980469 54.980469 -0.792969 54.980469 14.238281 C 54.980469 29.269531 42.792969 41.457031 27.761719 41.457031 C 12.734375 41.457031 0.542969 29.269531 0.542969 14.238281 Z M 0.542969 14.238281 " fill-opacity="1" fill-rule="nonzero"/></g><path fill="#999990" d="M 27.050781 22.433594 C 29.417969 20.292969 30.910156 17.1875 30.910156 13.746094 C 30.910156 10.300781 29.417969 7.195312 27.050781 5.035156 C 24.976562 3.148438 22.222656 2.007812 19.195312 2.007812 C 12.722656 2.007812 7.457031 7.273438 7.457031 13.746094 C 7.457031 20.226562 12.722656 25.460938 19.195312 25.460938 C 22.234375 25.460938 24.988281 24.308594 27.050781 22.433594 " fill-opacity="1" fill-rule="evenodd"/><path fill="#999990" d="M 27.050781 22.433594 C 29.417969 20.292969 30.910156 17.1875 30.910156 13.746094 C 30.910156 10.300781 29.417969 7.195312 27.050781 5.035156 Z M 27.050781 22.433594 " fill-opacity="1" fill-rule="evenodd"/><path fill="#d5d2ca" d="M 34.9375 2.007812 C 31.910156 2.007812 29.144531 3.15625 27.058594 5.035156 C 26.644531 5.429688 26.257812 5.835938 25.886719 6.273438 L 28.253906 6.273438 C 28.574219 6.65625 28.882812 7.097656 29.15625 7.511719 L 24.996094 7.511719 C 24.746094 7.929688 24.515625 8.335938 24.304688 8.753906 L 29.824219 8.753906 C 30.011719 9.171875 30.199219 9.574219 30.328125 9.992188 L 23.8125 9.992188 C 23.671875 10.410156 23.558594 10.828125 23.472656 11.253906 L 30.660156 11.253906 C 30.824219 12.035156 30.910156 12.890625 30.910156 13.734375 C 30.910156 15.015625 30.703125 16.277344 30.308594 17.453125 L 23.8125 17.453125 C 23.945312 17.871094 24.109375 18.277344 24.296875 18.691406 L 29.8125 18.691406 C 29.605469 19.109375 29.398438 19.535156 29.144531 19.933594 L 24.988281 19.933594 C 25.261719 20.371094 25.558594 20.777344 25.886719 21.171875 L 28.253906 21.171875 C 27.894531 21.609375 27.5 22.027344 27.058594 22.410156 C 29.15625 24.296875 31.910156 25.4375 34.9375 25.4375 C 41.421875 25.4375 46.652344 20.207031 46.652344 13.722656 C 46.652344 7.273438 41.410156 2.007812 34.9375 2.007812 " fill-opacity="1" fill-rule="evenodd"/><path fill="#ffffff" d="M 42.605469 16.269531 C 42.605469 16.058594 42.792969 15.894531 43 15.894531 C 43.207031 15.894531 43.375 16.058594 43.375 16.269531 C 43.375 16.476562 43.207031 16.664062 43 16.664062 C 42.792969 16.664062 42.605469 16.476562 42.605469 16.269531 M 43 16.574219 C 43.164062 16.574219 43.273438 16.433594 43.273438 16.277344 C 43.273438 16.125 43.164062 16.003906 43 16.003906 C 42.835938 16.003906 42.703125 16.113281 42.703125 16.277344 C 42.703125 16.445312 42.835938 16.574219 43 16.574219 M 42.945312 16.433594 L 42.859375 16.433594 L 42.859375 16.113281 L 43 16.113281 C 43.042969 16.113281 43.066406 16.113281 43.085938 16.136719 C 43.109375 16.15625 43.132812 16.179688 43.132812 16.203125 C 43.132812 16.246094 43.109375 16.289062 43.066406 16.289062 L 43.132812 16.433594 L 43.042969 16.433594 L 43 16.324219 L 42.957031 16.324219 L 42.957031 16.433594 Z M 42.945312 16.246094 L 43.03125 16.246094 C 43.03125 16.246094 43.03125 16.222656 43.03125 16.203125 L 43.03125 16.179688 C 43.011719 16.179688 42.988281 16.179688 42.96875 16.179688 L 42.945312 16.179688 Z M 42.945312 16.246094 " fill-opacity="1" fill-rule="evenodd"/><path fill="#ffffff" d="M 17.722656 16.664062 L 16.253906 16.664062 L 17.132812 12.089844 L 15.125 16.664062 L 13.796875 16.664062 L 13.566406 12.109375 L 12.6875 16.664062 L 11.359375 16.664062 L 12.492188 10.714844 L 14.785156 10.714844 L 14.894531 14.390625 L 16.507812 10.714844 L 18.875 10.714844 Z M 17.722656 16.664062 " fill-opacity="1" fill-rule="evenodd"/><path fill="#ffffff" d="M 34.039062 16.597656 C 33.621094 16.707031 33.324219 16.761719 32.984375 16.761719 C 32.25 16.761719 31.832031 16.386719 31.832031 15.707031 C 31.832031 15.566406 31.855469 15.433594 31.875 15.269531 L 31.964844 14.785156 L 32.03125 14.414062 L 32.699219 10.714844 L 34.148438 10.714844 L 33.9375 11.8125 L 34.695312 11.8125 L 34.488281 12.988281 L 33.730469 12.988281 L 33.355469 15.007812 C 33.335938 15.09375 33.3125 15.171875 33.3125 15.214844 C 33.3125 15.46875 33.476562 15.585938 33.816406 15.585938 C 33.980469 15.585938 34.113281 15.566406 34.210938 15.542969 Z M 34.039062 16.597656 " fill-opacity="1" fill-rule="evenodd"/><path fill="#ffffff" d="M 38.28125 11.859375 C 38.171875 11.8125 38.140625 11.8125 38.117188 11.8125 C 38.050781 11.792969 38.007812 11.792969 38.007812 11.769531 C 37.964844 11.769531 37.921875 11.769531 37.84375 11.769531 C 37.359375 11.769531 37.019531 11.976562 36.582031 12.550781 L 36.726562 11.8125 L 35.398438 11.8125 L 34.496094 16.664062 L 35.96875 16.664062 C 36.496094 13.699219 36.703125 13.175781 37.417969 13.175781 C 37.460938 13.175781 37.535156 13.195312 37.601562 13.195312 L 37.765625 13.238281 Z M 38.28125 11.859375 " fill-opacity="1" fill-rule="evenodd"/><path fill="#ffffff" d="M 28.246094 13.351562 C 28.246094 13.941406 28.585938 14.382812 29.375 14.6875 C 29.96875 14.941406 30.066406 15.007812 30.066406 15.238281 C 30.066406 15.53125 29.792969 15.675781 29.210938 15.675781 C 28.769531 15.675781 28.355469 15.609375 27.882812 15.46875 L 27.695312 16.597656 L 27.761719 16.597656 L 28.015625 16.664062 C 28.101562 16.664062 28.246094 16.683594 28.410156 16.683594 C 28.75 16.730469 29.035156 16.730469 29.230469 16.730469 C 30.769531 16.730469 31.503906 16.222656 31.503906 15.117188 C 31.503906 14.445312 31.207031 14.0625 30.449219 13.753906 C 29.824219 13.523438 29.757812 13.460938 29.757812 13.230469 C 29.757812 12.976562 30.011719 12.835938 30.492188 12.835938 C 30.769531 12.835938 31.183594 12.855469 31.546875 12.898438 L 31.753906 11.804688 C 31.359375 11.738281 30.789062 11.714844 30.472656 11.714844 C 28.828125 11.726562 28.246094 12.460938 28.246094 13.351562 " fill-opacity="1" fill-rule="evenodd"/><path fill="#ffffff" d="M 22.453125 16.664062 L 21.257812 16.664062 L 21.277344 16.15625 C 20.90625 16.554688 20.402344 16.730469 19.742188 16.730469 C 18.964844 16.730469 18.414062 16.203125 18.414062 15.421875 C 18.414062 14.25 19.359375 13.558594 20.992188 13.558594 C 21.15625 13.558594 21.355469 13.558594 21.585938 13.582031 C 21.628906 13.414062 21.628906 13.351562 21.628906 13.285156 C 21.628906 12.964844 21.378906 12.84375 20.6875 12.84375 C 20.269531 12.84375 19.820312 12.890625 19.492188 12.953125 L 19.28125 13.019531 L 19.140625 13.042969 L 19.347656 11.96875 C 20.082031 11.78125 20.542969 11.714844 21.09375 11.714844 C 22.355469 11.714844 23 12.199219 23 13.121094 C 23 13.371094 22.980469 13.558594 22.890625 14.085938 L 22.59375 15.808594 L 22.550781 16.101562 L 22.507812 16.355469 L 22.484375 16.519531 Z M 21.398438 14.5 C 21.234375 14.480469 21.167969 14.480469 21.082031 14.480469 C 20.257812 14.480469 19.839844 14.730469 19.839844 15.214844 C 19.839844 15.511719 20.027344 15.71875 20.347656 15.71875 C 20.9375 15.71875 21.378906 15.214844 21.398438 14.5 " fill-opacity="1" fill-rule="evenodd"/><path fill="#ffffff" d="M 27.257812 16.554688 C 26.753906 16.695312 26.269531 16.761719 25.765625 16.761719 C 24.140625 16.761719 23.285156 16.003906 23.285156 14.578125 C 23.285156 12.921875 24.359375 11.703125 25.832031 11.703125 C 27.027344 11.703125 27.785156 12.394531 27.785156 13.449219 C 27.785156 13.808594 27.738281 14.160156 27.621094 14.644531 L 24.703125 14.644531 L 24.703125 14.808594 C 24.703125 15.355469 25.117188 15.652344 25.964844 15.652344 C 26.488281 15.652344 26.972656 15.566406 27.476562 15.355469 Z M 26.480469 13.679688 C 26.480469 13.589844 26.480469 13.492188 26.480469 13.425781 C 26.480469 13.03125 26.226562 12.800781 25.789062 12.800781 C 25.328125 12.800781 25.007812 13.121094 24.867188 13.679688 Z M 26.480469 13.679688 " fill-opacity="1" fill-rule="evenodd"/><path fill="#ffffff" d="M 42.835938 14.457031 C 42.605469 16.070312 41.476562 16.773438 39.984375 16.773438 C 38.347656 16.773438 37.691406 15.785156 37.691406 14.546875 C 37.691406 12.84375 38.820312 11.671875 40.566406 11.671875 C 42.078125 11.671875 42.890625 12.636719 42.890625 13.855469 C 42.878906 14.160156 42.878906 14.183594 42.835938 14.457031 M 41.320312 13.832031 C 41.320312 13.328125 41.113281 12.867188 40.519531 12.867188 C 39.785156 12.867188 39.324219 13.734375 39.324219 14.523438 C 39.324219 15.171875 39.644531 15.597656 40.148438 15.597656 C 40.464844 15.597656 41.15625 15.160156 41.277344 14.425781 C 41.320312 14.25 41.320312 14.039062 41.320312 13.832031 " fill-opacity="1" fill-rule="evenodd"/></svg>