<svg xmlns="http://www.w3.org/2000/svg" xmlns:xlink="http://www.w3.org/1999/xlink" width="75" zoomAndPan="magnify" viewBox="0 0 56.25 44.999999" height="60" preserveAspectRatio="xMidYMid meet" version="1.0"><defs><clipPath id="1e686d3c91"><path d="M 4 37 L 55 37 L 55 43.964844 L 4 43.964844 Z M 4 37 " clip-rule="nonzero"/></clipPath><clipPath id="6d3d1faabe"><path d="M 28 2 L 55.511719 2 L 55.511719 36 L 28 36 Z M 28 2 " clip-rule="nonzero"/></clipPath></defs><g clip-path="url(#1e686d3c91)"><path fill="#3d3d3b" d="M 11.292969 43.675781 L 11.292969 40.910156 C 11.308594 40.675781 11.277344 40.445312 11.191406 40.222656 C 11.109375 40.003906 10.984375 39.808594 10.820312 39.640625 C 10.652344 39.472656 10.457031 39.347656 10.234375 39.261719 C 10.015625 39.179688 9.785156 39.144531 9.546875 39.15625 C 9.234375 39.136719 8.941406 39.195312 8.660156 39.335938 C 8.382812 39.476562 8.160156 39.679688 7.992188 39.941406 C 7.835938 39.6875 7.628906 39.488281 7.367188 39.347656 C 7.101562 39.207031 6.824219 39.144531 6.523438 39.15625 C 5.964844 39.128906 5.535156 39.347656 5.226562 39.8125 L 5.226562 39.265625 L 4.261719 39.265625 L 4.261719 43.675781 L 5.234375 43.675781 L 5.234375 41.25 C 5.214844 41.097656 5.226562 40.949219 5.273438 40.800781 C 5.320312 40.652344 5.394531 40.523438 5.5 40.410156 C 5.605469 40.296875 5.730469 40.210938 5.875 40.152344 C 6.015625 40.09375 6.167969 40.070312 6.320312 40.078125 C 6.960938 40.078125 7.285156 40.496094 7.285156 41.242188 L 7.285156 43.695312 L 8.257812 43.695312 L 8.257812 41.25 C 8.238281 41.097656 8.253906 40.949219 8.300781 40.800781 C 8.347656 40.65625 8.421875 40.527344 8.527344 40.414062 C 8.632812 40.300781 8.753906 40.214844 8.898438 40.15625 C 9.042969 40.097656 9.191406 40.070312 9.34375 40.078125 C 10.003906 40.078125 10.316406 40.496094 10.316406 41.242188 L 10.316406 43.695312 Z M 25.699219 39.265625 L 24.113281 39.265625 L 24.113281 37.929688 L 23.140625 37.929688 L 23.140625 39.265625 L 22.257812 39.265625 L 22.257812 40.144531 L 23.160156 40.144531 L 23.160156 42.171875 C 23.160156 43.199219 23.558594 43.804688 24.699219 43.804688 C 25.132812 43.808594 25.535156 43.695312 25.90625 43.464844 L 25.625 42.644531 C 25.363281 42.800781 25.078125 42.882812 24.773438 42.894531 C 24.308594 42.894531 24.132812 42.597656 24.132812 42.15625 L 24.132812 40.144531 L 25.710938 40.144531 Z M 33.925781 39.15625 C 33.6875 39.148438 33.464844 39.203125 33.253906 39.320312 C 33.042969 39.433594 32.878906 39.597656 32.757812 39.800781 L 32.757812 39.265625 L 31.804688 39.265625 L 31.804688 43.675781 L 32.769531 43.675781 L 32.769531 41.203125 C 32.769531 40.476562 33.082031 40.070312 33.695312 40.070312 C 33.902344 40.066406 34.105469 40.105469 34.296875 40.179688 L 34.59375 39.257812 C 34.375 39.179688 34.144531 39.140625 33.910156 39.136719 Z M 21.488281 39.617188 C 20.933594 39.289062 20.328125 39.132812 19.679688 39.15625 C 18.558594 39.15625 17.828125 39.691406 17.828125 40.566406 C 17.828125 41.289062 18.363281 41.730469 19.355469 41.867188 L 19.820312 41.933594 C 20.347656 42.007812 20.597656 42.144531 20.597656 42.394531 C 20.597656 42.734375 20.246094 42.929688 19.589844 42.929688 C 19.042969 42.945312 18.550781 42.792969 18.113281 42.46875 L 17.648438 43.214844 C 18.226562 43.617188 18.867188 43.808594 19.570312 43.789062 C 20.851562 43.789062 21.59375 43.1875 21.59375 42.347656 C 21.59375 41.507812 21.007812 41.167969 20.042969 41.03125 L 19.578125 40.964844 C 19.160156 40.910156 18.828125 40.828125 18.828125 40.53125 C 18.828125 40.234375 19.144531 40.015625 19.671875 40.015625 C 20.167969 40.019531 20.632812 40.144531 21.0625 40.394531 Z M 47.324219 39.15625 C 47.085938 39.148438 46.859375 39.203125 46.652344 39.320312 C 46.441406 39.433594 46.277344 39.597656 46.15625 39.800781 L 46.15625 39.265625 L 45.199219 39.265625 L 45.199219 43.675781 L 46.164062 43.675781 L 46.164062 41.203125 C 46.164062 40.476562 46.480469 40.070312 47.09375 40.070312 C 47.300781 40.066406 47.503906 40.105469 47.695312 40.179688 L 47.992188 39.257812 C 47.769531 39.179688 47.542969 39.140625 47.304688 39.136719 Z M 34.898438 41.464844 C 34.886719 41.777344 34.9375 42.078125 35.054688 42.371094 C 35.171875 42.660156 35.339844 42.917969 35.566406 43.136719 C 35.792969 43.355469 36.050781 43.519531 36.347656 43.628906 C 36.640625 43.742188 36.945312 43.789062 37.261719 43.769531 C 37.863281 43.800781 38.394531 43.625 38.855469 43.242188 L 38.394531 42.46875 C 38.050781 42.726562 37.664062 42.859375 37.234375 42.867188 C 37.054688 42.851562 36.886719 42.804688 36.726562 42.726562 C 36.5625 42.648438 36.421875 42.542969 36.300781 42.414062 C 36.179688 42.28125 36.085938 42.136719 36.023438 41.96875 C 35.957031 41.804688 35.925781 41.632812 35.925781 41.453125 C 35.925781 41.277344 35.957031 41.105469 36.023438 40.9375 C 36.085938 40.773438 36.179688 40.625 36.300781 40.492188 C 36.421875 40.363281 36.5625 40.257812 36.726562 40.179688 C 36.886719 40.101562 37.054688 40.054688 37.234375 40.042969 C 37.664062 40.046875 38.050781 40.179688 38.394531 40.4375 L 38.855469 39.664062 C 38.394531 39.28125 37.863281 39.109375 37.261719 39.136719 C 36.945312 39.121094 36.640625 39.167969 36.347656 39.277344 C 36.050781 39.386719 35.792969 39.550781 35.566406 39.773438 C 35.339844 39.992188 35.171875 40.246094 35.054688 40.539062 C 34.9375 40.828125 34.886719 41.132812 34.898438 41.445312 Z M 43.929688 41.464844 L 43.929688 39.265625 L 42.964844 39.265625 L 42.964844 39.800781 C 42.613281 39.351562 42.148438 39.136719 41.574219 39.15625 C 41.265625 39.15625 40.972656 39.214844 40.6875 39.332031 C 40.402344 39.449219 40.152344 39.617188 39.933594 39.832031 C 39.71875 40.046875 39.550781 40.296875 39.433594 40.582031 C 39.316406 40.863281 39.253906 41.15625 39.253906 41.464844 C 39.253906 41.769531 39.316406 42.0625 39.433594 42.34375 C 39.550781 42.628906 39.71875 42.878906 39.933594 43.09375 C 40.152344 43.308594 40.402344 43.476562 40.6875 43.59375 C 40.972656 43.710938 41.265625 43.769531 41.574219 43.769531 C 42.148438 43.789062 42.613281 43.574219 42.964844 43.125 L 42.964844 43.660156 L 43.929688 43.660156 Z M 40.339844 41.464844 C 40.351562 41.289062 40.394531 41.125 40.46875 40.964844 C 40.546875 40.808594 40.648438 40.671875 40.777344 40.554688 C 40.90625 40.4375 41.054688 40.347656 41.21875 40.289062 C 41.382812 40.230469 41.554688 40.203125 41.730469 40.210938 C 41.902344 40.214844 42.070312 40.253906 42.230469 40.328125 C 42.390625 40.398438 42.53125 40.496094 42.652344 40.625 C 42.773438 40.75 42.863281 40.894531 42.925781 41.058594 C 42.992188 41.21875 43.023438 41.386719 43.019531 41.5625 C 43.015625 41.738281 42.980469 41.90625 42.910156 42.066406 C 42.84375 42.226562 42.746094 42.367188 42.621094 42.488281 C 42.496094 42.613281 42.351562 42.707031 42.191406 42.773438 C 42.03125 42.839844 41.859375 42.875 41.6875 42.875 C 41.5 42.875 41.320312 42.84375 41.152344 42.769531 C 40.980469 42.699219 40.832031 42.59375 40.703125 42.460938 C 40.574219 42.328125 40.480469 42.171875 40.417969 42 C 40.355469 41.824219 40.328125 41.648438 40.339844 41.464844 Z M 28.699219 39.15625 C 28.394531 39.160156 28.097656 39.222656 27.816406 39.34375 C 27.535156 39.464844 27.285156 39.636719 27.070312 39.855469 C 26.859375 40.074219 26.695312 40.328125 26.582031 40.609375 C 26.464844 40.894531 26.410156 41.191406 26.417969 41.496094 C 26.421875 41.800781 26.484375 42.09375 26.605469 42.375 C 26.726562 42.65625 26.898438 42.902344 27.117188 43.117188 C 27.339844 43.328125 27.589844 43.492188 27.875 43.605469 C 28.160156 43.71875 28.457031 43.773438 28.765625 43.769531 C 29.457031 43.804688 30.070312 43.605469 30.605469 43.167969 L 30.144531 42.460938 C 29.765625 42.761719 29.335938 42.914062 28.855469 42.921875 C 28.695312 42.933594 28.539062 42.917969 28.386719 42.871094 C 28.234375 42.824219 28.09375 42.75 27.96875 42.648438 C 27.847656 42.546875 27.746094 42.429688 27.667969 42.289062 C 27.59375 42.148438 27.546875 42 27.527344 41.839844 L 30.820312 41.839844 C 30.820312 41.722656 30.820312 41.601562 30.820312 41.472656 C 30.820312 40.089844 29.957031 39.164062 28.714844 39.164062 Z M 28.699219 40.015625 C 28.847656 40.011719 28.988281 40.035156 29.125 40.089844 C 29.257812 40.140625 29.378906 40.21875 29.484375 40.316406 C 29.589844 40.417969 29.671875 40.535156 29.730469 40.667969 C 29.789062 40.800781 29.820312 40.941406 29.824219 41.085938 L 27.503906 41.085938 C 27.511719 40.9375 27.550781 40.796875 27.613281 40.660156 C 27.675781 40.527344 27.765625 40.410156 27.875 40.3125 C 27.984375 40.210938 28.109375 40.136719 28.25 40.082031 C 28.390625 40.03125 28.535156 40.007812 28.683594 40.015625 Z M 52.867188 41.472656 L 52.867188 37.496094 L 51.9375 37.496094 L 51.9375 39.800781 C 51.585938 39.351562 51.121094 39.136719 50.546875 39.15625 C 50.242188 39.15625 49.945312 39.214844 49.660156 39.332031 C 49.375 39.449219 49.125 39.617188 48.910156 39.832031 C 48.691406 40.046875 48.523438 40.296875 48.40625 40.582031 C 48.289062 40.863281 48.230469 41.15625 48.230469 41.464844 C 48.230469 41.769531 48.289062 42.0625 48.40625 42.34375 C 48.523438 42.628906 48.691406 42.878906 48.910156 43.09375 C 49.125 43.308594 49.375 43.476562 49.660156 43.59375 C 49.945312 43.710938 50.242188 43.769531 50.546875 43.769531 C 51.121094 43.789062 51.585938 43.574219 51.9375 43.125 L 51.9375 43.660156 L 52.867188 43.660156 Z M 54.476562 43.035156 C 54.535156 43.035156 54.59375 43.046875 54.652344 43.066406 C 54.707031 43.089844 54.753906 43.121094 54.796875 43.160156 C 54.835938 43.199219 54.871094 43.246094 54.894531 43.300781 C 54.941406 43.414062 54.941406 43.527344 54.894531 43.640625 C 54.871094 43.691406 54.835938 43.738281 54.796875 43.777344 C 54.753906 43.820312 54.707031 43.847656 54.652344 43.871094 C 54.597656 43.894531 54.535156 43.90625 54.476562 43.90625 C 54.28125 43.90625 54.140625 43.816406 54.058594 43.640625 C 54.007812 43.527344 54.007812 43.414062 54.058594 43.300781 C 54.082031 43.246094 54.113281 43.199219 54.15625 43.160156 C 54.199219 43.121094 54.246094 43.089844 54.300781 43.066406 C 54.359375 43.042969 54.425781 43.035156 54.488281 43.035156 Z M 54.476562 43.816406 C 54.523438 43.816406 54.566406 43.804688 54.609375 43.789062 C 54.652344 43.769531 54.6875 43.746094 54.71875 43.714844 C 54.777344 43.648438 54.808594 43.570312 54.808594 43.484375 C 54.808594 43.394531 54.777344 43.316406 54.71875 43.253906 C 54.6875 43.222656 54.652344 43.195312 54.609375 43.179688 C 54.566406 43.160156 54.523438 43.152344 54.476562 43.152344 C 54.429688 43.152344 54.382812 43.160156 54.339844 43.179688 C 54.300781 43.195312 54.261719 43.222656 54.230469 43.253906 C 54.167969 43.316406 54.140625 43.394531 54.140625 43.484375 C 54.140625 43.570312 54.167969 43.648438 54.230469 43.714844 C 54.261719 43.746094 54.300781 43.769531 54.339844 43.789062 C 54.386719 43.808594 54.4375 43.816406 54.488281 43.816406 Z M 54.503906 43.265625 C 54.546875 43.265625 54.589844 43.277344 54.625 43.304688 C 54.65625 43.328125 54.667969 43.359375 54.664062 43.402344 C 54.667969 43.433594 54.65625 43.460938 54.632812 43.484375 C 54.605469 43.507812 54.574219 43.523438 54.535156 43.523438 L 54.671875 43.675781 L 54.5625 43.675781 L 54.4375 43.523438 L 54.398438 43.523438 L 54.398438 43.675781 L 54.308594 43.675781 L 54.308594 43.269531 Z M 54.402344 43.34375 L 54.402344 43.457031 L 54.503906 43.457031 C 54.523438 43.460938 54.539062 43.460938 54.558594 43.457031 C 54.566406 43.441406 54.566406 43.429688 54.558594 43.414062 C 54.566406 43.402344 54.566406 43.386719 54.558594 43.371094 C 54.539062 43.367188 54.523438 43.367188 54.503906 43.371094 Z M 49.300781 41.472656 C 49.3125 41.296875 49.355469 41.132812 49.429688 40.976562 C 49.503906 40.816406 49.609375 40.679688 49.738281 40.5625 C 49.867188 40.445312 50.015625 40.359375 50.179688 40.296875 C 50.34375 40.238281 50.511719 40.210938 50.6875 40.21875 C 50.863281 40.226562 51.03125 40.265625 51.191406 40.335938 C 51.351562 40.40625 51.492188 40.507812 51.609375 40.632812 C 51.730469 40.761719 51.824219 40.90625 51.886719 41.066406 C 51.949219 41.230469 51.980469 41.398438 51.976562 41.570312 C 51.976562 41.746094 51.941406 41.914062 51.871094 42.074219 C 51.800781 42.234375 51.707031 42.375 51.582031 42.5 C 51.457031 42.621094 51.3125 42.714844 51.152344 42.78125 C 50.988281 42.847656 50.820312 42.882812 50.644531 42.882812 C 50.460938 42.886719 50.28125 42.851562 50.109375 42.78125 C 49.9375 42.707031 49.789062 42.605469 49.664062 42.46875 C 49.535156 42.335938 49.4375 42.183594 49.375 42.007812 C 49.3125 41.835938 49.289062 41.65625 49.300781 41.472656 Z M 16.730469 41.472656 L 16.730469 39.265625 L 15.765625 39.265625 L 15.765625 39.800781 C 15.414062 39.351562 14.949219 39.136719 14.375 39.15625 C 14.070312 39.15625 13.773438 39.214844 13.488281 39.332031 C 13.203125 39.449219 12.953125 39.617188 12.738281 39.832031 C 12.519531 40.046875 12.351562 40.296875 12.234375 40.582031 C 12.117188 40.863281 12.058594 41.15625 12.058594 41.464844 C 12.058594 41.769531 12.117188 42.0625 12.234375 42.34375 C 12.351562 42.628906 12.519531 42.878906 12.738281 43.09375 C 12.953125 43.308594 13.203125 43.476562 13.488281 43.59375 C 13.773438 43.710938 14.070312 43.769531 14.375 43.769531 C 14.949219 43.789062 15.414062 43.574219 15.765625 43.125 L 15.765625 43.660156 L 16.730469 43.660156 Z M 13.140625 41.472656 C 13.152344 41.296875 13.195312 41.132812 13.269531 40.976562 C 13.347656 40.816406 13.449219 40.679688 13.578125 40.5625 C 13.710938 40.445312 13.855469 40.359375 14.019531 40.296875 C 14.1875 40.238281 14.355469 40.210938 14.53125 40.21875 C 14.707031 40.226562 14.875 40.265625 15.03125 40.335938 C 15.191406 40.40625 15.332031 40.507812 15.453125 40.632812 C 15.574219 40.761719 15.664062 40.90625 15.730469 41.066406 C 15.792969 41.230469 15.824219 41.398438 15.820312 41.570312 C 15.816406 41.746094 15.78125 41.914062 15.714844 42.074219 C 15.644531 42.234375 15.546875 42.375 15.421875 42.5 C 15.296875 42.621094 15.15625 42.714844 14.992188 42.78125 C 14.832031 42.847656 14.664062 42.882812 14.488281 42.882812 C 14.300781 42.886719 14.121094 42.855469 13.949219 42.78125 C 13.777344 42.710938 13.628906 42.609375 13.5 42.472656 C 13.371094 42.339844 13.273438 42.1875 13.210938 42.011719 C 13.144531 41.835938 13.121094 41.65625 13.132812 41.472656 Z M 13.140625 41.472656 " fill-opacity="1" fill-rule="nonzero"/></g><path fill="#dedede" d="M 21.167969 5.660156 L 35.777344 5.660156 L 35.777344 31.777344 L 21.167969 31.777344 Z M 21.167969 5.660156 " fill-opacity="1" fill-rule="nonzero"/><path fill="#999990" d="M 22.097656 18.722656 C 22.097656 17.464844 22.238281 16.222656 22.519531 14.996094 C 22.800781 13.769531 23.21875 12.589844 23.773438 11.460938 C 24.324219 10.328125 24.996094 9.273438 25.792969 8.292969 C 26.585938 7.316406 27.480469 6.4375 28.472656 5.660156 C 27.65625 5.023438 26.785156 4.464844 25.863281 3.984375 C 24.9375 3.507812 23.980469 3.121094 22.984375 2.820312 C 21.988281 2.523438 20.972656 2.316406 19.9375 2.207031 C 18.902344 2.097656 17.867188 2.082031 16.832031 2.164062 C 15.792969 2.246094 14.773438 2.421875 13.769531 2.695312 C 12.765625 2.96875 11.796875 3.328125 10.859375 3.78125 C 9.925781 4.234375 9.039062 4.769531 8.203125 5.386719 C 7.371094 6.003906 6.597656 6.691406 5.894531 7.453125 C 5.1875 8.210938 4.558594 9.03125 4.007812 9.910156 C 3.453125 10.785156 2.988281 11.707031 2.609375 12.667969 C 2.230469 13.632812 1.945312 14.625 1.753906 15.640625 C 1.558594 16.65625 1.464844 17.683594 1.464844 18.71875 C 1.464844 19.753906 1.558594 20.78125 1.753906 21.796875 C 1.945312 22.8125 2.230469 23.804688 2.609375 24.765625 C 2.988281 25.730469 3.453125 26.652344 4.007812 27.527344 C 4.558594 28.40625 5.1875 29.226562 5.894531 29.984375 C 6.597656 30.746094 7.371094 31.433594 8.203125 32.050781 C 9.039062 32.667969 9.925781 33.203125 10.859375 33.65625 C 11.796875 34.105469 12.765625 34.46875 13.769531 34.742188 C 14.773438 35.011719 15.792969 35.191406 16.832031 35.273438 C 17.867188 35.355469 18.902344 35.339844 19.9375 35.230469 C 20.972656 35.121094 21.988281 34.914062 22.984375 34.617188 C 23.980469 34.316406 24.9375 33.929688 25.863281 33.453125 C 26.785156 32.972656 27.65625 32.414062 28.472656 31.777344 C 27.480469 31 26.585938 30.121094 25.792969 29.144531 C 25 28.164062 24.324219 27.109375 23.773438 25.980469 C 23.21875 24.847656 22.804688 23.671875 22.519531 22.445312 C 22.238281 21.21875 22.097656 19.976562 22.097656 18.722656 Z M 22.097656 18.722656 " fill-opacity="1" fill-rule="nonzero"/><g clip-path="url(#6d3d1faabe)"><path fill="#d5d2ca" d="M 55.488281 18.722656 C 55.488281 20.277344 55.269531 21.808594 54.839844 23.304688 C 54.40625 24.800781 53.773438 26.210938 52.941406 27.53125 C 52.113281 28.851562 51.113281 30.035156 49.949219 31.074219 C 48.785156 32.117188 47.496094 32.976562 46.085938 33.65625 C 44.679688 34.339844 43.203125 34.8125 41.660156 35.082031 C 40.117188 35.347656 38.566406 35.398438 37.007812 35.230469 C 35.453125 35.066406 33.949219 34.6875 32.496094 34.101562 C 31.046875 33.515625 29.707031 32.738281 28.472656 31.777344 C 28.96875 31.386719 29.441406 30.976562 29.890625 30.535156 C 30.335938 30.09375 30.757812 29.628906 31.15625 29.140625 C 31.550781 28.652344 31.917969 28.144531 32.253906 27.617188 C 32.589844 27.085938 32.898438 26.539062 33.171875 25.976562 C 33.449219 25.414062 33.691406 24.835938 33.902344 24.246094 C 34.109375 23.65625 34.285156 23.054688 34.425781 22.441406 C 34.570312 21.832031 34.675781 21.214844 34.746094 20.59375 C 34.816406 19.96875 34.851562 19.34375 34.851562 18.71875 C 34.851562 18.09375 34.816406 17.46875 34.746094 16.84375 C 34.675781 16.222656 34.570312 15.605469 34.425781 14.996094 C 34.285156 14.382812 34.109375 13.78125 33.902344 13.191406 C 33.691406 12.601562 33.449219 12.023438 33.171875 11.460938 C 32.898438 10.894531 32.589844 10.351562 32.253906 9.820312 C 31.917969 9.292969 31.550781 8.78125 31.15625 8.296875 C 30.757812 7.808594 30.335938 7.34375 29.890625 6.902344 C 29.441406 6.460938 28.96875 6.046875 28.472656 5.660156 C 29.703125 4.699219 31.046875 3.921875 32.496094 3.335938 C 33.949219 2.75 35.453125 2.371094 37.007812 2.203125 C 38.566406 2.039062 40.117188 2.089844 41.660156 2.355469 C 43.203125 2.625 44.679688 3.097656 46.085938 3.78125 C 47.496094 4.460938 48.785156 5.320312 49.949219 6.363281 C 51.113281 7.402344 52.113281 8.585938 52.941406 9.90625 C 53.773438 11.226562 54.40625 12.636719 54.839844 14.132812 C 55.269531 15.628906 55.488281 17.160156 55.488281 18.714844 Z M 55.488281 18.722656 " fill-opacity="1" fill-rule="nonzero"/></g><path fill="#d5d2ca" d="M 53.890625 29.007812 L 53.890625 28.472656 L 54.109375 28.472656 L 54.109375 28.363281 L 53.558594 28.363281 L 53.558594 28.472656 L 53.792969 28.472656 L 53.792969 29.007812 Z M 54.960938 29.007812 L 54.960938 28.363281 L 54.796875 28.363281 L 54.601562 28.824219 L 54.40625 28.363281 L 54.257812 28.363281 L 54.257812 29.007812 L 54.378906 29.007812 L 54.378906 28.523438 L 54.558594 28.941406 L 54.683594 28.941406 L 54.867188 28.523438 L 54.867188 29.011719 Z M 54.960938 29.007812 " fill-opacity="1" fill-rule="nonzero"/></svg>