<svg xmlns="http://www.w3.org/2000/svg" xmlns:xlink="http://www.w3.org/1999/xlink" width="75" zoomAndPan="magnify" viewBox="0 0 56.25 44.999999" height="60" preserveAspectRatio="xMidYMid meet" version="1.0"><defs><clipPath id="6d40f87541"><path d="M 0 1 L 55.511719 1 L 55.511719 44 L 0 44 Z M 0 1 " clip-rule="nonzero"/></clipPath></defs><path fill="#999990" d="M 43.753906 21.234375 C 42.574219 21.238281 41.664062 22.160156 41.664062 23.328125 C 41.664062 24.25 42.335938 24.75 43.222656 24.75 C 44.378906 24.75 45.316406 23.875 45.316406 22.707031 C 45.320312 21.777344 44.648438 21.234375 43.753906 21.234375 Z M 43.753906 21.234375 " fill-opacity="1" fill-rule="nonzero"/><path fill="#999990" d="M 35.128906 18.105469 L 34.695312 18.105469 C 34.519531 18.105469 34.40625 18.199219 34.386719 18.363281 L 33.980469 20.898438 L 34.75 20.871094 C 36.003906 20.871094 36.871094 20.585938 36.871094 19.160156 C 36.859375 18.152344 35.945312 18.105469 35.128906 18.105469 Z M 35.128906 18.105469 " fill-opacity="1" fill-rule="nonzero"/><path fill="#999990" d="M 7.757812 18.105469 L 7.304688 18.105469 C 7.160156 18.105469 7.015625 18.199219 6.996094 18.363281 L 6.582031 20.898438 L 7.367188 20.871094 C 8.429688 20.871094 9.246094 20.726562 9.441406 19.519531 C 9.664062 18.25 8.84375 18.105469 7.757812 18.105469 Z M 7.757812 18.105469 " fill-opacity="1" fill-rule="nonzero"/><path fill="#999990" d="M 16.382812 21.238281 C 15.207031 21.238281 14.292969 22.167969 14.292969 23.328125 C 14.292969 24.253906 14.949219 24.75 15.835938 24.75 C 17.019531 24.75 17.953125 23.867188 17.953125 22.707031 C 17.953125 21.777344 17.28125 21.238281 16.382812 21.238281 Z M 16.382812 21.238281 " fill-opacity="1" fill-rule="nonzero"/><g clip-path="url(#6d40f87541)"><path fill="#999990" d="M 50.882812 1.230469 L 4.625 1.230469 C 2.074219 1.230469 0 3.273438 0 5.789062 L 0 39.214844 C 0 41.730469 2.074219 43.769531 4.625 43.769531 L 50.882812 43.769531 C 53.4375 43.769531 55.511719 41.730469 55.511719 39.214844 L 55.511719 5.789062 C 55.511719 3.273438 53.4375 1.230469 50.882812 1.230469 Z M 7.921875 22.996094 C 7.460938 22.996094 6.285156 22.757812 6.1875 23.441406 L 5.753906 25.96875 C 5.722656 26.234375 5.484375 26.507812 5.222656 26.507812 L 3.390625 26.507812 C 3.195312 26.507812 3.054688 26.316406 3.082031 26.128906 L 4.664062 16.433594 C 4.683594 16.175781 4.925781 15.984375 5.164062 15.984375 L 9.019531 15.984375 C 10.804688 15.984375 12.363281 16.652344 12.363281 18.648438 C 12.363281 21.378906 10.679688 22.996094 7.921875 22.996094 Z M 19.804688 25.957031 C 19.753906 26.222656 19.535156 26.496094 19.273438 26.496094 L 17.613281 26.496094 C 17.40625 26.496094 17.308594 26.335938 17.308594 26.117188 C 17.308594 25.972656 17.355469 25.667969 17.40625 25.527344 C 16.796875 26.191406 15.71875 26.65625 14.851562 26.65625 C 12.972656 26.65625 11.796875 25.453125 11.796875 23.601562 C 11.796875 21.351562 13.601562 19.308594 15.960938 19.308594 C 16.875 19.308594 17.683594 19.453125 18.246094 20.257812 C 18.261719 20.003906 18.285156 19.480469 18.648438 19.480469 L 20.476562 19.480469 C 20.671875 19.480469 20.816406 19.671875 20.785156 19.851562 Z M 24.378906 28.769531 C 24.28125 28.914062 24.117188 29.007812 23.941406 29.015625 L 22.09375 29.015625 C 21.929688 29.015625 21.78125 28.882812 21.78125 28.714844 C 21.78125 28.429688 23.496094 26.074219 23.757812 25.714844 C 23.59375 25.210938 21.714844 19.929688 21.714844 19.816406 C 21.714844 19.65625 21.855469 19.484375 22.019531 19.484375 L 23.824219 19.484375 C 24.066406 19.484375 24.277344 19.660156 24.355469 19.867188 L 25.417969 23.429688 L 27.96875 19.726562 C 28.066406 19.585938 28.242188 19.492188 28.40625 19.492188 L 30.253906 19.492188 C 30.417969 19.492188 30.5625 19.660156 30.5625 19.820312 C 30.5625 19.886719 30.5625 19.9375 30.515625 19.984375 L 24.378906 28.777344 Z M 35.3125 22.996094 C 34.851562 22.996094 33.675781 22.757812 33.578125 23.441406 L 33.144531 26.195312 C 33.09375 26.355469 32.949219 26.496094 32.757812 26.496094 L 30.78125 26.496094 C 30.601562 26.496094 30.457031 26.304688 30.476562 26.117188 L 32.035156 16.429688 C 32.0625 16.175781 32.304688 15.984375 32.566406 15.984375 L 36.390625 15.984375 C 38.175781 15.984375 39.734375 16.652344 39.734375 18.644531 L 39.738281 18.644531 C 39.734375 21.378906 38.050781 22.996094 35.3125 22.996094 Z M 47.171875 25.957031 C 47.125 26.222656 46.902344 26.496094 46.640625 26.496094 L 44.972656 26.496094 C 44.761719 26.496094 44.667969 26.335938 44.667969 26.117188 C 44.667969 25.972656 44.738281 25.667969 44.765625 25.527344 C 44.1875 26.191406 43.109375 26.65625 42.210938 26.65625 C 40.332031 26.65625 39.15625 25.453125 39.15625 23.601562 C 39.15625 21.351562 40.960938 19.308594 43.320312 19.308594 C 44.253906 19.308594 45.070312 19.453125 45.605469 20.257812 C 45.632812 20.003906 45.652344 19.480469 46.019531 19.480469 L 47.847656 19.480469 C 48.042969 19.480469 48.1875 19.671875 48.15625 19.851562 Z M 52.425781 16.347656 L 50.867188 25.957031 C 50.84375 26.222656 50.605469 26.496094 50.363281 26.496094 L 48.773438 26.496094 C 48.582031 26.496094 48.4375 26.335938 48.4375 26.164062 L 48.464844 26.117188 L 50.027344 16.242188 C 50.042969 16.097656 50.191406 15.984375 50.332031 15.984375 L 52.117188 15.984375 C 52.28125 15.984375 52.425781 16.125 52.425781 16.316406 Z M 52.425781 16.347656 " fill-opacity="1" fill-rule="nonzero"/></g></svg>