<svg xmlns="http://www.w3.org/2000/svg" xmlns:xlink="http://www.w3.org/1999/xlink" width="75" zoomAndPan="magnify" viewBox="0 0 56.25 44.999999" height="60" preserveAspectRatio="xMidYMid meet" version="1.0"><defs><clipPath id="e0de37575d"><path d="M 0 0.296875 L 55.511719 0.296875 L 55.511719 44.703125 L 0 44.703125 Z M 0 0.296875 " clip-rule="nonzero"/></clipPath></defs><g clip-path="url(#e0de37575d)"><path fill="#999990" d="M 5.550781 0.296875 C 2.484375 0.296875 0 2.78125 0 5.847656 L 0 39.152344 C 0 42.21875 2.484375 44.703125 5.550781 44.703125 L 49.957031 44.703125 C 53.027344 44.703125 55.511719 42.21875 55.511719 39.152344 L 55.511719 5.847656 C 55.511719 2.78125 53.027344 0.296875 49.957031 0.296875 Z M 34.382812 14.171875 C 36.105469 14.171875 38.113281 15.035156 38.113281 15.035156 L 37.253906 18.476562 C 37.253906 18.476562 35.816406 17.328125 34.382812 17.328125 C 32.378906 17.328125 31.804688 18.191406 31.804688 19.050781 C 31.804688 21.058594 37.539062 21.339844 37.539062 25.355469 C 37.535156 28.792969 33.523438 31.089844 30.941406 30.800781 C 28.074219 30.800781 26.644531 29.941406 26.644531 29.941406 L 27.21875 26.5 C 27.21875 26.5 28.9375 27.363281 31.230469 27.363281 C 33.523438 27.363281 33.808594 26.496094 33.808594 25.925781 C 33.808594 23.34375 28.074219 24.207031 28.074219 19.046875 C 28.074219 16.464844 30.082031 14.171875 34.382812 14.171875 Z M 16.324219 14.460938 L 20.332031 14.460938 L 14.3125 30.515625 L 10.011719 30.515625 L 6.855469 17.617188 C 6.855469 17.617188 10.296875 19.621094 12.304688 24.496094 C 12.304688 25.070312 12.59375 25.929688 12.59375 25.929688 Z M 44.132812 14.460938 L 48.429688 14.460938 L 51.585938 30.515625 L 48.144531 30.515625 L 47.566406 28.222656 L 42.40625 28.222656 L 41.550781 30.515625 L 37.535156 30.515625 Z M 22.050781 14.742188 L 26.351562 14.742188 L 23.769531 30.800781 L 19.757812 30.800781 Z M 1.984375 14.75 L 8.292969 14.75 C 10.015625 14.75 10.585938 16.179688 10.585938 16.179688 L 12.019531 23.34375 C 10.296875 17.324219 1.984375 14.75 1.984375 14.75 Z M 45.5625 19.335938 L 43.269531 25.355469 L 46.707031 25.355469 Z M 45.5625 19.335938 " fill-opacity="1" fill-rule="nonzero"/></g></svg>