<svg xmlns="http://www.w3.org/2000/svg" xmlns:xlink="http://www.w3.org/1999/xlink" width="75" zoomAndPan="magnify" viewBox="0 0 56.25 56.249997" height="75" preserveAspectRatio="xMidYMid meet" version="1.0"><defs><clipPath id="f555aff38e"><path d="M 0 1.875 L 55.511719 1.875 L 55.511719 53.683594 L 0 53.683594 Z M 0 1.875 " clip-rule="nonzero"/></clipPath></defs><g clip-path="url(#f555aff38e)"><path fill="#3d3d3b" d="M 12.964844 1.875 C 11.945312 1.875 11.117188 2.703125 11.117188 3.722656 L 11.117188 7.425781 C 10.097656 7.425781 9.269531 8.253906 9.269531 9.273438 L 9.269531 12.976562 C 8.25 12.976562 7.417969 13.804688 7.417969 14.824219 L 7.417969 24.09375 C 6.453125 24.167969 5.597656 24.730469 5.15625 25.613281 L 0.511719 34.910156 C 0.195312 35.546875 0.0234375 36.265625 0.0234375 36.976562 L 0.0234375 50.90625 C 0.0234375 52.4375 1.269531 53.683594 2.796875 53.683594 L 52.710938 53.683594 C 54.242188 53.683594 55.484375 52.4375 55.484375 50.90625 L 55.484375 36.976562 C 55.484375 36.265625 55.316406 35.546875 54.996094 34.910156 L 50.351562 25.613281 C 49.914062 24.730469 49.058594 24.167969 48.09375 24.09375 L 48.09375 14.824219 C 48.09375 13.804688 47.261719 12.976562 46.242188 12.976562 L 46.242188 9.273438 C 46.242188 8.253906 45.414062 7.425781 44.394531 7.425781 L 44.394531 3.722656 C 44.394531 2.703125 43.566406 1.875 42.546875 1.875 Z M 12.964844 3.722656 L 42.542969 3.722656 L 42.542969 7.425781 L 12.964844 7.425781 Z M 11.117188 9.273438 L 44.394531 9.273438 L 44.394531 12.976562 L 11.117188 12.976562 Z M 9.265625 14.824219 L 46.238281 14.824219 L 46.238281 34.253906 C 46.238281 34.765625 46.652344 35.179688 47.164062 35.179688 C 47.675781 35.179688 48.089844 34.765625 48.089844 34.253906 L 48.089844 25.957031 C 48.347656 26.019531 48.574219 26.191406 48.695312 26.4375 L 53.34375 35.734375 C 53.535156 36.121094 53.636719 36.550781 53.636719 36.976562 L 53.636719 37.03125 L 36.839844 37.03125 C 36.097656 37.03125 35.402344 37.316406 34.878906 37.84375 L 32.265625 40.460938 C 32.09375 40.632812 31.855469 40.730469 31.609375 40.730469 L 23.898438 40.730469 C 23.65625 40.730469 23.417969 40.632812 23.246094 40.460938 L 20.632812 37.84375 C 20.109375 37.316406 19.410156 37.03125 18.671875 37.03125 L 1.875 37.03125 L 1.875 36.976562 C 1.875 36.550781 1.972656 36.117188 2.164062 35.734375 L 6.8125 26.4375 C 6.933594 26.191406 7.15625 26.019531 7.417969 25.957031 L 7.417969 34.253906 C 7.417969 34.765625 7.832031 35.179688 8.34375 35.179688 C 8.851562 35.179688 9.265625 34.765625 9.265625 34.253906 Z M 15.738281 18.527344 C 14.210938 18.527344 12.964844 19.773438 12.964844 21.300781 C 12.964844 22.832031 14.210938 24.078125 15.738281 24.078125 C 17.265625 24.078125 18.511719 22.832031 18.511719 21.300781 C 18.511719 19.773438 17.265625 18.527344 15.738281 18.527344 Z M 15.738281 20.375 C 16.25 20.375 16.664062 20.792969 16.664062 21.300781 C 16.664062 21.8125 16.25 22.226562 15.738281 22.226562 C 15.226562 22.226562 14.8125 21.8125 14.8125 21.300781 C 14.8125 20.792969 15.226562 20.375 15.738281 20.375 Z M 35.148438 20.761719 C 34.675781 20.761719 34.203125 20.941406 33.84375 21.300781 L 27.753906 27.394531 L 25.363281 25.003906 C 24.644531 24.28125 23.46875 24.28125 22.75 25.003906 L 14.160156 33.601562 C 13.800781 33.960938 13.800781 34.546875 14.160156 34.910156 C 14.339844 35.089844 14.578125 35.179688 14.8125 35.179688 C 15.050781 35.179688 15.289062 35.089844 15.46875 34.910156 L 24.058594 26.3125 L 26.449219 28.703125 L 21.554688 33.601562 C 21.195312 33.960938 21.195312 34.546875 21.554688 34.910156 C 21.734375 35.089844 21.972656 35.179688 22.207031 35.179688 C 22.445312 35.179688 22.683594 35.089844 22.863281 34.910156 L 35.148438 22.609375 L 42.816406 30.28125 C 43.175781 30.644531 43.761719 30.644531 44.121094 30.28125 C 44.484375 29.921875 44.484375 29.335938 44.121094 28.972656 L 36.457031 21.300781 C 36.097656 20.941406 35.625 20.761719 35.148438 20.761719 Z M 1.875 38.878906 L 18.671875 38.878906 C 18.914062 38.878906 19.152344 38.976562 19.324219 39.152344 L 21.9375 41.765625 C 22.460938 42.292969 23.160156 42.582031 23.898438 42.582031 L 31.609375 42.582031 C 32.351562 42.582031 33.046875 42.292969 33.570312 41.765625 L 36.1875 39.152344 C 36.359375 38.976562 36.597656 38.878906 36.839844 38.878906 L 53.636719 38.878906 L 53.636719 50.90625 C 53.636719 51.417969 53.222656 51.832031 52.710938 51.832031 L 2.796875 51.832031 C 2.289062 51.832031 1.875 51.417969 1.875 50.90625 Z M 4.644531 44.429688 C 4.136719 44.429688 3.722656 44.84375 3.722656 45.355469 L 3.722656 47.207031 C 3.722656 47.71875 4.136719 48.132812 4.644531 48.132812 C 5.15625 48.132812 5.570312 47.71875 5.570312 47.207031 L 5.570312 45.355469 C 5.570312 44.84375 5.15625 44.429688 4.644531 44.429688 Z M 9.269531 44.429688 C 8.757812 44.429688 8.34375 44.84375 8.34375 45.355469 L 8.34375 47.207031 C 8.34375 47.71875 8.757812 48.132812 9.269531 48.132812 C 9.78125 48.132812 10.191406 47.71875 10.191406 47.207031 L 10.191406 45.355469 C 10.191406 44.84375 9.78125 44.429688 9.269531 44.429688 Z M 13.890625 44.429688 C 13.378906 44.429688 12.964844 44.84375 12.964844 45.355469 L 12.964844 47.207031 C 12.964844 47.71875 13.378906 48.132812 13.890625 48.132812 C 14.402344 48.132812 14.8125 47.71875 14.8125 47.207031 L 14.8125 45.355469 C 14.8125 44.84375 14.402344 44.429688 13.890625 44.429688 Z M 18.511719 44.429688 C 18 44.429688 17.585938 44.84375 17.585938 45.355469 L 17.585938 47.207031 C 17.585938 47.71875 18 48.132812 18.511719 48.132812 C 19.023438 48.132812 19.4375 47.71875 19.4375 47.207031 L 19.4375 45.355469 C 19.4375 44.84375 19.023438 44.429688 18.511719 44.429688 Z M 23.132812 44.429688 C 22.621094 44.429688 22.207031 44.84375 22.207031 45.355469 L 22.207031 47.207031 C 22.207031 47.71875 22.621094 48.132812 23.132812 48.132812 C 23.644531 48.132812 24.058594 47.71875 24.058594 47.207031 L 24.058594 45.355469 C 24.058594 44.84375 23.644531 44.429688 23.132812 44.429688 Z M 27.753906 44.429688 C 27.242188 44.429688 26.832031 44.84375 26.832031 45.355469 L 26.832031 47.207031 C 26.832031 47.71875 27.242188 48.132812 27.753906 48.132812 C 28.265625 48.132812 28.679688 47.71875 28.679688 47.207031 L 28.679688 45.355469 C 28.679688 44.84375 28.265625 44.429688 27.753906 44.429688 Z M 32.375 44.429688 C 31.867188 44.429688 31.453125 44.84375 31.453125 45.355469 L 31.453125 47.207031 C 31.453125 47.71875 31.867188 48.132812 32.375 48.132812 C 32.886719 48.132812 33.300781 47.71875 33.300781 47.207031 L 33.300781 45.355469 C 33.300781 44.84375 32.886719 44.429688 32.375 44.429688 Z M 37 44.429688 C 36.488281 44.429688 36.074219 44.84375 36.074219 45.355469 L 36.074219 47.207031 C 36.074219 47.71875 36.488281 48.132812 37 48.132812 C 37.507812 48.132812 37.921875 47.71875 37.921875 47.207031 L 37.921875 45.355469 C 37.921875 44.84375 37.507812 44.429688 37 44.429688 Z M 41.621094 44.429688 C 41.109375 44.429688 40.695312 44.84375 40.695312 45.355469 L 40.695312 47.207031 C 40.695312 47.71875 41.109375 48.132812 41.621094 48.132812 C 42.132812 48.132812 42.542969 47.71875 42.542969 47.207031 L 42.542969 45.355469 C 42.542969 44.84375 42.132812 44.429688 41.621094 44.429688 Z M 46.242188 44.429688 C 45.730469 44.429688 45.316406 44.84375 45.316406 45.355469 L 45.316406 47.207031 C 45.316406 47.71875 45.730469 48.132812 46.242188 48.132812 C 46.753906 48.132812 47.167969 47.71875 47.167969 47.207031 L 47.167969 45.355469 C 47.167969 44.84375 46.753906 44.429688 46.242188 44.429688 Z M 50.863281 44.429688 C 50.351562 44.429688 49.9375 44.84375 49.9375 45.355469 L 49.9375 47.207031 C 49.9375 47.71875 50.351562 48.132812 50.863281 48.132812 C 51.375 48.132812 51.789062 47.71875 51.789062 47.207031 L 51.789062 45.355469 C 51.789062 44.84375 51.375 44.429688 50.863281 44.429688 Z M 50.863281 44.429688 " fill-opacity="1" fill-rule="nonzero"/></g></svg>