<svg xmlns="http://www.w3.org/2000/svg" xmlns:xlink="http://www.w3.org/1999/xlink" width="75" zoomAndPan="magnify" viewBox="0 0 56.25 56.249997" height="75" preserveAspectRatio="xMidYMid meet" version="1.0"><defs><clipPath id="d763118abf"><path d="M 0 0 L 55.511719 0 L 55.511719 55.511719 L 0 55.511719 Z M 0 0 " clip-rule="nonzero"/></clipPath></defs><g clip-path="url(#d763118abf)"><path fill="#3d3d3b" d="M 27.753906 55.511719 C 20.273438 55.511719 13.335938 52.582031 8.132812 47.378906 C 2.925781 42.175781 0 35.234375 0 27.753906 C 0 20.382812 2.925781 13.335938 8.132812 8.132812 C 13.335938 2.925781 20.382812 0 27.753906 0 C 35.128906 0 42.066406 2.925781 47.378906 8.132812 C 52.582031 13.445312 55.511719 20.382812 55.511719 27.753906 C 55.511719 35.128906 52.582031 42.175781 47.378906 47.378906 C 42.175781 52.582031 35.128906 55.511719 27.753906 55.511719 Z M 27.753906 1.519531 C 13.335938 1.519531 1.519531 13.335938 1.519531 27.753906 C 1.519531 42.175781 13.335938 53.992188 27.753906 53.992188 C 42.175781 53.992188 53.992188 42.175781 53.992188 27.753906 C 53.992188 13.335938 42.175781 1.519531 27.753906 1.519531 Z M 27.753906 1.519531 " fill-opacity="1" fill-rule="evenodd"/></g><path fill="#3d3d3b" d="M 27.753906 39.140625 C 27.648438 39.140625 27.539062 39.140625 27.429688 39.03125 L 18.105469 33.71875 C 17.78125 33.609375 17.671875 33.285156 17.671875 33.066406 L 17.671875 22.441406 C 17.671875 22.117188 17.78125 21.898438 18.105469 21.792969 L 27.429688 16.480469 C 27.648438 16.371094 27.863281 16.371094 28.082031 16.480469 L 37.402344 21.792969 C 37.730469 21.898438 37.835938 22.117188 37.835938 22.441406 L 37.835938 33.066406 C 37.835938 33.285156 37.730469 33.609375 37.402344 33.71875 L 28.082031 39.03125 C 27.972656 39.140625 27.863281 39.140625 27.753906 39.140625 Z M 19.191406 32.632812 L 27.753906 37.511719 L 36.320312 32.632812 L 36.320312 22.875 L 27.753906 17.996094 L 19.191406 22.875 Z M 19.191406 32.632812 " fill-opacity="1" fill-rule="evenodd"/><path fill="#3d3d3b" d="M 46.511719 39.140625 C 46.292969 39.140625 45.96875 39.03125 45.859375 38.707031 C 45.644531 38.378906 45.753906 37.945312 46.078125 37.730469 L 53.558594 33.394531 C 53.992188 33.175781 54.425781 33.285156 54.640625 33.609375 C 54.859375 34.042969 54.75 34.476562 54.316406 34.695312 L 46.835938 39.03125 C 46.726562 39.140625 46.621094 39.140625 46.511719 39.140625 Z M 53.992188 22.226562 C 53.882812 22.226562 53.773438 22.226562 53.667969 22.117188 L 46.1875 17.78125 C 45.753906 17.5625 45.644531 17.128906 45.859375 16.695312 C 46.078125 16.371094 46.511719 16.261719 46.945312 16.480469 L 54.425781 20.816406 C 54.75 21.03125 54.859375 21.464844 54.640625 21.898438 C 54.535156 22.117188 54.207031 22.226562 53.992188 22.226562 Z M 53.992188 22.226562 " fill-opacity="1" fill-rule="evenodd"/><path fill="#3d3d3b" d="M 9 39.140625 C 8.890625 39.140625 8.78125 39.140625 8.671875 39.03125 L 1.191406 34.695312 C 0.757812 34.476562 0.652344 34.042969 0.867188 33.609375 C 1.085938 33.285156 1.519531 33.175781 1.953125 33.394531 L 9.433594 37.730469 C 9.757812 37.945312 9.867188 38.378906 9.648438 38.8125 C 9.539062 39.03125 9.214844 39.140625 9 39.140625 Z M 18.429688 23.203125 C 18.324219 23.203125 18.214844 23.203125 18.105469 23.09375 L 9 17.996094 L 1.953125 22.117188 C 1.519531 22.335938 1.085938 22.226562 0.867188 21.898438 C 0.652344 21.464844 0.757812 21.03125 1.191406 20.816406 L 8.671875 16.480469 C 8.890625 16.371094 9.105469 16.371094 9.324219 16.480469 L 18.757812 21.792969 C 19.191406 22.007812 19.296875 22.441406 19.082031 22.769531 C 18.972656 23.09375 18.648438 23.203125 18.429688 23.203125 Z M 18.429688 23.203125 " fill-opacity="1" fill-rule="evenodd"/><path fill="#3d3d3b" d="M 27.753906 17.890625 C 27.320312 17.890625 26.996094 17.5625 26.996094 17.128906 L 26.996094 7.046875 L 19.40625 2.601562 C 19.082031 2.386719 18.972656 1.953125 19.191406 1.519531 C 19.40625 1.191406 19.839844 1.085938 20.273438 1.300781 L 28.082031 5.964844 C 28.40625 6.070312 28.515625 6.398438 28.515625 6.613281 L 28.515625 17.128906 C 28.515625 17.5625 28.1875 17.890625 27.753906 17.890625 Z M 9 17.890625 C 8.566406 17.890625 8.238281 17.5625 8.238281 17.128906 L 8.238281 8.347656 C 8.238281 7.914062 8.566406 7.589844 9 7.589844 C 9.433594 7.589844 9.757812 7.914062 9.757812 8.347656 L 9.757812 17.128906 C 9.757812 17.5625 9.433594 17.890625 9 17.890625 Z M 9 17.890625 " fill-opacity="1" fill-rule="evenodd"/><path fill="#3d3d3b" d="M 37.078125 23.203125 C 36.863281 23.203125 36.535156 23.09375 36.429688 22.769531 C 36.210938 22.441406 36.320312 22.007812 36.753906 21.792969 L 45.753906 16.695312 L 45.753906 8.347656 C 45.753906 7.914062 46.078125 7.589844 46.511719 7.589844 C 46.945312 7.589844 47.269531 7.914062 47.269531 8.347656 L 47.269531 17.128906 C 47.269531 17.457031 47.160156 17.671875 46.835938 17.78125 L 37.402344 23.09375 C 37.296875 23.203125 37.1875 23.203125 37.078125 23.203125 Z M 27.753906 7.371094 C 27.539062 7.371094 27.210938 7.265625 27.105469 7.046875 C 26.886719 6.613281 26.996094 6.179688 27.429688 5.964844 L 35.234375 1.300781 C 35.667969 1.085938 36.101562 1.191406 36.320312 1.519531 C 36.535156 1.953125 36.429688 2.386719 36.101562 2.601562 L 28.1875 7.265625 C 27.972656 7.371094 27.863281 7.371094 27.753906 7.371094 Z M 27.753906 7.371094 " fill-opacity="1" fill-rule="evenodd"/><path fill="#3d3d3b" d="M 35.667969 54.316406 C 35.5625 54.316406 35.453125 54.316406 35.234375 54.207031 L 27.429688 49.65625 C 27.105469 49.546875 26.996094 49.222656 26.996094 49.003906 L 26.996094 38.378906 C 26.996094 37.945312 27.320312 37.621094 27.753906 37.621094 C 28.1875 37.621094 28.515625 37.945312 28.515625 38.378906 L 28.515625 48.570312 L 36.101562 52.90625 C 36.429688 53.125 36.535156 53.558594 36.320312 53.992188 C 36.210938 54.207031 35.886719 54.316406 35.667969 54.316406 Z M 46.511719 48.027344 C 46.078125 48.027344 45.753906 47.703125 45.753906 47.269531 L 45.753906 38.8125 L 36.753906 33.71875 C 36.320312 33.5 36.210938 33.066406 36.429688 32.742188 C 36.644531 32.308594 37.078125 32.199219 37.402344 32.417969 L 46.835938 37.730469 C 47.160156 37.835938 47.269531 38.054688 47.269531 38.378906 L 47.269531 47.269531 C 47.269531 47.703125 46.945312 48.027344 46.511719 48.027344 Z M 46.511719 48.027344 " fill-opacity="1" fill-rule="evenodd"/><path fill="#3d3d3b" d="M 19.730469 54.316406 C 19.515625 54.316406 19.191406 54.207031 19.082031 53.882812 C 18.863281 53.558594 18.972656 53.125 19.40625 52.90625 L 27.429688 48.355469 C 27.753906 48.136719 28.1875 48.246094 28.40625 48.679688 C 28.621094 49.003906 28.515625 49.4375 28.082031 49.65625 L 20.058594 54.207031 C 19.949219 54.316406 19.839844 54.316406 19.730469 54.316406 Z M 9 47.921875 C 8.566406 47.921875 8.238281 47.59375 8.238281 47.160156 L 8.238281 38.378906 C 8.238281 38.054688 8.347656 37.835938 8.671875 37.730469 L 18.105469 32.417969 C 18.429688 32.199219 18.863281 32.308594 19.082031 32.742188 C 19.296875 33.066406 19.191406 33.5 18.757812 33.71875 L 9.757812 38.8125 L 9.757812 47.160156 C 9.757812 47.59375 9.433594 47.921875 9 47.921875 Z M 9 47.921875 " fill-opacity="1" fill-rule="evenodd"/></svg>