<svg xmlns="http://www.w3.org/2000/svg" xmlns:xlink="http://www.w3.org/1999/xlink" width="75" zoomAndPan="magnify" viewBox="0 0 56.25 56.249997" height="75" preserveAspectRatio="xMidYMid meet" version="1.0"><defs><clipPath id="15982910f4"><path d="M 0 0 L 55.511719 0 L 55.511719 50 L 0 50 Z M 0 0 " clip-rule="nonzero"/></clipPath><clipPath id="4dbc584b51"><path d="M 1 50 L 50 50 L 50 55.511719 L 1 55.511719 Z M 1 50 " clip-rule="nonzero"/></clipPath></defs><g clip-path="url(#15982910f4)"><path fill="#3d3d3b" d="M 52.734375 0 L 2.777344 0 C 2.40625 0 2.054688 0.0703125 1.714844 0.210938 C 1.375 0.351562 1.074219 0.550781 0.8125 0.8125 C 0.550781 1.074219 0.351562 1.375 0.210938 1.714844 C 0.0703125 2.054688 0 2.40625 0 2.777344 L 0 32.378906 C 0 32.75 0.0703125 33.101562 0.210938 33.441406 C 0.351562 33.78125 0.550781 34.082031 0.8125 34.34375 C 1.074219 34.605469 1.375 34.804688 1.714844 34.945312 C 2.054688 35.085938 2.40625 35.15625 2.777344 35.15625 L 3.699219 35.15625 L 3.699219 47.183594 C 3.699219 47.550781 3.769531 47.90625 3.910156 48.246094 C 4.054688 48.585938 4.253906 48.886719 4.511719 49.144531 C 4.773438 49.40625 5.074219 49.605469 5.414062 49.746094 C 5.753906 49.886719 6.109375 49.957031 6.476562 49.957031 L 45.332031 49.957031 C 45.699219 49.957031 46.054688 49.886719 46.394531 49.746094 C 46.734375 49.605469 47.035156 49.40625 47.296875 49.144531 C 47.554688 48.886719 47.757812 48.585938 47.898438 48.246094 C 48.039062 47.90625 48.109375 47.550781 48.109375 47.183594 L 48.109375 46.257812 L 49.035156 46.257812 C 49.402344 46.257812 49.753906 46.1875 50.097656 46.046875 C 50.4375 45.90625 50.734375 45.707031 50.996094 45.445312 C 51.257812 45.183594 51.457031 44.886719 51.597656 44.542969 C 51.738281 44.203125 51.808594 43.851562 51.808594 43.484375 L 51.808594 35.15625 L 52.734375 35.15625 C 53.101562 35.15625 53.457031 35.085938 53.796875 34.945312 C 54.136719 34.804688 54.4375 34.605469 54.695312 34.34375 C 54.957031 34.082031 55.15625 33.78125 55.296875 33.441406 C 55.4375 33.101562 55.511719 32.75 55.511719 32.378906 L 55.511719 2.777344 C 55.511719 2.40625 55.4375 2.054688 55.296875 1.714844 C 55.15625 1.375 54.957031 1.074219 54.695312 0.8125 C 54.4375 0.550781 54.136719 0.351562 53.796875 0.210938 C 53.457031 0.0703125 53.101562 0 52.734375 0 Z M 2.777344 1.851562 L 52.734375 1.851562 C 52.988281 1.851562 53.207031 1.941406 53.386719 2.121094 C 53.570312 2.300781 53.660156 2.519531 53.660156 2.777344 L 53.660156 27.753906 L 51.808594 27.753906 L 51.808594 17.578125 C 51.808594 17.210938 51.738281 16.855469 51.597656 16.515625 C 51.457031 16.175781 51.257812 15.875 50.996094 15.617188 C 50.734375 15.355469 50.4375 15.15625 50.097656 15.015625 C 49.753906 14.875 49.402344 14.800781 49.035156 14.800781 L 36.082031 14.800781 C 35.714844 14.800781 35.359375 14.875 35.019531 15.015625 C 34.679688 15.15625 34.378906 15.355469 34.117188 15.617188 C 33.859375 15.875 33.65625 16.175781 33.515625 16.515625 C 33.375 16.855469 33.304688 17.210938 33.304688 17.578125 L 33.304688 22.203125 L 6.476562 22.203125 C 6.109375 22.203125 5.753906 22.273438 5.414062 22.414062 C 5.074219 22.554688 4.773438 22.757812 4.511719 23.015625 C 4.253906 23.277344 4.054688 23.578125 3.910156 23.917969 C 3.769531 24.257812 3.699219 24.613281 3.699219 24.980469 L 3.699219 27.753906 L 1.851562 27.753906 L 1.851562 2.777344 C 1.851562 2.519531 1.941406 2.300781 2.121094 2.121094 C 2.300781 1.941406 2.519531 1.851562 2.777344 1.851562 Z M 46.257812 16.652344 C 46.257812 16.910156 46.167969 17.125 45.988281 17.308594 C 45.804688 17.488281 45.589844 17.578125 45.332031 17.578125 L 39.78125 17.578125 C 39.527344 17.578125 39.308594 17.488281 39.128906 17.308594 C 38.945312 17.125 38.855469 16.910156 38.855469 16.652344 Z M 2.777344 33.304688 C 2.519531 33.304688 2.300781 33.214844 2.121094 33.035156 C 1.941406 32.855469 1.851562 32.636719 1.851562 32.378906 L 1.851562 29.605469 L 3.699219 29.605469 L 3.699219 33.304688 Z M 46.257812 47.183594 C 46.257812 47.4375 46.167969 47.65625 45.988281 47.835938 C 45.804688 48.019531 45.589844 48.109375 45.332031 48.109375 L 6.476562 48.109375 C 6.21875 48.109375 6.003906 48.019531 5.820312 47.835938 C 5.640625 47.65625 5.550781 47.4375 5.550781 47.183594 L 5.550781 24.980469 C 5.550781 24.722656 5.640625 24.507812 5.820312 24.324219 C 6.003906 24.144531 6.21875 24.054688 6.476562 24.054688 L 33.304688 24.054688 L 33.304688 43.484375 C 33.304688 43.851562 33.375 44.203125 33.515625 44.542969 C 33.65625 44.886719 33.859375 45.183594 34.117188 45.445312 C 34.378906 45.707031 34.679688 45.90625 35.019531 46.046875 C 35.359375 46.1875 35.714844 46.257812 36.082031 46.257812 L 46.257812 46.257812 Z M 49.957031 43.484375 C 49.957031 43.738281 49.867188 43.957031 49.6875 44.136719 C 49.507812 44.316406 49.289062 44.40625 49.035156 44.40625 L 36.082031 44.40625 C 35.824219 44.40625 35.609375 44.316406 35.425781 44.136719 C 35.246094 43.957031 35.15625 43.738281 35.15625 43.484375 L 35.15625 17.578125 C 35.15625 17.324219 35.246094 17.105469 35.425781 16.925781 C 35.609375 16.742188 35.824219 16.652344 36.082031 16.652344 L 37.007812 16.652344 C 37.007812 17.019531 37.078125 17.375 37.21875 17.714844 C 37.359375 18.054688 37.558594 18.355469 37.820312 18.617188 C 38.078125 18.875 38.378906 19.078125 38.71875 19.21875 C 39.058594 19.359375 39.414062 19.429688 39.78125 19.429688 L 45.332031 19.429688 C 45.699219 19.429688 46.054688 19.359375 46.394531 19.21875 C 46.734375 19.078125 47.035156 18.875 47.296875 18.617188 C 47.554688 18.355469 47.757812 18.054688 47.898438 17.714844 C 48.039062 17.375 48.109375 17.019531 48.109375 16.652344 L 49.035156 16.652344 C 49.289062 16.652344 49.507812 16.742188 49.6875 16.925781 C 49.867188 17.105469 49.957031 17.324219 49.957031 17.578125 Z M 52.734375 33.304688 L 51.808594 33.304688 L 51.808594 29.605469 L 53.660156 29.605469 L 53.660156 32.378906 C 53.660156 32.636719 53.570312 32.855469 53.386719 33.035156 C 53.207031 33.214844 52.988281 33.304688 52.734375 33.304688 Z M 52.734375 33.304688 " fill-opacity="1" fill-rule="nonzero"/></g><g clip-path="url(#4dbc584b51)"><path fill="#3d3d3b" d="M 48.917969 50.882812 L 28.679688 50.882812 C 28.425781 50.882812 28.207031 50.972656 28.027344 51.15625 C 27.84375 51.335938 27.753906 51.554688 27.753906 51.808594 L 24.054688 51.808594 C 24.054688 51.554688 23.964844 51.335938 23.785156 51.15625 C 23.601562 50.972656 23.382812 50.882812 23.128906 50.882812 L 2.890625 50.882812 C 2.746094 50.882812 2.609375 50.917969 2.476562 50.980469 C 2.347656 51.046875 2.238281 51.136719 2.152344 51.253906 C 2.0625 51.371094 2.007812 51.5 1.980469 51.644531 C 1.953125 51.785156 1.960938 51.929688 2.003906 52.066406 L 2.425781 53.511719 C 2.507812 53.800781 2.636719 54.066406 2.808594 54.3125 C 2.980469 54.558594 3.183594 54.773438 3.425781 54.953125 C 3.664062 55.132812 3.925781 55.269531 4.210938 55.363281 C 4.496094 55.460938 4.789062 55.507812 5.089844 55.511719 L 46.722656 55.511719 C 47.019531 55.507812 47.3125 55.460938 47.597656 55.363281 C 47.882812 55.269531 48.144531 55.132812 48.382812 54.953125 C 48.625 54.773438 48.828125 54.558594 49 54.3125 C 49.171875 54.066406 49.300781 53.800781 49.386719 53.511719 L 49.804688 52.066406 C 49.847656 51.929688 49.855469 51.785156 49.828125 51.644531 C 49.800781 51.5 49.746094 51.371094 49.65625 51.253906 C 49.570312 51.136719 49.460938 51.046875 49.332031 50.980469 C 49.203125 50.917969 49.0625 50.882812 48.917969 50.882812 Z M 5.089844 53.660156 C 4.882812 53.660156 4.699219 53.597656 4.535156 53.472656 C 4.371094 53.351562 4.257812 53.191406 4.199219 52.992188 L 4.125 52.734375 L 22.203125 52.734375 C 22.203125 52.988281 22.292969 53.207031 22.476562 53.386719 C 22.65625 53.570312 22.875 53.660156 23.128906 53.660156 Z M 47.609375 52.992188 C 47.550781 53.191406 47.441406 53.351562 47.273438 53.472656 C 47.109375 53.597656 46.925781 53.660156 46.722656 53.660156 L 28.679688 53.660156 C 28.9375 53.660156 29.152344 53.570312 29.335938 53.386719 C 29.515625 53.207031 29.605469 52.988281 29.605469 52.734375 L 47.683594 52.734375 Z M 47.609375 52.992188 " fill-opacity="1" fill-rule="nonzero"/></g></svg>