<svg xmlns="http://www.w3.org/2000/svg" xmlns:xlink="http://www.w3.org/1999/xlink" width="75" zoomAndPan="magnify" viewBox="0 0 56.25 56.249997" height="75" preserveAspectRatio="xMidYMid meet" version="1.0"><defs><clipPath id="f56f31fd83"><path d="M 0 0.957031 L 55.511719 0.957031 L 55.511719 54.25 L 0 54.25 Z M 0 0.957031 " clip-rule="nonzero"/></clipPath></defs><g clip-path="url(#f56f31fd83)"><path fill="#3d3d3b" d="M 12.855469 24.308594 L 38.375 24.308594 C 38.867188 24.308594 39.265625 23.910156 39.265625 23.421875 L 39.265625 1.847656 C 39.265625 1.355469 38.867188 0.957031 38.375 0.957031 L 12.855469 0.957031 C 12.363281 0.957031 11.964844 1.355469 11.964844 1.847656 L 11.964844 23.421875 C 11.964844 23.910156 12.363281 24.308594 12.855469 24.308594 Z M 13.75 16.582031 L 19.09375 13.730469 L 29.234375 22.535156 L 13.75 22.535156 Z M 31.9375 22.535156 L 26.058594 17.429688 L 32.050781 13.683594 L 37.480469 16.582031 L 37.480469 22.535156 Z M 37.480469 2.734375 L 37.480469 14.574219 L 32.4375 11.882812 C 32.132812 11.722656 31.777344 11.753906 31.511719 11.933594 L 24.65625 16.214844 L 19.832031 12.027344 C 19.5625 11.765625 19.144531 11.695312 18.792969 11.882812 L 13.75 14.574219 L 13.75 2.734375 Z M 22.800781 11.019531 C 23.523438 11.738281 24.519531 12.179688 25.613281 12.179688 C 26.710938 12.179688 27.707031 11.738281 28.425781 11.019531 L 28.429688 11.015625 C 29.152344 10.300781 29.597656 9.308594 29.597656 8.21875 C 29.597656 7.128906 29.152344 6.140625 28.429688 5.425781 L 28.425781 5.421875 C 27.707031 4.703125 26.710938 4.261719 25.613281 4.261719 C 24.519531 4.261719 23.523438 4.703125 22.800781 5.421875 L 22.796875 5.425781 C 22.078125 6.140625 21.632812 7.128906 21.632812 8.21875 C 21.632812 9.308594 22.078125 10.300781 22.796875 11.015625 Z M 24.058594 6.671875 C 24.457031 6.277344 25.007812 6.035156 25.617188 6.035156 C 26.226562 6.035156 26.773438 6.277344 27.171875 6.671875 C 27.570312 7.070312 27.816406 7.613281 27.816406 8.21875 C 27.816406 8.824219 27.570312 9.371094 27.171875 9.769531 C 26.773438 10.164062 26.226562 10.40625 25.617188 10.40625 C 25.007812 10.40625 24.457031 10.164062 24.058594 9.769531 C 23.664062 9.371094 23.417969 8.824219 23.417969 8.21875 C 23.417969 7.613281 23.664062 7.070312 24.058594 6.671875 Z M 54.609375 52.472656 L 53.417969 52.472656 L 49.808594 47.789062 L 49.808594 43.699219 L 51.078125 43.699219 C 51.53125 43.699219 51.90625 43.363281 51.960938 42.925781 L 54.285156 32.511719 C 54.390625 32.035156 54.089844 31.5625 53.609375 31.457031 C 53.546875 31.445312 53.480469 31.4375 53.417969 31.4375 L 53.417969 31.433594 L 50.226562 31.433594 C 50.296875 30.839844 50.378906 30.246094 50.488281 29.667969 C 50.601562 29.046875 50.746094 28.433594 50.90625 27.839844 C 51.382812 27.785156 51.851562 27.589844 52.28125 27.246094 C 52.859375 26.785156 53.375 26.066406 53.71875 25.183594 C 53.761719 25.070312 53.804688 24.957031 53.839844 24.839844 C 54.097656 24.054688 54.183594 23.257812 54.128906 22.558594 C 54.066406 21.773438 53.816406 21.070312 53.410156 20.570312 C 53.21875 20.332031 52.929688 20.21875 52.644531 20.238281 C 52 20.292969 51.320312 20.601562 50.703125 21.101562 C 50.148438 21.550781 49.632812 22.164062 49.242188 22.886719 C 49.191406 22.980469 49.136719 23.089844 49.078125 23.214844 C 48.671875 24.074219 48.507812 24.941406 48.574219 25.671875 C 48.628906 26.300781 48.851562 26.839844 49.226562 27.238281 C 49.042969 27.914062 48.875 28.617188 48.738281 29.347656 C 48.675781 29.695312 48.625 30.039062 48.574219 30.382812 C 48.269531 28.359375 47.703125 26.316406 46.890625 24.253906 C 47.238281 23.859375 47.449219 23.34375 47.503906 22.742188 C 47.566406 22.015625 47.402344 21.144531 46.996094 20.285156 C 46.9375 20.160156 46.886719 20.050781 46.835938 19.957031 C 46.441406 19.234375 45.925781 18.621094 45.371094 18.171875 C 44.757812 17.671875 44.074219 17.363281 43.429688 17.3125 C 43.144531 17.289062 42.855469 17.402344 42.664062 17.636719 C 42.257812 18.140625 42.007812 18.839844 41.945312 19.628906 C 41.886719 20.328125 41.976562 21.121094 42.234375 21.90625 C 42.269531 22.023438 42.3125 22.140625 42.355469 22.253906 C 42.699219 23.136719 43.214844 23.855469 43.792969 24.316406 C 44.242188 24.675781 44.738281 24.875 45.238281 24.914062 C 46.105469 27.117188 46.65625 29.289062 46.902344 31.429688 L 44.417969 31.429688 C 43.921875 31.429688 43.523438 31.828125 43.523438 32.320312 C 43.523438 32.414062 43.539062 32.503906 43.566406 32.589844 L 45.890625 43 C 45.980469 43.414062 46.347656 43.695312 46.757812 43.695312 L 46.757812 43.699219 L 48.023438 43.699219 L 48.023438 47.789062 L 44.414062 52.472656 L 40.835938 52.472656 L 39.789062 48.941406 C 40.632812 48.730469 41.394531 48.308594 41.992188 47.710938 L 41.996094 47.710938 C 42.855469 46.859375 43.390625 45.675781 43.390625 44.378906 L 43.390625 40.070312 C 43.390625 39.507812 43.160156 38.996094 42.785156 38.621094 L 42.777344 38.617188 C 42.40625 38.246094 41.890625 38.015625 41.328125 38.015625 L 39.070312 38.015625 C 38.972656 38.015625 38.878906 38.03125 38.789062 38.046875 L 38.789062 33.949219 C 38.789062 33.261719 38.507812 32.632812 38.046875 32.171875 L 38.042969 32.167969 C 37.582031 31.714844 36.949219 31.429688 36.257812 31.429688 L 27.25 31.429688 C 26.625 31.429688 26.054688 31.667969 25.613281 32.046875 C 25.171875 31.667969 24.601562 31.429688 23.976562 31.429688 L 14.96875 31.429688 C 14.304688 31.429688 13.695312 31.691406 13.242188 32.113281 L 13.179688 32.171875 C 12.722656 32.625 12.4375 33.253906 12.4375 33.949219 L 12.4375 38.046875 C 12.34375 38.035156 12.253906 38.015625 12.15625 38.015625 L 9.902344 38.015625 C 9.339844 38.015625 8.824219 38.246094 8.445312 38.621094 L 8.441406 38.625 C 8.066406 39 7.839844 39.511719 7.839844 40.070312 L 7.839844 44.378906 C 7.839844 45.675781 8.371094 46.859375 9.230469 47.710938 C 9.828125 48.308594 10.59375 48.730469 11.4375 48.941406 L 10.394531 52.472656 L 6.296875 52.472656 L 6.296875 24.828125 L 9.90625 24.828125 C 10.027344 24.828125 10.148438 24.804688 10.265625 24.75 C 10.714844 24.550781 10.917969 24.027344 10.714844 23.582031 L 8.40625 18.4375 C 8.285156 18.089844 7.953125 17.839844 7.5625 17.839844 L 3.242188 17.84375 C 2.902344 17.84375 2.578125 18.039062 2.429688 18.367188 L 0.121094 23.515625 C 0.0507812 23.640625 0.0078125 23.789062 0.0078125 23.945312 C 0.0078125 24.433594 0.410156 24.832031 0.902344 24.832031 L 4.511719 24.828125 L 4.511719 52.472656 L 0.902344 52.472656 C 0.410156 52.472656 0.0078125 52.867188 0.0078125 53.359375 C 0.0078125 53.847656 0.410156 54.246094 0.902344 54.246094 L 54.609375 54.246094 C 55.101562 54.246094 55.5 53.847656 55.5 53.359375 C 55.5 52.867188 55.101562 52.472656 54.609375 52.472656 Z M 50.683594 23.960938 L 50.804688 23.726562 C 51.085938 23.210938 51.445312 22.78125 51.824219 22.472656 C 51.972656 22.351562 52.117188 22.253906 52.261719 22.179688 C 52.304688 22.332031 52.335938 22.507812 52.351562 22.695312 C 52.390625 23.183594 52.328125 23.742188 52.148438 24.296875 L 52.0625 24.542969 C 51.832031 25.132812 51.511719 25.589844 51.167969 25.867188 C 50.949219 26.042969 50.742188 26.128906 50.589844 26.089844 C 50.457031 26.011719 50.371094 25.800781 50.347656 25.519531 C 50.308594 25.078125 50.417969 24.53125 50.683594 23.960938 Z M 44.011719 21.617188 L 43.921875 21.371094 C 43.746094 20.816406 43.679688 20.257812 43.722656 19.769531 C 43.734375 19.578125 43.765625 19.40625 43.808594 19.25 C 43.953125 19.328125 44.101562 19.425781 44.25 19.546875 C 44.628906 19.851562 44.984375 20.28125 45.265625 20.796875 L 45.386719 21.035156 C 45.652344 21.601562 45.765625 22.152344 45.726562 22.59375 C 45.699219 22.875 45.617188 23.085938 45.484375 23.164062 C 45.332031 23.203125 45.125 23.117188 44.90625 22.941406 C 44.558594 22.664062 44.238281 22.203125 44.011719 21.617188 Z M 45.523438 33.207031 L 52.3125 33.207031 L 50.367188 41.925781 L 47.46875 41.925781 Z M 3.816406 19.613281 L 6.988281 19.613281 L 8.53125 23.058594 L 2.273438 23.058594 Z M 51.175781 52.472656 L 49.808594 52.472656 L 49.808594 50.695312 Z M 48.027344 50.695312 L 48.027344 52.472656 L 46.65625 52.472656 Z M 37.007812 42.730469 L 26.507812 42.730469 L 26.507812 41.175781 L 37.007812 41.175781 Z M 24.722656 42.730469 L 14.226562 42.730469 L 14.226562 41.175781 L 24.722656 41.175781 Z M 26.726562 33.425781 C 26.863281 33.289062 27.046875 33.207031 27.253906 33.207031 L 36.261719 33.207031 C 36.46875 33.207031 36.652344 33.289062 36.785156 33.421875 L 36.789062 33.425781 C 36.921875 33.558594 37.007812 33.742188 37.007812 33.949219 L 37.007812 39.402344 L 26.507812 39.402344 L 26.507812 33.949219 C 26.507812 33.746094 26.589844 33.558594 26.726562 33.425781 Z M 14.445312 33.425781 L 14.476562 33.390625 C 14.605469 33.277344 14.78125 33.207031 14.96875 33.207031 L 23.976562 33.207031 C 24.179688 33.207031 24.367188 33.292969 24.503906 33.425781 C 24.640625 33.558594 24.722656 33.746094 24.722656 33.949219 L 24.722656 39.402344 L 14.222656 39.402344 L 14.222656 33.949219 C 14.222656 33.746094 14.308594 33.558594 14.445312 33.425781 Z M 9.621094 44.378906 L 9.621094 40.070312 C 9.621094 39.992188 9.652344 39.921875 9.699219 39.875 L 9.707031 39.871094 C 9.753906 39.820312 9.824219 39.792969 9.902344 39.792969 L 12.160156 39.792969 C 12.238281 39.792969 12.308594 39.820312 12.355469 39.871094 L 12.359375 39.875 C 12.410156 39.921875 12.441406 39.992188 12.441406 40.070312 L 12.441406 43.621094 C 12.441406 43.863281 12.539062 44.085938 12.699219 44.246094 C 12.859375 44.40625 13.085938 44.507812 13.332031 44.507812 L 37.898438 44.507812 C 38.144531 44.507812 38.367188 44.40625 38.527344 44.246094 C 38.6875 44.085938 38.789062 43.863281 38.789062 43.617188 L 38.789062 40.070312 C 38.789062 39.988281 38.820312 39.921875 38.867188 39.871094 L 38.871094 39.867188 C 38.921875 39.820312 38.992188 39.789062 39.070312 39.789062 L 41.328125 39.789062 C 41.40625 39.789062 41.476562 39.820312 41.523438 39.867188 L 41.527344 39.871094 C 41.578125 39.921875 41.605469 39.992188 41.605469 40.070312 L 41.605469 44.378906 C 41.605469 45.1875 41.273438 45.921875 40.738281 46.457031 C 40.203125 46.992188 39.460938 47.320312 38.644531 47.320312 L 12.582031 47.320312 C 11.769531 47.320312 11.03125 46.992188 10.492188 46.457031 C 9.957031 45.925781 9.621094 45.1875 9.621094 44.378906 Z M 13.25 49.097656 L 37.980469 49.097656 L 38.980469 52.472656 L 12.25 52.472656 Z M 13.25 49.097656 " fill-opacity="1" fill-rule="nonzero"/></g></svg>