<svg xmlns="http://www.w3.org/2000/svg" xmlns:xlink="http://www.w3.org/1999/xlink" width="75" zoomAndPan="magnify" viewBox="0 0 56.25 56.249997" height="75" preserveAspectRatio="xMidYMid meet" version="1.0"><defs><clipPath id="ffc90ae640"><path d="M 0 1.597656 L 55.511719 1.597656 L 55.511719 54.144531 L 0 54.144531 Z M 0 1.597656 " clip-rule="nonzero"/></clipPath></defs><path fill="#3d3d3b" d="M 24.019531 35.339844 C 23.351562 34.945312 22.582031 35.226562 22.230469 35.714844 C 22.03125 35.976562 21.96875 36.347656 22.074219 36.65625 C 22.164062 36.933594 22.378906 37.140625 22.660156 37.21875 C 22.953125 37.304688 23.257812 37.132812 23.34375 36.839844 C 23.398438 36.640625 23.339844 36.4375 23.207031 36.300781 C 23.277344 36.261719 23.371094 36.242188 23.457031 36.292969 C 23.554688 36.351562 23.566406 36.585938 23.527344 36.785156 C 23.410156 37.386719 23 37.761719 22.480469 38.238281 C 22.324219 38.386719 22.15625 38.535156 21.988281 38.703125 C 21.855469 38.839844 21.699219 38.984375 21.535156 39.136719 C 20.625 39.976562 19.378906 41.125 19.949219 42.550781 C 20.15625 43.074219 20.503906 43.449219 20.925781 43.613281 C 21.078125 43.667969 21.234375 43.699219 21.394531 43.699219 C 21.609375 43.699219 21.832031 43.644531 22.046875 43.539062 C 22.714844 43.203125 22.945312 42.453125 22.777344 41.921875 C 22.628906 41.429688 22.179688 41.152344 21.664062 41.226562 C 21.652344 41.230469 21.640625 41.230469 21.628906 41.234375 C 21.277344 41.308594 21.003906 41.578125 20.917969 41.910156 C 20.863281 41.316406 21.480469 40.691406 22.277344 39.953125 C 22.453125 39.789062 22.617188 39.636719 22.769531 39.488281 C 22.917969 39.335938 23.074219 39.195312 23.226562 39.054688 C 23.8125 38.519531 24.421875 37.960938 24.609375 36.996094 C 24.753906 36.265625 24.53125 35.648438 24.019531 35.339844 " fill-opacity="1" fill-rule="nonzero"/><path fill="#3d3d3b" d="M 15.59375 33.171875 C 15.746094 33.003906 15.890625 32.847656 16.023438 32.714844 C 16.191406 32.546875 16.34375 32.378906 16.488281 32.21875 C 16.960938 31.699219 17.335938 31.285156 17.9375 31.167969 C 18.136719 31.128906 18.367188 31.140625 18.425781 31.238281 C 18.472656 31.324219 18.457031 31.417969 18.417969 31.492188 C 18.28125 31.355469 18.078125 31.296875 17.882812 31.355469 C 17.589844 31.4375 17.417969 31.742188 17.503906 32.039062 C 17.582031 32.320312 17.789062 32.535156 18.0625 32.628906 C 18.371094 32.734375 18.738281 32.671875 18.992188 32.480469 C 19.488281 32.117188 19.765625 31.34375 19.375 30.675781 C 19.070312 30.160156 18.453125 29.9375 17.722656 30.082031 C 16.765625 30.269531 16.210938 30.882812 15.675781 31.472656 C 15.535156 31.625 15.394531 31.78125 15.246094 31.929688 C 15.09375 32.082031 14.945312 32.246094 14.78125 32.421875 C 14.046875 33.226562 13.421875 33.847656 12.832031 33.789062 C 13.164062 33.703125 13.429688 33.429688 13.507812 33.078125 C 13.507812 33.0625 13.511719 33.050781 13.511719 33.039062 C 13.585938 32.523438 13.308594 32.074219 12.824219 31.921875 C 12.292969 31.753906 11.546875 31.984375 11.214844 32.65625 C 11.027344 33.03125 11.003906 33.421875 11.140625 33.78125 C 11.300781 34.203125 11.675781 34.554688 12.195312 34.761719 C 12.445312 34.863281 12.683594 34.90625 12.914062 34.90625 C 14.007812 34.90625 14.90625 33.925781 15.59375 33.171875 " fill-opacity="1" fill-rule="nonzero"/><g clip-path="url(#ffc90ae640)"><path fill="#3d3d3b" d="M 52.148438 7.699219 L 52.566406 8.117188 L 52.230469 8.457031 C 52.136719 8.550781 52.085938 8.667969 52.074219 8.789062 C 51.953125 8.800781 51.835938 8.851562 51.742188 8.945312 L 51.40625 9.28125 L 50.988281 8.863281 Z M 44.390625 5.191406 C 44.484375 5.101562 44.535156 4.980469 44.546875 4.859375 C 44.667969 4.847656 44.785156 4.796875 44.878906 4.703125 L 45.214844 4.367188 L 45.632812 4.785156 L 44.472656 5.949219 L 44.054688 5.53125 Z M 44.480469 2.84375 C 44.570312 2.753906 44.6875 2.703125 44.816406 2.703125 C 44.941406 2.703125 45.058594 2.753906 45.152344 2.84375 L 45.160156 2.855469 L 44.488281 3.53125 L 44.476562 3.519531 C 44.292969 3.332031 44.292969 3.03125 44.480469 2.84375 Z M 42.539062 4.789062 C 42.628906 4.699219 42.75 4.652344 42.875 4.652344 C 43.003906 4.652344 43.121094 4.699219 43.210938 4.789062 L 43.222656 4.800781 L 42.550781 5.476562 L 42.539062 5.464844 C 42.355469 5.28125 42.355469 4.976562 42.539062 4.789062 Z M 15.027344 39.355469 L 13.9375 38.257812 L 14.519531 37.671875 L 15.582031 38.738281 L 16.363281 39.523438 L 17.054688 40.21875 L 16.46875 40.804688 L 15.785156 40.117188 Z M 33.792969 19.367188 L 45.777344 8.304688 L 46.304688 7.816406 L 46.761719 7.523438 L 45.875 8.40625 L 45.484375 8.796875 L 45.089844 9.183594 L 34.238281 19.816406 L 33.449219 20.589844 L 22.105469 31.714844 L 21.296875 30.898438 L 32.980469 20.117188 L 33.382812 19.742188 Z M 5.074219 49.203125 C 5.074219 49.179688 5.074219 49.15625 5.078125 49.132812 C 5.09375 49.050781 5.128906 48.976562 5.1875 48.917969 L 5.425781 48.679688 L 9.160156 44.929688 C 9.257812 44.832031 9.316406 44.703125 9.320312 44.566406 C 9.371094 43.613281 10.136719 42.1875 11.3125 40.835938 L 13.800781 43.335938 C 12.453125 44.515625 11.035156 45.285156 10.085938 45.332031 C 9.949219 45.339844 9.820312 45.398438 9.726562 45.496094 L 5.976562 49.257812 L 5.753906 49.484375 C 5.6875 49.550781 5.601562 49.585938 5.511719 49.59375 C 5.503906 49.59375 5.5 49.597656 5.492188 49.597656 C 5.480469 49.597656 5.464844 49.597656 5.449219 49.597656 C 5.355469 49.589844 5.257812 49.554688 5.1875 49.484375 C 5.113281 49.410156 5.074219 49.308594 5.074219 49.203125 Z M 30.734375 35.425781 C 30.40625 35.082031 29.886719 34.726562 29.144531 34.726562 C 28.136719 34.726562 27.035156 35.414062 25.875 36.769531 C 25.519531 37.105469 23.324219 39.277344 23.714844 41.167969 C 23.863281 41.886719 24.34375 42.445312 25.140625 42.832031 L 24.957031 43.53125 C 24.464844 43.710938 23.648438 44.199219 23.15625 45.535156 C 23.15625 45.542969 23.152344 45.550781 23.148438 45.5625 C 23.125 45.636719 20.734375 53.039062 14.609375 53.039062 C 12.285156 53.039062 9.683594 51.992188 6.863281 49.933594 L 10.363281 46.417969 C 11.660156 46.257812 13.402344 45.257812 14.976562 43.757812 C 15.085938 43.652344 15.148438 43.511719 15.148438 43.363281 C 15.152344 43.214844 15.09375 43.070312 14.988281 42.964844 L 11.679688 39.644531 C 11.578125 39.539062 11.429688 39.476562 11.285156 39.480469 C 11.136719 39.484375 10.992188 39.546875 10.890625 39.652344 C 9.398438 41.238281 8.402344 42.984375 8.242188 44.289062 L 4.757812 47.785156 C 2.117188 44.097656 1.214844 40.808594 2.066406 37.996094 C 3.457031 33.417969 9.144531 31.570312 9.199219 31.550781 C 9.210938 31.550781 9.21875 31.546875 9.226562 31.542969 C 10.558594 31.050781 11.042969 30.226562 11.21875 29.734375 L 11.917969 29.550781 C 12.5 30.761719 13.375 31.03125 14.039062 31.03125 C 15.796875 31.03125 17.65625 29.128906 17.953125 28.8125 C 19.429688 27.535156 20.109375 26.339844 19.972656 25.25 C 19.894531 24.652344 19.585938 24.21875 19.292969 23.929688 C 20.34375 23.703125 20.941406 22.546875 21.015625 22.398438 C 22.652344 19.304688 25.0625 18.292969 25.097656 18.28125 C 25.9375 17.921875 26.796875 17.742188 27.652344 17.742188 C 29.492188 17.742188 31.039062 18.566406 32.128906 19.394531 L 20.128906 30.476562 C 20.015625 30.578125 19.953125 30.722656 19.949219 30.871094 C 19.945312 31.023438 20.003906 31.167969 20.109375 31.273438 L 21.324219 32.496094 L 16.332031 37.925781 L 14.910156 36.496094 C 14.808594 36.394531 14.667969 36.335938 14.519531 36.335938 C 14.375 36.335938 14.234375 36.394531 14.132812 36.496094 L 12.765625 37.867188 C 12.550781 38.082031 12.550781 38.433594 12.765625 38.652344 L 16.082031 41.980469 C 16.183594 42.082031 16.324219 42.140625 16.46875 42.140625 C 16.617188 42.140625 16.757812 42.082031 16.859375 41.980469 L 18.226562 40.609375 C 18.441406 40.394531 18.441406 40.042969 18.226562 39.824219 L 17.113281 38.707031 L 22.105469 33.277344 L 23.425781 34.605469 C 23.527344 34.707031 23.667969 34.765625 23.8125 34.765625 C 23.816406 34.765625 23.820312 34.765625 23.820312 34.765625 C 23.96875 34.765625 24.109375 34.703125 24.214844 34.59375 L 35.421875 22.777344 C 36.53125 24.359375 37.542969 26.785156 36.355469 29.605469 C 36.347656 29.628906 35.339844 32.050781 32.261719 33.691406 C 32.113281 33.765625 30.960938 34.367188 30.734375 35.425781 Z M 45.960938 10.058594 L 35.492188 21.097656 L 35.113281 21.496094 L 34.730469 21.898438 L 23.804688 33.417969 L 22.886719 32.496094 L 34.234375 21.371094 L 34.628906 20.984375 L 35.019531 20.597656 L 45.867188 9.964844 L 46.261719 9.578125 L 46.445312 9.398438 L 46.65625 9.191406 L 47.289062 8.558594 L 47.148438 8.804688 L 46.71875 9.253906 Z M 49.820312 8.472656 L 47.878906 10.421875 L 47.5 10.039062 L 47.992188 9.523438 C 48.019531 9.488281 48.046875 9.453125 48.070312 9.417969 L 49.304688 7.261719 C 49.429688 7.046875 49.394531 6.769531 49.214844 6.59375 L 48.339844 5.714844 C 48.15625 5.527344 47.871094 5.496094 47.652344 5.636719 L 45.671875 6.910156 C 45.644531 6.929688 45.617188 6.949219 45.59375 6.96875 L 44.996094 7.523438 L 44.730469 7.257812 L 44.863281 7.125 C 44.863281 7.125 44.863281 7.121094 44.863281 7.121094 L 46.800781 5.175781 L 48.679688 3.289062 C 48.902344 3.0625 49.203125 2.941406 49.519531 2.941406 C 49.835938 2.941406 50.132812 3.0625 50.355469 3.289062 L 51.832031 4.769531 C 52.292969 5.234375 52.292969 5.988281 51.832031 6.453125 L 51.757812 6.527344 Z M 52.140625 10.804688 C 51.964844 10.984375 51.648438 10.984375 51.46875 10.804688 L 51.460938 10.792969 L 52.132812 10.121094 L 52.140625 10.132812 C 52.230469 10.222656 52.28125 10.339844 52.28125 10.46875 C 52.28125 10.59375 52.230469 10.714844 52.140625 10.804688 Z M 54.082031 8.859375 C 53.902344 9.039062 53.589844 9.039062 53.410156 8.859375 L 53.398438 8.847656 L 53.734375 8.511719 C 53.734375 8.507812 53.734375 8.507812 53.734375 8.507812 L 54.070312 8.171875 L 54.082031 8.183594 C 54.171875 8.273438 54.21875 8.394531 54.21875 8.519531 C 54.21875 8.648438 54.171875 8.769531 54.082031 8.859375 Z M 54.859375 7.402344 L 54.460938 7 C 54.246094 6.78125 53.894531 6.78125 53.679688 7 L 53.34375 7.335938 L 52.898438 6.886719 C 53.488281 5.992188 53.394531 4.773438 52.609375 3.984375 L 51.136719 2.507812 C 50.703125 2.070312 50.128906 1.832031 49.519531 1.832031 C 48.90625 1.832031 48.332031 2.070312 47.902344 2.507812 L 46.410156 4 L 45.996094 3.582031 L 46.332031 3.246094 C 46.433594 3.140625 46.492188 3 46.492188 2.855469 C 46.492188 2.707031 46.433594 2.566406 46.332031 2.464844 L 45.929688 2.0625 C 45.632812 1.761719 45.234375 1.597656 44.816406 1.597656 C 44.394531 1.597656 43.996094 1.761719 43.699219 2.0625 C 43.285156 2.476562 43.148438 3.070312 43.296875 3.601562 C 43.160156 3.566406 43.019531 3.542969 42.875 3.542969 C 42.453125 3.542969 42.058594 3.707031 41.761719 4.007812 C 41.144531 4.625 41.144531 5.632812 41.761719 6.25 L 42.160156 6.652344 C 42.265625 6.753906 42.40625 6.8125 42.550781 6.8125 C 42.695312 6.8125 42.835938 6.753906 42.941406 6.652344 L 43.277344 6.3125 L 43.691406 6.730469 L 43.5625 6.863281 C 43.457031 6.96875 43.398438 7.109375 43.398438 7.257812 C 43.398438 7.402344 43.457031 7.542969 43.5625 7.648438 L 44.183594 8.273438 L 32.953125 18.636719 C 31.707031 17.65625 29.875 16.632812 27.652344 16.632812 C 26.652344 16.632812 25.648438 16.847656 24.675781 17.257812 C 24.5625 17.300781 21.875 18.410156 20.039062 21.886719 C 20.035156 21.894531 20.03125 21.902344 20.027344 21.90625 C 20.023438 21.917969 19.550781 22.863281 18.925781 22.863281 C 18.902344 22.863281 18.875 22.859375 18.851562 22.859375 C 18.628906 22.832031 18.410156 22.941406 18.300781 23.140625 L 17.976562 23.726562 C 17.902344 23.859375 17.886719 24.015625 17.933594 24.160156 C 17.980469 24.304688 18.082031 24.425781 18.21875 24.492188 C 18.222656 24.496094 18.800781 24.792969 18.878906 25.390625 C 18.964844 26.070312 18.371094 26.996094 17.214844 27.992188 C 17.195312 28.003906 17.183594 28.019531 17.167969 28.035156 C 16.679688 28.558594 15.167969 29.921875 14.039062 29.921875 C 13.675781 29.921875 13.144531 29.796875 12.761719 28.707031 C 12.667969 28.433594 12.378906 28.28125 12.101562 28.355469 L 10.628906 28.746094 C 10.402344 28.808594 10.238281 28.992188 10.21875 29.226562 C 10.214844 29.261719 10.105469 30.03125 8.855469 30.5 C 8.445312 30.632812 2.558594 32.597656 1.015625 37.667969 C 0.03125 40.898438 1.054688 44.605469 4.058594 48.699219 C 4 48.859375 3.96875 49.027344 3.96875 49.203125 C 3.96875 49.605469 4.125 49.984375 4.410156 50.265625 C 4.691406 50.550781 5.070312 50.710938 5.472656 50.710938 C 5.636719 50.710938 5.796875 50.679688 5.945312 50.632812 C 9.0625 52.964844 11.972656 54.144531 14.609375 54.144531 C 17.496094 54.144531 20.074219 52.707031 22.066406 49.988281 C 23.496094 48.035156 24.132812 46.109375 24.195312 45.90625 C 24.660156 44.652344 25.429688 44.539062 25.449219 44.539062 C 25.683594 44.519531 25.878906 44.355469 25.941406 44.128906 L 26.332031 42.648438 C 26.402344 42.371094 26.253906 42.082031 25.980469 41.984375 C 25.277344 41.734375 24.886719 41.394531 24.792969 40.945312 C 24.558594 39.816406 26.09375 38.078125 26.648438 37.558594 C 26.664062 37.542969 26.679688 37.53125 26.691406 37.511719 C 27.875 36.125 28.679688 35.832031 29.144531 35.832031 C 29.828125 35.832031 30.164062 36.480469 30.175781 36.503906 C 30.242188 36.640625 30.363281 36.742188 30.507812 36.789062 C 30.652344 36.835938 30.808594 36.820312 30.941406 36.746094 L 31.523438 36.417969 C 31.71875 36.308594 31.832031 36.09375 31.804688 35.867188 C 31.722656 35.203125 32.738281 34.691406 32.75 34.6875 C 32.753906 34.683594 32.761719 34.679688 32.769531 34.675781 C 36.230469 32.832031 37.335938 30.128906 37.375 30.027344 C 38.804688 26.628906 37.507812 23.753906 36.191406 21.960938 L 46.738281 10.839844 L 47.492188 11.59375 C 47.597656 11.703125 47.738281 11.757812 47.878906 11.757812 C 48.023438 11.757812 48.164062 11.703125 48.269531 11.59375 L 50.210938 9.648438 L 50.625 10.066406 L 50.289062 10.402344 C 50.1875 10.507812 50.128906 10.648438 50.128906 10.792969 C 50.128906 10.941406 50.1875 11.082031 50.289062 11.1875 L 50.691406 11.589844 C 50.988281 11.886719 51.386719 12.050781 51.804688 12.050781 C 52.226562 12.050781 52.625 11.886719 52.921875 11.589844 C 53.335938 11.171875 53.472656 10.578125 53.324219 10.046875 C 53.460938 10.085938 53.601562 10.105469 53.746094 10.105469 C 54.167969 10.105469 54.5625 9.941406 54.859375 9.640625 C 55.476562 9.023438 55.476562 8.019531 54.859375 7.402344 " fill-opacity="1" fill-rule="nonzero"/></g></svg>