<svg xmlns="http://www.w3.org/2000/svg" xmlns:xlink="http://www.w3.org/1999/xlink" width="75" zoomAndPan="magnify" viewBox="0 0 56.25 56.249997" height="75" preserveAspectRatio="xMidYMid meet" version="1.0"><defs><clipPath id="535927be08"><path d="M 13 26 L 43 26 L 43 47.878906 L 13 47.878906 Z M 13 26 " clip-rule="nonzero"/></clipPath><clipPath id="84251394c1"><path d="M 0 7.910156 L 55.511719 7.910156 L 55.511719 47 L 0 47 Z M 0 7.910156 " clip-rule="nonzero"/></clipPath></defs><g clip-path="url(#535927be08)"><path fill="#3d3d3b" d="M 38.039062 26.757812 C 37.957031 26.378906 37.582031 26.140625 37.203125 26.222656 C 36.828125 26.308594 36.589844 26.6875 36.671875 27.066406 L 40.972656 46.46875 L 14.582031 46.46875 L 18.882812 27.066406 C 18.96875 26.6875 18.730469 26.308594 18.351562 26.222656 C 17.976562 26.140625 17.601562 26.378906 17.515625 26.757812 L 13.027344 47.019531 C 12.980469 47.230469 13.03125 47.449219 13.164062 47.613281 C 13.296875 47.78125 13.496094 47.878906 13.710938 47.878906 L 41.847656 47.878906 C 42.0625 47.878906 42.261719 47.78125 42.394531 47.613281 C 42.527344 47.449219 42.578125 47.230469 42.53125 47.019531 L 38.039062 26.757812 " fill-opacity="1" fill-rule="nonzero"/></g><g clip-path="url(#84251394c1)"><path fill="#3d3d3b" d="M 55.277344 40.054688 L 42.28125 19.316406 C 41.195312 17.445312 39.546875 15.980469 37.640625 15.183594 L 34.644531 13.929688 C 34.214844 13.753906 33.9375 13.335938 33.9375 12.867188 L 33.9375 9.539062 C 33.9375 8.640625 33.238281 7.910156 32.378906 7.910156 L 23.175781 7.910156 C 22.316406 7.910156 21.621094 8.640625 21.621094 9.539062 L 21.621094 12.867188 C 21.621094 13.335938 21.34375 13.753906 20.914062 13.929688 L 17.921875 15.179688 C 16.011719 15.976562 14.367188 17.441406 13.28125 19.308594 L 0.222656 40.050781 C 0.015625 40.378906 0.109375 40.808594 0.429688 41.019531 L 8.570312 46.347656 C 8.730469 46.453125 8.921875 46.488281 9.109375 46.445312 C 9.292969 46.402344 9.453125 46.289062 9.550781 46.125 L 14.304688 38.320312 C 14.507812 37.988281 14.40625 37.550781 14.074219 37.347656 C 13.746094 37.144531 13.316406 37.25 13.113281 37.582031 L 8.730469 44.773438 L 1.773438 40.21875 L 14.472656 20.054688 C 14.476562 20.046875 14.480469 20.039062 14.484375 20.03125 C 15.417969 18.425781 16.828125 17.164062 18.457031 16.484375 L 21.449219 15.234375 C 22.40625 14.835938 23.019531 13.90625 23.019531 12.867188 L 23.019531 9.539062 C 23.019531 9.410156 23.101562 9.320312 23.175781 9.320312 L 24.488281 9.320312 L 24.488281 13.199219 C 24.488281 13.585938 24.800781 13.902344 25.191406 13.902344 C 25.578125 13.902344 25.890625 13.585938 25.890625 13.199219 L 25.890625 9.320312 L 27.21875 9.320312 L 27.21875 13.199219 C 27.21875 13.585938 27.535156 13.902344 27.921875 13.902344 C 28.308594 13.902344 28.621094 13.585938 28.621094 13.199219 L 28.621094 9.320312 L 29.949219 9.320312 L 29.949219 13.199219 C 29.949219 13.585938 30.265625 13.902344 30.652344 13.902344 C 31.039062 13.902344 31.351562 13.585938 31.351562 13.199219 L 31.351562 9.320312 L 32.378906 9.320312 C 32.453125 9.320312 32.535156 9.410156 32.535156 9.539062 L 32.535156 12.867188 C 32.535156 13.90625 33.152344 14.835938 34.105469 15.234375 L 37.101562 16.484375 C 38.734375 17.167969 40.144531 18.425781 41.074219 20.035156 C 41.082031 20.042969 41.085938 20.050781 41.089844 20.058594 L 53.722656 40.21875 L 46.765625 44.769531 L 42.371094 37.503906 C 42.167969 37.171875 41.738281 37.066406 41.40625 37.269531 C 41.078125 37.472656 40.972656 37.90625 41.171875 38.238281 L 45.945312 46.125 C 46.042969 46.289062 46.203125 46.402344 46.386719 46.445312 C 46.4375 46.457031 46.492188 46.464844 46.542969 46.464844 C 46.675781 46.464844 46.808594 46.425781 46.925781 46.347656 L 55.066406 41.019531 C 55.386719 40.8125 55.480469 40.378906 55.277344 40.054688 " fill-opacity="1" fill-rule="nonzero"/></g></svg>