<svg xmlns="http://www.w3.org/2000/svg" xmlns:xlink="http://www.w3.org/1999/xlink" width="75" zoomAndPan="magnify" viewBox="0 0 56.25 56.249997" height="75" preserveAspectRatio="xMidYMid meet" version="1.0"><defs><clipPath id="96e925ef9a"><path d="M 4.304688 0 L 50.933594 0 L 50.933594 55.511719 L 4.304688 55.511719 Z M 4.304688 0 " clip-rule="nonzero"/></clipPath></defs><g clip-path="url(#96e925ef9a)"><path fill="#3d3d3b" d="M 42.339844 24.992188 L 39.175781 24.992188 C 38.429688 24.996094 37.734375 25.183594 37.085938 25.554688 C 36.4375 25.925781 35.921875 26.433594 35.539062 27.074219 C 35.300781 27.472656 34.984375 27.785156 34.585938 28.011719 C 34.1875 28.238281 33.757812 28.355469 33.296875 28.355469 L 29.8125 28.355469 L 29.8125 26.359375 C 29.8125 26.132812 29.734375 25.941406 29.574219 25.777344 C 29.414062 25.617188 29.222656 25.539062 28.996094 25.539062 L 28.414062 25.539062 L 28.414062 23.46875 C 28.410156 22.984375 28.320312 22.523438 28.136719 22.078125 C 27.953125 21.632812 27.691406 21.238281 27.351562 20.898438 C 27.011719 20.554688 26.621094 20.292969 26.179688 20.109375 C 25.734375 19.921875 25.273438 19.832031 24.796875 19.832031 L 21.109375 19.832031 C 20.84375 19.828125 20.59375 19.777344 20.347656 19.675781 C 20.105469 19.574219 19.890625 19.433594 19.707031 19.246094 C 19.519531 19.058594 19.378906 18.84375 19.277344 18.597656 C 19.175781 18.355469 19.125 18.101562 19.125 17.835938 C 19.125 17.570312 19.175781 17.316406 19.277344 17.074219 C 19.375 16.828125 19.519531 16.613281 19.707031 16.425781 C 19.890625 16.238281 20.105469 16.09375 20.347656 15.992188 C 20.59375 15.890625 20.84375 15.839844 21.109375 15.839844 L 34.082031 15.839844 C 34.5625 15.839844 35.023438 15.746094 35.46875 15.5625 C 35.910156 15.378906 36.300781 15.113281 36.640625 14.773438 C 36.980469 14.433594 37.242188 14.039062 37.425781 13.59375 C 37.609375 13.148438 37.699219 12.683594 37.699219 12.203125 C 37.699219 11.71875 37.609375 11.257812 37.425781 10.8125 C 37.242188 10.367188 36.980469 9.972656 36.640625 9.632812 C 36.300781 9.289062 35.910156 9.027344 35.46875 8.84375 C 35.023438 8.65625 34.5625 8.566406 34.082031 8.566406 L 30.394531 8.566406 C 30.132812 8.5625 29.878906 8.511719 29.636719 8.410156 C 29.394531 8.3125 29.179688 8.167969 28.996094 7.980469 C 28.808594 7.792969 28.664062 7.578125 28.5625 7.332031 C 28.464844 7.089844 28.414062 6.832031 28.414062 6.570312 L 28.414062 0.503906 C 28.414062 0.277344 28.332031 0.0859375 28.171875 -0.0742188 C 28.015625 -0.238281 27.820312 -0.316406 27.597656 -0.316406 C 27.371094 -0.316406 27.175781 -0.238281 27.019531 -0.0742188 C 26.859375 0.0859375 26.777344 0.277344 26.777344 0.503906 L 26.777344 6.570312 C 26.78125 7.050781 26.871094 7.515625 27.054688 7.960938 C 27.238281 8.40625 27.5 8.800781 27.839844 9.140625 C 28.179688 9.480469 28.570312 9.746094 29.011719 9.929688 C 29.457031 10.113281 29.917969 10.207031 30.394531 10.207031 L 34.082031 10.207031 C 34.347656 10.207031 34.597656 10.257812 34.84375 10.359375 C 35.085938 10.460938 35.300781 10.605469 35.484375 10.792969 C 35.671875 10.980469 35.816406 11.195312 35.914062 11.4375 C 36.015625 11.683594 36.066406 11.9375 36.066406 12.203125 C 36.066406 12.46875 36.015625 12.722656 35.914062 12.964844 C 35.816406 13.210938 35.671875 13.425781 35.484375 13.613281 C 35.300781 13.800781 35.085938 13.941406 34.84375 14.042969 C 34.597656 14.144531 34.347656 14.195312 34.082031 14.199219 L 21.109375 14.199219 C 20.628906 14.199219 20.167969 14.289062 19.722656 14.476562 C 19.28125 14.660156 18.890625 14.921875 18.550781 15.265625 C 18.210938 15.605469 17.949219 16 17.765625 16.445312 C 17.582031 16.890625 17.492188 17.351562 17.492188 17.835938 C 17.492188 18.316406 17.582031 18.78125 17.765625 19.226562 C 17.949219 19.671875 18.210938 20.066406 18.550781 20.40625 C 18.890625 20.746094 19.28125 21.011719 19.722656 21.195312 C 20.167969 21.378906 20.628906 21.472656 21.109375 21.472656 L 24.796875 21.472656 C 25.058594 21.472656 25.3125 21.523438 25.554688 21.625 C 25.796875 21.726562 26.011719 21.871094 26.199219 22.058594 C 26.382812 22.246094 26.527344 22.460938 26.628906 22.707031 C 26.726562 22.949219 26.777344 23.203125 26.777344 23.46875 L 26.777344 25.539062 L 26.195312 25.539062 C 25.96875 25.539062 25.777344 25.617188 25.617188 25.777344 C 25.457031 25.941406 25.378906 26.132812 25.378906 26.359375 L 25.378906 28.355469 L 21.890625 28.355469 C 21.433594 28.355469 21.003906 28.238281 20.605469 28.011719 C 20.203125 27.785156 19.886719 27.472656 19.652344 27.074219 C 19.269531 26.429688 18.753906 25.921875 18.105469 25.550781 C 17.457031 25.179688 16.761719 24.996094 16.015625 24.992188 L 12.851562 24.992188 C 6.691406 24.992188 4.289062 31.941406 4.289062 49.765625 C 4.292969 50.351562 4.382812 50.925781 4.5625 51.484375 C 4.746094 52.042969 5.007812 52.558594 5.351562 53.035156 C 5.699219 53.507812 6.105469 53.917969 6.582031 54.261719 C 7.054688 54.605469 7.570312 54.867188 8.128906 55.042969 C 8.683594 55.222656 9.253906 55.3125 9.839844 55.308594 C 10.421875 55.304688 10.992188 55.207031 11.546875 55.023438 C 12.101562 54.835938 12.613281 54.570312 13.082031 54.21875 C 13.554688 53.871094 13.957031 53.457031 14.296875 52.976562 L 18.019531 47.714844 C 18.261719 47.8125 18.511719 47.886719 18.773438 47.933594 C 19.03125 47.976562 19.289062 47.996094 19.550781 47.984375 C 19.8125 47.972656 20.070312 47.933594 20.324219 47.863281 C 20.578125 47.796875 20.820312 47.703125 21.054688 47.582031 C 21.285156 47.460938 21.503906 47.316406 21.703125 47.144531 C 21.90625 46.976562 22.085938 46.789062 22.246094 46.582031 C 22.410156 46.371094 22.542969 46.148438 22.65625 45.910156 C 22.769531 45.671875 22.855469 45.425781 22.914062 45.167969 L 32.277344 45.167969 C 32.335938 45.425781 32.421875 45.671875 32.535156 45.910156 C 32.648438 46.148438 32.785156 46.371094 32.945312 46.582031 C 33.105469 46.789062 33.285156 46.976562 33.488281 47.144531 C 33.6875 47.316406 33.90625 47.460938 34.136719 47.582031 C 34.371094 47.703125 34.613281 47.796875 34.867188 47.863281 C 35.121094 47.933594 35.378906 47.972656 35.640625 47.984375 C 35.902344 47.996094 36.160156 47.976562 36.421875 47.933594 C 36.679688 47.886719 36.929688 47.8125 37.171875 47.714844 L 40.898438 52.976562 C 41.417969 53.707031 42.070312 54.277344 42.863281 54.691406 C 43.65625 55.101562 44.5 55.308594 45.390625 55.308594 C 45.753906 55.308594 46.113281 55.277344 46.46875 55.207031 C 46.824219 55.136719 47.167969 55.03125 47.503906 54.894531 C 47.839844 54.753906 48.15625 54.585938 48.460938 54.382812 C 48.761719 54.179688 49.039062 53.949219 49.296875 53.691406 C 49.550781 53.433594 49.78125 53.15625 49.980469 52.851562 C 50.183594 52.546875 50.351562 52.226562 50.492188 51.890625 C 50.628906 51.554688 50.730469 51.207031 50.800781 50.847656 C 50.871094 50.492188 50.90625 50.128906 50.902344 49.765625 C 50.902344 31.9375 48.5 24.992188 42.339844 24.992188 Z M 24.210938 29.996094 L 30.980469 29.996094 L 30.980469 32.578125 L 24.210938 32.578125 Z M 27.011719 27.179688 L 28.179688 27.179688 L 28.179688 28.355469 L 27.011719 28.355469 Z M 19.394531 46.34375 C 19.128906 46.34375 18.878906 46.292969 18.632812 46.191406 C 18.390625 46.089844 18.175781 45.945312 17.992188 45.757812 C 17.804688 45.570312 17.660156 45.355469 17.558594 45.113281 C 17.460938 44.867188 17.410156 44.613281 17.410156 44.347656 C 17.410156 44.082031 17.460938 43.828125 17.558594 43.585938 C 17.660156 43.339844 17.804688 43.125 17.992188 42.9375 C 18.175781 42.75 18.390625 42.605469 18.632812 42.503906 C 18.878906 42.402344 19.128906 42.351562 19.394531 42.351562 C 19.65625 42.351562 19.910156 42.402344 20.152344 42.503906 C 20.394531 42.605469 20.609375 42.75 20.796875 42.9375 C 20.980469 43.125 21.125 43.339844 21.226562 43.585938 C 21.328125 43.828125 21.375 44.082031 21.375 44.347656 C 21.375 44.613281 21.324219 44.867188 21.226562 45.113281 C 21.125 45.355469 20.980469 45.570312 20.796875 45.757812 C 20.609375 45.945312 20.394531 46.089844 20.152344 46.191406 C 19.910156 46.292969 19.65625 46.34375 19.394531 46.34375 Z M 33.816406 44.347656 C 33.816406 44.082031 33.867188 43.828125 33.964844 43.585938 C 34.066406 43.339844 34.210938 43.125 34.398438 42.9375 C 34.582031 42.75 34.796875 42.605469 35.039062 42.503906 C 35.285156 42.402344 35.535156 42.351562 35.800781 42.351562 C 36.0625 42.351562 36.316406 42.402344 36.558594 42.503906 C 36.800781 42.605469 37.015625 42.75 37.203125 42.9375 C 37.386719 43.125 37.53125 43.339844 37.632812 43.585938 C 37.734375 43.828125 37.78125 44.082031 37.78125 44.347656 C 37.78125 44.613281 37.734375 44.867188 37.632812 45.113281 C 37.53125 45.355469 37.386719 45.570312 37.203125 45.757812 C 37.015625 45.945312 36.800781 46.089844 36.558594 46.191406 C 36.316406 46.292969 36.0625 46.34375 35.800781 46.34375 C 35.535156 46.34375 35.285156 46.292969 35.039062 46.191406 C 34.796875 46.089844 34.582031 45.945312 34.398438 45.757812 C 34.210938 45.570312 34.066406 45.355469 33.964844 45.109375 C 33.867188 44.867188 33.816406 44.613281 33.816406 44.347656 Z M 48.132812 52.535156 C 47.375 53.296875 46.457031 53.671875 45.386719 53.664062 C 44.757812 53.664062 44.167969 53.519531 43.609375 53.230469 C 43.050781 52.9375 42.589844 52.535156 42.226562 52.023438 L 38.5 46.757812 C 38.683594 46.550781 38.839844 46.324219 38.972656 46.082031 C 39.105469 45.839844 39.207031 45.582031 39.28125 45.316406 C 39.355469 45.050781 39.398438 44.777344 39.410156 44.5 C 39.421875 44.222656 39.402344 43.949219 39.355469 43.675781 C 39.304688 43.402344 39.222656 43.140625 39.113281 42.886719 C 39.003906 42.632812 38.867188 42.394531 38.703125 42.171875 C 38.539062 41.949219 38.351562 41.75 38.140625 41.570312 C 37.929688 41.390625 37.703125 41.234375 37.457031 41.109375 C 37.214844 40.980469 36.957031 40.882812 36.691406 40.816406 C 36.421875 40.746094 36.152344 40.710938 35.875 40.703125 C 35.601562 40.699219 35.328125 40.726562 35.058594 40.78125 C 34.789062 40.839844 34.53125 40.925781 34.28125 41.042969 C 34.03125 41.160156 33.796875 41.300781 33.578125 41.472656 C 33.359375 41.644531 33.164062 41.835938 32.992188 42.050781 C 32.820312 42.265625 32.671875 42.5 32.550781 42.746094 C 32.429688 42.996094 32.339844 43.257812 32.277344 43.527344 L 22.914062 43.527344 C 22.851562 43.257812 22.761719 42.996094 22.640625 42.746094 C 22.519531 42.5 22.371094 42.265625 22.199219 42.050781 C 22.023438 41.835938 21.828125 41.644531 21.613281 41.472656 C 21.394531 41.300781 21.160156 41.160156 20.910156 41.042969 C 20.660156 40.925781 20.402344 40.839844 20.132812 40.78125 C 19.863281 40.726562 19.589844 40.699219 19.3125 40.707031 C 19.039062 40.710938 18.765625 40.75 18.5 40.816406 C 18.234375 40.886719 17.976562 40.984375 17.730469 41.109375 C 17.488281 41.238281 17.257812 41.390625 17.050781 41.570312 C 16.839844 41.75 16.652344 41.949219 16.488281 42.171875 C 16.324219 42.394531 16.1875 42.632812 16.078125 42.886719 C 15.964844 43.144531 15.886719 43.40625 15.835938 43.679688 C 15.785156 43.949219 15.765625 44.226562 15.78125 44.503906 C 15.792969 44.78125 15.835938 45.050781 15.910156 45.316406 C 15.984375 45.585938 16.085938 45.839844 16.21875 46.082031 C 16.351562 46.328125 16.507812 46.550781 16.691406 46.757812 L 12.964844 52.027344 C 12.597656 52.539062 12.136719 52.941406 11.582031 53.230469 C 11.023438 53.519531 10.429688 53.664062 9.804688 53.664062 C 9.546875 53.667969 9.292969 53.644531 9.042969 53.597656 C 8.792969 53.550781 8.550781 53.476562 8.3125 53.378906 C 8.074219 53.28125 7.851562 53.164062 7.636719 53.019531 C 7.425781 52.878906 7.230469 52.71875 7.046875 52.535156 C 6.867188 52.355469 6.707031 52.15625 6.566406 51.941406 C 6.425781 51.726562 6.304688 51.503906 6.207031 51.265625 C 6.113281 51.027344 6.039062 50.78125 5.992188 50.527344 C 5.945312 50.277344 5.921875 50.023438 5.925781 49.765625 C 5.925781 29.382812 9.425781 26.636719 12.851562 26.636719 L 16.015625 26.636719 C 16.472656 26.636719 16.902344 26.753906 17.300781 26.980469 C 17.699219 27.210938 18.015625 27.523438 18.25 27.917969 C 18.632812 28.5625 19.148438 29.070312 19.796875 29.441406 C 20.445312 29.8125 21.144531 30 21.890625 30 L 22.578125 30 L 22.578125 33.40625 C 22.578125 33.632812 22.65625 33.824219 22.816406 33.984375 C 22.976562 34.144531 23.167969 34.222656 23.394531 34.222656 L 31.796875 34.222656 C 32.023438 34.222656 32.214844 34.144531 32.375 33.984375 C 32.535156 33.824219 32.613281 33.628906 32.613281 33.402344 L 32.613281 29.996094 L 33.300781 29.996094 C 34.046875 29.996094 34.742188 29.8125 35.394531 29.441406 C 36.042969 29.070312 36.558594 28.5625 36.941406 27.917969 C 37.175781 27.519531 37.492188 27.207031 37.890625 26.980469 C 38.289062 26.753906 38.71875 26.636719 39.175781 26.636719 L 42.339844 26.636719 C 45.765625 26.636719 49.265625 29.382812 49.265625 49.765625 C 49.277344 50.847656 48.898438 51.773438 48.132812 52.535156 Z M 48.132812 52.535156 " fill-opacity="1" fill-rule="nonzero"/></g><path fill="#3d3d3b" d="M 8 44.238281 C 7.777344 44.230469 7.582031 44.304688 7.417969 44.460938 C 7.253906 44.617188 7.167969 44.808594 7.160156 45.035156 C 7.132812 45.894531 7.113281 46.796875 7.101562 47.75 C 7.101562 47.976562 7.179688 48.171875 7.335938 48.332031 C 7.492188 48.496094 7.683594 48.578125 7.910156 48.578125 L 7.921875 48.578125 C 8.144531 48.578125 8.335938 48.5 8.492188 48.34375 C 8.652344 48.183594 8.734375 47.992188 8.738281 47.769531 C 8.746094 46.828125 8.765625 45.9375 8.792969 45.085938 C 8.800781 44.859375 8.726562 44.664062 8.570312 44.496094 C 8.417969 44.332031 8.226562 44.246094 8 44.238281 Z M 8 44.238281 " fill-opacity="1" fill-rule="nonzero"/><path fill="#3d3d3b" d="M 41.8125 34.949219 C 41.8125 35.242188 41.867188 35.527344 41.980469 35.800781 C 42.09375 36.074219 42.253906 36.316406 42.460938 36.523438 C 42.667969 36.734375 42.910156 36.894531 43.179688 37.007812 C 43.453125 37.121094 43.734375 37.175781 44.027344 37.175781 C 44.324219 37.175781 44.605469 37.121094 44.878906 37.007812 C 45.148438 36.894531 45.390625 36.734375 45.597656 36.523438 C 45.804688 36.316406 45.964844 36.074219 46.078125 35.800781 C 46.191406 35.527344 46.246094 35.242188 46.246094 34.949219 C 46.246094 34.652344 46.191406 34.367188 46.078125 34.09375 C 45.964844 33.820312 45.804688 33.582031 45.597656 33.371094 C 45.390625 33.160156 45.148438 33 44.878906 32.886719 C 44.605469 32.773438 44.324219 32.71875 44.027344 32.71875 C 43.734375 32.71875 43.453125 32.773438 43.179688 32.886719 C 42.910156 33 42.671875 33.164062 42.460938 33.371094 C 42.253906 33.582031 42.09375 33.820312 41.980469 34.09375 C 41.867188 34.367188 41.8125 34.652344 41.8125 34.949219 Z M 44.613281 34.949219 C 44.613281 35.109375 44.554688 35.25 44.441406 35.363281 C 44.328125 35.476562 44.191406 35.535156 44.027344 35.535156 C 43.867188 35.535156 43.730469 35.476562 43.617188 35.363281 C 43.503906 35.25 43.445312 35.109375 43.445312 34.949219 C 43.445312 34.785156 43.503906 34.648438 43.617188 34.53125 C 43.730469 34.417969 43.867188 34.359375 44.027344 34.359375 C 44.191406 34.359375 44.328125 34.417969 44.441406 34.53125 C 44.554688 34.648438 44.613281 34.785156 44.613281 34.949219 Z M 44.613281 34.949219 " fill-opacity="1" fill-rule="nonzero"/><path fill="#3d3d3b" d="M 39.246094 34.949219 C 39.246094 34.652344 39.1875 34.367188 39.078125 34.09375 C 38.964844 33.820312 38.804688 33.582031 38.59375 33.371094 C 38.386719 33.160156 38.148438 33 37.875 32.886719 C 37.605469 32.773438 37.320312 32.71875 37.027344 32.71875 C 36.734375 32.71875 36.449219 32.773438 36.179688 32.886719 C 35.90625 33 35.667969 33.160156 35.460938 33.371094 C 35.253906 33.582031 35.09375 33.820312 34.980469 34.09375 C 34.867188 34.367188 34.8125 34.652344 34.8125 34.949219 C 34.8125 35.242188 34.867188 35.527344 34.980469 35.800781 C 35.09375 36.074219 35.253906 36.316406 35.460938 36.523438 C 35.667969 36.734375 35.90625 36.894531 36.179688 37.007812 C 36.449219 37.121094 36.734375 37.175781 37.027344 37.175781 C 37.320312 37.175781 37.605469 37.121094 37.875 37.007812 C 38.148438 36.894531 38.386719 36.734375 38.59375 36.523438 C 38.800781 36.316406 38.964844 36.074219 39.074219 35.800781 C 39.1875 35.527344 39.246094 35.242188 39.246094 34.949219 Z M 37.027344 35.535156 C 36.867188 35.535156 36.730469 35.476562 36.617188 35.363281 C 36.5 35.25 36.445312 35.109375 36.445312 34.949219 C 36.445312 34.785156 36.5 34.648438 36.617188 34.53125 C 36.730469 34.417969 36.867188 34.359375 37.027344 34.359375 C 37.1875 34.359375 37.328125 34.417969 37.441406 34.53125 C 37.554688 34.648438 37.609375 34.785156 37.609375 34.949219 C 37.609375 35.109375 37.554688 35.246094 37.441406 35.363281 C 37.328125 35.476562 37.1875 35.535156 37.027344 35.535156 Z M 37.027344 35.535156 " fill-opacity="1" fill-rule="nonzero"/><path fill="#3d3d3b" d="M 40.527344 36.238281 C 40.234375 36.238281 39.953125 36.296875 39.679688 36.410156 C 39.410156 36.523438 39.167969 36.683594 38.960938 36.890625 C 38.753906 37.101562 38.59375 37.34375 38.480469 37.613281 C 38.367188 37.886719 38.3125 38.171875 38.3125 38.46875 C 38.3125 38.765625 38.367188 39.046875 38.480469 39.320312 C 38.59375 39.59375 38.753906 39.835938 38.960938 40.046875 C 39.167969 40.253906 39.410156 40.414062 39.679688 40.527344 C 39.953125 40.640625 40.234375 40.699219 40.527344 40.699219 C 40.824219 40.699219 41.105469 40.640625 41.375 40.527344 C 41.648438 40.414062 41.886719 40.253906 42.097656 40.046875 C 42.304688 39.835938 42.464844 39.59375 42.578125 39.320312 C 42.6875 39.046875 42.746094 38.765625 42.746094 38.46875 C 42.746094 38.171875 42.6875 37.886719 42.574219 37.617188 C 42.464844 37.34375 42.304688 37.101562 42.09375 36.894531 C 41.886719 36.683594 41.648438 36.523438 41.375 36.410156 C 41.105469 36.296875 40.824219 36.238281 40.527344 36.238281 Z M 40.527344 39.054688 C 40.367188 39.054688 40.230469 38.996094 40.117188 38.882812 C 40.003906 38.769531 39.945312 38.628906 39.945312 38.46875 C 39.945312 38.304688 40.003906 38.167969 40.117188 38.054688 C 40.230469 37.9375 40.367188 37.882812 40.527344 37.882812 C 40.691406 37.882812 40.828125 37.9375 40.941406 38.054688 C 41.054688 38.167969 41.113281 38.304688 41.113281 38.46875 C 41.113281 38.628906 41.054688 38.769531 40.941406 38.882812 C 40.828125 38.996094 40.691406 39.054688 40.527344 39.054688 Z M 40.527344 39.054688 " fill-opacity="1" fill-rule="nonzero"/><path fill="#3d3d3b" d="M 40.527344 33.65625 C 40.824219 33.65625 41.105469 33.601562 41.375 33.488281 C 41.648438 33.375 41.886719 33.214844 42.097656 33.003906 C 42.304688 32.792969 42.464844 32.554688 42.578125 32.28125 C 42.6875 32.007812 42.746094 31.722656 42.746094 31.425781 C 42.746094 31.132812 42.6875 30.847656 42.578125 30.574219 C 42.464844 30.300781 42.304688 30.058594 42.097656 29.851562 C 41.886719 29.640625 41.648438 29.480469 41.375 29.367188 C 41.105469 29.253906 40.824219 29.199219 40.527344 29.199219 C 40.234375 29.199219 39.953125 29.253906 39.679688 29.367188 C 39.410156 29.480469 39.167969 29.640625 38.960938 29.851562 C 38.753906 30.058594 38.59375 30.300781 38.480469 30.574219 C 38.367188 30.847656 38.3125 31.132812 38.3125 31.425781 C 38.3125 31.722656 38.367188 32.007812 38.480469 32.28125 C 38.59375 32.554688 38.753906 32.792969 38.960938 33.003906 C 39.167969 33.210938 39.410156 33.375 39.679688 33.488281 C 39.953125 33.601562 40.234375 33.65625 40.527344 33.65625 Z M 40.527344 30.839844 C 40.691406 30.839844 40.828125 30.898438 40.941406 31.011719 C 41.054688 31.125 41.113281 31.265625 41.113281 31.425781 C 41.113281 31.589844 41.054688 31.726562 40.941406 31.84375 C 40.828125 31.957031 40.691406 32.015625 40.527344 32.015625 C 40.367188 32.015625 40.230469 31.957031 40.117188 31.84375 C 40.003906 31.726562 39.945312 31.589844 39.945312 31.425781 C 39.945312 31.265625 40.003906 31.128906 40.117188 31.011719 C 40.230469 30.898438 40.367188 30.839844 40.527344 30.839844 Z M 40.527344 30.839844 " fill-opacity="1" fill-rule="nonzero"/><path fill="#3d3d3b" d="M 19.5625 32.71875 L 16.878906 32.71875 L 16.878906 30.019531 C 16.878906 29.792969 16.800781 29.597656 16.640625 29.4375 C 16.480469 29.277344 16.289062 29.199219 16.0625 29.199219 L 13.261719 29.199219 C 13.039062 29.199219 12.84375 29.277344 12.683594 29.4375 C 12.527344 29.597656 12.445312 29.792969 12.445312 30.019531 L 12.445312 32.71875 L 9.761719 32.71875 C 9.535156 32.71875 9.34375 32.796875 9.183594 32.957031 C 9.023438 33.117188 8.945312 33.3125 8.945312 33.539062 L 8.945312 36.355469 C 8.945312 36.582031 9.023438 36.777344 9.183594 36.9375 C 9.34375 37.097656 9.535156 37.175781 9.761719 37.175781 L 12.445312 37.175781 L 12.445312 39.875 C 12.445312 40.105469 12.527344 40.296875 12.683594 40.457031 C 12.84375 40.617188 13.039062 40.699219 13.261719 40.699219 L 16.0625 40.699219 C 16.289062 40.699219 16.480469 40.617188 16.640625 40.457031 C 16.800781 40.296875 16.878906 40.101562 16.878906 39.875 L 16.878906 37.175781 L 19.5625 37.175781 C 19.789062 37.175781 19.980469 37.097656 20.140625 36.9375 C 20.300781 36.777344 20.378906 36.582031 20.378906 36.355469 L 20.378906 33.539062 C 20.378906 33.3125 20.300781 33.117188 20.140625 32.957031 C 19.980469 32.796875 19.789062 32.71875 19.5625 32.71875 Z M 18.746094 35.535156 L 16.0625 35.535156 C 15.835938 35.535156 15.644531 35.613281 15.484375 35.773438 C 15.324219 35.933594 15.246094 36.128906 15.246094 36.355469 L 15.246094 39.054688 L 14.078125 39.054688 L 14.078125 36.355469 C 14.078125 36.128906 14 35.9375 13.839844 35.773438 C 13.679688 35.613281 13.488281 35.535156 13.261719 35.535156 L 10.578125 35.535156 L 10.578125 34.359375 L 13.261719 34.359375 C 13.488281 34.359375 13.679688 34.28125 13.839844 34.121094 C 14 33.960938 14.078125 33.765625 14.078125 33.539062 L 14.078125 30.839844 L 15.246094 30.839844 L 15.246094 33.539062 C 15.246094 33.765625 15.324219 33.960938 15.484375 34.121094 C 15.644531 34.28125 15.835938 34.359375 16.0625 34.359375 L 18.746094 34.359375 Z M 18.746094 35.535156 " fill-opacity="1" fill-rule="nonzero"/></svg>