<svg xmlns="http://www.w3.org/2000/svg" xmlns:xlink="http://www.w3.org/1999/xlink" width="75" zoomAndPan="magnify" viewBox="0 0 56.25 56.249997" height="75" preserveAspectRatio="xMidYMid meet" version="1.0"><defs><clipPath id="215295d759"><path d="M 1.148438 1.148438 L 54.4375 1.148438 L 54.4375 54.4375 L 1.148438 54.4375 Z M 1.148438 1.148438 " clip-rule="nonzero"/></clipPath></defs><path fill="#ff385c" d="M 38.648438 14.964844 C 38.777344 14.964844 38.902344 14.9375 39.023438 14.886719 C 39.144531 14.835938 39.253906 14.765625 39.34375 14.675781 C 39.4375 14.582031 39.507812 14.476562 39.558594 14.355469 C 39.609375 14.234375 39.632812 14.105469 39.632812 13.976562 L 39.632812 10.027344 C 39.632812 9.898438 39.609375 9.773438 39.558594 9.652344 C 39.507812 9.53125 39.4375 9.421875 39.34375 9.332031 C 39.253906 9.238281 39.144531 9.167969 39.023438 9.117188 C 38.902344 9.066406 38.777344 9.042969 38.648438 9.042969 C 38.515625 9.042969 38.390625 9.066406 38.269531 9.117188 C 38.148438 9.167969 38.042969 9.238281 37.949219 9.332031 C 37.855469 9.421875 37.785156 9.53125 37.734375 9.652344 C 37.683594 9.773438 37.660156 9.898438 37.660156 10.027344 L 37.660156 13.976562 C 37.660156 14.105469 37.683594 14.234375 37.734375 14.355469 C 37.785156 14.476562 37.855469 14.582031 37.949219 14.675781 C 38.042969 14.765625 38.148438 14.835938 38.269531 14.886719 C 38.390625 14.9375 38.515625 14.964844 38.648438 14.964844 Z M 38.648438 14.964844 " fill-opacity="1" fill-rule="nonzero"/><path fill="#ff385c" d="M 38.648438 24.832031 C 38.515625 24.832031 38.390625 24.855469 38.269531 24.90625 C 38.148438 24.957031 38.042969 25.027344 37.949219 25.121094 C 37.855469 25.214844 37.785156 25.320312 37.734375 25.441406 C 37.683594 25.5625 37.660156 25.6875 37.660156 25.816406 L 37.660156 29.765625 C 37.660156 29.898438 37.683594 30.023438 37.734375 30.144531 C 37.785156 30.265625 37.855469 30.371094 37.949219 30.464844 C 38.042969 30.554688 38.148438 30.628906 38.269531 30.675781 C 38.390625 30.726562 38.515625 30.753906 38.648438 30.753906 C 38.777344 30.753906 38.902344 30.726562 39.023438 30.675781 C 39.144531 30.628906 39.253906 30.554688 39.34375 30.464844 C 39.4375 30.371094 39.507812 30.265625 39.558594 30.144531 C 39.609375 30.023438 39.632812 29.898438 39.632812 29.765625 L 39.632812 25.816406 C 39.632812 25.6875 39.609375 25.5625 39.558594 25.441406 C 39.507812 25.320312 39.4375 25.214844 39.34375 25.121094 C 39.253906 25.027344 39.144531 24.957031 39.023438 24.90625 C 38.902344 24.855469 38.777344 24.832031 38.648438 24.832031 Z M 38.648438 24.832031 " fill-opacity="1" fill-rule="nonzero"/><path fill="#ff385c" d="M 16.9375 46.542969 C 17.453125 46.542969 17.96875 46.492188 18.476562 46.390625 C 18.984375 46.289062 19.480469 46.140625 19.957031 45.941406 C 20.4375 45.742188 20.890625 45.5 21.324219 45.210938 C 21.753906 44.921875 22.152344 44.597656 22.519531 44.230469 C 22.886719 43.863281 23.214844 43.464844 23.5 43.035156 C 23.789062 42.601562 24.03125 42.148438 24.230469 41.667969 C 24.429688 41.191406 24.578125 40.695312 24.679688 40.1875 C 24.78125 39.679688 24.832031 39.164062 24.832031 38.648438 C 24.832031 38.128906 24.78125 37.617188 24.679688 37.105469 C 24.578125 36.597656 24.429688 36.105469 24.230469 35.625 C 24.03125 35.148438 23.789062 34.691406 23.5 34.261719 C 23.214844 33.832031 22.886719 33.429688 22.519531 33.066406 C 22.152344 32.699219 21.753906 32.371094 21.324219 32.082031 C 20.890625 31.796875 20.4375 31.550781 19.957031 31.351562 C 19.480469 31.15625 18.984375 31.003906 18.476562 30.902344 C 17.96875 30.804688 17.453125 30.753906 16.9375 30.753906 C 16.417969 30.753906 15.90625 30.804688 15.398438 30.902344 C 14.886719 31.003906 14.394531 31.15625 13.914062 31.351562 C 13.4375 31.550781 12.980469 31.796875 12.550781 32.082031 C 12.121094 32.371094 11.722656 32.699219 11.355469 33.066406 C 10.988281 33.429688 10.660156 33.832031 10.371094 34.261719 C 10.085938 34.691406 9.839844 35.148438 9.644531 35.625 C 9.445312 36.105469 9.292969 36.597656 9.195312 37.105469 C 9.09375 37.617188 9.042969 38.128906 9.042969 38.648438 C 9.042969 39.164062 9.09375 39.679688 9.195312 40.1875 C 9.292969 40.695312 9.445312 41.191406 9.644531 41.667969 C 9.839844 42.148438 10.085938 42.601562 10.371094 43.035156 C 10.660156 43.464844 10.988281 43.863281 11.355469 44.230469 C 11.722656 44.597656 12.121094 44.921875 12.550781 45.210938 C 12.980469 45.5 13.4375 45.742188 13.914062 45.941406 C 14.394531 46.140625 14.886719 46.289062 15.398438 46.390625 C 15.90625 46.492188 16.417969 46.542969 16.9375 46.542969 Z M 16.9375 32.726562 C 17.183594 32.726562 17.429688 32.738281 17.671875 32.769531 C 17.917969 32.796875 18.160156 32.84375 18.398438 32.902344 C 18.636719 32.960938 18.871094 33.035156 19.101562 33.125 C 19.332031 33.210938 19.554688 33.316406 19.769531 33.429688 C 19.988281 33.546875 20.195312 33.679688 20.398438 33.820312 C 20.597656 33.964844 20.789062 34.117188 20.972656 34.285156 C 21.152344 34.449219 21.324219 34.628906 21.484375 34.816406 C 21.640625 35.003906 21.789062 35.199219 21.925781 35.40625 C 22.058594 35.613281 22.179688 35.828125 22.289062 36.046875 C 22.394531 36.269531 22.492188 36.496094 22.570312 36.730469 C 22.648438 36.960938 22.714844 37.199219 22.765625 37.441406 C 22.816406 37.679688 22.851562 37.925781 22.871094 38.171875 C 22.890625 38.414062 22.894531 38.660156 22.882812 38.90625 C 22.871094 39.152344 22.847656 39.398438 22.804688 39.640625 C 22.765625 39.882812 22.707031 40.121094 22.636719 40.359375 C 22.566406 40.59375 22.480469 40.824219 22.378906 41.050781 C 22.28125 41.273438 22.167969 41.492188 22.039062 41.703125 C 21.914062 41.914062 21.773438 42.117188 21.621094 42.3125 C 21.46875 42.503906 21.304688 42.6875 21.128906 42.859375 C 20.953125 43.035156 20.769531 43.195312 20.574219 43.34375 C 20.378906 43.496094 20.171875 43.632812 19.960938 43.757812 C 19.75 43.878906 19.527344 43.992188 19.300781 44.089844 C 19.074219 44.1875 18.84375 44.269531 18.609375 44.335938 C 18.371094 44.40625 18.132812 44.457031 17.886719 44.496094 C 17.644531 44.535156 17.398438 44.558594 17.152344 44.566406 C 16.90625 44.574219 16.660156 44.566406 16.417969 44.542969 C 16.171875 44.519531 15.929688 44.480469 15.6875 44.429688 C 15.449219 44.375 15.210938 44.308594 14.980469 44.222656 C 14.746094 44.140625 14.523438 44.042969 14.300781 43.933594 C 14.082031 43.824219 13.871094 43.699219 13.664062 43.5625 C 13.460938 43.421875 13.265625 43.273438 13.078125 43.113281 C 12.894531 42.949219 12.71875 42.777344 12.554688 42.59375 L 12.644531 42.59375 C 12.972656 42.523438 13.28125 42.394531 13.566406 42.21875 C 13.851562 42.039062 14.101562 41.820312 14.3125 41.558594 C 14.523438 41.292969 14.683594 41.003906 14.796875 40.683594 C 14.90625 40.367188 14.964844 40.039062 14.964844 39.703125 L 14.964844 37.589844 C 14.964844 37.253906 14.90625 36.925781 14.796875 36.609375 C 14.683594 36.289062 14.523438 36 14.3125 35.738281 C 14.101562 35.476562 13.851562 35.253906 13.566406 35.078125 C 13.28125 34.898438 12.972656 34.773438 12.644531 34.699219 L 12.546875 34.699219 C 13.105469 34.074219 13.765625 33.589844 14.53125 33.246094 C 15.296875 32.902344 16.097656 32.730469 16.9375 32.726562 Z M 11.015625 38.648438 C 11.019531 37.890625 11.160156 37.160156 11.441406 36.457031 L 12.21875 36.632812 C 12.449219 36.6875 12.636719 36.804688 12.78125 36.988281 C 12.925781 37.175781 12.996094 37.386719 12.988281 37.621094 L 12.988281 39.734375 C 12.996094 39.96875 12.925781 40.179688 12.78125 40.363281 C 12.636719 40.550781 12.449219 40.667969 12.21875 40.71875 L 11.441406 40.898438 C 11.152344 40.175781 11.011719 39.425781 11.015625 38.648438 Z M 11.015625 38.648438 " fill-opacity="1" fill-rule="nonzero"/><path fill="#ff385c" d="M 25.816406 22.859375 L 27.792969 22.859375 C 27.921875 22.859375 28.046875 22.832031 28.167969 22.78125 C 28.289062 22.734375 28.398438 22.660156 28.488281 22.570312 C 28.582031 22.476562 28.652344 22.371094 28.703125 22.25 C 28.753906 22.128906 28.777344 22 28.777344 21.871094 C 28.777344 21.738281 28.753906 21.613281 28.703125 21.492188 C 28.652344 21.371094 28.582031 21.265625 28.488281 21.171875 C 28.398438 21.082031 28.289062 21.007812 28.167969 20.960938 C 28.046875 20.910156 27.921875 20.882812 27.792969 20.882812 L 25.816406 20.882812 C 25.6875 20.882812 25.5625 20.910156 25.441406 20.960938 C 25.320312 21.007812 25.214844 21.082031 25.121094 21.171875 C 25.027344 21.265625 24.957031 21.371094 24.90625 21.492188 C 24.855469 21.613281 24.832031 21.738281 24.832031 21.871094 C 24.832031 22 24.855469 22.128906 24.90625 22.25 C 24.957031 22.371094 25.027344 22.476562 25.121094 22.570312 C 25.214844 22.660156 25.320312 22.734375 25.441406 22.78125 C 25.5625 22.832031 25.6875 22.859375 25.816406 22.859375 Z M 25.816406 22.859375 " fill-opacity="1" fill-rule="nonzero"/><path fill="#ff385c" d="M 6.082031 22.859375 L 8.054688 22.859375 C 8.1875 22.859375 8.3125 22.832031 8.433594 22.78125 C 8.554688 22.734375 8.660156 22.660156 8.753906 22.570312 C 8.84375 22.476562 8.917969 22.371094 8.96875 22.25 C 9.015625 22.128906 9.042969 22 9.042969 21.871094 C 9.042969 21.738281 9.015625 21.613281 8.96875 21.492188 C 8.917969 21.371094 8.84375 21.265625 8.753906 21.171875 C 8.660156 21.082031 8.554688 21.007812 8.433594 20.960938 C 8.3125 20.910156 8.1875 20.882812 8.054688 20.882812 L 6.082031 20.882812 C 5.949219 20.882812 5.824219 20.910156 5.703125 20.960938 C 5.582031 21.007812 5.476562 21.082031 5.382812 21.171875 C 5.292969 21.265625 5.21875 21.371094 5.167969 21.492188 C 5.121094 21.613281 5.09375 21.738281 5.09375 21.871094 C 5.09375 22 5.121094 22.128906 5.167969 22.25 C 5.21875 22.371094 5.292969 22.476562 5.382812 22.570312 C 5.476562 22.660156 5.582031 22.734375 5.703125 22.78125 C 5.824219 22.832031 5.949219 22.859375 6.082031 22.859375 Z M 6.082031 22.859375 " fill-opacity="1" fill-rule="nonzero"/><path fill="#ff385c" d="M 12.003906 22.859375 L 21.871094 22.859375 C 22 22.859375 22.128906 22.832031 22.25 22.78125 C 22.371094 22.734375 22.476562 22.660156 22.570312 22.570312 C 22.660156 22.476562 22.734375 22.371094 22.78125 22.25 C 22.832031 22.128906 22.859375 22 22.859375 21.871094 C 22.859375 21.738281 22.832031 21.613281 22.78125 21.492188 C 22.734375 21.371094 22.660156 21.265625 22.570312 21.171875 C 22.476562 21.082031 22.371094 21.007812 22.25 20.960938 C 22.128906 20.910156 22 20.882812 21.871094 20.882812 L 12.003906 20.882812 C 11.871094 20.882812 11.746094 20.910156 11.625 20.960938 C 11.503906 21.007812 11.398438 21.082031 11.304688 21.171875 C 11.210938 21.265625 11.140625 21.371094 11.089844 21.492188 C 11.039062 21.613281 11.015625 21.738281 11.015625 21.871094 C 11.015625 22 11.039062 22.128906 11.089844 22.25 C 11.140625 22.371094 11.210938 22.476562 11.304688 22.570312 C 11.398438 22.660156 11.503906 22.734375 11.625 22.78125 C 11.746094 22.832031 11.871094 22.859375 12.003906 22.859375 Z M 12.003906 22.859375 " fill-opacity="1" fill-rule="nonzero"/><g clip-path="url(#215295d759)"><path fill="#ff385c" d="M 51.476562 32.726562 L 43.582031 32.726562 L 43.582031 4.109375 C 43.582031 3.714844 43.507812 3.335938 43.355469 2.976562 C 43.207031 2.613281 42.992188 2.292969 42.714844 2.015625 C 42.4375 1.738281 42.117188 1.523438 41.753906 1.371094 C 41.390625 1.222656 41.011719 1.148438 40.621094 1.148438 L 14.964844 1.148438 C 14.570312 1.148438 14.191406 1.222656 13.828125 1.371094 C 13.46875 1.523438 13.148438 1.738281 12.871094 2.015625 C 12.59375 2.292969 12.378906 2.613281 12.226562 2.976562 C 12.078125 3.335938 12.003906 3.714844 12.003906 4.109375 L 12.003906 16.9375 L 4.109375 16.9375 C 3.714844 16.9375 3.335938 17.011719 2.976562 17.160156 C 2.613281 17.3125 2.292969 17.527344 2.015625 17.804688 C 1.738281 18.082031 1.523438 18.402344 1.371094 18.765625 C 1.222656 19.128906 1.148438 19.503906 1.148438 19.898438 L 1.148438 51.476562 C 1.148438 51.867188 1.222656 52.246094 1.371094 52.609375 C 1.523438 52.972656 1.738281 53.292969 2.015625 53.570312 C 2.292969 53.847656 2.613281 54.0625 2.976562 54.210938 C 3.335938 54.363281 3.714844 54.4375 4.109375 54.4375 L 51.476562 54.4375 C 51.867188 54.4375 52.246094 54.363281 52.609375 54.210938 C 52.972656 54.0625 53.292969 53.847656 53.570312 53.570312 C 53.847656 53.292969 54.0625 52.972656 54.210938 52.609375 C 54.363281 52.246094 54.4375 51.867188 54.4375 51.476562 L 54.4375 35.6875 C 54.4375 35.292969 54.363281 34.917969 54.210938 34.554688 C 54.0625 34.191406 53.847656 33.871094 53.570312 33.59375 C 53.292969 33.316406 52.972656 33.101562 52.609375 32.953125 C 52.246094 32.800781 51.867188 32.726562 51.476562 32.726562 Z M 32.726562 32.726562 L 32.726562 22.859375 L 41.609375 22.859375 L 41.609375 32.726562 Z M 13.976562 4.109375 C 13.976562 3.976562 14 3.851562 14.050781 3.730469 C 14.101562 3.609375 14.171875 3.503906 14.265625 3.410156 C 14.359375 3.316406 14.464844 3.246094 14.585938 3.195312 C 14.707031 3.144531 14.832031 3.121094 14.964844 3.121094 L 23.234375 3.121094 L 22.246094 5.09375 L 13.976562 5.09375 Z M 13.976562 7.066406 L 22.859375 7.066406 C 23.261719 7.066406 23.554688 6.886719 23.734375 6.527344 L 25.441406 3.121094 L 40.621094 3.121094 C 40.75 3.121094 40.878906 3.144531 41 3.195312 C 41.121094 3.246094 41.226562 3.316406 41.320312 3.410156 C 41.410156 3.503906 41.484375 3.609375 41.53125 3.730469 C 41.582031 3.851562 41.609375 3.976562 41.609375 4.109375 L 41.609375 20.882812 L 32.726562 20.882812 L 32.726562 19.898438 C 32.726562 19.503906 32.652344 19.128906 32.5 18.765625 C 32.351562 18.402344 32.136719 18.082031 31.859375 17.804688 C 31.582031 17.527344 31.261719 17.3125 30.898438 17.160156 C 30.535156 17.011719 30.160156 16.9375 29.765625 16.9375 L 13.976562 16.9375 Z M 4.109375 18.910156 L 29.765625 18.910156 C 29.898438 18.910156 30.023438 18.933594 30.144531 18.984375 C 30.265625 19.035156 30.371094 19.105469 30.464844 19.199219 C 30.554688 19.292969 30.628906 19.398438 30.675781 19.519531 C 30.726562 19.640625 30.753906 19.765625 30.753906 19.898438 L 30.753906 24.832031 L 3.121094 24.832031 L 3.121094 19.898438 C 3.121094 19.765625 3.144531 19.640625 3.195312 19.519531 C 3.246094 19.398438 3.316406 19.292969 3.410156 19.199219 C 3.503906 19.105469 3.609375 19.035156 3.730469 18.984375 C 3.851562 18.933594 3.976562 18.910156 4.109375 18.910156 Z M 3.121094 51.476562 L 3.121094 26.804688 L 30.753906 26.804688 L 30.753906 32.726562 L 29.765625 32.726562 C 29.371094 32.726562 28.996094 32.800781 28.632812 32.953125 C 28.269531 33.101562 27.949219 33.316406 27.671875 33.59375 C 27.394531 33.871094 27.179688 34.191406 27.03125 34.554688 C 26.878906 34.917969 26.804688 35.292969 26.804688 35.6875 L 26.804688 48.515625 L 6.082031 48.515625 C 5.949219 48.515625 5.824219 48.539062 5.703125 48.589844 C 5.582031 48.640625 5.476562 48.710938 5.382812 48.804688 C 5.292969 48.898438 5.21875 49.003906 5.167969 49.125 C 5.121094 49.246094 5.09375 49.371094 5.09375 49.503906 C 5.09375 49.632812 5.121094 49.757812 5.167969 49.878906 C 5.21875 50 5.292969 50.109375 5.382812 50.199219 C 5.476562 50.292969 5.582031 50.363281 5.703125 50.414062 C 5.824219 50.464844 5.949219 50.488281 6.082031 50.488281 L 26.804688 50.488281 L 26.804688 51.476562 C 26.808594 51.816406 26.867188 52.144531 26.984375 52.464844 L 4.109375 52.464844 C 3.976562 52.464844 3.851562 52.4375 3.730469 52.386719 C 3.609375 52.335938 3.503906 52.265625 3.410156 52.175781 C 3.316406 52.082031 3.246094 51.976562 3.195312 51.855469 C 3.144531 51.734375 3.121094 51.605469 3.121094 51.476562 Z M 52.464844 51.476562 C 52.464844 51.605469 52.4375 51.734375 52.386719 51.855469 C 52.335938 51.976562 52.265625 52.082031 52.175781 52.175781 C 52.082031 52.265625 51.976562 52.335938 51.855469 52.386719 C 51.734375 52.4375 51.605469 52.464844 51.476562 52.464844 L 29.765625 52.464844 C 29.632812 52.464844 29.507812 52.4375 29.386719 52.386719 C 29.265625 52.335938 29.160156 52.265625 29.066406 52.175781 C 28.976562 52.082031 28.902344 51.976562 28.855469 51.855469 C 28.804688 51.734375 28.777344 51.605469 28.777344 51.476562 L 28.777344 35.6875 C 28.777344 35.554688 28.804688 35.429688 28.855469 35.308594 C 28.902344 35.1875 28.976562 35.082031 29.066406 34.988281 C 29.160156 34.894531 29.265625 34.824219 29.386719 34.773438 C 29.507812 34.726562 29.632812 34.699219 29.765625 34.699219 L 51.476562 34.699219 C 51.605469 34.699219 51.734375 34.726562 51.855469 34.773438 C 51.976562 34.824219 52.082031 34.894531 52.175781 34.988281 C 52.265625 35.082031 52.335938 35.1875 52.386719 35.308594 C 52.4375 35.429688 52.464844 35.554688 52.464844 35.6875 Z M 52.464844 51.476562 " fill-opacity="1" fill-rule="nonzero"/></g><path fill="#ff385c" d="M 43.582031 36.671875 L 31.738281 36.671875 C 31.609375 36.671875 31.484375 36.699219 31.363281 36.75 C 31.242188 36.796875 31.132812 36.871094 31.042969 36.960938 C 30.949219 37.054688 30.878906 37.160156 30.828125 37.28125 C 30.777344 37.402344 30.753906 37.53125 30.753906 37.660156 L 30.753906 49.503906 C 30.753906 49.632812 30.777344 49.757812 30.828125 49.878906 C 30.878906 50 30.949219 50.109375 31.042969 50.199219 C 31.132812 50.292969 31.242188 50.363281 31.363281 50.414062 C 31.484375 50.464844 31.609375 50.488281 31.738281 50.488281 L 43.582031 50.488281 C 43.710938 50.488281 43.839844 50.464844 43.960938 50.414062 C 44.078125 50.363281 44.1875 50.292969 44.277344 50.199219 C 44.371094 50.109375 44.441406 50 44.492188 49.878906 C 44.542969 49.757812 44.566406 49.632812 44.566406 49.503906 L 44.566406 37.660156 C 44.566406 37.53125 44.542969 37.402344 44.492188 37.28125 C 44.441406 37.160156 44.371094 37.054688 44.277344 36.960938 C 44.1875 36.871094 44.078125 36.796875 43.960938 36.75 C 43.839844 36.699219 43.710938 36.671875 43.582031 36.671875 Z M 42.59375 48.515625 L 32.726562 48.515625 L 32.726562 38.648438 L 42.59375 38.648438 Z M 42.59375 48.515625 " fill-opacity="1" fill-rule="nonzero"/><path fill="#ff385c" d="M 49.503906 42.59375 L 47.527344 42.59375 C 47.398438 42.59375 47.273438 42.621094 47.152344 42.667969 C 47.03125 42.71875 46.921875 42.792969 46.832031 42.882812 C 46.738281 42.976562 46.667969 43.082031 46.617188 43.203125 C 46.566406 43.324219 46.542969 43.449219 46.542969 43.582031 C 46.542969 43.710938 46.566406 43.839844 46.617188 43.960938 C 46.667969 44.078125 46.738281 44.1875 46.832031 44.277344 C 46.921875 44.371094 47.03125 44.441406 47.152344 44.492188 C 47.273438 44.542969 47.398438 44.566406 47.527344 44.566406 L 49.503906 44.566406 C 49.632812 44.566406 49.757812 44.542969 49.878906 44.492188 C 50 44.441406 50.109375 44.371094 50.199219 44.277344 C 50.292969 44.1875 50.363281 44.078125 50.414062 43.960938 C 50.464844 43.839844 50.488281 43.710938 50.488281 43.582031 C 50.488281 43.449219 50.464844 43.324219 50.414062 43.203125 C 50.363281 43.082031 50.292969 42.976562 50.199219 42.882812 C 50.109375 42.792969 50 42.71875 49.878906 42.667969 C 49.757812 42.621094 49.632812 42.59375 49.503906 42.59375 Z M 49.503906 42.59375 " fill-opacity="1" fill-rule="nonzero"/><path fill="#ff385c" d="M 49.503906 38.648438 L 47.527344 38.648438 C 47.398438 38.648438 47.273438 38.671875 47.152344 38.722656 C 47.03125 38.773438 46.921875 38.84375 46.832031 38.9375 C 46.738281 39.027344 46.667969 39.136719 46.617188 39.257812 C 46.566406 39.378906 46.542969 39.503906 46.542969 39.632812 C 46.542969 39.765625 46.566406 39.890625 46.617188 40.011719 C 46.667969 40.132812 46.738281 40.238281 46.832031 40.332031 C 46.921875 40.425781 47.03125 40.496094 47.152344 40.546875 C 47.273438 40.597656 47.398438 40.621094 47.527344 40.621094 L 49.503906 40.621094 C 49.632812 40.621094 49.757812 40.597656 49.878906 40.546875 C 50 40.496094 50.109375 40.425781 50.199219 40.332031 C 50.292969 40.238281 50.363281 40.132812 50.414062 40.011719 C 50.464844 39.890625 50.488281 39.765625 50.488281 39.632812 C 50.488281 39.503906 50.464844 39.378906 50.414062 39.257812 C 50.363281 39.136719 50.292969 39.027344 50.199219 38.9375 C 50.109375 38.84375 50 38.773438 49.878906 38.722656 C 49.757812 38.671875 49.632812 38.648438 49.503906 38.648438 Z M 49.503906 38.648438 " fill-opacity="1" fill-rule="nonzero"/><path fill="#ff385c" d="M 49.503906 46.542969 L 47.527344 46.542969 C 47.398438 46.542969 47.273438 46.566406 47.152344 46.617188 C 47.03125 46.667969 46.921875 46.738281 46.832031 46.832031 C 46.738281 46.921875 46.667969 47.03125 46.617188 47.152344 C 46.566406 47.273438 46.542969 47.398438 46.542969 47.527344 C 46.542969 47.660156 46.566406 47.785156 46.617188 47.90625 C 46.667969 48.027344 46.738281 48.132812 46.832031 48.226562 C 46.921875 48.320312 47.03125 48.390625 47.152344 48.441406 C 47.273438 48.492188 47.398438 48.515625 47.527344 48.515625 L 49.503906 48.515625 C 49.632812 48.515625 49.757812 48.492188 49.878906 48.441406 C 50 48.390625 50.109375 48.320312 50.199219 48.226562 C 50.292969 48.132812 50.363281 48.027344 50.414062 47.90625 C 50.464844 47.785156 50.488281 47.660156 50.488281 47.527344 C 50.488281 47.398438 50.464844 47.273438 50.414062 47.152344 C 50.363281 47.03125 50.292969 46.921875 50.199219 46.832031 C 50.109375 46.738281 50 46.667969 49.878906 46.617188 C 49.757812 46.566406 49.632812 46.542969 49.503906 46.542969 Z M 49.503906 46.542969 " fill-opacity="1" fill-rule="nonzero"/></svg>