<svg xmlns="http://www.w3.org/2000/svg" xmlns:xlink="http://www.w3.org/1999/xlink" width="75" zoomAndPan="magnify" viewBox="0 0 56.25 56.249997" height="75" preserveAspectRatio="xMidYMid meet" version="1.0"><defs><clipPath id="61f940f5ef"><path d="M 0.902344 0 L 54.929688 0 L 54.929688 55.511719 L 0.902344 55.511719 Z M 0.902344 0 " clip-rule="nonzero"/></clipPath></defs><g clip-path="url(#61f940f5ef)"><path fill="#ff385c" d="M 30.710938 0 C 30.554688 0 30.402344 0.0351562 30.265625 0.113281 L 6.996094 12.636719 C 6.695312 12.800781 6.507812 13.113281 6.507812 13.453125 L 6.507812 19.238281 C 6.507812 19.5625 6.683594 19.863281 6.964844 20.03125 C 7.246094 20.199219 7.59375 20.207031 7.882812 20.050781 L 10.234375 18.785156 L 10.234375 31.265625 L 1.414062 36.011719 C 1.113281 36.175781 0.925781 36.484375 0.925781 36.824219 L 0.925781 41.441406 C 0.925781 41.765625 1.101562 42.066406 1.378906 42.234375 C 1.660156 42.402344 2.011719 42.410156 2.300781 42.253906 L 4.648438 40.988281 L 4.648438 53.660156 L 1.855469 53.660156 C 1.339844 53.660156 0.925781 54.070312 0.925781 54.585938 C 0.925781 55.097656 1.339844 55.511719 1.855469 55.511719 L 39.085938 55.511719 C 39.601562 55.511719 40.015625 55.097656 40.015625 54.585938 C 40.015625 54.070312 39.601562 53.660156 39.085938 53.660156 L 36.292969 53.660156 L 36.292969 49.957031 L 53.976562 49.957031 C 54.492188 49.957031 54.910156 49.546875 54.910156 49.035156 C 54.910156 48.519531 54.492188 48.109375 53.976562 48.109375 L 51.183594 48.109375 L 51.183594 18.785156 L 53.535156 20.050781 C 53.671875 20.125 53.824219 20.160156 53.976562 20.160156 C 54.140625 20.160156 54.308594 20.117188 54.453125 20.03125 C 54.734375 19.863281 54.910156 19.5625 54.910156 19.238281 L 54.910156 13.453125 C 54.910156 13.113281 54.71875 12.800781 54.421875 12.636719 L 31.152344 0.113281 C 31.015625 0.0351562 30.863281 0 30.710938 0 Z M 30.710938 1.976562 L 53.046875 14.003906 L 53.046875 17.683594 L 31.152344 5.894531 C 31.015625 5.820312 30.863281 5.78125 30.710938 5.78125 C 30.554688 5.78125 30.402344 5.820312 30.265625 5.894531 L 8.371094 17.683594 L 8.371094 14.003906 Z M 30.710938 7.761719 L 49.324219 17.78125 L 49.324219 38.855469 L 42.808594 38.855469 C 42.292969 38.855469 41.878906 39.269531 41.878906 39.78125 C 41.878906 40.296875 42.292969 40.707031 42.808594 40.707031 L 49.324219 40.707031 L 49.324219 48.109375 L 36.292969 48.109375 L 36.292969 41.039062 L 38.542969 42.253906 C 38.683594 42.328125 38.835938 42.367188 38.988281 42.367188 C 39.152344 42.367188 39.320312 42.324219 39.464844 42.234375 C 39.746094 42.066406 39.917969 41.765625 39.917969 41.441406 L 39.917969 36.824219 C 39.917969 36.484375 39.730469 36.175781 39.429688 36.011719 L 34.402344 33.304688 L 35.363281 33.304688 C 35.878906 33.304688 36.292969 32.894531 36.292969 32.378906 C 36.292969 31.867188 35.878906 31.457031 35.363281 31.457031 L 33.5 31.457031 C 33.007812 31.457031 32.609375 31.84375 32.582031 32.324219 L 27.53125 29.605469 L 27.917969 29.605469 C 28.433594 29.605469 28.847656 29.191406 28.847656 28.679688 C 28.847656 28.167969 28.433594 27.753906 27.917969 27.753906 L 26.054688 27.753906 C 25.660156 27.753906 25.328125 28 25.195312 28.347656 L 20.863281 26.015625 C 20.585938 25.867188 20.257812 25.867188 19.976562 26.015625 L 12.09375 30.257812 L 12.09375 17.78125 Z M 18.609375 18.503906 C 18.09375 18.503906 17.679688 18.914062 17.679688 19.429688 C 17.679688 19.941406 18.09375 20.355469 18.609375 20.355469 L 20.472656 20.355469 C 20.988281 20.355469 21.402344 19.941406 21.402344 19.429688 C 21.402344 18.914062 20.988281 18.503906 20.472656 18.503906 Z M 26.054688 18.503906 C 25.539062 18.503906 25.125 18.914062 25.125 19.429688 C 25.125 19.941406 25.539062 20.355469 26.054688 20.355469 L 27.917969 20.355469 C 28.433594 20.355469 28.847656 19.941406 28.847656 19.429688 C 28.847656 18.914062 28.433594 18.503906 27.917969 18.503906 Z M 33.5 18.503906 C 32.984375 18.503906 32.570312 18.914062 32.570312 19.429688 C 32.570312 19.941406 32.984375 20.355469 33.5 20.355469 L 35.363281 20.355469 C 35.878906 20.355469 36.292969 19.941406 36.292969 19.429688 C 36.292969 18.914062 35.878906 18.503906 35.363281 18.503906 Z M 40.945312 18.503906 C 40.429688 18.503906 40.015625 18.914062 40.015625 19.429688 C 40.015625 19.941406 40.429688 20.355469 40.945312 20.355469 L 42.808594 20.355469 C 43.324219 20.355469 43.738281 19.941406 43.738281 19.429688 C 43.738281 18.914062 43.324219 18.503906 42.808594 18.503906 Z M 18.609375 22.203125 C 18.09375 22.203125 17.679688 22.617188 17.679688 23.128906 C 17.679688 23.640625 18.09375 24.054688 18.609375 24.054688 L 20.472656 24.054688 C 20.988281 24.054688 21.402344 23.640625 21.402344 23.128906 C 21.402344 22.617188 20.988281 22.203125 20.472656 22.203125 Z M 26.054688 22.203125 C 25.539062 22.203125 25.125 22.617188 25.125 23.128906 C 25.125 23.640625 25.539062 24.054688 26.054688 24.054688 L 27.917969 24.054688 C 28.433594 24.054688 28.847656 23.640625 28.847656 23.128906 C 28.847656 22.617188 28.433594 22.203125 27.917969 22.203125 Z M 33.5 22.203125 C 32.984375 22.203125 32.570312 22.617188 32.570312 23.128906 C 32.570312 23.640625 32.984375 24.054688 33.5 24.054688 L 35.363281 24.054688 C 35.878906 24.054688 36.292969 23.640625 36.292969 23.128906 C 36.292969 22.617188 35.878906 22.203125 35.363281 22.203125 Z M 40.945312 22.203125 C 40.429688 22.203125 40.015625 22.617188 40.015625 23.128906 C 40.015625 23.640625 40.429688 24.054688 40.945312 24.054688 L 42.808594 24.054688 C 43.324219 24.054688 43.738281 23.640625 43.738281 23.128906 C 43.738281 22.617188 43.324219 22.203125 42.808594 22.203125 Z M 33.5 27.753906 C 32.984375 27.753906 32.570312 28.167969 32.570312 28.679688 C 32.570312 29.191406 32.984375 29.605469 33.5 29.605469 L 35.363281 29.605469 C 35.878906 29.605469 36.292969 29.191406 36.292969 28.679688 C 36.292969 28.167969 35.878906 27.753906 35.363281 27.753906 Z M 40.945312 27.753906 C 40.429688 27.753906 40.015625 28.167969 40.015625 28.679688 C 40.015625 29.191406 40.429688 29.605469 40.945312 29.605469 L 42.808594 29.605469 C 43.324219 29.605469 43.738281 29.191406 43.738281 28.679688 C 43.738281 28.167969 43.324219 27.753906 42.808594 27.753906 Z M 20.421875 27.882812 L 38.058594 37.378906 L 38.058594 39.886719 L 20.863281 30.632812 C 20.730469 30.554688 20.578125 30.515625 20.421875 30.515625 C 20.265625 30.515625 20.117188 30.554688 19.976562 30.632812 L 2.785156 39.886719 L 2.785156 37.378906 Z M 40.945312 31.457031 C 40.429688 31.457031 40.015625 31.867188 40.015625 32.378906 C 40.015625 32.894531 40.429688 33.304688 40.945312 33.304688 L 42.808594 33.304688 C 43.324219 33.304688 43.738281 32.894531 43.738281 32.378906 C 43.738281 31.867188 43.324219 31.457031 42.808594 31.457031 Z M 20.421875 32.496094 L 34.433594 40.039062 L 34.433594 53.660156 L 19.535156 53.660156 C 19.535156 53.644531 19.539062 53.628906 19.539062 53.613281 L 19.539062 46.210938 C 19.539062 45.191406 18.703125 44.359375 17.679688 44.359375 L 12.09375 44.359375 C 11.070312 44.359375 10.234375 45.191406 10.234375 46.210938 L 10.234375 53.613281 C 10.234375 53.628906 10.238281 53.644531 10.238281 53.660156 L 6.507812 53.660156 L 6.507812 39.984375 Z M 11.164062 40.707031 C 10.648438 40.707031 10.234375 41.121094 10.234375 41.632812 C 10.234375 42.144531 10.648438 42.558594 11.164062 42.558594 L 13.023438 42.558594 C 13.542969 42.558594 13.957031 42.144531 13.957031 41.632812 C 13.957031 41.121094 13.542969 40.707031 13.023438 40.707031 Z M 16.746094 40.707031 C 16.230469 40.707031 15.816406 41.121094 15.816406 41.632812 C 15.816406 42.144531 16.230469 42.558594 16.746094 42.558594 L 18.609375 42.558594 C 19.125 42.558594 19.539062 42.144531 19.539062 41.632812 C 19.539062 41.121094 19.125 40.707031 18.609375 40.707031 Z M 22.332031 40.707031 C 21.816406 40.707031 21.402344 41.121094 21.402344 41.632812 C 21.402344 42.144531 21.816406 42.558594 22.332031 42.558594 L 24.195312 42.558594 C 24.710938 42.558594 25.125 42.144531 25.125 41.632812 C 25.125 41.121094 24.710938 40.707031 24.195312 40.707031 Z M 27.917969 40.707031 C 27.402344 40.707031 26.984375 41.121094 26.984375 41.632812 C 26.984375 42.144531 27.402344 42.558594 27.917969 42.558594 L 29.777344 42.558594 C 30.292969 42.558594 30.710938 42.144531 30.710938 41.632812 C 30.710938 41.121094 30.292969 40.707031 29.777344 40.707031 Z M 22.332031 44.40625 C 21.816406 44.40625 21.402344 44.820312 21.402344 45.332031 C 21.402344 45.847656 21.816406 46.257812 22.332031 46.257812 L 24.195312 46.257812 C 24.710938 46.257812 25.125 45.847656 25.125 45.332031 C 25.125 44.820312 24.710938 44.40625 24.195312 44.40625 Z M 27.917969 44.40625 C 27.402344 44.40625 26.984375 44.820312 26.984375 45.332031 C 26.984375 45.847656 27.402344 46.257812 27.917969 46.257812 L 29.777344 46.257812 C 30.292969 46.257812 30.710938 45.847656 30.710938 45.332031 C 30.710938 44.820312 30.292969 44.40625 29.777344 44.40625 Z M 12.09375 46.210938 L 17.679688 46.210938 L 17.679688 53.613281 L 12.09375 53.613281 Z M 22.332031 48.109375 C 21.816406 48.109375 21.402344 48.519531 21.402344 49.035156 C 21.402344 49.546875 21.816406 49.957031 22.332031 49.957031 L 24.195312 49.957031 C 24.710938 49.957031 25.125 49.546875 25.125 49.035156 C 25.125 48.519531 24.710938 48.109375 24.195312 48.109375 Z M 27.917969 48.109375 C 27.402344 48.109375 26.984375 48.519531 26.984375 49.035156 C 26.984375 49.546875 27.402344 49.957031 27.917969 49.957031 L 29.777344 49.957031 C 30.292969 49.957031 30.710938 49.546875 30.710938 49.035156 C 30.710938 48.519531 30.292969 48.109375 29.777344 48.109375 Z M 27.917969 48.109375 " fill-opacity="1" fill-rule="nonzero"/></g></svg>