<svg xmlns="http://www.w3.org/2000/svg" xmlns:xlink="http://www.w3.org/1999/xlink" width="75" zoomAndPan="magnify" viewBox="0 0 56.25 56.249997" height="75" preserveAspectRatio="xMidYMid meet" version="1.0"><defs><clipPath id="52809e2eee"><path d="M 0 9.089844 L 54 9.089844 L 54 46 L 0 46 Z M 0 9.089844 " clip-rule="nonzero"/></clipPath></defs><g clip-path="url(#52809e2eee)"><path fill="#ff385c" d="M 53.855469 37.675781 C 51.882812 28.871094 43.878906 9.660156 28.808594 9.757812 C 15.816406 9.214844 4.691406 17.796875 0.320312 24.566406 C 0.03125 25.015625 0.230469 25.671875 0.730469 25.882812 C 0.730469 25.882812 4.058594 27.382812 4.058594 27.382812 C 3.53125 33.808594 8.101562 41.441406 10.144531 44.5 C 10.730469 45.375 11.714844 45.898438 12.777344 45.898438 L 47.777344 45.898438 C 48.964844 45.898438 50.058594 45.351562 50.78125 44.402344 C 51.925781 42.890625 53.054688 40.785156 53.621094 39.660156 C 53.933594 39.046875 54.015625 38.34375 53.855469 37.675781 Z M 52.054688 38.105469 C 52.191406 38.753906 51.746094 39.167969 51.46875 39.789062 C 51.46875 39.789062 49.15625 39.789062 49.15625 39.789062 C 48.90625 39.789062 48.707031 39.585938 48.707031 39.339844 L 48.707031 37.894531 C 50.125 37.796875 51.230469 37.6875 51.925781 37.605469 C 51.976562 37.789062 52.015625 37.960938 52.054688 38.105469 Z M 27.933594 23.984375 L 31.589844 35.382812 C 30.699219 35.238281 29.800781 35.074219 28.910156 34.882812 C 22.808594 33.585938 20.875 30.28125 21.101562 27.621094 C 21.25 25.863281 22.347656 24.386719 23.546875 24.335938 C 24.921875 24.277344 26.40625 24.152344 27.933594 23.984375 Z M 33.628906 35.671875 L 29.808594 23.761719 C 30.996094 23.617188 32.203125 23.433594 33.371094 23.261719 C 33.371094 23.261719 37.472656 36.046875 37.472656 36.046875 C 36.222656 35.960938 34.933594 35.835938 33.628906 35.671875 Z M 39.421875 36.15625 C 39.414062 36.105469 39.421875 36.050781 39.402344 36 L 35.21875 22.964844 C 39.523438 22.253906 43.230469 21.480469 44.632812 21.179688 C 48.265625 26.308594 50.390625 32.28125 51.429688 35.804688 C 49.457031 36.015625 44.894531 36.394531 39.421875 36.15625 Z M 43.402344 19.554688 C 42.320312 19.78125 40.6875 20.109375 38.75 20.46875 C 37.28125 18.597656 31.367188 12.792969 15.5 14.242188 C 19.175781 12.605469 23.59375 11.492188 28.769531 11.597656 C 35.085938 11.722656 39.859375 15.164062 43.402344 19.554688 Z M 49.300781 43.292969 C 48.933594 43.777344 48.375 44.058594 47.777344 44.058594 L 12.777344 44.058594 C 12.335938 44.058594 11.929688 43.84375 11.691406 43.484375 C 10.128906 41.148438 5.097656 33.050781 5.972656 26.953125 C 6.03125 26.546875 5.8125 26.152344 5.4375 25.984375 L 2.503906 24.660156 C 3.664062 23.085938 6.515625 19.628906 11.058594 16.664062 C 27.339844 13.996094 34.289062 18.628906 36.589844 20.859375 C 32.421875 21.585938 27.421875 22.324219 23.464844 22.496094 C 21.296875 22.59375 19.484375 24.726562 19.253906 27.46875 C 18.613281 37.617188 35.292969 37.957031 42.976562 38.089844 C 44.382812 38.089844 45.683594 38.050781 46.851562 38 L 46.851562 39.339844 C 46.851562 40.601562 47.886719 41.628906 49.15625 41.628906 L 50.417969 41.628906 C 50.0625 42.214844 49.679688 42.792969 49.300781 43.292969 Z M 49.300781 43.292969 " fill-opacity="1" fill-rule="nonzero"/></g></svg>