<svg xmlns="http://www.w3.org/2000/svg" xmlns:xlink="http://www.w3.org/1999/xlink" width="75" zoomAndPan="magnify" viewBox="0 0 56.25 56.249997" height="75" preserveAspectRatio="xMidYMid meet" version="1.0"><defs><clipPath id="adcbcc57dd"><path d="M 0 0 L 55.511719 0 L 55.511719 55.511719 L 0 55.511719 Z M 0 0 " clip-rule="nonzero"/></clipPath></defs><g clip-path="url(#adcbcc57dd)"><path fill="#ff385c" d="M 17.710938 17.710938 C 18.011719 17.925781 18.359375 18.011719 18.707031 18.011719 C 18.921875 18.011719 19.136719 17.96875 19.3125 17.882812 L 21 17.234375 C 22.34375 16.714844 22.992188 15.199219 22.515625 13.855469 L 20.828125 9.308594 C 20.4375 8.3125 19.484375 7.621094 18.402344 7.621094 C 18.097656 7.621094 17.753906 7.664062 17.449219 7.792969 L 15.632812 8.488281 C 15.15625 8.660156 14.808594 9.050781 14.636719 9.527344 C 14.375 9.394531 14.117188 9.308594 13.8125 9.308594 C 13.597656 9.308594 13.378906 9.351562 13.207031 9.4375 L 5.414062 12.46875 C 4.675781 12.6875 0.171875 14.546875 0 21.214844 C 0 21.996094 0.476562 22.6875 1.210938 22.90625 C 1.386719 22.949219 1.558594 22.992188 1.730469 22.992188 C 2.292969 22.992188 2.859375 22.6875 3.203125 22.210938 C 3.765625 21.347656 5.457031 19.3125 7.402344 18.835938 L 8.832031 20.523438 C 9.179688 20.914062 9.65625 21.128906 10.132812 21.128906 C 10.347656 21.128906 10.566406 21.085938 10.738281 21 L 10.867188 20.957031 L 12.945312 26.542969 L 9.09375 26.542969 C 8.574219 26.542969 8.054688 26.800781 7.707031 27.191406 C 7.359375 27.625 7.273438 28.144531 7.402344 28.664062 L 8.269531 32.128906 C 8.398438 32.5625 8.660156 32.949219 9.050781 33.167969 L 11.691406 53.949219 C 11.820312 54.816406 12.558594 55.464844 13.421875 55.464844 L 42 55.464844 C 42.867188 55.464844 43.601562 54.816406 43.734375 53.949219 L 46.375 33.167969 C 46.761719 32.949219 47.023438 32.5625 47.152344 32.128906 L 48.019531 28.664062 C 48.148438 28.144531 48.019531 27.582031 47.714844 27.191406 C 47.371094 26.757812 46.894531 26.542969 46.332031 26.542969 L 45.507812 26.542969 L 46.285156 24.421875 C 46.460938 24.464844 46.675781 24.464844 46.851562 24.464844 C 48.105469 24.464844 49.230469 23.726562 49.664062 22.558594 L 50.445312 20.566406 C 50.617188 20.132812 50.617188 19.65625 50.402344 19.226562 C 50.183594 18.792969 49.882812 18.488281 49.449219 18.316406 C 49.449219 18.316406 49.40625 18.316406 49.40625 18.316406 C 49.40625 18.316406 49.363281 18.316406 49.363281 18.273438 C 49.363281 18.273438 49.363281 18.230469 49.363281 18.230469 C 49.363281 18.1875 49.449219 18.1875 49.449219 18.1875 C 49.449219 18.1875 49.449219 18.1875 49.492188 18.1875 C 49.492188 18.1875 49.535156 18.1875 49.535156 18.1875 C 49.75 18.273438 49.925781 18.316406 50.140625 18.316406 C 50.832031 18.316406 51.484375 17.882812 51.742188 17.234375 L 55.078125 8.789062 C 55.511719 7.707031 55.464844 6.539062 54.992188 5.5 C 54.515625 4.460938 53.648438 3.636719 52.566406 3.203125 L 50.140625 2.292969 C 49.621094 2.121094 49.101562 1.992188 48.582031 1.992188 C 46.761719 1.992188 45.203125 3.074219 44.511719 4.71875 L 41.179688 13.164062 C 40.832031 14.027344 41.265625 15.023438 42.128906 15.414062 C 42.171875 15.414062 42.21875 15.457031 42.171875 15.5 C 42.171875 15.542969 42.085938 15.542969 42.085938 15.542969 C 42.085938 15.542969 42.042969 15.542969 42.042969 15.542969 C 41.871094 15.457031 41.652344 15.457031 41.480469 15.457031 C 40.789062 15.457031 40.136719 15.890625 39.878906 16.539062 L 39.097656 18.53125 C 38.796875 19.269531 38.839844 20.089844 39.144531 20.828125 C 39.445312 21.519531 39.964844 22.039062 40.65625 22.34375 L 39.097656 26.542969 L 34.640625 26.542969 L 34.640625 13.550781 C 37.019531 12.167969 38.535156 9.65625 38.535156 6.929688 C 38.535156 4.15625 37.0625 1.6875 34.554688 0.261719 C 34.292969 0.0859375 33.988281 0.0429688 33.6875 0.0429688 C 33.382812 0.0429688 33.082031 0.128906 32.820312 0.261719 C 32.300781 0.5625 31.953125 1.125 31.953125 1.773438 L 31.953125 5.671875 L 30.179688 6.496094 L 28.449219 5.671875 L 28.449219 1.90625 C 28.449219 1.300781 28.101562 0.691406 27.539062 0.390625 C 27.277344 0.261719 26.976562 0.171875 26.714844 0.171875 C 26.414062 0.171875 26.066406 0.261719 25.804688 0.433594 C 23.46875 1.863281 22.082031 4.328125 22.082031 6.972656 C 22.082031 9.699219 23.597656 12.210938 25.980469 13.597656 L 25.980469 26.542969 L 20.089844 26.542969 L 17.101562 18.574219 C 17.40625 18.316406 17.621094 18.011719 17.710938 17.710938 Z M 42 53.734375 L 13.421875 53.734375 L 10.824219 33.425781 L 44.597656 33.425781 Z M 40.789062 19.136719 L 41.566406 17.148438 C 41.785156 17.234375 42 17.234375 42.171875 17.234375 C 42.910156 17.234375 43.601562 16.800781 43.90625 16.0625 C 44.253906 15.15625 43.820312 14.117188 42.910156 13.726562 L 46.242188 5.28125 C 46.632812 4.242188 47.628906 3.636719 48.667969 3.636719 C 48.972656 3.636719 49.316406 3.679688 49.621094 3.808594 L 52.046875 4.71875 C 53.386719 5.238281 54.082031 6.710938 53.5625 8.054688 L 50.226562 16.496094 C 50.226562 16.496094 50.183594 16.496094 50.183594 16.496094 C 49.96875 16.410156 49.75 16.367188 49.535156 16.367188 C 48.796875 16.367188 48.105469 16.800781 47.800781 17.535156 C 47.457031 18.445312 47.890625 19.527344 48.839844 19.875 C 48.839844 19.875 48.886719 19.875 48.886719 19.875 L 48.105469 21.867188 C 47.890625 22.386719 47.414062 22.6875 46.894531 22.6875 C 46.71875 22.6875 46.589844 22.644531 46.417969 22.601562 L 41.523438 20.742188 C 40.875 20.523438 40.527344 19.789062 40.789062 19.136719 Z M 44.683594 23.859375 L 43.6875 26.542969 L 41.003906 26.542969 L 42.347656 22.992188 Z M 23.816406 6.929688 C 23.816406 4.804688 24.984375 2.945312 26.714844 1.863281 L 26.714844 6.753906 L 30.222656 8.398438 L 33.730469 6.753906 L 33.730469 1.773438 C 35.59375 2.859375 36.847656 4.761719 36.847656 6.929688 C 36.847656 9.394531 35.246094 11.5625 32.949219 12.46875 L 32.949219 26.5 L 27.710938 26.5 L 27.710938 12.511719 C 25.417969 11.5625 23.816406 9.4375 23.816406 6.929688 Z M 46.332031 28.230469 L 45.464844 31.695312 L 9.957031 31.695312 L 9.09375 28.230469 Z M 16.0625 17.148438 L 14.9375 17.710938 L 18.230469 26.5 L 14.808594 26.5 L 11.90625 18.660156 L 10.132812 19.355469 L 8.097656 16.972656 C 4.460938 17.058594 1.730469 21.261719 1.730469 21.261719 C 1.863281 15.371094 5.976562 14.074219 5.976562 14.074219 L 13.8125 11.042969 L 15.371094 12.730469 L 16.453125 12.296875 L 16.238281 10.089844 L 18.054688 9.394531 C 18.140625 9.351562 18.273438 9.351562 18.359375 9.351562 C 18.707031 9.351562 19.050781 9.570312 19.183594 9.914062 L 20.871094 14.460938 C 21.042969 14.9375 20.828125 15.414062 20.351562 15.585938 L 18.660156 16.238281 L 17.320312 14.679688 L 16.019531 15.199219 Z M 16.0625 17.148438 " fill-opacity="1" fill-rule="nonzero"/></g></svg>