<svg xmlns="http://www.w3.org/2000/svg" xmlns:xlink="http://www.w3.org/1999/xlink" width="75" zoomAndPan="magnify" viewBox="0 0 56.25 56.249997" height="75" preserveAspectRatio="xMidYMid meet" version="1.0"><defs><clipPath id="a461bed0f2"><path d="M 6.070312 0 L 49.738281 0 L 49.738281 55.511719 L 6.070312 55.511719 Z M 6.070312 0 " clip-rule="nonzero"/></clipPath></defs><g clip-path="url(#a461bed0f2)"><path fill="#ff385c" d="M 49.734375 20.789062 C 49.734375 19.226562 48.902344 17.835938 47.636719 17.054688 C 47.722656 16.710938 47.769531 16.363281 47.769531 16.058594 C 47.769531 13.671875 45.84375 11.71875 43.441406 11.71875 C 43.179688 11.71875 42.917969 11.761719 42.699219 11.804688 C 42.347656 10.546875 41.429688 9.546875 40.25 9.027344 C 40.382812 8.636719 40.425781 8.246094 40.425781 7.8125 C 40.425781 5.292969 38.285156 3.296875 35.792969 3.472656 C 35.007812 2.34375 33.695312 1.691406 32.296875 1.691406 C 32.035156 1.691406 31.730469 1.734375 31.46875 1.78125 C 30.679688 0.652344 29.371094 0 27.972656 0 C 27.972656 0 27.925781 0 27.925781 0 C 27.925781 0 27.882812 0 27.882812 0 C 26.484375 0 25.21875 0.652344 24.386719 1.78125 C 24.082031 1.691406 23.777344 1.648438 23.511719 1.648438 C 22.113281 1.648438 20.804688 2.34375 20.015625 3.429688 C 17.527344 3.253906 15.382812 5.25 15.382812 7.769531 C 15.382812 8.160156 15.429688 8.59375 15.558594 8.984375 C 14.378906 9.503906 13.503906 10.503906 13.113281 11.761719 C 12.851562 11.71875 12.585938 11.675781 12.371094 11.675781 C 9.964844 11.675781 8.042969 13.628906 8.042969 16.015625 C 8.042969 16.363281 8.085938 16.710938 8.175781 17.011719 C 6.863281 17.792969 6.078125 19.183594 6.078125 20.746094 C 6.078125 22.613281 7.257812 24.21875 8.917969 24.824219 C 8.566406 25.476562 8.390625 26.171875 8.390625 26.910156 C 8.390625 29.121094 10.054688 30.945312 12.152344 31.207031 C 12.324219 33.417969 14.203125 35.199219 16.476562 35.199219 C 17.265625 35.199219 18.050781 34.980469 18.707031 34.589844 C 19.363281 36.152344 20.890625 37.238281 22.683594 37.238281 C 23.6875 37.238281 24.648438 36.890625 25.390625 36.285156 C 25.261719 42.140625 23.90625 49.605469 18.007812 53.773438 L 12.585938 53.773438 C 12.105469 53.773438 11.714844 54.164062 11.714844 54.640625 C 11.714844 55.121094 12.105469 55.511719 12.585938 55.511719 L 43.179688 55.511719 C 43.660156 55.511719 44.054688 55.121094 44.054688 54.640625 C 44.054688 54.164062 43.660156 53.773438 43.179688 53.773438 L 37.761719 53.773438 C 31.859375 49.605469 30.503906 42.140625 30.460938 36.328125 C 31.203125 36.933594 32.121094 37.28125 33.171875 37.28125 C 34.964844 37.28125 36.492188 36.195312 37.148438 34.632812 C 37.804688 35.023438 38.546875 35.242188 39.378906 35.242188 C 41.648438 35.242188 43.484375 33.503906 43.703125 31.25 C 45.84375 30.988281 47.460938 29.121094 47.460938 26.953125 C 47.460938 26.214844 47.285156 25.519531 46.9375 24.867188 C 48.554688 24.261719 49.734375 22.65625 49.734375 20.789062 Z M 45.539062 23.394531 C 45.015625 23.046875 43.789062 22.523438 42.128906 22.914062 C 41.648438 23.046875 41.386719 23.480469 41.476562 23.957031 C 41.605469 24.433594 42.042969 24.695312 42.523438 24.609375 C 43.835938 24.304688 44.621094 24.914062 44.707031 24.957031 C 44.753906 24.957031 44.753906 25 44.796875 25 C 45.363281 25.476562 45.671875 26.214844 45.671875 26.953125 C 45.671875 28.382812 44.535156 29.554688 43.089844 29.554688 C 43.003906 29.554688 42.917969 29.554688 42.828125 29.554688 C 42.566406 29.511719 42.304688 29.644531 42.128906 29.816406 C 41.957031 29.988281 41.867188 30.292969 41.910156 30.554688 C 41.910156 30.683594 41.957031 30.816406 41.957031 30.902344 C 41.957031 32.332031 40.820312 33.503906 39.378906 33.503906 C 38.589844 33.503906 37.847656 33.113281 37.324219 32.464844 C 37.105469 32.160156 36.710938 32.03125 36.363281 32.160156 C 36.011719 32.289062 35.75 32.59375 35.75 32.984375 C 35.707031 34.417969 34.570312 35.546875 33.171875 35.546875 C 31.730469 35.546875 30.59375 34.375 30.59375 32.941406 C 30.59375 32.941406 30.59375 32.898438 30.59375 32.898438 C 30.59375 32.636719 30.636719 32.421875 30.636719 32.160156 C 30.679688 31.683594 30.332031 31.25 29.851562 31.207031 C 29.371094 31.160156 28.933594 31.507812 28.886719 31.988281 C 28.363281 37.714844 28.539062 47.699219 35.007812 53.773438 L 20.761719 53.773438 C 27.226562 47.742188 27.402344 37.714844 26.878906 31.988281 C 26.835938 31.507812 26.398438 31.160156 25.917969 31.207031 C 25.4375 31.25 25.085938 31.683594 25.128906 32.160156 C 25.175781 32.378906 25.175781 32.636719 25.175781 32.898438 C 25.175781 32.898438 25.175781 32.941406 25.175781 32.941406 C 25.175781 33.246094 25.128906 33.550781 25.042969 33.808594 C 24.691406 34.851562 23.6875 35.546875 22.59375 35.546875 C 21.195312 35.546875 20.0625 34.417969 20.015625 32.984375 C 20.015625 32.59375 19.753906 32.289062 19.40625 32.160156 C 19.054688 32.03125 18.664062 32.160156 18.445312 32.464844 C 17.964844 33.113281 17.21875 33.503906 16.390625 33.503906 C 14.949219 33.503906 13.8125 32.332031 13.8125 30.902344 C 13.8125 30.816406 13.8125 30.683594 13.855469 30.554688 C 13.898438 30.292969 13.8125 30.035156 13.636719 29.816406 C 13.460938 29.644531 13.199219 29.511719 12.9375 29.554688 C 12.851562 29.554688 12.761719 29.554688 12.675781 29.554688 C 11.234375 29.554688 10.097656 28.382812 10.097656 26.953125 C 10.097656 26.171875 10.445312 25.433594 11.058594 24.914062 C 11.058594 24.914062 11.886719 24.261719 13.199219 24.566406 C 13.679688 24.695312 14.160156 24.390625 14.25 23.914062 C 14.378906 23.4375 14.074219 22.960938 13.59375 22.871094 C 11.933594 22.480469 10.707031 23.046875 10.183594 23.351562 C 8.828125 23.261719 7.78125 22.132812 7.78125 20.746094 C 7.78125 19.617188 8.480469 18.664062 9.527344 18.273438 C 9.746094 18.183594 9.964844 18.011719 10.054688 17.792969 C 10.140625 17.578125 10.140625 17.316406 10.054688 17.101562 C 9.878906 16.753906 9.789062 16.363281 9.789062 15.972656 C 9.789062 14.539062 10.925781 13.367188 12.371094 13.367188 C 12.761719 13.367188 13.113281 13.453125 13.460938 13.628906 C 13.722656 13.757812 14.03125 13.757812 14.292969 13.585938 C 14.554688 13.410156 14.683594 13.152344 14.730469 12.847656 C 14.773438 11.589844 15.691406 10.546875 16.914062 10.328125 C 17.175781 10.285156 17.4375 10.113281 17.570312 9.851562 C 17.699219 9.589844 17.699219 9.289062 17.527344 9.027344 C 17.308594 8.636719 17.175781 8.160156 17.175781 7.726562 C 17.175781 6.121094 18.664062 4.816406 20.324219 5.164062 C 20.714844 5.25 21.109375 5.078125 21.285156 4.730469 C 21.722656 3.863281 22.59375 3.34375 23.558594 3.34375 C 23.863281 3.34375 24.167969 3.386719 24.476562 3.515625 C 24.910156 3.6875 25.390625 3.472656 25.566406 3.082031 C 26.003906 2.171875 26.878906 1.648438 27.839844 1.648438 C 27.796875 1.691406 27.882812 1.691406 27.882812 1.691406 C 27.925781 1.691406 27.925781 1.691406 27.925781 1.691406 C 28.886719 1.691406 29.804688 2.257812 30.242188 3.125 C 30.460938 3.515625 30.941406 3.734375 31.335938 3.558594 C 31.640625 3.429688 31.949219 3.386719 32.253906 3.386719 C 33.214844 3.386719 34.089844 3.90625 34.527344 4.773438 C 34.699219 5.121094 35.09375 5.292969 35.488281 5.207031 C 37.148438 4.859375 38.632812 6.121094 38.632812 7.769531 C 38.632812 8.246094 38.503906 8.679688 38.285156 9.070312 C 38.152344 9.332031 38.109375 9.636719 38.242188 9.894531 C 38.371094 10.15625 38.589844 10.328125 38.894531 10.371094 C 40.121094 10.589844 41.039062 11.632812 41.082031 12.890625 C 41.082031 13.195312 41.257812 13.453125 41.519531 13.628906 C 41.78125 13.800781 42.085938 13.800781 42.347656 13.671875 C 42.699219 13.496094 43.046875 13.410156 43.441406 13.410156 C 44.882812 13.410156 46.019531 14.582031 46.019531 16.015625 C 46.019531 16.40625 45.933594 16.753906 45.757812 17.144531 C 45.671875 17.359375 45.671875 17.621094 45.757812 17.835938 C 45.84375 18.054688 46.019531 18.226562 46.28125 18.316406 C 47.332031 18.664062 48.03125 19.660156 48.03125 20.789062 C 47.984375 22.179688 46.894531 23.304688 45.539062 23.394531 Z M 45.539062 23.394531 " fill-opacity="1" fill-rule="nonzero"/></g><path fill="#ff385c" d="M 27.226562 15.015625 C 27.140625 15.148438 24.824219 17.835938 24.824219 21.222656 C 24.824219 24.609375 27.140625 27.300781 27.226562 27.429688 C 27.402344 27.601562 27.621094 27.734375 27.882812 27.734375 C 28.144531 27.734375 28.363281 27.601562 28.539062 27.429688 C 28.625 27.300781 30.941406 24.609375 30.941406 21.222656 C 30.941406 17.835938 28.625 15.148438 28.539062 15.015625 C 28.234375 14.625 27.535156 14.625 27.226562 15.015625 Z M 27.882812 25.347656 C 27.316406 24.433594 26.574219 22.914062 26.574219 21.222656 C 26.574219 19.53125 27.316406 18.011719 27.882812 17.101562 C 28.453125 18.011719 29.195312 19.53125 29.195312 21.222656 C 29.195312 22.914062 28.453125 24.433594 27.882812 25.347656 Z M 27.882812 25.347656 " fill-opacity="1" fill-rule="nonzero"/><path fill="#ff385c" d="M 37.890625 21.222656 C 37.761719 21.222656 34.964844 21.441406 33.082031 23.304688 C 31.203125 25.171875 30.984375 27.992188 30.984375 28.082031 C 30.984375 28.339844 31.074219 28.558594 31.25 28.730469 C 31.378906 28.949219 31.597656 29.035156 31.816406 29.035156 C 31.816406 29.035156 31.859375 29.035156 31.859375 29.035156 C 31.992188 29.035156 34.789062 28.816406 36.667969 26.953125 C 38.546875 25.085938 38.765625 22.265625 38.765625 22.179688 C 38.765625 21.917969 38.679688 21.699219 38.503906 21.527344 C 38.371094 21.308594 38.152344 21.222656 37.890625 21.222656 Z M 35.445312 25.695312 C 34.65625 26.472656 33.652344 26.863281 32.867188 27.082031 C 33.082031 26.300781 33.476562 25.304688 34.265625 24.523438 C 35.050781 23.742188 36.054688 23.351562 36.84375 23.132812 C 36.625 23.914062 36.230469 24.957031 35.445312 25.695312 Z M 35.445312 25.695312 " fill-opacity="1" fill-rule="nonzero"/><path fill="#ff385c" d="M 22.726562 23.304688 C 20.847656 21.441406 18.007812 21.222656 17.917969 21.222656 C 17.65625 21.222656 17.4375 21.308594 17.265625 21.484375 C 17.089844 21.65625 17 21.917969 17 22.132812 C 17 22.265625 17.21875 25.042969 19.097656 26.910156 C 20.980469 28.773438 23.820312 28.992188 23.90625 28.992188 C 23.90625 28.992188 23.949219 28.992188 23.949219 28.992188 C 24.167969 28.992188 24.386719 28.90625 24.5625 28.730469 C 24.738281 28.558594 24.824219 28.296875 24.824219 28.082031 C 24.824219 27.992188 24.605469 25.214844 22.726562 23.304688 Z M 22.859375 27.082031 C 22.070312 26.863281 21.066406 26.472656 20.277344 25.695312 C 19.492188 24.914062 19.097656 23.914062 18.878906 23.132812 C 19.667969 23.351562 20.671875 23.742188 21.460938 24.523438 C 22.246094 25.304688 22.640625 26.300781 22.859375 27.082031 Z M 22.859375 27.082031 " fill-opacity="1" fill-rule="nonzero"/><path fill="#ff385c" d="M 20.453125 19.488281 C 21.894531 19.488281 23.078125 18.316406 23.078125 16.882812 C 23.078125 15.449219 21.894531 14.277344 20.453125 14.277344 C 19.011719 14.277344 17.832031 15.449219 17.832031 16.882812 C 17.832031 18.316406 19.011719 19.488281 20.453125 19.488281 Z M 20.453125 16.015625 C 20.933594 16.015625 21.328125 16.40625 21.328125 16.882812 C 21.328125 17.359375 20.933594 17.75 20.453125 17.75 C 19.972656 17.75 19.578125 17.359375 19.578125 16.882812 C 19.578125 16.40625 19.972656 16.015625 20.453125 16.015625 Z M 20.453125 16.015625 " fill-opacity="1" fill-rule="nonzero"/><path fill="#ff385c" d="M 34.875 19.488281 C 36.316406 19.488281 37.496094 18.316406 37.496094 16.882812 C 37.496094 15.449219 36.316406 14.277344 34.875 14.277344 C 33.433594 14.277344 32.253906 15.449219 32.253906 16.882812 C 32.253906 18.316406 33.433594 19.488281 34.875 19.488281 Z M 34.875 16.015625 C 35.355469 16.015625 35.75 16.40625 35.75 16.882812 C 35.75 17.359375 35.355469 17.75 34.875 17.75 C 34.394531 17.75 34 17.359375 34 16.882812 C 34 16.40625 34.394531 16.015625 34.875 16.015625 Z M 34.875 16.015625 " fill-opacity="1" fill-rule="nonzero"/></svg>